<svg width="1072" height="800" fill="none" xmlns="http://www.w3.org/2000/svg"><g opacity=".4"><path d="M377.544 498.06c-.022-.264-.044-.55-.089-.814-.022-.155-.044-.309-.066-.485l-.066-.462a8.86 8.86 0 00-.154-.815c0-.044 0-.11-.022-.154 0-.066-.022-.132-.022-.221a65.963 65.963 0 00-.44-2.004 8.704 8.704 0 00-.176-.726" stroke="#F6FFFF" stroke-width="1.765" stroke-miterlimit="10"/><path d="M376.509 492.379l10.685-6.915-3.415-7.884-12.359 2.973m0 0a45.189 45.189 0 00-1.697-2.488.386.386 0 01-.088-.11c-.176-.221-.33-.441-.506-.661-.089-.132-.199-.242-.287-.374-.11-.132-.198-.265-.308-.375-.177-.22-.353-.44-.529-.638-.022-.044-.044-.088-.088-.11a38.911 38.911 0 00-2.027-2.247m0 0l5.794-11.319-6.896-5.153-9.231 8.787m0 0a50.364 50.364 0 00-2.71-1.321c-.044 0-.088-.022-.132-.044-.264-.111-.507-.221-.771-.331-.132-.066-.287-.11-.441-.176-.154-.066-.286-.11-.44-.176-.265-.088-.529-.198-.771-.286-.045-.022-.089-.044-.155-.044a32.922 32.922 0 00-2.864-.925m0 0l-.661-12.707-8.548-1.013-3.591 12.222m0 0c-.992.044-2.005.11-2.996.22-.067 0-.111 0-.155.022l-.661.067c-.044.022-.11.022-.154.022-.154.022-.308.044-.485.066-.154.022-.308.044-.462.088-.287.044-.551.088-.815.132-.044 0-.088 0-.111.022h-.044c-.991.176-1.96.396-2.952.638m0 .001l-6.918-10.681-7.887 3.413 2.974 12.354m0 0c-.198.133-.418.265-.617.419-.572.352-1.145.749-1.696 1.145-.044.044-.11.088-.176.132 0 .022-.022.022-.022.022-.022.022-.066.044-.088.066-.221.176-.441.331-.661.507-.133.088-.243.198-.375.286-.132.11-.264.198-.375.308-.044.044-.088.066-.132.11-.176.133-.33.265-.506.419a.488.488 0 00-.111.088 39.23 39.23 0 00-2.225 2.026m0 0l-11.346-5.77-5.155 6.893 8.79 9.205m0 0a52.283 52.283 0 00-1.322 2.709c0 .044-.022.088-.044.154-.11.242-.22.484-.33.748-.066.155-.11.287-.176.441-.066.154-.111.308-.177.44-.088.265-.198.529-.286.793-.022.044-.044.088-.044.132a33.012 33.012 0 00-.925 2.863m-.001 0l-12.712.661-1.013 8.544 12.227 3.589m0 .001c.044.99.11 2.003.221 3.016 0 .045 0 .089.022.133.022.264.066.55.088.814.022.155.044.331.066.485.022.154.044.308.088.484l.132.793c0 .044.022.11.022.154.177.991.397 1.982.639 2.951m0 0l-10.685 6.915 3.415 7.906 12.359-2.995m.001 0c.55.836 1.101 1.673 1.696 2.488.044.044.066.088.088.11.176.22.331.441.507.661.088.132.198.264.286.374.11.132.198.264.309.397.176.198.352.418.528.616a.456.456 0 00.089.11c.66.771 1.321 1.52 2.026 2.246m0 .001l-5.772 11.319 6.896 5.153 9.209-8.787m0 0c.881.462 1.785.903 2.71 1.321.044.022.088.022.132.044.265.11.507.221.771.331.154.066.287.11.441.176.154.066.308.11.463.176.242.11.506.198.749.286.066.022.11.044.154.044.947.353 1.895.661 2.864.925m0 0l.661 12.707 8.548 1.013 3.591-12.222m0 0a35.46 35.46 0 003.019-.22c.044 0 .088 0 .132-.022l.661-.067c.044 0 .11-.022.154-.022.154-.022.33-.044.485-.066.154-.022.308-.044.484-.066.265-.044.529-.088.793-.154.045 0 .089 0 .133-.022h.022a43.977 43.977 0 002.952-.638m0-.001l6.918 10.681 7.909-3.413-2.996-12.355m0 0a45.576 45.576 0 002.49-1.695c0-.022.022-.022.022-.022.022-.022.066-.044.088-.066.22-.154.44-.331.661-.507.132-.088.242-.198.374-.286.132-.11.265-.198.397-.308a.48.48 0 01.11-.088c.176-.155.352-.287.507-.419.044-.044.088-.066.11-.11a49.112 49.112 0 002.247-2.026m0 0l11.324 5.77 5.156-6.871-8.791-9.227m0 0c.463-.881.903-1.784 1.322-2.709.022-.044.022-.088.044-.132.11-.264.22-.506.331-.771 0 0 .022-.022.022-.044 0 0 0-.022.022-.044.044-.11.088-.242.132-.352.066-.154.132-.308.176-.44.11-.265.198-.529.286-.771a.308.308 0 00.045-.154c.352-.947.66-1.894.925-2.863m0 0l12.712-.661 1.013-8.544-12.227-3.59m0 0a34.27 34.27 0 00-.22-2.995c0-.066 0-.11-.022-.154m-27.386 35.763c-.22.088-.44.198-.661.286l-.595.265a.408.408 0 00-.154.044 34.465 34.465 0 01-15.84 2.312c-.045 0-.111 0-.155-.022l-.727-.066a6.328 6.328 0 00-.639-.088c-.066 0-.11-.022-.176-.022a34.13 34.13 0 01-14.849-5.924c-.066-.022-.11-.066-.154-.088-.199-.132-.375-.286-.573-.418l-.529-.397c-.044-.044-.088-.066-.132-.11a34.47 34.47 0 01-9.914-12.552c-.022-.044-.044-.11-.066-.154-.089-.221-.199-.441-.287-.661a6.63 6.63 0 01-.242-.595c-.022-.044-.044-.11-.066-.154a34.423 34.423 0 01-2.314-15.833c0-.044.022-.11.022-.154.022-.243.044-.485.089-.727.022-.22.044-.44.066-.639 0-.066.022-.11.022-.154a34.542 34.542 0 015.926-14.886c.022-.044.066-.088.088-.132l.397-.529c.132-.176.286-.374.44-.573.022-.044.067-.088.089-.132a34.662 34.662 0 0112.558-9.909c.066-.022.11-.044.154-.066.198-.088.418-.177.617-.265.22-.088.44-.176.639-.264.066-.022.11-.044.154-.066a34.451 34.451 0 0115.84-2.312c.067 0 .111.022.177.022l.661.066c.242.044.462.066.705.088.044 0 .088.022.154.022 5.354.771 10.443 2.819 14.871 5.924.044.022.088.066.132.088l.529.396c.198.154.375.286.573.419a.583.583 0 00.132.11 34.653 34.653 0 019.914 12.552c.022.066.044.11.066.154l.265.595c.088.22.176.44.286.66.022.066.022.11.044.155a34.421 34.421 0 012.314 15.833c0 .066 0 .11-.022.176-.022.22-.044.441-.066.639-.023.242-.045.484-.089.704 0 .066-.022.133-.022.177a34.184 34.184 0 01-5.926 14.864c-.022.044-.066.088-.088.132-.132.198-.287.375-.441.573-.132.176-.242.352-.374.528-.044.044-.067.088-.111.132a34.471 34.471 0 01-12.558 9.91c-.044.022-.11.044-.154.066v0z" stroke="#F6FFFF" stroke-width="1.765" stroke-miterlimit="10"/><path d="M69.918 409.952l.132 1.123c.044.221.066.441.11.661.022.198.044.418.088.639.066.374.11.748.176 1.101.022.066.022.132.044.198.022.11.022.198.044.308.177.903.375 1.828.595 2.731.067.33.155.661.243.969l-14.563 9.447 4.627 10.747 16.876-4.074a58.02 58.02 0 002.313 3.413c.044.044.066.088.11.154.22.286.44.595.683.881l.397.528c.132.177.286.353.418.507.243.308.463.595.705.881l.133.132a45.42 45.42 0 002.775 3.039l-7.887 15.459 9.386 7.003 12.558-11.958a52.564 52.564 0 003.723 1.784c.044.022.11.044.176.066.331.154.683.308 1.036.44.198.089.396.177.595.243.22.088.418.176.616.242.353.154.705.264 1.058.396.066.022.11.044.176.066 1.3.463 2.622.881 3.922 1.256l.903 17.308 11.633 1.366 4.891-16.626a51.893 51.893 0 004.12-.309c.066 0 .132 0 .176-.022.308-.022.617-.066.903-.11.066 0 .154-.022.221-.022.22-.022.44-.066.661-.088.22-.044.418-.066.638-.11.375-.044.75-.11 1.102-.176.066 0 .11-.022.154-.022.022 0 .044 0 .044-.022a49.018 49.018 0 004.032-.881l9.43 14.556 10.773-4.624-4.098-16.847c.287-.198.595-.374.859-.55a42.505 42.505 0 002.314-1.586.977.977 0 01.242-.176c0-.022.022-.022.022-.044a.46.46 0 00.132-.088c.309-.221.595-.441.904-.661.176-.154.33-.286.506-.418.177-.132.353-.265.529-.419.044-.044.11-.088.154-.132.243-.176.463-.374.705-.572.044-.044.088-.089.155-.133a71.39 71.39 0 003.04-2.752l15.444 7.861 7.006-9.381-11.963-12.552a56.423 56.423 0 001.784-3.7.786.786 0 01.089-.198c.132-.33.286-.682.418-1.013.088-.22.176-.418.265-.616.066-.199.154-.419.242-.617.132-.352.264-.705.374-1.057.022-.044.045-.11.067-.176.484-1.299.881-2.599 1.255-3.92l17.317-.903 1.388-11.627-16.656-4.889a51.292 51.292 0 00-.308-4.096c0-.066 0-.132-.022-.198-.022-.375-.088-.749-.132-1.123-.022-.221-.066-.419-.089-.639-.022-.22-.066-.44-.088-.661-.066-.374-.132-.726-.198-1.101 0-.066-.022-.132-.022-.198a81.15 81.15 0 00-.881-4.008l14.541-9.447-4.627-10.747-16.854 4.074a51.13 51.13 0 00-2.313-3.391c-.045-.066-.089-.11-.133-.176-.22-.286-.44-.595-.661-.881-.132-.176-.286-.352-.418-.528-.132-.177-.265-.331-.397-.507l-.727-.859c-.044-.066-.088-.11-.11-.154a61.507 61.507 0 00-2.776-3.039l7.887-15.459-9.407-7.003-12.558 11.98a57.735 57.735 0 00-3.701-1.806c-.067-.022-.111-.044-.177-.066-.352-.154-.683-.308-1.035-.44a7.164 7.164 0 00-.617-.243 5.14 5.14 0 00-.617-.242c-.33-.132-.683-.264-1.035-.396l-.199-.066a61.783 61.783 0 00-3.921-1.255l-.882-17.309-11.654-1.366-4.891 16.627a51.342 51.342 0 00-4.098.308c-.066 0-.132.022-.198.022-.309.022-.595.066-.904.11-.066 0-.132.022-.198.022-.22.022-.441.066-.661.088-.22.044-.441.066-.661.11-.352.044-.727.11-1.102.176-.044.022-.11.022-.154.022-.022.022-.022.022-.044.022a50.557 50.557 0 00-4.01.881l-9.451-14.556-10.752 4.625 4.076 16.868a57.615 57.615 0 00-3.392 2.312c-.023 0-.023 0-.045.022a.386.386 0 00-.11.088c-.308.221-.617.441-.903.683-.176.132-.353.264-.507.396-.176.133-.352.265-.528.419-.067.044-.11.088-.177.132-.22.176-.462.374-.683.573-.044.044-.11.088-.154.132a45.39 45.39 0 00-3.04 2.774l-15.466-7.883-6.985 9.381 11.964 12.552a71.502 71.502 0 00-1.807 3.7l-.066.198c-.154.33-.308.683-.44 1.035 0 0-.023.022-.023.044-.022.022-.022.044-.022.066-.066.154-.132.33-.198.484-.088.199-.154.419-.242.617l-.397 1.057c-.022.066-.044.11-.066.176a62.623 62.623 0 00-1.256 3.92l-17.317.903-1.366 11.627 16.634 4.889a63.39 63.39 0 00.309 4.096c0 .066.022.132.022.198zm37.321-48.711c.309-.154.595-.265.903-.397.265-.11.551-.242.816-.352.066-.022.154-.066.22-.088a46.563 46.563 0 0121.569-3.127h.242c.309.044.639.088.97.132.286.022.572.066.881.088.066.022.154.022.22.044 7.293 1.057 14.255 3.81 20.269 8.06.044.044.11.088.177.132.264.198.528.397.793.573.22.176.462.352.705.55.066.044.11.088.176.132a46.737 46.737 0 0113.505 17.111c.044.066.066.132.11.198.133.309.265.617.397.903.11.286.22.551.33.815a.64.64 0 01.089.22 46.875 46.875 0 013.15 21.581c0 .066-.022.132-.022.198-.044.331-.066.661-.11.991-.044.287-.066.595-.11.881 0 .066-.022.132-.022.198a46.839 46.839 0 01-8.086 20.282c-.044.066-.088.11-.132.176-.154.243-.353.485-.529.705-.198.264-.374.529-.573.793-.066.066-.11.11-.154.176a46.559 46.559 0 01-17.118 13.499c-.066.044-.133.066-.199.11-.286.11-.55.243-.837.353-.286.132-.595.264-.881.374a.781.781 0 01-.198.088 46.959 46.959 0 01-21.591 3.149c-.066-.022-.155-.022-.221-.022-.308-.044-.617-.066-.925-.11-.308-.044-.617-.066-.947-.11-.066-.022-.133-.022-.221-.044a46.783 46.783 0 01-20.247-8.06l-.198-.132c-.242-.176-.485-.352-.727-.551a66.443 66.443 0 01-.771-.572c-.044-.044-.11-.088-.176-.132a46.961 46.961 0 01-13.506-17.111c-.022-.066-.066-.132-.088-.198-.132-.264-.242-.551-.352-.815-.133-.308-.265-.595-.397-.903-.022-.066-.044-.132-.088-.22a46.473 46.473 0 01-3.129-21.559c0-.066 0-.154.022-.242.023-.287.067-.573.089-.881.044-.309.088-.639.132-.947 0-.088.022-.176.022-.242a46.894 46.894 0 018.063-20.238l.133-.198.594-.793c.177-.22.353-.463.53-.705.043-.044.087-.11.131-.176a46.966 46.966 0 0117.119-13.499.781.781 0 01.198-.088z" fill="#F6FFFF"/><path d="M436.083 615.964c.088.396.198.792.286 1.189.066.22.132.462.198.704.044.221.11.463.176.683l.331 1.189.066.198c.044.11.066.221.088.309a69.07 69.07 0 001.366 3.941m0 0l-14.651 12.068 6.389 11.121 17.824-6.518m0 0c.925 1.167 1.917 2.29 2.93 3.413.044.044.11.088.154.154.287.287.551.595.837.881l.507.507.507.506c.308.308.595.573.903.859.044.044.088.11.154.154 1.08 1.035 2.226 2.004 3.393 2.951m0 0l-6.653 17.771 11.082 6.453 12.161-14.557m0 0c.815.309 1.652.617 2.49.903a39.91 39.91 0 001.762.573c.066.022.154.044.221.066.396.11.771.22 1.167.352.243.066.463.11.705.176.221.067.463.133.683.199.397.088.793.198 1.19.286.088.022.154.044.22.044 1.454.352 2.93.639 4.407.881m-.001 0l3.151 18.718 12.822.044 3.239-18.696m0 0c1.476-.242 2.952-.507 4.428-.859a.648.648 0 00.199-.044c.33-.066.661-.154.969-.22.088-.022.154-.044.242-.066.221-.066.463-.11.683-.176.243-.066.463-.133.705-.199.397-.11.794-.22 1.168-.33.066-.022.11-.044.176-.044.022 0 .022-.022.044-.022a69.046 69.046 0 004.252-1.453m0 0l12.074 14.644 11.126-6.364-6.522-17.838m0 0a52.737 52.737 0 003.393-2.929c.022 0 .022-.022.044-.022l.133-.132c.286-.264.594-.55.881-.837l.507-.506c.176-.176.352-.33.506-.507.066-.066.132-.11.176-.176.243-.242.463-.462.683-.704a.532.532 0 01.155-.155c1.035-1.101 2.005-2.246 2.952-3.391m0 0l17.779 6.651 6.456-11.099-14.585-12.156" stroke="#F6FFFF" stroke-width="3.49" stroke-miterlimit="10" stroke-linecap="round" stroke-linejoin="round"/><path d="M554.811 624.552a57.828 57.828 0 001.498-4.25l.066-.198.33-1.19c.066-.22.132-.462.199-.682.044-.199.11-.375.154-.573 0-.022 0-.044.022-.066 0-.022 0-.044.022-.066.088-.396.198-.793.286-1.189.022-.066.022-.132.044-.198a62.98 62.98 0 00.882-4.427m0 0l18.727-3.127.022-12.816-18.705-3.259m0 0a63.195 63.195 0 00-.837-4.427c0-.066-.023-.132-.045-.198-.088-.396-.176-.793-.286-1.189a10.984 10.984 0 01-.176-.705c-.066-.242-.132-.462-.199-.704-.11-.397-.22-.771-.33-1.168l-.066-.198a69.65 69.65 0 00-1.454-4.272m0 0l14.651-12.068-6.389-11.121-17.824 6.541m0 0a61.488 61.488 0 00-2.93-3.414c-.044-.044-.088-.11-.154-.154-.265-.308-.551-.594-.838-.903-.176-.154-.33-.33-.506-.506-.177-.154-.331-.33-.507-.507a32.199 32.199 0 00-.881-.836 1.067 1.067 0 00-.177-.155 61.413 61.413 0 00-3.37-2.973m0 0l6.631-17.771-11.082-6.452-12.161 14.578m0 0c-1.388-.551-2.82-1.035-4.252-1.497-.066 0-.132-.022-.198-.044-.397-.133-.794-.243-1.19-.353-.22-.066-.463-.132-.683-.198-.242-.066-.463-.11-.705-.176-.397-.11-.793-.198-1.19-.308-.066 0-.132-.022-.22-.044a49.823 49.823 0 00-4.407-.859m.001 0l-3.129-18.718-12.822-.045-3.261 18.697m0 0c-1.476.22-2.952.506-4.428.837a.648.648 0 01-.199.044c-.33.088-.639.154-.969.242a.782.782 0 00-.22.044c-.243.066-.485.132-.705.198-.243.044-.463.11-.705.176-.397.11-.771.22-1.168.353-.066 0-.11.022-.176.044h-.044c-1.432.44-2.864.925-4.252 1.453m0 0l-12.074-14.644-11.126 6.386 6.544 17.815m0 0a61.127 61.127 0 00-3.415 2.929l-.044.044-.11.11c-.309.287-.595.551-.904.859-.176.154-.33.33-.506.485-.177.176-.331.352-.507.528-.066.044-.11.11-.176.154-.221.243-.441.485-.683.705-.044.066-.089.11-.155.176a72.967 72.967 0 00-2.952 3.391m0 0l-17.779-6.65-6.456 11.077 14.585 12.156m0 0a74.694 74.694 0 00-1.498 4.25c-.022.066-.022.132-.044.22-.132.374-.242.771-.353 1.167-.066.242-.132.463-.198.705-.066.22-.132.462-.176.683-.11.396-.198.792-.309 1.189a.782.782 0 01-.044.22c-.022.11-.044.22-.088.33a51.194 51.194 0 00-.771 4.074m0 0l-18.726 3.149-.044 12.817 18.704 3.237m0 0a62.03 62.03 0 00.837 4.426c.022.066.022.132.044.22m61.799 36.776c-.066 0-.154.022-.242.022h-.992c-.352 0-.705 0-1.057-.022h-.243c-7.446-.22-14.783-2.092-21.458-5.417m0 0l14.012-24.069m0 0c2.71 1.145 5.684 1.761 8.812 1.783 3.129 0 6.103-.616 8.813-1.717m0 0l13.858 24.135m0 0a51.352 51.352 0 01-21.503 5.286m-1.057-67.497c9.209.044 16.655 7.532 16.633 16.737-.022 9.183-7.534 16.626-16.722 16.604-9.209-.022-16.655-7.531-16.633-16.714.044-9.183 7.534-16.649 16.722-16.627v0zm11.412 36.754c.022-.022.065-.044.087-.066-.022.022-.065.044-.087.066zm33.135 4.383c-.044.066-.066.132-.11.22-.154.264-.33.55-.485.837a19.88 19.88 0 00-.55.925l-.132.198c-3.922 6.342-9.188 11.781-15.423 15.855m0 0l-13.836-24.135m0 0c4.715-3.634 8.02-9.051 8.857-15.239m0 0l27.848.088m0 0a51.042 51.042 0 01-6.169 21.251m-21.524-22.749v-.176.176zm5.089-44.043a51.189 51.189 0 0115.334 15.944c.044.088.088.154.132.22l.529.925c.154.286.33.573.484.859.045.066.067.132.111.22a51.075 51.075 0 016.036 21.273m0 0l-27.848-.088m0 0a23.106 23.106 0 00-8.768-15.283m0 0l13.99-24.07m-5.067 40.938c-.022-.066-.022-.132-.022-.176 0 .044 0 .11.022.176zm-11.501-18.608a.167.167 0 000 0zm-34.171-25.545a51.171 51.171 0 0121.481-5.285h2.533c7.447.22 14.784 2.092 21.459 5.439m0 0l-14.012 24.048m0 0a22.968 22.968 0 00-8.812-1.762 22.619 22.619 0 00-8.813 1.718m0 0l-13.836-24.158m11.125 25.479a.164.164 0 000 0zm-33.134-4.382c.044-.066.088-.154.11-.22.176-.308.374-.617.55-.947.155-.264.309-.551.485-.815.044-.066.088-.154.132-.22a51.445 51.445 0 0115.422-15.856m0 0l13.858 24.158m0 0c-4.736 3.611-8.041 9.029-8.878 15.217m0 0l-27.848-.088m0 0a51.375 51.375 0 016.169-21.229m33.025 44.461c-.044-.022-.066-.044-.11-.066.044.022.066.044.11.066zm-11.501-21.559c0-.066 0-.11.022-.176-.022.066-.022.11-.022.176zm-21.569 25.942c-.044-.089-.066-.155-.11-.221a51.164 51.164 0 01-6.036-21.272m0 0l27.848.088m-.001 0v-.022a23.16 23.16 0 008.769 15.305m0 0l-13.99 24.047m0 0a50.943 50.943 0 01-15.334-15.944c-.044-.066-.088-.154-.132-.22-.154-.264-.308-.55-.485-.837l-.528-.925m21.568-22.99v0zM587.66 805.15l-2.291-14.204-31.792-.286m0 0a117.733 117.733 0 00-2.6-7.069c-.044-.132-.11-.242-.154-.352a34.012 34.012 0 00-.793-1.872c-.154-.374-.331-.749-.485-1.123-.176-.374-.33-.727-.507-1.079a47.285 47.285 0 00-.881-1.872c-.044-.11-.11-.22-.154-.308a91.533 91.533 0 00-3.569-6.651m0 0l20.93-23.937-13.572-16.648-27.671 15.657m0 0a110.718 110.718 0 00-5.795-4.845 3.218 3.218 0 00-.286-.198 55.153 55.153 0 00-1.652-1.255c-.309-.242-.639-.463-.948-.705-.33-.242-.661-.484-.991-.705-.573-.396-1.124-.792-1.697-1.167-.088-.066-.198-.132-.308-.198a107.207 107.207 0 00-6.411-3.986m0 0l6.146-31.182-20.07-7.62-16.15 27.373" stroke="#F6FFFF" stroke-width="3.49" stroke-miterlimit="10" stroke-linecap="round" stroke-linejoin="round"/><path d="M475.96 720.918a118.206 118.206 0 00-7.425-1.299c-.11 0-.242-.022-.352-.044-.683-.088-1.366-.177-2.049-.243l-1.19-.132a22.536 22.536 0 00-1.212-.11c-.683-.066-1.366-.11-2.027-.176-.132 0-.264-.022-.374-.022a96.379 96.379 0 00-7.535-.22m0 0l-10.289-30.082-21.194 3.414-.287 31.777m0 0a125.331 125.331 0 00-7.094 2.598l-.33.132c-.507.221-1.014.419-1.52.639-.111.066-.243.11-.353.176-.375.154-.749.331-1.124.485-.352.176-.727.33-1.101.506-.617.287-1.234.573-1.851.881-.088.044-.176.066-.264.11-.022.022-.044.022-.066.044a95.496 95.496 0 00-6.632 3.568m0 0l-23.948-20.921-16.656 13.565 15.664 27.659m0 .001c-1.674 1.871-3.304 3.787-4.846 5.791-.022.022-.022.044-.045.044-.044.088-.11.154-.154.22-.44.551-.837 1.101-1.256 1.674-.242.308-.462.639-.705.947-.242.33-.484.661-.705.991-.088.11-.154.22-.242.33-.308.441-.617.903-.925 1.366-.066.088-.132.198-.199.308a107.151 107.151 0 00-3.987 6.408m0 0l-31.197-6.144-7.623 20.062 27.385 16.141m0 .001a104.67 104.67 0 00-.727 3.787m81.341 0c4.164-5.021 10.09-8.632 17.03-9.733m0 0c10.091-1.652 19.829 2.4 25.953 9.733l-25.953-9.733zm39.459-50.077c11.368 5.153 21.525 12.728 29.676 22.198.088.11.177.22.265.308.396.462.749.925 1.123 1.387.353.419.705.837 1.036 1.277l.264.331a86.119 86.119 0 0115.753 33.516m-48.734.793a38.738 38.738 0 00-15.973-16.23m0 0l16.59-43.58m-21.327 41.422c.066.022.132.044.176.066-.044-.022-.11-.044-.176-.066zm-63.429-32.922a85.81 85.81 0 0134.061-14.578c.132-.022.265-.044.419-.066.573-.11 1.167-.198 1.762-.309.529-.088 1.08-.176 1.609-.242.132-.022.264-.044.418-.066a86.248 86.248 0 0136.925 3.127m0 0l-16.567 43.559m-.001 0a38.696 38.696 0 00-15.047-.529 38.646 38.646 0 00-14.122 5.241m0 0l-29.457-36.137m25.359 39.066c-.066.044-.111.066-.155.11.044-.044.089-.066.155-.11zm-55.982 1.784l.132-.396c.22-.573.44-1.123.661-1.696.176-.484.374-.991.573-1.497.044-.133.11-.265.154-.397a86.05 86.05 0 0121.172-30.39m0 0l29.456 36.138m0 0a38.96 38.96 0 00-6.169 8.698m-48.91 0a87.99 87.99 0 012.93-10.46" stroke="#F6FFFF" stroke-width="3.49" stroke-miterlimit="10" stroke-linecap="round" stroke-linejoin="round"/><path d="M38.897 520.654l5.288-5.285M2.038 621.337l86.717-86.677m27.583 36.27l60.587-60.56M2.038 685.199l6.764-6.76-6.764 6.76zm174.446-110.526l23.156-23.144M2.038 749.039l10.51-10.504-10.51 10.504zm43.425-203.038l30.47-30.434m-73.895 73.86l8.593-8.588-8.593 8.588zm133.225-69.323l25.865-25.875M2.038 653.268l30.007-29.993-30.007 29.993zm59.089-59.062l52.898-52.873-52.898 52.873zm88.567-24.686l29.28-29.244M2.038 717.108l5.376-5.373-5.376 5.373zM199.199 583.9l55.475-55.472M2.038 780.971l19.74-19.732-19.74 19.732zM218.719 596.32l54.528-54.525M13.142 801.781l21.084-21.075-21.084 21.075zm222.211-190.178l20.952-20.942M41.695 805.15l7.8-7.773-7.8 7.773zm207.56-175.533l21.326-21.317m-10.377 42.303l46.619-46.597m-39.26 71.173l60.124-60.118m-57.701 89.627l27.892-27.879M262.65 743.93l48.734-48.711m-13.968 45.871l38.996-38.956M233.326 805.15l59.992-59.942-59.992 59.942zM42.18 533.339l27.34-27.329m71.846-7.994l5.266-5.263M2.038 637.302l93.15-93.107-93.15 93.107zm132.08-68.178l43.82-43.801m-175.9 175.82l4.957-4.955-4.957 4.955zm186.233-122.308l22.34-22.33M2.038 765.005l14.673-14.666-14.673 14.666zm225.339-161.396l30.845-30.83M25.744 805.15l15.775-15.767-15.775 15.767zm229.393-165.425l30.139-30.126m29.611 34.222l17.757-17.75m-63.12 63.092l25.777-25.743-25.777 25.743zM48.745 558.686l33.598-33.583M2.038 605.371l19.3-19.291-19.3 19.291zm92.753-28.87l80.856-80.797M2.038 669.234l12.382-12.399-12.382 12.399zm161.668-97.754l24.257-24.246M2.038 733.074l7.337-7.333-7.337 7.333zm207.296-143.338l54.638-54.614M6.291 792.664l21.348-21.339-21.348 21.339zm236.354-172.406l21.084-21.053M57.668 805.15l.485-.462-.485.462zm206.7-142.743l58.362-58.357m-54.528 118.365l31.153-31.138m-53.912 85.818l78.455-78.419m-9.342 41.269l31.858-31.866m-97.115 97.071l34.017-34.001-34.017 34.001zm82.398-66.373l12.91-12.926m-79.335 79.299l24.234-24.224-24.234 24.224zm15.972 0l16.172-16.164m-.198 16.164l8.129-8.126" stroke="#F6FFFF" stroke-width="2.607" stroke-miterlimit="10"/><path d="M298.275 679.738c-.132-1.035-.264-2.092-.441-3.127-.088-.617-.176-1.234-.286-1.85-.11-.617-.198-1.233-.309-1.828a131.584 131.584 0 00-.572-3.127c-.044-.176-.066-.352-.111-.551-.044-.264-.088-.55-.154-.836a178.076 178.076 0 00-1.762-7.708c-.243-.925-.485-1.85-.749-2.775" stroke="#F6FFFF" stroke-width="6.98" stroke-miterlimit="10"/><path d="M293.891 657.937l40.758-27.373-13.593-30.236-47.545 12.31" stroke="#F6FFFF" stroke-width="6.98" stroke-miterlimit="10"/><path d="M273.512 612.638c-2.115-3.237-4.341-6.43-6.698-9.513-.11-.154-.22-.308-.353-.462a104.763 104.763 0 00-1.938-2.489c-.397-.484-.771-.969-1.168-1.453-.397-.485-.793-.969-1.19-1.432a109.137 109.137 0 00-2.071-2.422c-.11-.132-.242-.286-.352-.419a162.757 162.757 0 00-7.998-8.478m0 0l21.635-44.087-26.922-19.379-35.009 34.42m0 0c-3.437-1.74-6.962-3.392-10.575-4.889-.154-.066-.33-.154-.506-.22-.97-.397-1.961-.793-2.953-1.189l-1.718-.661c-.595-.22-1.168-.44-1.763-.661-.991-.374-1.983-.704-2.974-1.057-.176-.066-.352-.132-.529-.176-3.701-1.277-7.424-2.378-11.17-3.369m0 0l-3.326-48.976-33.004-3.347-13.086 47.324m0 0c-3.878.198-7.733.551-11.611 1.035-.176.022-.353.044-.551.088-.837.11-1.674.198-2.533.33-.199.022-.397.066-.617.089-.617.11-1.234.198-1.851.308-.595.088-1.212.198-1.829.308-1.035.176-2.071.374-3.106.573-.154.022-.309.044-.441.066-.044.022-.088.022-.11.044-3.833.748-7.6 1.629-11.346 2.664m0 0l-27.386-40.761-30.249 13.609 12.316 47.522m0 0a75.196 75.196 0 00-2.402 1.586 162.494 162.494 0 00-6.433 4.58c-.22.176-.462.352-.683.529-.022.022-.066.044-.088.066-.11.088-.242.176-.352.264-.838.661-1.675 1.299-2.512 1.96-.485.374-.947.771-1.432 1.167l-1.454 1.189a9.888 9.888 0 01-.485.397 130.19 130.19 0 00-1.917 1.673c-.154.11-.286.22-.418.353a162.328 162.328 0 00-8.504 7.971m0 0l-21.812-10.68m0 212.177l1.41-.374m0 0c2.115 3.259 4.34 6.43 6.698 9.535.132.154.242.286.352.441.64.836 1.3 1.673 1.94 2.51.396.484.792.947 1.189 1.431.396.485.77.969 1.19 1.454.374.44.749.903 1.145 1.343m297.383 0l-31.175-31.667m0 0c1.74-3.457 3.393-6.981 4.891-10.57.066-.176.132-.352.22-.507.397-.991.793-1.96 1.19-2.95.022-.067.044-.111.066-.177.022-.066.044-.11.066-.176l.529-1.387c.22-.573.441-1.167.661-1.74.352-.991.705-2.004 1.057-2.995.066-.176.133-.352.177-.528 1.255-3.678 2.379-7.4 3.348-11.143m0 0l48.999-3.325 3.349-32.989-47.324-13.102m-.001-.001c-.198-3.853-.55-7.729-1.035-11.583-.022-.198-.066-.374-.088-.572M58.77 805.15a132.55 132.55 0 01-38.908-47.698c-.088-.199-.176-.375-.264-.573a132.83 132.83 0 01-1.146-2.554c-.353-.749-.705-1.52-1.036-2.269-.066-.198-.154-.396-.242-.594a132.331 132.331 0 01-9.87-60.934c0-.198.022-.396.044-.594.066-.925.176-1.872.264-2.797l.265-2.51c.022-.199.044-.397.088-.595 2.644-20.678 10.179-40.498 21.921-57.74.11-.155.22-.331.353-.507.485-.683.97-1.365 1.476-2.048a71.947 71.947 0 011.63-2.246c.11-.176.243-.331.375-.507a132.313 132.313 0 0147.853-39c.176-.11.374-.198.55-.286.793-.352 1.587-.705 2.358-1.057.837-.374 1.652-.749 2.49-1.101.197-.088.374-.176.572-.242a132.795 132.795 0 0160.961-9.888c.199.022.419.044.617.044.882.088 1.741.176 2.6.264.903.088 1.785.176 2.666.287l.639.066c20.665 2.664 40.494 10.174 57.723 21.911.176.132.352.242.528.352.705.507 1.388 1.013 2.093 1.52.727.528 1.476 1.035 2.203 1.585.155.133.331.265.507.375 16.568 12.64 29.985 29.068 39.018 47.83.088.199.198.375.286.573.353.749.683 1.519 1.036 2.29.375.837.771 1.696 1.124 2.533.088.198.176.396.242.594a132.462 132.462 0 019.892 60.89l-.066.682a96.87 96.87 0 01-.242 2.511c-.088.903-.177 1.806-.287 2.709l-.066.66a132.846 132.846 0 01-21.921 57.675c-.11.176-.243.352-.353.528-.529.771-1.101 1.52-1.63 2.268-.485.683-.969 1.344-1.476 2.026-.132.154-.243.331-.375.507a131.997 131.997 0 01-25.116 25.06" stroke="#F6FFFF" stroke-width="6.98" stroke-miterlimit="10"/><path d="M168.046 805.15a107.893 107.893 0 0015.026-5.461c54.792-24.62 79.225-88.967 54.594-143.712-24.631-54.768-88.985-79.19-143.778-54.57m0 0c-54.77 24.598-79.225 88.945-54.594 143.713 13.726 30.499 39.81 51.596 69.686 60.03L93.888 601.407z" stroke="#F6FFFF" stroke-width="6.98" stroke-miterlimit="10"/><path d="M92.213 752.497c-14.32 6.43-31.152.044-37.585-14.27-6.434-14.314-.044-31.139 14.276-37.569 14.32-6.452 31.153-.066 37.586 14.248 6.433 14.336.044 31.138-14.276 37.591zm83.963 31.865c-14.321 6.43-31.153.044-37.586-14.27s-.044-31.138 14.277-37.569c14.32-6.452 31.152-.044 37.585 14.27 6.434 14.314.044 31.139-14.276 37.569zm-44.548-80.731c-1.718-3.788-.022-8.258 3.768-9.954a7.536 7.536 0 019.958 3.788 7.517 7.517 0 01-3.79 9.932 7.495 7.495 0 01-9.936-3.766v0zm-7.535-35.058c-14.32 6.43-31.152.044-37.586-14.27-6.433-14.314-.044-31.138 14.277-37.569 14.321-6.452 31.153-.066 37.586 14.248s.044 31.139-14.277 37.591v0zm83.963 31.865c-14.321 6.43-31.131.044-37.586-14.27-6.433-14.314-.044-31.138 14.276-37.569 14.321-6.452 31.153-.066 37.586 14.248 6.455 14.336.066 31.139-14.276 37.591z" stroke="#F6FFFF" stroke-width="6.98" stroke-miterlimit="10"/><path d="M670.961 521.205l2.424-2.422m-36.903 36.908l11.72-11.716-11.72 11.716zm13.835 15.415l43.513-43.471m-72.484 72.451l14.475-14.49-14.475 14.49zm85.108-55.825l27.76-27.769m-91.343 91.302l14.298-14.292-14.298 14.292zm91.144-61.837l10.62-10.614M632.141 647.785l26.747-26.735-26.747 26.735zm41.838-114.953l13.968-13.961m-44.217 44.197l14.276-14.292-14.276 14.292zm71.404-42.105l11.853-11.87m-95.418 95.375l36.264-36.247-36.264 36.247zm49.593-49.548l24.234-24.224-24.234 24.224zm40.582-11.319l13.417-13.411M627.603 637.699l7.887-7.884-7.887 7.884zm17.14-17.133l11.809-11.803-11.809 11.803zm99.671-70.381l25.425-25.413M649.216 645.34l13.902-13.895-13.902 13.895zm104.143-89.473l24.984-24.973M659.174 650.031l9.65-9.668-9.65 9.668zm101.808-87.161l9.606-9.58m-108.77 108.72l14.012-14.005-14.012 14.005zm105.553-90.86l9.76-9.778M659.064 679.407l25.028-25.038-25.028 25.038zm113.308-98.656l21.371-21.339M683.497 669.608l10.223-10.24-10.223 10.24zm92.246-77.582l27.562-27.549M693.874 673.858l11.104-11.099-11.104 11.099zm82.971-68.333l12.8-12.772m-91.123 91.081l19.983-19.974-19.983 19.974zm74.974-60.317l22.34-22.33m-96.344 96.3l36.991-36.974-36.991 36.974zm89.933-75.269l17.867-17.86m-94.515 94.472l2.533-2.532-2.533 2.532zm23.64-23.607l51.135-51.112-51.135 51.112zm-63.936-148.204l12.514-12.531m-44.9 44.88l13.021-12.992-13.021 12.992zm77.838-48.535l2.401-2.401m-94.493 94.451l17.845-17.816-17.845 17.816zm19.85-19.842l51.069-51.046-51.069 51.046zm68.915-39.616l20.07-20.084m-91.122 91.103l12.8-12.794-12.8 12.794zm95.859-66.571l10.245-10.24M639.346 647.895l21.458-21.449-21.458 21.449zm117.979-88.681l14.144-14.116M662.567 653.951l9.606-9.602-9.606 9.602zm107.492-78.177l13.792-13.807M663.316 682.468l25.403-25.412-25.403 25.412zm134.106-104.822l8.152-8.126M698.06 676.985l13.329-13.323-13.329 13.323zm78.586-78.551l11.809-11.803-11.809 11.803zm-101.169-59.81l15.4-15.371m-68.717 68.685l5.817-5.813-5.817 5.813zm25.205-25.192l15.554-15.548-15.554 15.548zm49.219-19.952l37.035-37.018m-96.322 96.278l22.45-22.44-22.45 22.44zm90.858-61.55l11.126-11.121M629.872 642.742l27.584-27.571-27.584 27.571zm119.191-89.892l25.028-25.017M656.023 645.847l9.782-9.778-9.782 9.778zm108.308-78.991l9.672-9.668M654.812 676.324l24.984-24.972-24.984 24.972zm119.477-90.178l26.746-26.712M688.52 671.898l10.597-10.614-10.597 10.614zm87.532-58.247l14.276-14.27m-91.343 91.302l27.65-27.637-27.65 27.637zm66.624-51.971l35.955-35.939m-95.418 95.397l11.963-11.98-11.963 11.98zm21.568-21.559l23.993-24.004-23.993 24.004zm69.576-54.922l14.585-14.6m-72.528 72.495l43.622-43.581-43.622 43.581zm65.786-58.423l5.927-5.924m-68.761 68.729l15.4-15.393-15.4 15.393zm27.914-27.923l15.599-15.57-15.599 15.57zm4.913 2.422l14.299-14.314m-44.196 44.197l13.968-13.984-13.968 13.984zm34.81-27.483l13.021-13.014m-44.9 44.857l12.558-12.53-12.558 12.53zm36.792-29.442l11.743-11.738m-37.035 37.04l2.556-2.576-2.556 2.576z" stroke="#F6FFFF" stroke-width="1.765" stroke-miterlimit="10"/><path d="M789.822 594.118l-.198-1.453c-.045-.287-.089-.551-.133-.837-.044-.286-.088-.573-.132-.837-.088-.484-.176-.969-.264-1.431l-.066-.265c-.022-.11-.044-.242-.066-.374a62.95 62.95 0 00-.816-3.523c-.11-.441-.22-.859-.33-1.278m-.001 0l18.683-12.552-6.235-13.851-21.789 5.637m0 0a82.079 82.079 0 00-3.062-4.36c-.066-.066-.11-.132-.154-.198-.309-.397-.595-.771-.904-1.145l-.529-.661c-.198-.22-.374-.441-.55-.661-.309-.374-.639-.748-.948-1.123-.044-.044-.11-.11-.154-.176a77.005 77.005 0 00-3.679-3.898m0 0l9.914-20.194-12.338-8.874-16.039 15.767" stroke="#F6FFFF" stroke-width="3.49" stroke-miterlimit="10" stroke-linecap="round" stroke-linejoin="round"/><path d="M750.033 537.831a69.773 69.773 0 00-4.847-2.246c-.066-.022-.155-.066-.221-.088-.462-.198-.903-.374-1.344-.551-.264-.11-.55-.198-.815-.308-.264-.11-.529-.198-.793-.308-.463-.154-.903-.331-1.366-.485-.088-.022-.154-.044-.242-.066a61.814 61.814 0 00-5.112-1.541m0 0l-1.52-22.44-15.135-1.542-5.993 21.669m0 0a85.748 85.748 0 00-5.31.485c-.088.022-.176.022-.264.044-.375.044-.771.088-1.168.154-.088 0-.176.022-.264.044l-.859.132c-.265.044-.551.088-.838.132-.484.089-.947.177-1.432.265-.066.022-.132.022-.198.044h-.044a81.232 81.232 0 00-5.199 1.233m0 0l-12.536-18.674-13.88 6.232 5.662 21.779m0 0l-1.124.727a88.92 88.92 0 00-2.93 2.092c-.11.088-.22.176-.331.242 0 .022-.022.022-.022.044-.066.022-.11.066-.176.11-.374.309-.771.595-1.145.903l-.661.529c-.221.176-.441.374-.661.55-.066.066-.155.11-.221.176-.286.265-.595.507-.881.771-.066.044-.132.11-.198.154a76.7 76.7 0 00-3.878 3.656m0 0l-20.203-9.888-8.9 12.31 15.774 16.054m0 0a73.521 73.521 0 00-2.225 4.823c-.044.088-.066.176-.11.242-.176.462-.375.903-.551 1.343-.088.264-.198.551-.308.815-.089.264-.199.528-.287.793-.176.462-.33.903-.485 1.365a1.072 1.072 0 00-.088.242 85.995 85.995 0 00-1.542 5.109m0 0l-22.45 1.52-1.52 15.129 21.679 5.989m0 0a61.38 61.38 0 00.485 5.308c0 .088.022.176.022.264l.198 1.431.132.859c.066.264.11.551.154.837.088.462.177.947.265 1.431.022.066.022.154.044.243a68.757 68.757 0 001.233 5.197m.001 0l-18.683 12.53 6.235 13.873 21.767-5.659m0 0a67.632 67.632 0 003.084 4.36.773.773 0 00.155.22c.286.375.594.749.881 1.145.176.221.374.441.551.661l.528.661c.331.374.639.726.948 1.101.066.066.11.132.176.198a67.882 67.882 0 003.657 3.876m0 0l-9.914 20.193 12.338 8.897 16.039-15.789m0 0a64.727 64.727 0 004.847 2.246c.066.044.154.066.22.11.463.176.903.352 1.366.551.264.088.529.198.793.286.265.11.529.22.793.308.463.176.926.33 1.366.485.088.022.177.066.265.088a84.425 84.425 0 005.089 1.541m0 0l1.542 22.44 15.114 1.52 6.014-21.67m0 0a73.226 73.226 0 005.31-.484c.088 0 .154-.022.242-.022.397-.066.771-.11 1.168-.154.088-.022.176-.044.286-.044.287-.044.551-.11.838-.154.286-.044.573-.088.837-.132.485-.089.969-.177 1.432-.265.066 0 .132-.022.198-.044h.066c1.741-.352 3.481-.748 5.178-1.233m0 0l12.558 18.674 13.857-6.232-5.64-21.757m0 0a82.173 82.173 0 004.363-3.083c.022 0 .022-.022.044-.022a.957.957 0 01.154-.132 43.02 43.02 0 001.146-.903c.22-.154.44-.353.661-.529.22-.176.44-.352.661-.55a.861.861 0 00.22-.176c.308-.243.595-.507.881-.749.066-.066.132-.11.198-.176a77.055 77.055 0 003.9-3.656m0 0l20.203 9.91 8.878-12.332-15.774-16.032m0 0a88.036 88.036 0 002.247-4.845c.022-.088.066-.154.088-.242.199-.44.375-.881.551-1.343.022-.022.022-.044.044-.088 0-.022 0-.044.022-.066.088-.221.154-.419.243-.639.088-.264.198-.528.308-.793.154-.462.308-.925.485-1.387.022-.066.044-.154.066-.242a59.416 59.416 0 001.542-5.109m0 0l22.45-1.52 1.543-15.106-21.702-6.012m0 0a73.04 73.04 0 00-.462-5.308c-.022-.088-.022-.176-.044-.242m-47.39 63.973c-.397.176-.771.352-1.146.506-.353.176-.705.33-1.058.485-.11.044-.198.066-.286.11a60.897 60.897 0 01-27.914 4.536c-.11-.022-.198-.022-.308-.022l-1.256-.132c-.375-.044-.771-.066-1.146-.11a1.288 1.288 0 00-.286-.044 60.88 60.88 0 01-26.46-10.042c-.066-.044-.154-.11-.243-.154-.33-.242-.683-.507-1.013-.749-.308-.22-.639-.44-.947-.683a6.073 6.073 0 01-.243-.176 60.773 60.773 0 01-17.867-21.911 32.616 32.616 0 00-.133-.264 60.427 60.427 0 01-.528-1.168 41.58 41.58 0 01-.463-1.035c-.044-.088-.066-.176-.11-.264a60.91 60.91 0 01-4.539-27.923c.022-.088.022-.176.022-.286l.133-1.256c.044-.396.066-.77.11-1.167.022-.088.022-.176.044-.264a60.91 60.91 0 0110.046-26.47c.044-.066.11-.154.154-.22.221-.33.463-.639.683-.947.243-.352.485-.683.749-1.035.045-.066.111-.154.177-.22a60.622 60.622 0 0121.921-17.882c.088-.044.176-.088.265-.11.352-.176.705-.33 1.079-.506.375-.154.749-.331 1.124-.507.088-.022.176-.066.264-.11a60.977 60.977 0 0127.936-4.514c.088 0 .198 0 .287.022a21.7 21.7 0 011.189.11l1.234.132c.088 0 .176.022.286.044a60.655 60.655 0 0126.438 10.02c.088.066.177.11.243.176.33.22.639.462.969.683l.992.726c.088.066.154.133.242.177a60.793 60.793 0 0117.89 21.911c.044.088.088.176.11.264.176.353.33.705.484 1.057.177.375.353.771.529 1.167.022.088.066.177.11.265a60.79 60.79 0 014.517 27.901c0 .11-.022.198-.022.308-.022.397-.066.771-.11 1.145l-.133 1.256c-.022.088-.022.198-.044.308a60.602 60.602 0 01-10.024 26.404c-.066.088-.11.176-.176.264-.243.33-.485.683-.749 1.035l-.661.925a1.625 1.625 0 00-.177.22 60.814 60.814 0 01-21.921 17.881l-.264.133v0z" stroke="#F6FFFF" stroke-width="3.49" stroke-miterlimit="10" stroke-linecap="round" stroke-linejoin="round"/><path d="M2.038 50.451l29.523-29.486M2.038 114.314l29.523-29.51M2.038 18.542L19.862.727M2.038 82.382l29.523-29.508M2.038 146.223l29.523-29.487M2.038 178.154l29.523-29.509m-29.523 61.44l29.523-29.509M2.038 241.994l29.523-29.487M2.038 273.925l29.523-29.508m-29.523 61.44l29.523-29.509M2.038 337.766l29.523-29.487M2.038 369.697l29.523-29.509m-9.033 40.938l9.033-9.007M2.038 2.576L3.89.726M2.038 66.417l29.523-29.509M2.038 130.279l29.523-29.509M2.038 194.12l29.523-29.509M2.038 257.96l29.523-29.509M2.038 321.822l29.523-29.509M2.038 34.508l29.523-29.51M2.038 98.348L31.561 68.84M2.038 162.188l29.523-29.508M2.038 226.051l29.523-29.509M2.038 289.891l29.523-29.509m-29.523 93.35l29.523-29.509M6.577 381.126l24.984-24.972M2.038.727h29.523v380.399H2.038M739.831 805.15l-49.219-49.196m113.112 49.196l-49.241-49.196m-46.575 49.196l-18.33-18.3m82.2 18.3l-49.219-49.196m113.088 49.196l-49.218-49.196m81.164 49.196l-49.218-49.196m81.164 49.196l-49.241-49.196m81.165 49.196l-49.219-49.196m81.164 49.196l-49.218-49.196m81.164 49.196l-49.24-49.196m81.166 49.196l-49.22-49.196m81.16 49.196l-49.21-49.196m60.16 28.21l-28.24-28.21M755.805 805.15l-49.219-49.196m113.088 49.196l-49.218-49.196m113.11 49.196l-49.241-49.196m113.111 49.196l-49.219-49.196M1011.3 805.15l-49.214-49.196M723.859 805.15l-34.281-34.265m98.173 34.265l-49.241-49.196m113.11 49.196l-49.219-49.196m113.088 49.196l-49.218-49.196m113.11 49.196l-49.24-49.196m113.109 49.196l-49.218-49.196m76.138 44.175l-44.21-44.175m44.21 12.244l-12.27-12.244M689.578 805.15v-49.196h380.592v49.196" stroke="#F6FFFF" stroke-width="2.607" stroke-miterlimit="10"/><path d="M392.923 631.467c.066-.397.11-.771.154-1.145.022-.177.044-.375.066-.573l.066-1.123v-1.145c0-1.432-.154-2.841-.44-4.25l6.984-6.431-5.134-9.094-9.099 2.664-.991-.859c-.309-.242-.617-.462-.904-.704a8.651 8.651 0 00-.484-.331c-.309-.22-.617-.418-.948-.616-.022-.022-.066-.044-.088-.066-.022-.022-.044-.022-.066-.044-.132-.066-.264-.155-.374-.221-.133-.066-.243-.154-.375-.22-.022 0-.044-.022-.088-.044-.022-.022-.066-.022-.088-.044a16.843 16.843 0 00-1.52-.771 20.98 20.98 0 00-2.292-.925l-2.071-9.249-10.443-.11-2.247 9.227c-.771.243-1.542.529-2.291.859-.529.22-1.036.485-1.542.749-.044.022-.066.044-.11.044-.023.022-.045.044-.067.044a3.312 3.312 0 00-.374.22c-.022 0-.044.022-.066.022-.11.066-.199.132-.309.198-.022 0-.044.022-.066.022-.198.133-.396.243-.595.375-.154.088-.308.198-.484.308a26.618 26.618 0 00-2.402 1.828l-9.033-2.841-5.331 9.007 6.874 6.54a25.396 25.396 0 00-.331 1.806c-.022.198-.044.418-.066.639a16.88 16.88 0 00-.11 1.101v.044c0 .22-.022.44-.022.66v.529a1.332 1.332 0 000 .418v.088c0 1.41.154 2.841.44 4.251l-6.984 6.408 5.134 9.117 9.099-2.665a23.768 23.768 0 002.357 1.872c.331.22.639.44.97.639.022.022.066.044.088.066.022 0 .044.022.066.044.132.066.264.132.374.22.133.066.243.132.375.22.022 0 .044.022.066.022.044.022.066.044.11.066.485.264 1.014.529 1.52.771.749.352 1.498.661 2.292.925l2.049 9.249 10.465.088 2.247-9.205a22.16 22.16 0 002.291-.859 31.874 31.874 0 001.542-.749c.022-.022.066-.044.11-.066.022 0 .044-.022.066-.022.111-.088.243-.154.375-.22.022-.022.044-.022.066-.022.088-.066.198-.132.309-.198.022 0 .044-.022.066-.044a24.123 24.123 0 003.481-2.511l9.033 2.841 5.331-8.985-6.874-6.562c.089-.418.177-.859.243-1.277zm-16.282 9.183c-.022 0-.022.022-.044.022a14.65 14.65 0 01-6.653 1.717h-.727a14.833 14.833 0 01-6.632-1.849c-.022 0-.044-.022-.066-.022a1.578 1.578 0 00-.264-.155.898.898 0 00-.243-.154l-.044-.044a14.636 14.636 0 01-4.825-4.889c0-.022-.022-.044-.022-.066a1.64 1.64 0 01-.154-.264 2.4 2.4 0 00-.132-.242c-.022-.022-.044-.044-.044-.066a14.924 14.924 0 01-1.719-6.651v-.66c0-.022 0-.044.022-.066a14.597 14.597 0 011.829-6.629c.022 0 .022-.022.044-.044a1.64 1.64 0 01.154-.264c.044-.088.089-.176.133-.242.022-.022.022-.044.044-.066a14.622 14.622 0 014.913-4.801l.044-.044c.088-.044.176-.088.242-.132.088-.066.176-.11.287-.154l.044-.044a14.614 14.614 0 016.653-1.696h.727c2.336.088 4.605.704 6.632 1.85.022 0 .044.022.066.022.066.044.154.11.242.154s.176.088.264.154c.023 0 .023.022.045.022a15.112 15.112 0 014.824 4.911c0 .022.023.044.023.066.044.066.11.154.154.242l.132.264c.022.022.022.044.044.066a14.839 14.839 0 011.718 6.651v.352c0 .088 0 .198-.022.309v.066a14.507 14.507 0 01-1.828 6.606c-.022.022-.022.044-.044.066-.044.088-.088.154-.132.242-.067.088-.111.177-.155.265-.022.022-.044.044-.044.066a14.628 14.628 0 01-4.913 4.8c0 .022-.022.022-.044.044-.088.044-.198.088-.286.155a2.317 2.317 0 01-.243.132zM97.347 225.676c.044-.374.11-.748.154-1.123.022-.198.022-.374.044-.572a9.7 9.7 0 00.066-1.145v-.199c.022-.132.022-.286.022-.418v-.528a25.296 25.296 0 00-.44-4.251l6.984-6.408-5.134-9.095-9.12 2.665a9.244 9.244 0 00-.992-.859 14.548 14.548 0 00-.903-.705l-.463-.33c-.309-.22-.64-.418-.948-.639-.044 0-.066-.022-.11-.044-.022-.022-.044-.044-.066-.044a2.094 2.094 0 00-.374-.22c-.11-.088-.243-.154-.375-.22-.022-.022-.044-.022-.066-.044-.044-.022-.066-.044-.11-.066a23.967 23.967 0 00-1.52-.771 25.64 25.64 0 00-2.27-.903l-2.07-9.271-10.444-.088-2.247 9.205c-.793.264-1.564.55-2.313.881-.507.22-1.035.462-1.542.749a.167.167 0 00-.088.044c-.022.022-.044.022-.066.044l-.397.198c0 .022-.022.022-.044.044-.11.044-.22.11-.33.176-.023.022-.045.022-.067.044-.198.11-.396.242-.573.352-.176.111-.33.221-.484.309a27.655 27.655 0 00-2.402 1.85l-9.055-2.841-5.31 9.007 6.853 6.54a16.786 16.786 0 00-.309 1.784c-.044.22-.066.44-.088.638-.044.375-.066.749-.088 1.101v.066c-.022.221-.022.441-.044.661v1.035c.022 1.409.154 2.841.44 4.25l-6.983 6.408 5.133 9.095 9.12-2.664a21.89 21.89 0 002.358 1.894c.309.22.617.418.948.616a.304.304 0 01.088.066c.044.022.066.044.088.044.11.088.242.154.374.221.11.088.243.154.375.22.022.022.044.022.066.044.022.022.066.044.088.066.507.264 1.014.528 1.542.771.727.33 1.499.638 2.27.903l2.07 9.249 10.444.11 2.247-9.205a26.747 26.747 0 002.313-.881 13.81 13.81 0 001.52-.749c.044 0 .066-.022.11-.044.022-.022.044-.022.067-.044l.396-.198c0-.022.022-.022.044-.044.11-.066.22-.11.309-.176.044-.022.066-.022.088-.044a23.864 23.864 0 003.459-2.511l9.055 2.841 5.309-9.007-6.852-6.54c.089-.441.177-.859.243-1.3zm-16.281 9.183c-.023.022-.045.022-.067.044a14.935 14.935 0 01-6.653 1.718h-.661c-.022-.022-.044-.022-.066-.022a14.52 14.52 0 01-6.61-1.828c-.022-.022-.044-.022-.066-.044a1.64 1.64 0 01-.264-.154 2.398 2.398 0 01-.243-.132c-.022-.022-.044-.022-.066-.044a14.63 14.63 0 01-4.803-4.911l-.044-.044a1.64 1.64 0 00-.154-.264l-.132-.264c-.022-.022-.022-.044-.044-.044a14.895 14.895 0 01-1.696-6.651v-.749a14.81 14.81 0 011.85-6.606c0-.022.022-.044.022-.066.044-.088.11-.176.154-.264.044-.067.11-.155.155-.243 0-.022.022-.022.022-.044a14.897 14.897 0 014.913-4.822c.022 0 .044-.022.066-.022.066-.045.154-.111.242-.155s.176-.088.265-.154c.022 0 .044 0 .066-.022a14.934 14.934 0 016.653-1.717h.661c.022 0 .044.022.066.022 2.314.066 4.583.704 6.61 1.827.022.022.044.022.066.044a2.4 2.4 0 01.242.132c.088.067.176.111.265.155.022.022.044.022.066.044a14.635 14.635 0 014.802 4.91c.023 0 .023.022.045.045l.132.264c.044.088.11.176.154.264 0 .022.022.022.022.044a14.633 14.633 0 011.718 6.651v.726a14.815 14.815 0 01-1.85 6.629c0 .022-.022.044-.022.066-.044.066-.11.154-.154.22-.044.11-.088.198-.155.286 0 .022-.022.022-.044.044a14.834 14.834 0 01-4.89 4.823c-.023 0-.045.022-.067.022a1.64 1.64 0 01-.264.154c-.088.044-.154.088-.243.132zm-56.71 291.213c.044-.375.11-.749.154-1.123.023-.199.023-.375.045-.573.044-.374.066-.749.066-1.145v-.198c.022-.132.022-.287.022-.419v-.528a23.18 23.18 0 00-.44-4.25l6.983-6.409-5.133-9.094-9.121 2.664a9.367 9.367 0 00-.992-.859 14.193 14.193 0 00-.903-.704l-.463-.331c-.308-.22-.639-.418-.947-.638-.044 0-.066-.022-.11-.044-.022-.022-.044-.044-.066-.044-.11-.089-.243-.155-.375-.221a2.09 2.09 0 00-.374-.22c-.022-.022-.044-.022-.066-.044-.044-.022-.067-.044-.11-.066a24.508 24.508 0 00-1.52-.771 25.949 25.949 0 00-2.27-.903l-2.071-9.271-4.627-.044v16.935c2.181.154 4.296.771 6.213 1.828.022.022.044.022.066.044.088.044.177.088.243.132.088.066.176.11.264.154.022.022.044.022.066.044a14.629 14.629 0 014.803 4.911c.022 0 .022.022.044.044l.132.264c.044.088.11.176.155.264 0 .022.022.022.022.044a14.636 14.636 0 011.718 6.651v.727a14.816 14.816 0 01-1.85 6.628c0 .022-.023.044-.023.066-.044.066-.11.154-.154.22-.044.11-.088.199-.154.287 0 .022-.022.022-.044.044a14.83 14.83 0 01-4.891 4.822c-.022 0-.044.022-.066.022a1.652 1.652 0 01-.265.155c-.088.044-.154.088-.242.132-.022.022-.044.022-.066.044a15 15 0 01-5.97 1.695v16.935l4.01.044 2.246-9.205a26.414 26.414 0 002.314-.881c.506-.22 1.035-.462 1.52-.749.044 0 .066-.022.11-.044.022-.022.044-.022.066-.044l.397-.198c0-.022.022-.022.044-.044.11-.066.22-.11.308-.176.044-.022.066-.022.088-.044a23.859 23.859 0 003.46-2.511l9.054 2.841 5.31-9.007-6.852-6.54c.088-.44.176-.859.242-1.299z" fill="#F6FFFF"/><path d="M285.1 805.15c8.901-85.575 81.275-152.278 169.247-152.278 87.972 0 160.346 66.703 169.246 152.278" stroke="#F6FFFF" stroke-width="1.765" stroke-miterlimit="10"/><path d="M2.038 328.781c24.786-42.986 71.228-71.9 124.435-71.9 79.291 0 143.557 64.237 143.557 143.492m0 0c0 79.255-64.266 143.492-143.557 143.492-53.207 0-99.65-28.936-124.435-71.922l267.992-71.57zM123.653 805.15c9.253-174.542 153.758-313.212 330.694-313.212 176.935 0 321.44 138.67 330.693 313.212" stroke="#F6FFFF" stroke-width=".882" stroke-miterlimit="10"/><path d="M2.038 387.27c6.566-62.827 59.86-111.979 124.435-111.979 69.003 0 125.139 56.111 125.139 125.082s-56.136 125.06-125.139 125.06m0 0c-64.575 0-117.87-49.13-124.435-111.979l124.435 111.979z" stroke="#F6FFFF" stroke-width="6.98" stroke-miterlimit="10"/><path d="M689.578 805.15V638.271h197.05V805.15" stroke="#F6FFFF" stroke-width="2.607" stroke-miterlimit="10"/><path d="M2.038 458.312H415.02V805.15" stroke="#F6FFFF" stroke-width="1.765" stroke-miterlimit="10"/><path d="M2.038 130.411H302.13V805.15" stroke="#F6FFFF" stroke-width="1.765" stroke-miterlimit="10"/><path d="M685.304 670.313V805.15h4.274V670.313h-4.274z" fill="#F6FFFF"/></g><path d="M647 829c-77-46-115.39-177.643-96-267 24.377-112.333 111.601-192.551 146.374-302.178 25.04-78.96 21.69-166.408-9.329-243.266C684.326 7.34 680.209-1.765 676.519-11H-375v840H647z" fill="url(#paint0_linear)"/><g filter="url(#filter0_d)"><path d="M600.976 800c-54.402-67.528-78.715-159.754-60.476-244.855 22.93-106.984 103.911-192.813 136.62-297.219 23.553-75.2 20.402-158.484-8.775-231.682-3.498-8.779-7.371-17.449-10.842-26.244H-341v800h941.976z" fill="#fff"/></g><mask id="a" maskUnits="userSpaceOnUse" x="-341" y="0" width="1034" height="800"><path d="M600.976 800c-54.402-67.528-78.715-159.754-60.476-244.855 22.93-106.984 103.911-192.813 136.62-297.219 23.553-75.2 20.402-158.484-8.775-231.682-3.498-8.779-7.371-17.449-10.842-26.244H-341v800h941.976z" fill="#fff"/></mask><g mask="url(#a)"><path d="M377.544 498.06c-.022-.264-.044-.55-.089-.814-.022-.155-.044-.309-.066-.485l-.066-.462a8.86 8.86 0 00-.154-.815c0-.044 0-.11-.022-.154 0-.066-.022-.132-.022-.221a65.963 65.963 0 00-.44-2.004 8.704 8.704 0 00-.176-.726" stroke="#F2F2F2" stroke-width="1.765" stroke-miterlimit="10"/><path d="M376.509 492.379l10.685-6.915-3.415-7.884-12.359 2.973m0 0a45.189 45.189 0 00-1.697-2.488.386.386 0 01-.088-.11c-.176-.221-.33-.441-.506-.661-.089-.132-.199-.242-.287-.374-.11-.132-.198-.265-.308-.375-.177-.22-.353-.44-.529-.638-.022-.044-.044-.088-.088-.11a38.911 38.911 0 00-2.027-2.247m0 0l5.794-11.319-6.896-5.153-9.231 8.787m0 0a50.364 50.364 0 00-2.71-1.321c-.044 0-.088-.022-.132-.044-.264-.111-.507-.221-.771-.331-.132-.066-.287-.11-.441-.176-.154-.066-.286-.11-.44-.176-.265-.088-.529-.198-.771-.286-.045-.022-.089-.044-.155-.044a32.922 32.922 0 00-2.864-.925m0 0l-.661-12.707-8.548-1.013-3.591 12.222m0 0c-.992.044-2.005.11-2.996.22-.067 0-.111 0-.155.022l-.661.067c-.044.022-.11.022-.154.022-.154.022-.308.044-.485.066-.154.022-.308.044-.462.088-.287.044-.551.088-.815.132-.044 0-.088 0-.111.022h-.044c-.991.176-1.96.396-2.952.638m0 .001l-6.918-10.681-7.887 3.413 2.974 12.354m0 0c-.198.133-.418.265-.617.419-.572.352-1.145.749-1.696 1.145-.044.044-.11.088-.176.132 0 .022-.022.022-.022.022-.022.022-.066.044-.088.066-.221.176-.441.331-.661.507-.133.088-.243.198-.375.286-.132.11-.264.198-.375.308-.044.044-.088.066-.132.11-.176.133-.33.265-.506.419a.488.488 0 00-.111.088 39.23 39.23 0 00-2.225 2.026m0 0l-11.346-5.77-5.155 6.893 8.79 9.205m0 0a52.283 52.283 0 00-1.322 2.709c0 .044-.022.088-.044.154-.11.242-.22.484-.33.748-.066.155-.11.287-.176.441-.066.154-.111.308-.177.44-.088.265-.198.529-.286.793-.022.044-.044.088-.044.132a33.012 33.012 0 00-.925 2.863m-.001 0l-12.712.661-1.013 8.544 12.227 3.589m0 .001c.044.99.11 2.003.221 3.016 0 .045 0 .089.022.133.022.264.066.55.088.814.022.155.044.331.066.485.022.154.044.308.088.484l.132.793c0 .044.022.11.022.154.177.991.397 1.982.639 2.951m0 0l-10.685 6.915 3.415 7.906 12.359-2.995m.001 0c.55.836 1.101 1.673 1.696 2.488.044.044.066.088.088.11.176.22.331.441.507.661.088.132.198.264.286.374.11.132.198.264.309.397.176.198.352.418.528.616a.456.456 0 00.089.11c.66.771 1.321 1.52 2.026 2.246m0 .001l-5.772 11.319 6.896 5.153 9.209-8.787m0 0c.881.462 1.785.903 2.71 1.321.044.022.088.022.132.044.265.11.507.221.771.331.154.066.287.11.441.176.154.066.308.11.463.176.242.11.506.198.749.286.066.022.11.044.154.044.947.353 1.895.661 2.864.925m0 0l.661 12.707 8.548 1.013 3.591-12.222m0 0a35.46 35.46 0 003.019-.22c.044 0 .088 0 .132-.022l.661-.067c.044 0 .11-.022.154-.022.154-.022.33-.044.485-.066.154-.022.308-.044.484-.066.265-.044.529-.088.793-.154.045 0 .089 0 .133-.022h.022a43.977 43.977 0 002.952-.638m0-.001l6.918 10.681 7.909-3.413-2.996-12.355m0 0a45.576 45.576 0 002.49-1.695c0-.022.022-.022.022-.022.022-.022.066-.044.088-.066.22-.154.44-.331.661-.507.132-.088.242-.198.374-.286.132-.11.265-.198.397-.308a.48.48 0 01.11-.088c.176-.155.352-.287.507-.419.044-.044.088-.066.11-.11a49.112 49.112 0 002.247-2.026m0 0l11.324 5.77 5.156-6.871-8.791-9.227m0 0c.463-.881.903-1.784 1.322-2.709.022-.044.022-.088.044-.132.11-.264.22-.506.331-.771 0 0 .022-.022.022-.044 0 0 0-.022.022-.044.044-.11.088-.242.132-.352.066-.154.132-.308.176-.44.11-.265.198-.529.286-.771a.308.308 0 00.045-.154c.352-.947.66-1.894.925-2.863m0 0l12.712-.661 1.013-8.544-12.227-3.59m0 0a34.27 34.27 0 00-.22-2.995c0-.066 0-.11-.022-.154m-27.386 35.763c-.22.088-.44.198-.661.286l-.595.265a.408.408 0 00-.154.044 34.465 34.465 0 01-15.84 2.312c-.045 0-.111 0-.155-.022l-.727-.066a6.328 6.328 0 00-.639-.088c-.066 0-.11-.022-.176-.022a34.13 34.13 0 01-14.849-5.924c-.066-.022-.11-.066-.154-.088-.199-.132-.375-.286-.573-.418l-.529-.397c-.044-.044-.088-.066-.132-.11a34.47 34.47 0 01-9.914-12.552c-.022-.044-.044-.11-.066-.154-.089-.221-.199-.441-.287-.661a6.63 6.63 0 01-.242-.595c-.022-.044-.044-.11-.066-.154a34.423 34.423 0 01-2.314-15.833c0-.044.022-.11.022-.154.022-.243.044-.485.089-.727.022-.22.044-.44.066-.639 0-.066.022-.11.022-.154a34.542 34.542 0 015.926-14.886c.022-.044.066-.088.088-.132l.397-.529c.132-.176.286-.374.44-.573.022-.044.067-.088.089-.132a34.662 34.662 0 0112.558-9.909c.066-.022.11-.044.154-.066.198-.088.418-.177.617-.265.22-.088.44-.176.639-.264.066-.022.11-.044.154-.066a34.451 34.451 0 0115.84-2.312c.067 0 .111.022.177.022l.661.066c.242.044.462.066.705.088.044 0 .088.022.154.022 5.354.771 10.443 2.819 14.871 5.924.044.022.088.066.132.088l.529.396c.198.154.375.286.573.419a.583.583 0 00.132.11 34.653 34.653 0 019.914 12.552c.022.066.044.11.066.154l.265.595c.088.22.176.44.286.66.022.066.022.11.044.155a34.421 34.421 0 012.314 15.833c0 .066 0 .11-.022.176-.022.22-.044.441-.066.639-.023.242-.045.484-.089.704 0 .066-.022.133-.022.177a34.184 34.184 0 01-5.926 14.864c-.022.044-.066.088-.088.132-.132.198-.287.375-.441.573-.132.176-.242.352-.374.528-.044.044-.067.088-.111.132a34.471 34.471 0 01-12.558 9.91c-.044.022-.11.044-.154.066v0z" stroke="#F2F2F2" stroke-width="1.765" stroke-miterlimit="10"/><path d="M69.918 409.952l.132 1.123c.044.221.066.441.11.661.022.198.044.418.088.639.066.374.11.748.176 1.101.022.066.022.132.044.198.022.11.022.198.044.308.177.903.375 1.828.595 2.731.067.33.155.661.243.969l-14.563 9.447 4.627 10.747 16.876-4.074a58.02 58.02 0 002.313 3.413c.044.044.066.088.11.154.22.286.44.595.683.881l.397.528c.132.177.286.353.418.507.243.308.463.595.705.881l.133.132a45.42 45.42 0 002.775 3.039l-7.887 15.459 9.386 7.003 12.558-11.958a52.564 52.564 0 003.723 1.784c.044.022.11.044.176.066.331.154.683.308 1.036.44.198.089.396.177.595.243.22.088.418.176.616.242.353.154.705.264 1.058.396.066.022.11.044.176.066 1.3.463 2.622.881 3.922 1.256l.903 17.308 11.633 1.366 4.891-16.626a51.893 51.893 0 004.12-.309c.066 0 .132 0 .176-.022.308-.022.617-.066.903-.11.066 0 .154-.022.221-.022.22-.022.44-.066.661-.088.22-.044.418-.066.638-.11.375-.044.75-.11 1.102-.176.066 0 .11-.022.154-.022.022 0 .044 0 .044-.022a49.018 49.018 0 004.032-.881l9.43 14.556 10.773-4.624-4.098-16.847c.287-.198.595-.374.859-.55a42.505 42.505 0 002.314-1.586.977.977 0 01.242-.176c0-.022.022-.022.022-.044a.46.46 0 00.132-.088c.309-.221.595-.441.904-.661.176-.154.33-.286.506-.418.177-.132.353-.265.529-.419.044-.044.11-.088.154-.132.243-.176.463-.374.705-.572.044-.044.088-.089.155-.133a71.39 71.39 0 003.04-2.752l15.444 7.861 7.006-9.381-11.963-12.552a56.423 56.423 0 001.784-3.7c.023-.066.045-.132.089-.198.132-.33.286-.682.418-1.013.088-.22.176-.418.265-.616.066-.199.154-.419.242-.617.132-.352.264-.705.374-1.057.022-.044.045-.11.067-.176.484-1.299.881-2.599 1.255-3.92l17.317-.903 1.388-11.627-16.656-4.889a51.292 51.292 0 00-.308-4.096c0-.066 0-.132-.022-.198-.022-.375-.088-.749-.132-1.123-.022-.221-.066-.419-.089-.639-.022-.22-.066-.44-.088-.661-.066-.374-.132-.726-.198-1.101 0-.066-.022-.132-.022-.198a81.15 81.15 0 00-.881-4.008l14.541-9.447-4.627-10.747-16.854 4.074a51.13 51.13 0 00-2.313-3.391c-.045-.066-.089-.11-.133-.176-.22-.286-.44-.595-.661-.881-.132-.176-.286-.352-.418-.528-.132-.177-.265-.331-.397-.507l-.727-.859c-.044-.066-.088-.11-.11-.154a61.507 61.507 0 00-2.776-3.039l7.887-15.459-9.407-7.003-12.558 11.98a57.735 57.735 0 00-3.701-1.806c-.067-.022-.111-.044-.177-.066-.352-.154-.683-.308-1.035-.44a7.164 7.164 0 00-.617-.243 5.14 5.14 0 00-.617-.242c-.33-.132-.683-.264-1.035-.396l-.199-.066a61.783 61.783 0 00-3.921-1.255l-.882-17.309-11.654-1.366-4.891 16.627a51.342 51.342 0 00-4.098.308c-.066 0-.132.022-.198.022-.309.022-.595.066-.904.11-.066 0-.132.022-.198.022-.22.022-.441.066-.661.088-.22.044-.441.066-.661.11-.352.044-.727.11-1.102.176-.044.022-.11.022-.154.022-.022.022-.022.022-.044.022a50.557 50.557 0 00-4.01.881l-9.451-14.556-10.752 4.625 4.076 16.868a57.615 57.615 0 00-3.392 2.312c-.023 0-.023 0-.045.022a.386.386 0 00-.11.088c-.308.221-.617.441-.903.683-.176.132-.353.264-.507.396-.176.133-.352.265-.528.419-.067.044-.11.088-.177.132-.22.176-.462.374-.683.573-.044.044-.11.088-.154.132a45.39 45.39 0 00-3.04 2.774l-15.466-7.883-6.985 9.381 11.964 12.552a71.502 71.502 0 00-1.807 3.7l-.066.198c-.154.33-.308.683-.44 1.035 0 0-.023.022-.023.044-.022.022-.022.044-.022.066-.066.154-.132.33-.198.484-.088.199-.154.419-.242.617l-.397 1.057c-.022.066-.044.11-.066.176a62.623 62.623 0 00-1.256 3.92l-17.317.903-1.366 11.627 16.634 4.889a63.39 63.39 0 00.309 4.096c0 .066.022.132.022.198zm37.321-48.711c.309-.154.595-.265.903-.397.265-.11.551-.242.816-.352.066-.022.154-.066.22-.088a46.563 46.563 0 0121.569-3.127h.242c.309.044.639.088.97.132.286.022.572.066.881.088.066.022.154.022.22.044 7.293 1.057 14.255 3.81 20.269 8.06.044.044.11.088.177.132.264.198.528.397.793.573.22.176.462.352.705.55.066.044.11.088.176.132a46.737 46.737 0 0113.505 17.111c.044.066.066.132.11.198.133.309.265.617.397.903.11.286.22.551.33.815a.64.64 0 01.089.22 46.875 46.875 0 013.15 21.581c0 .066-.022.132-.022.198-.044.331-.066.661-.11.991-.044.287-.066.595-.11.881 0 .066-.022.132-.022.198a46.839 46.839 0 01-8.086 20.282c-.044.066-.088.11-.132.176-.154.243-.353.485-.529.705-.198.264-.374.529-.573.793-.066.066-.11.11-.154.176a46.559 46.559 0 01-17.118 13.499c-.066.044-.133.066-.199.11-.286.11-.55.243-.837.353-.286.132-.595.264-.881.374a.781.781 0 01-.198.088 46.959 46.959 0 01-21.591 3.149c-.066-.022-.155-.022-.221-.022-.308-.044-.617-.066-.925-.11-.308-.044-.617-.066-.947-.11-.066-.022-.133-.022-.221-.044a46.783 46.783 0 01-20.247-8.06l-.198-.132c-.242-.176-.485-.352-.727-.551a66.443 66.443 0 01-.771-.572c-.044-.044-.11-.088-.176-.132a46.961 46.961 0 01-13.506-17.111c-.022-.066-.066-.132-.088-.198-.132-.264-.242-.551-.352-.815-.133-.308-.265-.595-.397-.903-.022-.066-.044-.132-.088-.22a46.473 46.473 0 01-3.129-21.559c0-.066 0-.154.022-.242.023-.287.067-.573.089-.881.044-.309.088-.639.132-.947 0-.088.022-.176.022-.242a46.894 46.894 0 018.063-20.238l.133-.198.594-.793c.177-.22.353-.463.53-.705.043-.044.087-.11.131-.176a46.966 46.966 0 0117.119-13.499.781.781 0 01.198-.088z" fill="#F2F2F2"/><path d="M436.083 615.964c.088.396.198.792.286 1.189.066.22.132.462.198.704.044.221.11.463.176.683l.331 1.189.066.198c.044.11.066.221.088.309a69.07 69.07 0 001.366 3.941m0 0l-14.651 12.068 6.389 11.121 17.824-6.518m0 0c.925 1.167 1.917 2.29 2.93 3.413.044.044.11.088.154.154.287.287.551.595.837.881l.507.507.507.506c.308.308.595.573.903.859.044.044.088.11.154.154 1.08 1.035 2.226 2.004 3.393 2.951m0 0l-6.653 17.771 11.082 6.453 12.161-14.557m0 0c.815.309 1.652.617 2.49.903a39.91 39.91 0 001.762.573c.066.022.154.044.221.066.396.11.771.22 1.167.352.243.066.463.11.705.176.221.067.463.133.683.199.397.088.793.198 1.19.286.088.022.154.044.22.044 1.454.352 2.93.639 4.407.881m-.001 0l3.151 18.718 12.822.044 3.239-18.696m0 0c1.476-.242 2.952-.507 4.428-.859a.648.648 0 00.199-.044c.33-.066.661-.154.969-.22.088-.022.154-.044.242-.066.221-.066.463-.11.683-.176.243-.066.463-.133.705-.199.397-.11.794-.22 1.168-.33.066-.022.11-.044.176-.044.022 0 .022-.022.044-.022a69.046 69.046 0 004.252-1.453m0 0l12.074 14.644 11.126-6.364-6.522-17.838m0 0a52.737 52.737 0 003.393-2.929c.022 0 .022-.022.044-.022l.133-.132c.286-.264.594-.55.881-.837l.507-.506c.176-.176.352-.331.506-.507.066-.066.132-.11.176-.176.243-.242.463-.462.683-.705a.529.529 0 01.155-.154c1.035-1.101 2.005-2.246 2.952-3.391m0 0l17.779 6.651 6.456-11.099-14.585-12.156" stroke="#F2F2F2" stroke-width="3.49" stroke-miterlimit="10" stroke-linecap="round" stroke-linejoin="round"/><path d="M554.811 624.552a57.828 57.828 0 001.498-4.25l.066-.198.33-1.19c.066-.22.132-.462.199-.682.044-.199.11-.375.154-.573 0-.022 0-.044.022-.066 0-.022 0-.044.022-.066.088-.396.198-.793.286-1.189.022-.066.022-.132.044-.198a62.98 62.98 0 00.882-4.427m0 0l18.727-3.127.022-12.816-18.705-3.259m0 0a63.195 63.195 0 00-.837-4.427c0-.066-.023-.132-.045-.198-.088-.396-.176-.793-.286-1.189a10.984 10.984 0 01-.176-.705c-.066-.242-.132-.462-.199-.704-.11-.397-.22-.771-.33-1.168l-.066-.198a69.65 69.65 0 00-1.454-4.272m0 0l14.651-12.068-6.389-11.121-17.824 6.541m0 0a61.488 61.488 0 00-2.93-3.414c-.044-.044-.088-.11-.154-.154-.265-.308-.551-.594-.838-.903-.176-.154-.33-.33-.506-.506-.177-.154-.331-.33-.507-.507a32.199 32.199 0 00-.881-.836 1.067 1.067 0 00-.177-.155 61.413 61.413 0 00-3.37-2.973m0 0l6.631-17.771-11.082-6.452-12.161 14.578m0 0c-1.388-.551-2.82-1.035-4.252-1.497-.066 0-.132-.022-.198-.044-.397-.133-.794-.243-1.19-.353-.22-.066-.463-.132-.683-.198-.242-.066-.463-.11-.705-.176-.397-.11-.793-.198-1.19-.308-.066 0-.132-.022-.22-.044a49.823 49.823 0 00-4.407-.859m.001 0l-3.129-18.718-12.822-.045-3.261 18.697m0 0c-1.476.22-2.952.506-4.428.837a.648.648 0 01-.199.044c-.33.088-.639.154-.969.242a.782.782 0 00-.22.044c-.243.066-.485.132-.705.198-.243.044-.463.11-.705.176-.397.11-.771.22-1.168.353-.066 0-.11.022-.176.044h-.044c-1.432.44-2.864.925-4.252 1.453m0 0l-12.074-14.644-11.126 6.386 6.544 17.815m0 0a61.127 61.127 0 00-3.415 2.929l-.044.044-.11.11c-.309.287-.595.551-.904.859-.176.154-.33.33-.506.485-.177.176-.331.352-.507.528-.066.044-.11.11-.176.154-.221.243-.441.485-.683.705-.044.066-.089.11-.155.176a72.967 72.967 0 00-2.952 3.391m0 0l-17.779-6.65-6.456 11.077 14.585 12.156m0 0a74.694 74.694 0 00-1.498 4.25c-.022.066-.022.132-.044.22-.132.374-.242.771-.353 1.167-.066.242-.132.463-.198.705-.066.22-.132.462-.176.683-.11.396-.198.792-.309 1.189a.782.782 0 01-.044.22c-.022.11-.044.22-.088.33a51.194 51.194 0 00-.771 4.074m0 0l-18.726 3.149-.044 12.817 18.704 3.237m0 0a62.03 62.03 0 00.837 4.426c.022.066.022.132.044.22m61.799 36.776c-.066 0-.154.022-.242.022h-.992c-.352 0-.705 0-1.057-.022h-.243c-7.446-.22-14.783-2.092-21.458-5.417m0 0l14.012-24.069m0 0c2.71 1.145 5.684 1.761 8.812 1.783 3.129 0 6.103-.616 8.813-1.717m0 0l13.858 24.135m0 0a51.352 51.352 0 01-21.503 5.286m-1.057-67.497c9.209.044 16.655 7.532 16.633 16.737-.022 9.183-7.534 16.626-16.722 16.604-9.209-.022-16.655-7.531-16.633-16.714.044-9.183 7.534-16.649 16.722-16.627v0zm11.412 36.754c.022-.022.065-.044.087-.066-.022.022-.065.044-.087.066zm33.135 4.383c-.044.066-.066.132-.11.22-.154.264-.33.55-.485.837a19.88 19.88 0 00-.55.925l-.132.198c-3.922 6.342-9.188 11.781-15.423 15.855m0 0l-13.836-24.135m0 0c4.715-3.634 8.02-9.051 8.857-15.239m0 0l27.848.088m0 0a51.042 51.042 0 01-6.169 21.251m-21.524-22.749v-.176.176zm5.089-44.043a51.189 51.189 0 0115.334 15.944c.044.088.088.154.132.22l.529.925c.154.286.33.573.484.859.045.066.067.132.111.22a51.075 51.075 0 016.036 21.273m0 0l-27.848-.088m0 0a23.106 23.106 0 00-8.768-15.283m0 0l13.99-24.07m-5.067 40.938c-.022-.066-.022-.132-.022-.176 0 .044 0 .11.022.176zm-11.501-18.608a.167.167 0 000 0zm-34.171-25.545a51.171 51.171 0 0121.481-5.285h2.533c7.447.22 14.784 2.092 21.459 5.439m0 0l-14.012 24.048m0 0a22.968 22.968 0 00-8.812-1.762 22.619 22.619 0 00-8.813 1.718m0 0l-13.836-24.158m11.125 25.479a.164.164 0 000 0zm-33.134-4.382c.044-.066.088-.154.11-.22.176-.308.374-.617.55-.947.155-.264.309-.551.485-.815.044-.066.088-.154.132-.22a51.445 51.445 0 0115.422-15.856m0 0l13.858 24.158m0 0c-4.736 3.611-8.041 9.029-8.878 15.217m0 0l-27.848-.088m0 0a51.375 51.375 0 016.169-21.229m33.025 44.461c-.044-.022-.066-.044-.11-.066.044.022.066.044.11.066zm-11.501-21.559c0-.066 0-.11.022-.176-.022.066-.022.11-.022.176zm-21.569 25.942c-.044-.089-.066-.155-.11-.221a51.164 51.164 0 01-6.036-21.272m0 0l27.848.088m-.001 0v-.022a23.16 23.16 0 008.769 15.305m0 0l-13.99 24.047m0 0a50.943 50.943 0 01-15.334-15.944c-.044-.066-.088-.154-.132-.22-.154-.264-.308-.55-.485-.837l-.528-.925m21.568-22.99v0zM587.66 805.15l-2.291-14.204-31.792-.286m0 0a117.733 117.733 0 00-2.6-7.069c-.044-.132-.11-.242-.154-.352a34.012 34.012 0 00-.793-1.872c-.154-.374-.331-.749-.485-1.123-.176-.374-.33-.727-.507-1.079a47.285 47.285 0 00-.881-1.872c-.044-.11-.11-.22-.154-.308a91.533 91.533 0 00-3.569-6.651m0 0l20.93-23.937-13.572-16.648-27.671 15.657m0 0a110.718 110.718 0 00-5.795-4.845 3.218 3.218 0 00-.286-.198 55.153 55.153 0 00-1.652-1.255c-.309-.242-.639-.463-.948-.705-.33-.242-.661-.484-.991-.705-.573-.396-1.124-.792-1.697-1.167-.088-.066-.198-.132-.308-.198a107.207 107.207 0 00-6.411-3.986m0 0l6.146-31.182-20.07-7.62-16.15 27.373" stroke="#F2F2F2" stroke-width="3.49" stroke-miterlimit="10" stroke-linecap="round" stroke-linejoin="round"/><path d="M475.96 720.918a118.206 118.206 0 00-7.425-1.299c-.11 0-.242-.022-.352-.044-.683-.088-1.366-.177-2.049-.243l-1.19-.132a22.536 22.536 0 00-1.212-.11c-.683-.066-1.366-.11-2.027-.176-.132 0-.264-.022-.374-.022a96.379 96.379 0 00-7.535-.22m0 0l-10.289-30.082-21.194 3.414-.287 31.777m0 0a125.331 125.331 0 00-7.094 2.598l-.33.132c-.507.221-1.014.419-1.52.639-.111.066-.243.11-.353.176-.375.154-.749.331-1.124.485-.352.176-.727.33-1.101.506-.617.287-1.234.573-1.851.881-.088.044-.176.066-.264.11-.022.022-.044.022-.066.044a95.496 95.496 0 00-6.632 3.568m0 0l-23.948-20.921-16.656 13.565 15.664 27.659m0 .001c-1.674 1.871-3.304 3.787-4.846 5.791-.022.022-.022.044-.045.044-.044.088-.11.154-.154.22-.44.551-.837 1.101-1.256 1.674-.242.308-.462.639-.705.947-.242.33-.484.661-.705.991-.088.11-.154.22-.242.33-.308.441-.617.903-.925 1.366-.066.088-.132.198-.199.308a107.151 107.151 0 00-3.987 6.408m0 0l-31.197-6.144-7.623 20.062 27.385 16.141m0 .001a104.67 104.67 0 00-.727 3.787m81.341 0c4.164-5.021 10.09-8.632 17.03-9.733m0 0c10.091-1.652 19.829 2.4 25.953 9.733l-25.953-9.733zm39.459-50.077c11.368 5.153 21.525 12.728 29.676 22.198.088.11.177.22.265.308.396.462.749.925 1.123 1.387.353.419.705.837 1.036 1.277l.264.331a86.119 86.119 0 0115.753 33.516m-48.734.793a38.738 38.738 0 00-15.973-16.23m0 0l16.59-43.58m-21.327 41.422c.066.022.132.044.176.066-.044-.022-.11-.044-.176-.066zm-63.429-32.922a85.81 85.81 0 0134.061-14.578c.132-.022.265-.044.419-.066.573-.11 1.167-.198 1.762-.309.529-.088 1.08-.176 1.609-.242.132-.022.264-.044.418-.066a86.248 86.248 0 0136.925 3.127m0 0l-16.567 43.559m-.001 0a38.696 38.696 0 00-15.047-.529 38.646 38.646 0 00-14.122 5.241m0 0l-29.457-36.137m25.359 39.066c-.066.044-.111.066-.155.11.044-.044.089-.066.155-.11zm-55.982 1.784l.132-.396c.22-.573.44-1.123.661-1.696.176-.484.374-.991.573-1.497.044-.133.11-.265.154-.397a86.05 86.05 0 0121.172-30.39m0 0l29.456 36.138m0 0a38.96 38.96 0 00-6.169 8.698m-48.91 0a87.99 87.99 0 012.93-10.46" stroke="#F2F2F2" stroke-width="3.49" stroke-miterlimit="10" stroke-linecap="round" stroke-linejoin="round"/><path d="M38.897 520.654l5.288-5.285M2.038 621.337l86.717-86.677m27.583 36.27l60.587-60.56M2.038 685.199l6.764-6.76-6.764 6.76zm174.446-110.526l23.156-23.144M2.038 749.039l10.51-10.504-10.51 10.504zm43.425-203.038l30.47-30.434m-73.895 73.86l8.593-8.588-8.593 8.588zm133.225-69.323l25.865-25.875M2.038 653.268l30.007-29.993-30.007 29.993zm59.089-59.062l52.898-52.873-52.898 52.873zm88.567-24.686l29.28-29.244M2.038 717.108l5.376-5.373-5.376 5.373zM199.199 583.9l55.475-55.472M2.038 780.971l19.74-19.732-19.74 19.732zM218.719 596.32l54.528-54.525M13.142 801.781l21.084-21.075-21.084 21.075zm222.211-190.178l20.952-20.942M41.695 805.15l7.8-7.773-7.8 7.773zm207.56-175.533l21.326-21.317m-10.377 42.303l46.619-46.597m-39.26 71.173l60.124-60.118m-57.701 89.627l27.892-27.879M262.65 743.93l48.734-48.711m-13.968 45.871l38.996-38.956M233.326 805.15l59.992-59.942-59.992 59.942zM42.18 533.339l27.34-27.329m71.846-7.994l5.266-5.263M2.038 637.302l93.15-93.107-93.15 93.107zm132.08-68.178l43.82-43.801m-175.9 175.82l4.957-4.955-4.957 4.955zm186.233-122.308l22.34-22.33M2.038 765.005l14.673-14.666-14.673 14.666zm225.339-161.396l30.845-30.83M25.744 805.15l15.775-15.767-15.775 15.767zm229.393-165.425l30.139-30.126m29.611 34.222l17.757-17.75m-63.12 63.092l25.777-25.743-25.777 25.743zM48.745 558.686l33.598-33.583M2.038 605.371l19.3-19.291-19.3 19.291zm92.753-28.87l80.856-80.797M2.038 669.234l12.382-12.399-12.382 12.399zm161.668-97.754l24.257-24.246M2.038 733.074l7.337-7.333-7.337 7.333zm207.296-143.338l54.638-54.614M6.291 792.664l21.348-21.339-21.348 21.339zm236.354-172.406l21.084-21.053M57.668 805.15l.485-.462-.485.462zm206.7-142.743l58.362-58.357m-54.528 118.365l31.153-31.138m-53.912 85.818l78.455-78.419m-9.342 41.269l31.858-31.866m-97.115 97.071l34.017-34.001-34.017 34.001zm82.398-66.373l12.91-12.926m-79.335 79.299l24.234-24.224-24.234 24.224zm15.972 0l16.172-16.164m-.198 16.164l8.129-8.126" stroke="#F2F2F2" stroke-width="2.607" stroke-miterlimit="10"/><path d="M298.275 679.738c-.132-1.035-.264-2.092-.441-3.127-.088-.617-.176-1.234-.286-1.85-.11-.617-.198-1.233-.309-1.828a131.584 131.584 0 00-.572-3.127c-.044-.176-.066-.352-.111-.551-.044-.264-.088-.55-.154-.836a178.076 178.076 0 00-1.762-7.708c-.243-.925-.485-1.85-.749-2.775m0 0l40.758-27.372-13.593-30.236-47.545 12.31" stroke="#F2F2F2" stroke-width="6.98" stroke-miterlimit="10"/><path d="M273.512 612.638c-2.115-3.237-4.341-6.43-6.698-9.513-.11-.154-.22-.308-.353-.462a104.763 104.763 0 00-1.938-2.489c-.397-.484-.771-.969-1.168-1.453-.397-.485-.793-.969-1.19-1.432a109.137 109.137 0 00-2.071-2.422c-.11-.132-.242-.286-.352-.419a162.757 162.757 0 00-7.998-8.478m0 0l21.635-44.087-26.922-19.379-35.009 34.42m0 0c-3.437-1.74-6.962-3.392-10.575-4.889-.154-.066-.33-.154-.506-.22-.97-.397-1.961-.793-2.953-1.189l-1.718-.661c-.595-.22-1.168-.44-1.763-.661-.991-.374-1.983-.704-2.974-1.057-.176-.066-.352-.132-.529-.176-3.701-1.277-7.424-2.378-11.17-3.369m0 0l-3.326-48.976-33.004-3.347-13.086 47.324m0 0c-3.878.198-7.733.551-11.611 1.035-.176.022-.353.044-.551.088-.837.11-1.674.198-2.533.33-.199.022-.397.066-.617.089-.617.11-1.234.198-1.851.308-.595.088-1.212.198-1.829.308-1.035.176-2.071.374-3.106.573-.154.022-.309.044-.441.066-.044.022-.088.022-.11.044-3.833.748-7.6 1.629-11.346 2.664m0 0l-27.386-40.761-30.249 13.609 12.316 47.522m0 0a75.196 75.196 0 00-2.402 1.586 162.494 162.494 0 00-6.433 4.58c-.22.176-.462.352-.683.529-.022.022-.066.044-.088.066-.11.088-.242.176-.352.264-.838.661-1.675 1.299-2.512 1.96-.485.374-.947.771-1.432 1.167l-1.454 1.189a9.888 9.888 0 01-.485.397 130.19 130.19 0 00-1.917 1.673c-.154.11-.286.22-.418.353a162.328 162.328 0 00-8.504 7.971m0 0l-21.812-10.68m0 212.177l1.41-.374m0 0c2.115 3.259 4.34 6.43 6.698 9.535.132.154.242.286.352.441.64.836 1.3 1.673 1.94 2.51.396.484.792.947 1.189 1.431.396.485.77.969 1.19 1.454.374.44.749.903 1.145 1.343m297.383 0l-31.175-31.667m0 0c1.74-3.457 3.393-6.981 4.891-10.57.066-.176.132-.352.22-.507.397-.991.793-1.96 1.19-2.95.022-.067.044-.111.066-.177.022-.066.044-.11.066-.176l.529-1.387c.22-.573.441-1.167.661-1.74.352-.991.705-2.004 1.057-2.995.066-.176.133-.352.177-.528 1.255-3.678 2.379-7.4 3.348-11.143m0 0l48.999-3.325 3.349-32.989-47.324-13.102m-.001-.001c-.198-3.853-.55-7.729-1.035-11.583-.022-.198-.066-.374-.088-.572M58.77 805.15a132.55 132.55 0 01-38.908-47.698c-.088-.199-.176-.375-.264-.573a132.83 132.83 0 01-1.146-2.554c-.353-.749-.705-1.52-1.036-2.269-.066-.198-.154-.396-.242-.594a132.331 132.331 0 01-9.87-60.934c0-.198.022-.396.044-.594.066-.925.176-1.872.264-2.797l.265-2.51c.022-.199.044-.397.088-.595 2.644-20.678 10.179-40.498 21.921-57.74.11-.155.22-.331.353-.507.485-.683.97-1.365 1.476-2.048a71.947 71.947 0 011.63-2.246c.11-.176.243-.331.375-.507a132.313 132.313 0 0147.853-39c.176-.11.374-.198.55-.286.793-.352 1.587-.705 2.358-1.057.837-.374 1.652-.749 2.49-1.101.197-.088.374-.176.572-.242a132.795 132.795 0 0160.961-9.888c.199.022.419.044.617.044.882.088 1.741.176 2.6.264.903.088 1.785.176 2.666.287l.639.066c20.665 2.664 40.494 10.174 57.723 21.911.176.132.352.242.528.352.705.507 1.388 1.013 2.093 1.52.727.528 1.476 1.035 2.203 1.585.155.133.331.265.507.375 16.568 12.64 29.985 29.068 39.018 47.83.088.199.198.375.286.573.353.749.683 1.519 1.036 2.29.375.837.771 1.696 1.124 2.533.088.198.176.396.242.594a132.462 132.462 0 019.892 60.89l-.066.682a96.87 96.87 0 01-.242 2.511c-.088.903-.177 1.806-.287 2.709l-.066.66a132.846 132.846 0 01-21.921 57.675c-.11.176-.243.352-.353.528-.529.771-1.101 1.52-1.63 2.268-.485.683-.969 1.344-1.476 2.026-.132.154-.243.331-.375.507a131.997 131.997 0 01-25.116 25.06" stroke="#F2F2F2" stroke-width="6.98" stroke-miterlimit="10"/><path d="M39.294 745.12c13.725 30.499 39.81 51.596 69.686 60.03m59.066 0a107.939 107.939 0 0015.026-5.461c54.792-24.62 79.225-88.967 54.594-143.712m-145.453 96.52c-14.32 6.43-31.152.044-37.585-14.27-6.434-14.314-.044-31.139 14.276-37.569 14.32-6.452 31.153-.066 37.586 14.248 6.433 14.336.044 31.138-14.276 37.591z" stroke="#F2F2F2" stroke-width="6.98" stroke-miterlimit="10"/><path d="M176.176 784.362c-14.321 6.43-31.153.044-37.586-14.27s-.044-31.138 14.277-37.569c14.32-6.452 31.152-.044 37.585 14.27 6.434 14.314.044 31.139-14.276 37.569zm-44.548-80.731c-1.718-3.788-.022-8.258 3.768-9.954a7.536 7.536 0 019.958 3.788 7.517 7.517 0 01-3.79 9.932 7.495 7.495 0 01-9.936-3.766v0zm-7.535-35.058c-14.32 6.43-31.152.044-37.586-14.27-6.433-14.314-.044-31.138 14.277-37.569 14.321-6.452 31.153-.066 37.586 14.248s.044 31.139-14.277 37.591v0zm83.963 31.865c-14.321 6.43-31.131.044-37.586-14.27-6.433-14.314-.044-31.138 14.276-37.569 14.321-6.452 31.153-.066 37.586 14.248 6.455 14.336.066 31.139-14.276 37.591z" stroke="#F2F2F2" stroke-width="6.98" stroke-miterlimit="10"/><path d="M670.961 521.205l2.424-2.422m-36.903 36.908l11.72-11.716-11.72 11.716zm13.835 15.415l43.513-43.471m-72.484 72.451l14.475-14.49-14.475 14.49zm85.108-55.825l27.76-27.769m-91.343 91.302l14.298-14.292-14.298 14.292zm91.144-61.837l10.62-10.614M632.141 647.785l26.747-26.735-26.747 26.735zm41.838-114.953l13.968-13.961m-44.217 44.197l14.276-14.292-14.276 14.292zm71.404-42.105l11.853-11.87m-95.418 95.375l36.264-36.247-36.264 36.247zm49.593-49.548l24.234-24.224-24.234 24.224zm40.582-11.319l13.417-13.411M627.603 637.699l7.887-7.884-7.887 7.884zm17.14-17.133l11.809-11.803-11.809 11.803zm99.671-70.381l25.425-25.413M649.216 645.34l13.902-13.895-13.902 13.895zm104.143-89.473l24.984-24.973M659.174 650.031l9.65-9.668-9.65 9.668zm101.808-87.161l9.606-9.58m-108.77 108.72l14.012-14.005-14.012 14.005zm105.553-90.86l9.76-9.778M659.064 679.407l25.028-25.038-25.028 25.038zm113.308-98.656l21.371-21.339M683.497 669.608l10.223-10.24-10.223 10.24zm-11.016-142.589l12.514-12.531m-44.9 44.88l13.021-12.992-13.021 12.992zm77.838-48.535l2.401-2.401m-94.493 94.451l17.845-17.816-17.845 17.816zm19.85-19.842l51.069-51.046-51.069 51.046zm68.915-39.616l20.07-20.084m-91.122 91.103l12.8-12.794-12.8 12.794zm95.859-66.571l10.245-10.24M639.346 647.895l21.458-21.449-21.458 21.449zm117.979-88.681l14.144-14.116M662.567 653.951l9.606-9.602-9.606 9.602zm107.492-78.177l13.792-13.807M663.316 682.468l25.403-25.412-25.403 25.412zm12.161-143.844l15.4-15.371m-68.717 68.685l5.817-5.813-5.817 5.813zm25.205-25.192l15.554-15.548-15.554 15.548zm49.219-19.952l37.035-37.018m-96.322 96.278l22.45-22.44-22.45 22.44zm90.858-61.55l11.126-11.121M629.872 642.742l27.584-27.571-27.584 27.571zm119.191-89.892l25.028-25.017M656.023 645.847l9.782-9.778-9.782 9.778zm108.308-78.991l9.672-9.668M654.812 676.324l24.984-24.972-24.984 24.972zm119.477-90.178l26.746-26.712M688.52 671.898l10.597-10.614-10.597 10.614z" stroke="#F2F2F2" stroke-width="1.765" stroke-miterlimit="10"/><path d="M697.069 532.458l-12.536-18.674-13.88 6.232 5.662 21.779m0 0l-1.124.727a88.92 88.92 0 00-2.93 2.092c-.11.088-.22.176-.331.242 0 .022-.022.022-.022.044-.066.022-.11.066-.176.11-.374.309-.771.595-1.145.903l-.661.529c-.221.176-.441.374-.661.55-.066.066-.155.11-.221.176-.286.265-.595.507-.881.771-.066.044-.132.11-.198.154a76.7 76.7 0 00-3.878 3.656m0 0l-20.203-9.888-8.9 12.31 15.774 16.054m0 0a73.521 73.521 0 00-2.225 4.823c-.044.088-.066.176-.11.242-.176.462-.375.903-.551 1.343-.088.264-.198.551-.308.815-.089.264-.199.528-.287.793-.176.462-.33.903-.485 1.365a1.072 1.072 0 00-.088.242 85.995 85.995 0 00-1.542 5.109m0 0l-22.45 1.52-1.52 15.129 21.679 5.989m0 0a61.38 61.38 0 00.485 5.308c0 .088.022.176.022.264l.198 1.431.132.859c.066.264.11.551.154.837.088.462.177.947.265 1.431.022.066.022.154.044.242.352 1.762.749 3.48 1.233 5.198m.001 0l-18.683 12.53 6.235 13.873 21.767-5.659m0 0a67.632 67.632 0 003.084 4.36.773.773 0 00.155.22c.286.375.594.749.881 1.145.176.221.374.441.551.661l.528.661c.331.374.639.726.948 1.101.066.066.11.132.176.198a67.882 67.882 0 003.657 3.876m0 0l-9.914 20.193 12.338 8.897 16.039-15.789m0 0a64.727 64.727 0 004.847 2.246c.066.044.154.066.22.11.463.176.903.352 1.366.551.264.088.529.198.793.286.265.11.529.22.793.308.463.176.926.33 1.366.485.088.022.177.066.265.088a84.425 84.425 0 005.089 1.541m44.526-16.956c-.397.176-.771.352-1.146.506-.353.176-.705.33-1.058.485-.11.044-.198.066-.286.11a60.897 60.897 0 01-27.914 4.536c-.11-.022-.198-.022-.308-.022l-1.256-.132c-.375-.044-.771-.066-1.146-.11a1.288 1.288 0 00-.286-.044 60.88 60.88 0 01-26.46-10.042c-.066-.044-.154-.11-.243-.154-.33-.242-.683-.507-1.013-.749-.308-.22-.639-.44-.947-.683a6.073 6.073 0 01-.243-.176 60.773 60.773 0 01-17.867-21.911 32.616 32.616 0 00-.133-.264 60.427 60.427 0 01-.528-1.168 41.58 41.58 0 01-.463-1.035c-.044-.088-.066-.176-.11-.264a60.91 60.91 0 01-4.539-27.923c.022-.088.022-.176.022-.286l.133-1.256c.044-.396.066-.77.11-1.167.022-.088.022-.176.044-.264a60.91 60.91 0 0110.046-26.47c.044-.066.11-.154.154-.22.221-.33.463-.639.683-.947.243-.352.485-.683.749-1.035.045-.066.111-.154.177-.22a60.622 60.622 0 0121.921-17.882c.088-.044.176-.088.265-.11.352-.176.705-.33 1.079-.506.375-.154.749-.331 1.124-.507.088-.022.176-.066.264-.11a60.977 60.977 0 0127.936-4.514c.088 0 .198 0 .287.022a21.7 21.7 0 011.189.11l1.234.132c.088 0 .176.022.286.044a60.655 60.655 0 0126.438 10.02c.088.066.177.11.243.176.33.22.639.462.969.683l.992.726c.088.066.154.133.242.177a60.793 60.793 0 0117.89 21.911c.044.088.088.176.11.264.176.353.33.705.484 1.057.177.375.353.771.529 1.167.022.088.066.177.11.265a60.79 60.79 0 014.517 27.901c0 .11-.022.198-.022.308-.022.397-.066.771-.11 1.145l-.133 1.256c-.022.088-.022.198-.044.308a60.602 60.602 0 01-10.024 26.404c-.066.088-.11.176-.176.264-.243.33-.485.683-.749 1.035l-.661.925a1.625 1.625 0 00-.177.22 60.814 60.814 0 01-21.921 17.881l-.264.133v0z" stroke="#F2F2F2" stroke-width="3.49" stroke-miterlimit="10" stroke-linecap="round" stroke-linejoin="round"/><path d="M2.038 50.451l29.523-29.486M2.038 114.314l29.523-29.51M2.038 18.542L19.862.727M2.038 82.382l29.523-29.508M2.038 146.223l29.523-29.487M2.038 178.154l29.523-29.509m-29.523 61.44l29.523-29.509M2.038 241.994l29.523-29.487M2.038 273.925l29.523-29.508m-29.523 61.44l29.523-29.509M2.038 337.766l29.523-29.487M2.038 369.697l29.523-29.509m-9.033 40.938l9.033-9.007M2.038 2.576L3.89.726M2.038 66.417l29.523-29.509M2.038 130.279l29.523-29.509M2.038 194.12l29.523-29.509M2.038 257.96l29.523-29.509M2.038 321.822l29.523-29.509M2.038 34.508l29.523-29.51M2.038 98.348L31.561 68.84M2.038 162.188l29.523-29.508M2.038 226.051l29.523-29.509M2.038 289.891l29.523-29.509m-29.523 93.35l29.523-29.509M6.577 381.126l24.984-24.972M2.038.727h29.523v380.399H2.038M739.831 805.15l-49.219-49.196m17.296 49.196l-18.33-18.3m34.281 18.3l-34.281-34.265m0 34.265v-49.196h380.592v49.196" stroke="#F2F2F2" stroke-width="2.607" stroke-miterlimit="10"/><path d="M392.923 631.467c.066-.397.11-.771.154-1.145.022-.177.044-.375.066-.573l.066-1.123v-1.145c0-1.432-.154-2.841-.44-4.25l6.984-6.431-5.134-9.094-9.099 2.664-.991-.859c-.309-.242-.617-.462-.904-.704a8.651 8.651 0 00-.484-.331c-.309-.22-.617-.418-.948-.616-.022-.022-.066-.044-.088-.066-.022-.022-.044-.022-.066-.044-.132-.066-.264-.155-.374-.221-.133-.066-.243-.154-.375-.22-.022 0-.044-.022-.088-.044-.022-.022-.066-.022-.088-.044a16.843 16.843 0 00-1.52-.771 20.98 20.98 0 00-2.292-.925l-2.071-9.249-10.443-.11-2.247 9.227c-.771.243-1.542.529-2.291.859-.529.22-1.036.485-1.542.749-.044.022-.066.044-.11.044-.023.022-.045.044-.067.044a3.312 3.312 0 00-.374.22c-.022 0-.044.022-.066.022-.11.066-.199.132-.309.198-.022 0-.044.022-.066.022-.198.133-.396.243-.595.375-.154.088-.308.198-.484.308a26.618 26.618 0 00-2.402 1.828l-9.033-2.841-5.331 9.007 6.874 6.54a25.396 25.396 0 00-.331 1.806c-.022.198-.044.418-.066.639a16.88 16.88 0 00-.11 1.101v.044c0 .22-.022.44-.022.66v.529a1.332 1.332 0 000 .418v.088c0 1.41.154 2.841.44 4.251l-6.984 6.408 5.134 9.117 9.099-2.665a23.768 23.768 0 002.357 1.872c.331.22.639.44.97.639.022.022.066.044.088.066.022 0 .044.022.066.044.132.066.264.132.374.22.133.066.243.132.375.22.022 0 .044.022.066.022.044.022.066.044.11.066.485.264 1.014.529 1.52.771.749.352 1.498.661 2.292.925l2.049 9.249 10.465.088 2.247-9.205a22.16 22.16 0 002.291-.859 31.874 31.874 0 001.542-.749c.022-.022.066-.044.11-.066.022 0 .044-.022.066-.022.111-.088.243-.154.375-.22.022-.022.044-.022.066-.022.088-.066.198-.132.309-.198.022 0 .044-.022.066-.044a24.123 24.123 0 003.481-2.511l9.033 2.841 5.331-8.985-6.874-6.562c.089-.418.177-.859.243-1.277zm-16.282 9.183c-.022 0-.022.022-.044.022a14.65 14.65 0 01-6.653 1.717h-.727a14.833 14.833 0 01-6.632-1.849c-.022 0-.044-.022-.066-.022a1.578 1.578 0 00-.264-.155.898.898 0 00-.243-.154l-.044-.044a14.636 14.636 0 01-4.825-4.889c0-.022-.022-.044-.022-.066a1.64 1.64 0 01-.154-.264 2.4 2.4 0 00-.132-.242c-.022-.022-.044-.044-.044-.066a14.924 14.924 0 01-1.719-6.651v-.66c0-.022 0-.044.022-.066a14.597 14.597 0 011.829-6.629c.022 0 .022-.022.044-.044a1.64 1.64 0 01.154-.264c.044-.088.089-.176.133-.242.022-.022.022-.044.044-.066a14.622 14.622 0 014.913-4.801l.044-.044c.088-.044.176-.088.242-.132.088-.066.176-.11.287-.154l.044-.044a14.614 14.614 0 016.653-1.696h.727c2.336.088 4.605.704 6.632 1.85.022 0 .044.022.066.022.066.044.154.11.242.154s.176.088.264.154c.023 0 .023.022.045.022a15.112 15.112 0 014.824 4.911c0 .022.023.044.023.066.044.066.11.154.154.242l.132.264c.022.022.022.044.044.066a14.839 14.839 0 011.718 6.651v.352c0 .088 0 .198-.022.309v.066a14.507 14.507 0 01-1.828 6.606c-.022.022-.022.044-.044.066-.044.088-.088.154-.132.242-.067.088-.111.177-.155.265-.022.022-.044.044-.044.066a14.628 14.628 0 01-4.913 4.8c0 .022-.022.022-.044.044-.088.044-.198.088-.286.155a2.317 2.317 0 01-.243.132zM97.347 225.676c.044-.374.11-.748.154-1.123.022-.198.022-.374.044-.572a9.7 9.7 0 00.066-1.145v-.199c.022-.132.022-.286.022-.418v-.528a25.296 25.296 0 00-.44-4.251l6.984-6.408-5.134-9.095-9.12 2.665a9.244 9.244 0 00-.992-.859 14.548 14.548 0 00-.903-.705l-.463-.33c-.309-.22-.64-.418-.948-.639-.044 0-.066-.022-.11-.044-.022-.022-.044-.044-.066-.044a2.094 2.094 0 00-.374-.22c-.11-.088-.243-.154-.375-.22-.022-.022-.044-.022-.066-.044-.044-.022-.066-.044-.11-.066a23.967 23.967 0 00-1.52-.771 25.64 25.64 0 00-2.27-.903l-2.07-9.271-10.444-.088-2.247 9.205c-.793.264-1.564.55-2.313.881-.507.22-1.035.462-1.542.749a.167.167 0 00-.088.044c-.022.022-.044.022-.066.044l-.397.198c0 .022-.022.022-.044.044-.11.044-.22.11-.33.176-.023.022-.045.022-.067.044-.198.11-.396.242-.573.352-.176.111-.33.221-.484.309a27.655 27.655 0 00-2.402 1.85l-9.055-2.841-5.31 9.007 6.853 6.54a16.786 16.786 0 00-.309 1.784c-.044.22-.066.44-.088.638-.044.375-.066.749-.088 1.101v.066c-.022.221-.022.441-.044.661v1.035c.022 1.409.154 2.841.44 4.25l-6.983 6.408 5.133 9.095 9.12-2.664a21.89 21.89 0 002.358 1.894c.309.22.617.418.948.616a.304.304 0 01.088.066c.044.022.066.044.088.044.11.088.242.154.374.221.11.088.243.154.375.22.022.022.044.022.066.044.022.022.066.044.088.066.507.264 1.014.528 1.542.771.727.33 1.499.638 2.27.903l2.07 9.249 10.444.11 2.247-9.205a26.747 26.747 0 002.313-.881 13.81 13.81 0 001.52-.749c.044 0 .066-.022.11-.044.022-.022.044-.022.067-.044l.396-.198c0-.022.022-.022.044-.044.11-.066.22-.11.309-.176.044-.022.066-.022.088-.044a23.864 23.864 0 003.459-2.511l9.055 2.841 5.309-9.007-6.852-6.54c.089-.441.177-.859.243-1.3zm-16.281 9.183c-.023.022-.045.022-.067.044a14.935 14.935 0 01-6.653 1.718h-.661c-.022-.022-.044-.022-.066-.022a14.52 14.52 0 01-6.61-1.828c-.022-.022-.044-.022-.066-.044a1.64 1.64 0 01-.264-.154 2.398 2.398 0 01-.243-.132c-.022-.022-.044-.022-.066-.044a14.63 14.63 0 01-4.803-4.911l-.044-.044a1.64 1.64 0 00-.154-.264l-.132-.264c-.022-.022-.022-.044-.044-.044a14.895 14.895 0 01-1.696-6.651v-.749a14.81 14.81 0 011.85-6.606c0-.022.022-.044.022-.066.044-.088.11-.176.154-.264.044-.067.11-.155.155-.243 0-.022.022-.022.022-.044a14.897 14.897 0 014.913-4.822c.022 0 .044-.022.066-.022.066-.045.154-.111.242-.155s.176-.088.265-.154c.022 0 .044 0 .066-.022a14.934 14.934 0 016.653-1.717h.661c.022 0 .044.022.066.022 2.314.066 4.583.704 6.61 1.827.022.022.044.022.066.044a2.4 2.4 0 01.242.132c.088.067.176.111.265.155.022.022.044.022.066.044a14.635 14.635 0 014.802 4.91c.023 0 .023.022.045.045l.132.264c.044.088.11.176.154.264 0 .022.022.022.022.044a14.633 14.633 0 011.718 6.651v.726a14.815 14.815 0 01-1.85 6.629c0 .022-.022.044-.022.066-.044.066-.11.154-.154.22-.044.11-.088.198-.155.286 0 .022-.022.022-.044.044a14.834 14.834 0 01-4.89 4.823c-.023 0-.045.022-.067.022a1.64 1.64 0 01-.264.154c-.088.044-.154.088-.243.132zm-56.71 291.213c.044-.375.11-.749.154-1.123.023-.199.023-.375.045-.573.044-.374.066-.749.066-1.145v-.198c.022-.132.022-.287.022-.419v-.528a23.18 23.18 0 00-.44-4.25l6.983-6.409-5.133-9.094-9.121 2.664a9.367 9.367 0 00-.992-.859 14.193 14.193 0 00-.903-.704l-.463-.331c-.308-.22-.639-.418-.947-.638-.044 0-.066-.022-.11-.044-.022-.022-.044-.044-.066-.044-.11-.089-.243-.155-.375-.221a2.09 2.09 0 00-.374-.22c-.022-.022-.044-.022-.066-.044-.044-.022-.067-.044-.11-.066a24.508 24.508 0 00-1.52-.771 25.949 25.949 0 00-2.27-.903l-2.071-9.271-4.627-.044v16.935c2.181.154 4.296.771 6.213 1.828.022.022.044.022.066.044.088.044.177.088.243.132.088.066.176.11.264.154.022.022.044.022.066.044a14.629 14.629 0 014.803 4.911c.022 0 .022.022.044.044l.132.264c.044.088.11.176.155.264 0 .022.022.022.022.044a14.636 14.636 0 011.718 6.651v.727a14.816 14.816 0 01-1.85 6.628c0 .022-.023.044-.023.066-.044.066-.11.154-.154.22-.044.11-.088.199-.154.287 0 .022-.022.022-.044.044a14.83 14.83 0 01-4.891 4.822c-.022 0-.044.022-.066.022a1.652 1.652 0 01-.265.155c-.088.044-.154.088-.242.132-.022.022-.044.022-.066.044a15 15 0 01-5.97 1.695v16.935l4.01.044 2.246-9.205a26.414 26.414 0 002.314-.881c.506-.22 1.035-.462 1.52-.749.044 0 .066-.022.11-.044.022-.022.044-.022.066-.044l.397-.198c0-.022.022-.022.044-.044.11-.066.22-.11.308-.176.044-.022.066-.022.088-.044a23.859 23.859 0 003.46-2.511l9.054 2.841 5.31-9.007-6.852-6.54c.088-.44.176-.859.242-1.299z" fill="#F2F2F2"/><path d="M285.1 805.15c8.901-85.575 81.275-152.278 169.247-152.278 87.972 0 160.346 66.703 169.246 152.278" stroke="#F2F2F2" stroke-width="1.765" stroke-miterlimit="10"/><path d="M2.038 328.781c24.786-42.986 71.228-71.9 124.435-71.9 79.291 0 143.557 64.237 143.557 143.492m0 0c0 79.255-64.266 143.492-143.557 143.492-53.207 0-99.65-28.936-124.435-71.922l267.992-71.57zM123.653 805.15c9.253-174.542 153.758-313.212 330.694-313.212 176.935 0 321.44 138.67 330.693 313.212" stroke="#F2F2F2" stroke-width=".882" stroke-miterlimit="10"/><path d="M2.038 413.454c6.566 62.849 59.86 111.979 124.435 111.979 69.003 0 125.139-56.089 125.139-125.06s-56.136-125.082-125.139-125.082c-64.575 0-117.87 49.152-124.435 111.979" stroke="#F2F2F2" stroke-width="6.98" stroke-miterlimit="10"/><path d="M689.578 805.15V638.271h197.05V805.15" stroke="#F2F2F2" stroke-width="2.607" stroke-miterlimit="10"/><path d="M2.038 458.312H415.02V805.15" stroke="#F2F2F2" stroke-width="1.765" stroke-miterlimit="10"/><path d="M2.038 130.411H302.13V805.15" stroke="#F2F2F2" stroke-width="1.765" stroke-miterlimit="10"/><path d="M685.304 670.313V805.15h4.274V670.313h-4.274z" fill="#F2F2F2"/></g><defs><linearGradient id="paint0_linear" x1="647.5" y1="926" x2="-6.14" y2="619.875" gradientUnits="userSpaceOnUse"><stop stop-color="#E52D2D"/><stop offset=".251" stop-color="#E11F28"/><stop offset=".49" stop-color="#333867"/><stop offset=".812" stop-color="#46A8DE"/><stop offset="1" stop-color="#46A8DE"/></linearGradient><filter id="filter0_d" x="-343" y="-8" width="1049.76" height="816" filterUnits="userSpaceOnUse" color-interpolation-filters="sRGB"><feFlood flood-opacity="0" result="BackgroundImageFix"/><feColorMatrix in="SourceAlpha" values="0 0 0 0 0 0 0 0 0 0 0 0 0 0 0 0 0 0 127 0"/><feOffset dx="6"/><feGaussianBlur stdDeviation="4"/><feColorMatrix values="0 0 0 0 0 0 0 0 0 0 0 0 0 0 0 0 0 0 0.25 0"/><feBlend in2="BackgroundImageFix" result="effect1_dropShadow"/><feBlend in="SourceGraphic" in2="effect1_dropShadow" result="shape"/></filter></defs></svg>