<svg width="484" height="400" fill="none" xmlns="http://www.w3.org/2000/svg"><g opacity=".4"><path d="M100.254 233.387c-.012-.146-.024-.304-.049-.449-.012-.085-.024-.17-.036-.268l-.037-.255a4.584 4.584 0 00-.085-.449c0-.025 0-.061-.012-.086 0-.036-.012-.072-.012-.121a35.575 35.575 0 00-.243-1.106 4.577 4.577 0 00-.097-.401" stroke="#F6FFFF" stroke-width="1.765" stroke-miterlimit="10"/><path d="M99.683 230.252l5.896-3.816-1.884-4.35-6.82 1.641m0 0a24.62 24.62 0 00-.936-1.373c-.024-.025-.037-.037-.049-.061-.097-.122-.182-.243-.28-.365-.048-.073-.109-.133-.157-.206-.061-.073-.11-.146-.17-.207-.098-.121-.195-.243-.292-.352-.013-.025-.025-.049-.05-.061a20.968 20.968 0 00-1.118-1.239m0 0l3.198-6.246-3.805-2.844-5.094 4.849m0 0a27.121 27.121 0 00-1.496-.729c-.024 0-.048-.013-.072-.025-.146-.061-.28-.121-.426-.182-.073-.036-.158-.061-.243-.097-.085-.037-.158-.061-.243-.097-.146-.049-.292-.11-.426-.158a.167.167 0 00-.085-.025 18.619 18.619 0 00-1.58-.51m-.001 0l-.364-7.011-4.717-.559-1.981 6.744m-.001 0c-.547.024-1.106.06-1.653.121-.036 0-.06 0-.085.012l-.365.037c-.024.012-.06.012-.085.012-.085.012-.17.024-.267.036-.085.013-.17.025-.255.049-.159.024-.304.049-.45.073-.025 0-.049 0-.061.012h-.024a26.32 26.32 0 00-1.63.352" stroke="#F6FFFF" stroke-width="1.765" stroke-miterlimit="10"/><path d="M71.613 213.678l-3.818-5.894-4.352 1.884 1.641 6.816m0 0c-.11.073-.231.146-.34.231-.317.195-.632.413-.937.632a.677.677 0 01-.097.073c0 .012-.012.012-.012.012-.012.012-.036.025-.048.037-.122.097-.244.182-.365.279-.073.049-.134.109-.207.158-.073.061-.146.109-.207.17-.024.025-.048.037-.073.061a4.708 4.708 0 00-.28.231 22.15 22.15 0 00-1.289 1.166" stroke="#F6FFFF" stroke-width="1.765" stroke-miterlimit="10"/><path d="M61.23 219.534l-6.26-3.183-2.846 3.803 4.851 5.079m0 .001c-.255.486-.498.984-.729 1.494 0 .024-.012.049-.024.085-.061.134-.122.268-.183.413-.036.085-.06.158-.097.243-.036.085-.06.171-.097.243-.049.146-.11.292-.158.438a.168.168 0 00-.024.073 18.323 18.323 0 00-.511 1.579m0 .001l-7.015.364-.559 4.715 6.747 1.981" stroke="#F6FFFF" stroke-width="1.765" stroke-miterlimit="10"/><path d="M54.325 236.862c.024.547.061 1.106.122 1.665 0 .025 0 .049.012.073.012.146.036.304.048.45.013.085.025.182.037.267.012.085.024.17.049.267l.073.438c0 .024.012.061.012.085.097.547.219 1.094.352 1.628m0 0l-5.896 3.816 1.884 4.362 6.82-1.652m.001 0c.303.461.608.923.936 1.373.024.024.036.048.048.06.098.122.183.243.28.365.049.073.11.146.158.207.06.072.11.145.17.218.097.11.195.231.292.341a26.724 26.724 0 001.167 1.3m0 0l-3.185 6.246 3.805 2.843 5.081-4.848m.001 0c.486.255.984.498 1.495.729.024.012.048.012.073.024.146.061.28.122.425.182.085.037.158.061.244.098.085.036.17.06.255.097.133.061.28.109.413.158.037.012.06.024.085.024a18.39 18.39 0 001.58.511m.001-.001l.364 7.012 4.717.559 1.982-6.744m0 0a19.383 19.383 0 001.666-.122c.024 0 .048 0 .073-.012l.364-.036c.025 0 .061-.012.085-.012.085-.013.183-.025.268-.037.085-.012.17-.024.267-.036.146-.025.292-.049.438-.085.024 0 .049 0 .073-.013h.012a23.905 23.905 0 001.629-.352" stroke="#F6FFFF" stroke-width="1.765" stroke-miterlimit="10"/><path d="M83.1 258.31l3.818 5.893 4.364-1.883-1.653-6.817m.001 0c.461-.292.923-.608 1.373-.936 0-.012.012-.012.012-.012.013-.012.037-.024.049-.037.122-.085.243-.182.365-.279.073-.049.133-.109.206-.158.073-.061.146-.109.22-.17a.243.243 0 01.06-.049c.097-.085.194-.158.28-.231.024-.024.048-.036.06-.06.426-.365.84-.729 1.24-1.118m0 0l6.25 3.183 2.844-3.791-4.85-5.091m-.001 0c.255-.486.498-.984.73-1.495.011-.024.011-.048.023-.073.061-.145.122-.279.183-.425 0 0 .012-.012.012-.024 0 0 0-.012.012-.025.025-.06.049-.133.073-.194.037-.085.073-.17.097-.243.061-.146.11-.292.158-.425a.17.17 0 00.025-.085c.194-.523.364-1.045.51-1.58m0 0l7.015-.365.559-4.714-6.747-1.981m0 0a19.137 19.137 0 00-.121-1.653c0-.036 0-.061-.013-.085m-15.111 19.734c-.121.049-.243.109-.364.158l-.329.146a.228.228 0 00-.085.024 19.017 19.017 0 01-8.74 1.276c-.025 0-.061 0-.086-.012l-.401-.036a3.281 3.281 0 00-.353-.049c-.036 0-.06-.012-.097-.012a18.836 18.836 0 01-8.194-3.269c-.036-.012-.06-.036-.085-.049-.11-.072-.206-.158-.316-.23l-.292-.219c-.024-.024-.048-.037-.073-.061a19.03 19.03 0 01-5.47-6.926c-.012-.025-.025-.061-.037-.085-.048-.122-.11-.243-.158-.365a3.734 3.734 0 01-.133-.328c-.013-.024-.025-.061-.037-.085a18.993 18.993 0 01-1.276-8.737c0-.024.012-.061.012-.085.012-.134.024-.267.048-.401l.037-.352c0-.037.012-.061.012-.085a19.063 19.063 0 013.27-8.215c.012-.024.037-.048.049-.073l.219-.291c.073-.098.158-.207.243-.316.012-.025.036-.049.049-.073a19.126 19.126 0 016.929-5.468c.037-.013.06-.025.085-.037.11-.048.231-.097.34-.146a8.74 8.74 0 00.353-.146.6.6 0 00.085-.036 19.017 19.017 0 018.741-1.276c.037 0 .06.012.097.012l.365.037c.134.024.255.036.39.048.023 0 .048.013.084.013a19.03 19.03 0 018.206 3.268c.025.012.049.037.073.049l.292.219c.11.085.206.158.316.23a.305.305 0 00.073.061 19.124 19.124 0 015.47 6.927c.013.036.025.06.037.085l.146.328c.048.121.097.243.158.364.012.037.012.061.024.085a18.993 18.993 0 011.277 8.737c0 .037 0 .061-.012.097l-.037.353a3.805 3.805 0 01-.049.389c0 .036-.012.073-.012.097a18.858 18.858 0 01-3.27 8.202c-.012.024-.036.049-.049.073-.073.109-.158.207-.243.316-.073.097-.133.194-.206.292-.025.024-.037.048-.061.073a19.035 19.035 0 01-6.93 5.468c-.024.012-.06.024-.085.036v0z" stroke="#F6FFFF" stroke-width="1.765" stroke-miterlimit="10"/><path d="M-69.494 184.769l.073.62c.024.121.036.243.06.364.013.11.025.231.05.353.036.206.06.413.097.607.012.037.012.073.024.11.012.06.012.109.024.17.097.498.207 1.008.328 1.507.037.182.085.364.134.534l-8.036 5.213 2.553 5.93 9.313-2.248a32.16 32.16 0 001.276 1.884c.024.024.037.048.06.085.122.158.244.328.378.486l.219.291c.073.098.158.195.23.28.134.17.256.328.39.486l.072.073c.487.583.997 1.142 1.532 1.677l-4.352 8.53 5.179 3.864 6.93-6.598c.668.352 1.349.68 2.054.984a.77.77 0 00.097.037c.183.085.377.17.572.243.11.048.218.097.328.133.121.049.23.098.34.134.195.085.39.146.584.219.036.012.06.024.097.036.717.255 1.447.486 2.164.693l.498 9.551 6.42.753 2.698-9.174c.754-.024 1.52-.085 2.274-.17.036 0 .073 0 .097-.012.17-.012.34-.037.498-.061.037 0 .085-.012.122-.012.121-.012.243-.037.365-.049.121-.024.23-.036.352-.061a8.58 8.58 0 00.608-.097c.037 0 .06-.012.085-.012.012 0 .025 0 .025-.012a27.102 27.102 0 002.224-.486l5.203 8.032 5.945-2.552-2.261-9.296c.158-.109.328-.206.474-.304.438-.279.863-.571 1.277-.874a.547.547 0 01.133-.098c0-.012.013-.012.013-.024.024-.012.048-.024.072-.049.17-.121.329-.243.499-.364a4.44 4.44 0 01.28-.231c.097-.073.194-.146.291-.231.025-.024.061-.048.085-.073.134-.097.256-.206.39-.316.024-.024.048-.048.084-.073a38.636 38.636 0 001.678-1.519l8.522 4.339 3.866-5.177-6.601-6.926c.352-.669.68-1.349.985-2.042.012-.036.024-.073.048-.109.073-.182.158-.377.231-.559.049-.122.097-.231.146-.34.037-.11.085-.231.134-.341.073-.194.146-.388.207-.583.012-.024.024-.061.036-.097.267-.717.486-1.434.693-2.163l9.555-.498.766-6.416-9.19-2.698a28.257 28.257 0 00-.17-2.26c0-.037 0-.073-.013-.109-.012-.207-.048-.414-.073-.62-.012-.122-.036-.231-.048-.353-.013-.121-.037-.243-.049-.364-.036-.207-.073-.401-.11-.608 0-.036-.012-.073-.012-.109a44.771 44.771 0 00-.486-2.212l8.024-5.213-2.553-5.929-9.3 2.248a28.327 28.327 0 00-1.277-1.872c-.024-.036-.048-.061-.073-.097-.121-.158-.243-.328-.364-.486-.073-.097-.159-.195-.232-.292-.072-.097-.145-.182-.218-.279l-.401-.474c-.025-.037-.05-.061-.061-.085a34.235 34.235 0 00-1.532-1.677l4.352-8.53-5.19-3.865-6.93 6.611a31.466 31.466 0 00-2.043-.997c-.036-.012-.06-.024-.097-.036-.195-.085-.377-.17-.571-.243a3.997 3.997 0 00-.34-.134c-.11-.048-.22-.097-.341-.133a28.82 28.82 0 00-.572-.219l-.109-.037a34.174 34.174 0 00-2.164-.692l-.486-9.551-6.431-.754-2.7 9.175c-.753.024-1.507.085-2.26.17-.037 0-.073.012-.11.012-.17.012-.328.036-.498.061-.037 0-.073.012-.11.012-.121.012-.243.036-.364.048-.122.025-.244.037-.365.061-.195.025-.401.061-.608.097-.024.013-.06.013-.085.013-.012.012-.012.012-.024.012a27.09 27.09 0 00-2.213.486l-5.215-8.032-5.933 2.551 2.25 9.309c-.633.401-1.265.826-1.873 1.275-.012 0-.012 0-.024.013-.025.012-.037.024-.061.048-.17.122-.34.243-.499.377a6.214 6.214 0 00-.28.219c-.097.073-.194.145-.291.23-.036.025-.06.049-.097.073a9.567 9.567 0 00-.377.316c-.024.025-.06.049-.085.073a25.22 25.22 0 00-1.678 1.531l-8.534-4.35-3.854 5.177 6.601 6.926a39.7 39.7 0 00-.996 2.041l-.037.11a7.87 7.87 0 00-.243.571s-.012.012-.012.024c-.012.012-.012.025-.012.037-.037.085-.073.182-.11.267-.049.109-.085.231-.134.34l-.218.584c-.013.036-.025.06-.037.097a34.439 34.439 0 00-.693 2.163l-9.555.498-.754 6.416 9.179 2.698c.036.753.085 1.506.17 2.26 0 .036.012.073.012.109zM-48.9 157.89c.17-.085.328-.146.498-.219.146-.061.304-.133.45-.194.037-.012.085-.037.122-.049a25.691 25.691 0 0111.901-1.725h.134l.535.073c.158.012.316.036.486.048.037.012.086.012.122.025a25.8 25.8 0 0111.184 4.447.693.693 0 00.098.073c.146.109.292.219.437.316.122.097.256.194.39.304.036.024.06.048.097.072a25.791 25.791 0 017.452 9.442c.024.037.036.073.06.11.074.17.147.34.22.498.06.158.121.304.182.449a.367.367 0 01.049.122 25.858 25.858 0 011.738 11.908c0 .037-.012.073-.012.11-.024.182-.037.364-.06.547-.025.157-.037.328-.062.486 0 .036-.012.073-.012.109a25.84 25.84 0 01-4.461 11.191c-.025.037-.05.061-.073.098-.085.133-.195.267-.292.389-.11.145-.207.291-.316.437a.606.606 0 00-.085.097 25.691 25.691 0 01-9.446 7.449c-.037.024-.073.037-.11.061-.158.061-.304.133-.462.194a8.405 8.405 0 01-.486.207.435.435 0 01-.11.048 25.907 25.907 0 01-11.913 1.738c-.037-.012-.085-.012-.122-.012-.17-.024-.34-.037-.51-.061-.17-.024-.341-.036-.523-.061-.037-.012-.073-.012-.122-.024a25.812 25.812 0 01-11.172-4.447l-.11-.073a8.831 8.831 0 01-.4-.304c-.135-.097-.28-.207-.426-.316a.673.673 0 00-.098-.073 25.91 25.91 0 01-7.452-9.442c-.012-.036-.036-.072-.049-.109-.072-.146-.133-.304-.194-.45-.073-.17-.146-.328-.219-.498-.012-.036-.024-.073-.048-.121a25.644 25.644 0 01-1.727-11.897c0-.036 0-.085.012-.133.013-.158.037-.316.05-.486l.072-.523c0-.048.012-.097.012-.133a25.88 25.88 0 014.45-11.168l.073-.109.328-.438c.097-.121.194-.255.292-.388a.693.693 0 00.072-.098 25.923 25.923 0 019.447-7.448.404.404 0 01.109-.049z" fill="#F6FFFF"/><path d="M132.556 298.446c.048.219.109.438.158.656.036.122.073.256.109.389.024.122.061.255.097.377l.183.656.036.11c.025.06.037.121.049.17.231.741.486 1.47.754 2.175" stroke="#F6FFFF" stroke-width="3.49" stroke-miterlimit="10" stroke-linecap="round" stroke-linejoin="round"/><path d="M133.942 302.979l-8.085 6.659 3.526 6.136 9.835-3.597" stroke="#F6FFFF" stroke-width="3.49" stroke-miterlimit="10" stroke-linecap="round" stroke-linejoin="round"/><path d="M139.218 312.177c.51.644 1.057 1.264 1.617 1.884.024.024.06.048.085.085.158.158.304.328.462.486l.279.279.28.28c.17.17.328.316.498.474.025.024.049.061.086.085a29.412 29.412 0 001.872 1.628m0 0l-3.671 9.807 6.115 3.56 6.71-8.032m0 0c.45.17.912.34 1.374.498.316.109.644.219.972.316.037.012.085.024.122.036.218.061.425.122.644.195.134.036.255.061.389.097l.377.109c.219.049.438.11.656.158.049.013.085.025.122.025.802.194 1.617.352 2.431.486m.001 0l1.738 10.328 7.076.025 1.787-10.317m0 0a34.483 34.483 0 002.443-.474c.037 0 .073-.012.109-.024.183-.037.365-.085.535-.122.049-.012.086-.024.134-.036.122-.037.255-.061.377-.097l.389-.11c.219-.061.438-.121.644-.182.037-.012.061-.024.098-.024.012 0 .012-.012.024-.012.79-.244 1.58-.511 2.346-.803m0 .001l6.662 8.08 6.14-3.511-3.599-9.843" stroke="#F6FFFF" stroke-width="3.49" stroke-miterlimit="10" stroke-linecap="round" stroke-linejoin="round"/><path d="M187.542 317.512a28.723 28.723 0 001.872-1.616c.013 0 .013-.012.025-.012l.073-.073c.158-.146.328-.304.486-.462l.28-.279c.097-.098.194-.183.279-.28.037-.036.073-.061.097-.097.134-.134.256-.255.377-.389a.3.3 0 01.085-.085 38.852 38.852 0 001.629-1.871m0-.001l9.811 3.67 3.562-6.124-8.048-6.708m0 0c.304-.765.584-1.555.827-2.345l.036-.109.183-.656.109-.377c.024-.11.061-.207.085-.316 0-.012 0-.024.012-.037 0-.012 0-.024.012-.036.049-.219.11-.437.158-.656.013-.037.013-.073.025-.11.194-.814.352-1.628.486-2.442m0 0l10.334-1.725.012-7.073-10.322-1.798m0 0a33.938 33.938 0 00-.462-2.443.356.356 0 00-.024-.109 12.01 12.01 0 00-.158-.656c-.036-.134-.073-.267-.097-.389l-.11-.389c-.06-.219-.121-.425-.182-.644l-.036-.109a38.227 38.227 0 00-.803-2.358m0 0l8.084-6.659-3.525-6.136-9.835 3.609m0 0a34.33 34.33 0 00-1.617-1.884c-.024-.024-.049-.06-.085-.085-.146-.17-.304-.328-.462-.498-.097-.085-.182-.182-.28-.279-.097-.086-.182-.183-.279-.28-.158-.158-.329-.316-.487-.462a.622.622 0 00-.097-.085 33.856 33.856 0 00-1.86-1.64m0 0l3.66-9.806-6.115-3.561-6.711 8.044m0 .001a38.07 38.07 0 00-2.346-.827c-.037 0-.073-.012-.11-.024a12.237 12.237 0 00-.656-.194c-.122-.037-.255-.073-.377-.11-.134-.036-.255-.061-.389-.097-.219-.061-.438-.109-.657-.17-.036 0-.072-.012-.121-.024a27.256 27.256 0 00-2.432-.474m0 0l-1.726-10.329-7.075-.024-1.8 10.316" stroke="#F6FFFF" stroke-width="3.49" stroke-miterlimit="10" stroke-linecap="round" stroke-linejoin="round"/><path d="M160.858 256.73c-.815.122-1.63.28-2.444.462-.037.012-.073.024-.109.024-.183.049-.353.085-.535.134a.44.44 0 00-.122.024c-.134.037-.267.073-.389.11-.134.024-.255.061-.389.097-.219.061-.425.121-.644.194-.037 0-.061.013-.098.025h-.024c-.79.243-1.58.51-2.346.802m-.001-.001l-6.662-8.08-6.139 3.524 3.611 9.83m0 0a33.543 33.543 0 00-1.885 1.616l-.024.025-.061.06c-.17.158-.328.304-.498.474-.097.085-.183.183-.28.268-.097.097-.182.194-.279.291-.037.025-.061.061-.098.085a5.325 5.325 0 01-.377.389.532.532 0 01-.085.097 40.425 40.425 0 00-1.629 1.872m0 0l-9.81-3.67-3.562 6.112 8.047 6.708m.001 0a40.793 40.793 0 00-.827 2.345c-.012.036-.012.073-.024.121a10.12 10.12 0 00-.195.645c-.036.133-.073.255-.109.388a4.095 4.095 0 00-.097.377c-.061.219-.11.438-.171.656a.44.44 0 01-.024.122.946.946 0 01-.049.182c-.17.741-.316 1.495-.425 2.248m0 0l-10.333 1.738-.025 7.072 10.322 1.786m0 0c.121.814.279 1.629.461 2.443.012.036.012.073.024.121m34.101 20.293c-.036 0-.085.012-.134.012h-.547c-.194 0-.389 0-.583-.012h-.134a28.484 28.484 0 01-11.841-2.989m0 0l7.732-13.282m0 0c1.495.632 3.137.972 4.863.985 1.726 0 3.367-.341 4.863-.948m0 0l7.647 13.318m0 0a28.328 28.328 0 01-11.866 2.916m-.584-37.244c5.082.024 9.191 4.156 9.179 9.235-.012 5.067-4.158 9.174-9.227 9.162-5.082-.012-9.191-4.156-9.179-9.223.025-5.067 4.158-9.186 9.227-9.174v0zm6.298 20.281c.012-.012.037-.025.049-.037-.012.012-.037.025-.049.037zm18.284 2.418c-.024.036-.036.073-.061.121-.085.146-.182.304-.267.462-.109.17-.207.34-.304.51l-.073.11a28.112 28.112 0 01-8.51 8.749m0 0l-7.635-13.318m0 0c2.602-2.005 4.426-4.994 4.888-8.409m0 0l15.366.049m0 0a28.162 28.162 0 01-3.404 11.726m-11.877-12.552v-.098.098zm2.808-24.303a28.23 28.23 0 018.462 8.797c.024.049.048.085.072.122l.292.51c.085.158.183.316.268.474.024.036.036.073.061.121a28.212 28.212 0 013.331 11.739m0 0l-15.367-.049m0 0a12.749 12.749 0 00-4.839-8.433m0 0l7.72-13.281m-2.796 22.589c-.012-.036-.012-.073-.012-.097 0 .024 0 .061.012.097zm-6.346-10.268a.094.094 0 000 0zm-18.856-14.096a28.244 28.244 0 0111.853-2.916h1.399a28.315 28.315 0 0111.841 3.001m0 0l-7.732 13.27m0 0a12.672 12.672 0 00-4.863-.972 12.495 12.495 0 00-4.863.947m0 0l-7.635-13.33m6.14 14.06a.094.094 0 000 0zm-18.284-2.418a.598.598 0 00.06-.122c.098-.17.207-.34.304-.523.085-.145.171-.303.268-.449.024-.037.048-.085.073-.122a28.375 28.375 0 018.51-8.749m0 0l7.646 13.33m.001 0a12.715 12.715 0 00-4.9 8.397m0 0l-15.367-.048m0-.001a28.37 28.37 0 013.404-11.714m18.223 24.533c-.024-.011-.036-.023-.06-.035.024.012.036.024.06.035zm-6.345-11.895c0-.036 0-.061.012-.097-.012.036-.012.061-.012.097zm-11.902 14.314c-.024-.048-.036-.085-.061-.121a28.255 28.255 0 01-3.331-11.738m0 0l15.367.048m0 0v-.012a12.776 12.776 0 004.839 8.445m-.001 0l-7.719 13.27m0 0a28.116 28.116 0 01-8.462-8.798c-.024-.036-.048-.085-.073-.121-.085-.146-.17-.304-.267-.462l-.292-.511m11.902-12.686v0zm62.876 111.369l-1.264-7.838-17.543-.158" stroke="#F6FFFF" stroke-width="3.49" stroke-miterlimit="10" stroke-linecap="round" stroke-linejoin="round"/><path d="M197.389 394.844a65.403 65.403 0 00-1.434-3.901c-.025-.073-.061-.133-.085-.194-.134-.34-.28-.693-.438-1.033-.085-.207-.182-.413-.268-.62-.097-.206-.182-.401-.279-.595a26.504 26.504 0 00-.486-1.033c-.025-.061-.061-.122-.086-.17a50.214 50.214 0 00-1.969-3.67" stroke="#F6FFFF" stroke-width="3.49" stroke-miterlimit="10" stroke-linecap="round" stroke-linejoin="round"/><path d="M192.344 383.628l11.549-13.209-7.488-9.186-15.27 8.64m0 0a60.885 60.885 0 00-3.197-2.674c-.049-.036-.097-.073-.158-.109a30.116 30.116 0 00-.912-.693c-.17-.133-.352-.255-.523-.389-.182-.133-.364-.267-.547-.388-.316-.219-.62-.438-.936-.644-.048-.037-.109-.073-.17-.11a59.007 59.007 0 00-3.538-2.199m0 0l3.392-17.207-11.075-4.204-8.911 15.104m0 0a66.39 66.39 0 00-4.097-.717c-.061 0-.134-.012-.195-.024a35.868 35.868 0 00-1.13-.134l-.657-.073c-.219-.024-.45-.048-.668-.06-.377-.037-.754-.061-1.119-.098-.073 0-.146-.012-.206-.012a53.313 53.313 0 00-4.158-.121m0 0l-5.677-16.599-11.695 1.883-.158 17.535m-.001 0a68.252 68.252 0 00-4.097 1.507c-.279.121-.559.231-.838.352-.061.037-.134.061-.195.097-.207.085-.413.183-.62.268-.194.097-.401.182-.608.279-.34.158-.681.316-1.021.486-.049.025-.097.037-.146.061-.012.012-.024.012-.036.024a53.25 53.25 0 00-3.66 1.969" stroke="#F6FFFF" stroke-width="3.49" stroke-miterlimit="10" stroke-linecap="round" stroke-linejoin="round"/><path d="M113.579 362.983l-13.215-11.544-9.19 7.485 8.643 15.262m0 .001a56.336 56.336 0 00-2.674 3.195c-.013.013-.013.025-.025.025-.024.048-.06.085-.085.121-.243.304-.462.608-.693.924-.134.17-.255.352-.389.522-.134.182-.267.365-.389.547-.049.061-.085.121-.134.182a37.918 37.918 0 00-.62.924 58.981 58.981 0 00-2.2 3.536m0 0l-17.214-3.39-4.207 11.07L86.3 400.75m-.002-.001a56.36 56.36 0 00-.401 2.091m44.884 0c2.298-2.771 5.568-4.764 9.397-5.371m0 0c5.568-.912 10.942 1.324 14.321 5.371l-14.321-5.371zm21.774-27.633a47.493 47.493 0 0116.375 12.249c.049.061.097.121.146.17.219.255.413.51.62.766.195.231.389.461.572.704l.145.183a47.52 47.52 0 018.693 18.494m-26.892.438a21.37 21.37 0 00-8.813-8.956m0 0l9.154-24.048m-11.769 22.857a.704.704 0 010 0zm-35-18.166a47.359 47.359 0 0118.795-8.045c.073-.012.146-.024.231-.036.316-.061.644-.109.973-.17.291-.049.595-.097.887-.134.073-.012.146-.024.231-.036a47.578 47.578 0 0120.375 1.725m.001 0l-9.142 24.036m-.001 0a21.344 21.344 0 00-8.303-.292 21.329 21.329 0 00-7.792 2.892m-.001 0l-16.254-19.94m13.992 21.556c-.036.025-.06.037-.084.061.024-.024.048-.036.084-.061zm-30.89.985l.073-.219c.122-.316.243-.62.365-.936.097-.267.207-.546.316-.826.024-.073.06-.146.085-.219a47.483 47.483 0 0111.683-16.769m0 0l16.254 19.941m0 0a21.505 21.505 0 00-3.404 4.8m-26.989 0c.413-1.944.96-3.877 1.617-5.772" stroke="#F6FFFF" stroke-width="3.49" stroke-miterlimit="10" stroke-linecap="round" stroke-linejoin="round"/><path d="M-10.69 275.662l12.776-12.771M-106.95 371.878l5.799-5.797-5.799 5.797zM1.843 280.754l30.612-30.61M-106.95 389.497l10.892-10.887-10.892 10.887zm119.564-101.89l30.09-30.087m-143.527 143.461l11.634-11.629-11.634 11.629zM21.793 296.04l11.561-11.556M-85.067 402.84l4.303-4.29-4.303 4.29zm114.531-96.86l11.768-11.762m-5.726 23.342l25.724-25.712m-21.663 39.274l33.176-33.174m-31.839 49.456l15.39-15.383m-19.438 37.038l26.891-26.879m-7.707 25.311l21.517-21.496M20.675 402.84l33.103-33.077-33.103 33.077zM-4.187 277.959l12.328-12.322m-115.091 115.05l8.096-8.093-8.096 8.093zm124.342-89.058l17.02-17.012M-93.869 402.839l8.704-8.7-8.704 8.7zM32.71 311.558l16.63-16.623m16.34 18.883l9.799-9.794m-34.83 34.814l14.223-14.205-14.223 14.205zM7.436 283.974l30.15-30.136m-142.19 142.112l11.78-11.775-11.78 11.775zm130.421-95.134l11.634-11.617M-76.253 402.84l.267-.255-.267.255zm114.057-78.766l32.204-32.202M39.92 357.186l17.19-17.182m-29.75 47.355l43.292-43.272m-5.154 22.772l17.579-17.583M29.489 402.84l18.77-18.762-18.77 18.762zm45.467-36.625l7.124-7.133M38.302 402.84l13.373-13.367-13.373 13.367zm8.814 0l8.923-8.919m-.109 8.919l4.486-4.484" stroke="#F6FFFF" stroke-width="2.607" stroke-miterlimit="10"/><path d="M56.513 333.637c-.073-.571-.146-1.154-.243-1.725a29.144 29.144 0 00-.158-1.021c-.06-.34-.11-.681-.17-1.009-.097-.583-.207-1.154-.316-1.725-.024-.097-.037-.195-.061-.304-.024-.146-.049-.304-.085-.462a98.195 98.195 0 00-.973-4.253 66.782 66.782 0 00-.413-1.531" stroke="#F6FFFF" stroke-width="6.98" stroke-miterlimit="10"/><path d="M54.094 321.607l22.49-15.104-7.5-16.684-26.235 6.792m0 0a86.786 86.786 0 00-3.696-5.249 3.564 3.564 0 00-.194-.255c-.353-.462-.705-.924-1.07-1.373-.219-.268-.425-.535-.644-.802a42.724 42.724 0 00-.657-.79 60.68 60.68 0 00-1.143-1.337c-.06-.073-.133-.158-.194-.231a89.703 89.703 0 00-4.413-4.678" stroke="#F6FFFF" stroke-width="6.98" stroke-miterlimit="10"/><path d="M30.838 281.896l11.938-24.327-14.856-10.693-19.317 18.992m0 0a84.83 84.83 0 00-5.836-2.697c-.085-.037-.182-.085-.28-.122-.534-.219-1.081-.437-1.629-.656l-.948-.365c-.328-.121-.644-.243-.972-.364-.547-.207-1.094-.389-1.642-.583a2.778 2.778 0 00-.291-.098 87.838 87.838 0 00-6.164-1.859M64.83 402.84l-17.203-17.474m0 0a90.618 90.618 0 002.699-5.833c.036-.097.073-.194.121-.279.22-.547.438-1.082.657-1.629.012-.036.024-.06.036-.097.013-.036.025-.06.037-.097l.292-.765c.121-.316.243-.644.364-.96.195-.547.39-1.106.584-1.653.036-.097.073-.194.097-.292a85 85 0 001.848-6.148m0 0l27.037-1.835 1.848-18.203-26.113-7.23m-.001 0a87.158 87.158 0 00-.571-6.392c-.012-.109-.036-.207-.049-.316M-75.646 402.84a73.149 73.149 0 01-21.469-26.32c-.049-.11-.097-.207-.146-.316a71.5 71.5 0 01-.632-1.41 57.287 57.287 0 01-.572-1.251c-.036-.11-.085-.219-.133-.329a73.015 73.015 0 01-5.447-33.623c0-.109.013-.218.025-.328.036-.51.097-1.033.146-1.543l.146-1.385a3.05 3.05 0 01.048-.328 73.148 73.148 0 0112.096-31.862c.061-.085.122-.182.195-.279.267-.377.535-.754.814-1.13.292-.413.584-.826.9-1.24.06-.097.134-.182.207-.279a73.006 73.006 0 0126.405-21.52c.097-.061.207-.11.304-.158.437-.195.875-.389 1.3-.584.463-.206.912-.413 1.374-.607.11-.049.207-.097.316-.134a73.28 73.28 0 0133.639-5.456c.11.012.23.024.34.024l1.435.146a54.7 54.7 0 011.47.158l.353.037a73.277 73.277 0 0131.852 12.09c.097.073.194.134.292.195.389.279.765.559 1.155.838.4.292.814.571 1.215.875.085.073.183.146.28.207a73.193 73.193 0 0121.53 26.393c.049.109.11.206.158.316.194.413.377.838.571 1.263.207.462.426.936.62 1.398.049.109.098.219.134.328a73.085 73.085 0 015.459 33.599c-.013.121-.025.255-.037.376-.036.462-.085.924-.134 1.386-.048.498-.097.996-.158 1.494l-.036.365a73.307 73.307 0 01-12.096 31.825c-.061.097-.134.194-.195.291-.292.426-.608.839-.9 1.252a64.68 64.68 0 01-.814 1.118c-.073.085-.134.182-.207.279a72.88 72.88 0 01-13.859 13.829" stroke="#F6FFFF" stroke-width="6.98" stroke-miterlimit="10"/><path d="M-15.347 402.84a59.631 59.631 0 008.291-3.014c30.235-13.585 43.717-49.092 30.125-79.3-13.591-30.221-49.102-43.697-79.336-30.112m0 0c-30.223 13.573-43.717 49.08-30.125 79.301 7.573 16.83 21.967 28.471 38.452 33.125l-8.327-112.426z" stroke="#F6FFFF" stroke-width="6.98" stroke-miterlimit="10"/><path d="M-10.86 391.369c-7.903 3.548-17.19.024-20.74-7.874-3.55-7.899-.025-17.182 7.877-20.731 7.902-3.56 17.19-.024 20.74 7.874 3.55 7.899.024 17.183-7.878 20.731zM6.73 345.06c-7.902 3.548-17.177.024-20.74-7.875-3.55-7.898-.024-17.182 7.878-20.73 7.902-3.56 17.19-.036 20.74 7.862 3.562 7.911.037 17.182-7.877 20.743z" stroke="#F6FFFF" stroke-width="6.98" stroke-miterlimit="10"/><path d="M262.162 246.158l1.337-1.336m-20.363 20.366l6.468-6.465-6.468 6.465zm7.635 8.505l24.01-23.987m-39.997 39.979l7.988-7.996-7.988 7.996zm46.963-30.804l15.318-15.323m-50.403 50.38l7.89-7.886-7.89 7.886zm50.293-34.121l5.86-5.857m-62.074 62.045l14.759-14.752-14.759 14.752zm23.087-63.431l7.707-7.704m-24.399 24.388l7.878-7.886-7.878 7.886zm39.401-23.233l6.54-6.55m-52.652 52.628l20.011-20.001-20.011 20.001zm27.366-27.341l13.372-13.366-13.372 13.366zm22.393-6.246l7.404-7.4m-59.351 59.324l4.352-4.351-4.352 4.351zm9.458-9.454l6.516-6.513-6.516 6.513zm54.998-38.836l14.03-14.023m-66.56 66.529l7.671-7.667-7.671 7.667zm57.466-49.371l13.786-13.78m-65.757 65.74l5.325-5.335-5.325 5.335zm56.178-48.096l5.3-5.286m-60.019 59.992l7.732-7.728-7.732 7.728zm58.244-50.137l5.386-5.396m-65.15 65.132l13.811-13.816-13.811 13.816zm62.524-54.438l11.792-11.775m-60.834 60.806l5.641-5.65-5.641 5.65zm50.902-42.809l15.208-15.202m-60.384 60.357l6.128-6.125-6.128 6.125zm45.784-37.707l7.063-7.047m-50.282 50.258l11.027-11.021-11.027 11.021zm41.371-33.283l12.327-12.322m-53.163 53.139l20.412-20.402-20.412 20.402zm49.625-41.534l9.859-9.855m-52.153 52.13l1.398-1.397-1.398 1.397zm13.044-13.026l28.217-28.204-28.217 28.204zm-35.279-81.78l6.905-6.914m-24.776 24.765l7.185-7.169-7.185 7.169zm42.951-26.782l1.325-1.325m-52.142 52.118l9.848-9.83-9.848 9.83zm10.954-10.948l28.18-28.167-28.18 28.167zm38.027-21.861l11.075-11.082m-50.281 50.271l7.063-7.06-7.063 7.06zm52.895-36.734l5.653-5.651m-60.87 60.843l11.84-11.836-11.84 11.836zm65.1-48.934l7.805-7.789m-60.092 60.065l5.301-5.298-5.301 5.298zm59.314-43.138l7.611-7.619m-66.512 66.493l14.017-14.023-14.017 14.023zm74-57.841l4.498-4.484m-59.326 59.299l7.355-7.352-7.355 7.352zm43.364-43.344l6.516-6.514-6.516 6.514zm-55.825-33.004l8.498-8.482m-37.918 37.901l3.209-3.208-3.209 3.208zm13.908-13.902l8.582-8.578-8.582 8.578zm27.159-11.009l20.436-20.426m-53.151 53.126l12.388-12.383-12.388 12.383zm50.136-33.963l6.139-6.137m-60.372 60.344l15.221-15.213-15.221 15.213zm65.769-49.602l13.811-13.804m-65.15 65.12l5.398-5.396-5.398 5.396zm59.765-43.588l5.337-5.334m-65.77 65.739l13.786-13.78-13.786 13.78zm65.928-49.76l14.758-14.74m-62.086 62.058l5.848-5.857-5.848 5.857zm48.3-32.141l7.878-7.874m-50.403 50.38l15.257-15.25-15.257 15.25zm36.763-28.677l19.84-19.831m-52.652 52.64l6.601-6.611-6.601 6.611zm11.901-11.897l13.239-13.245-13.239 13.245zm38.392-30.305l8.048-8.057m-40.021 40.003l24.071-24.048-24.071 24.048zm36.301-32.238l3.271-3.269m-37.942 37.925l8.497-8.494-8.497 8.494zm15.403-15.408l8.607-8.591-8.607 8.591zm2.71 1.337l7.89-7.899m-24.387 24.388l7.708-7.716-7.708 7.716zm19.209-15.165l7.184-7.182m-24.776 24.753l6.93-6.914-6.93 6.914zm20.303-16.246l6.479-6.477m-20.436 20.439l1.41-1.422-1.41 1.422z" stroke="#F6FFFF" stroke-width="1.765" stroke-miterlimit="10"/><path d="M327.749 286.392l-.109-.802-.073-.462a38.924 38.924 0 00-.073-.462c-.049-.267-.097-.534-.146-.789a31.483 31.483 0 00-.036-.146 6.969 6.969 0 01-.037-.207c-.134-.656-.279-1.3-.45-1.944-.06-.243-.121-.474-.182-.705m0 0l10.309-6.926-3.44-7.643-12.024 3.11m0 0a45.24 45.24 0 00-1.69-2.406c-.036-.036-.06-.072-.085-.109-.17-.219-.328-.425-.498-.632l-.292-.364c-.109-.122-.206-.243-.304-.365-.17-.206-.352-.413-.522-.62a.65.65 0 01-.086-.097 42.53 42.53 0 00-2.03-2.151m0 0l5.471-11.143-6.808-4.897-8.85 8.701m0 0a38.166 38.166 0 00-2.675-1.24c-.036-.012-.085-.036-.121-.048-.255-.11-.499-.207-.742-.304-.146-.061-.304-.109-.45-.17-.145-.061-.291-.109-.437-.17-.256-.085-.499-.182-.754-.268-.049-.012-.085-.024-.134-.036a34.105 34.105 0 00-2.82-.851m0 0l-.839-12.382-8.352-.851-3.306 11.957m-.001 0c-.985.061-1.957.146-2.93.268-.048.012-.097.012-.146.024-.206.024-.425.049-.644.085-.049 0-.097.012-.146.024l-.474.073c-.146.025-.304.049-.462.073l-.79.146c-.037.012-.073.012-.11.024h-.024c-.972.195-1.921.426-2.869.681m0 0l-6.917-10.305-7.659 3.439 3.125 12.018m0 0l-.62.401c-.547.377-1.082.753-1.617 1.154a1.636 1.636 0 01-.183.134c0 .012-.012.012-.012.024-.036.012-.061.037-.097.061-.207.17-.426.328-.632.498l-.365.292c-.122.097-.243.206-.365.304-.036.036-.085.06-.121.097-.158.146-.328.279-.487.425-.036.024-.072.061-.109.085a42.38 42.38 0 00-2.14 2.017m0 .001l-11.148-5.456-4.911 6.792 8.704 8.859m0 0a40.64 40.64 0 00-1.228 2.661c-.024.049-.036.097-.06.134-.098.255-.207.498-.304.741-.049.146-.11.304-.171.449-.048.146-.109.292-.158.438-.097.255-.182.498-.267.753a.604.604 0 00-.049.134 47.465 47.465 0 00-.851 2.819m0 0l-12.388.839-.839 8.348 11.963 3.305m0 0c.049.972.134 1.956.268 2.928 0 .049.012.097.012.146l.109.79.073.474c.037.146.061.304.085.461.049.256.097.523.146.79.012.037.012.085.024.134.195.972.414 1.92.681 2.868m0 0l-10.309 6.914 3.44 7.655 12.012-3.123" stroke="#F6FFFF" stroke-width="3.49" stroke-miterlimit="10" stroke-linecap="round" stroke-linejoin="round"/><path d="M253.202 313.866a36.814 36.814 0 001.702 2.406.43.43 0 00.085.122c.158.207.328.413.487.632.097.121.206.243.303.364l.292.365c.183.206.353.401.523.607.036.037.061.073.097.11a37.898 37.898 0 002.018 2.139m.001 0l-5.471 11.142 6.808 4.91 8.85-8.713m0 0c.876.45 1.763.863 2.675 1.24.037.024.085.036.122.06.255.097.498.195.753.304.146.049.292.109.438.158.146.061.292.122.438.17.255.097.51.182.753.267.049.013.098.037.146.049.924.316 1.872.596 2.809.851m-.001 0l.851 12.382 8.34.839 3.319-11.958m0 .001a40.312 40.312 0 002.93-.268c.049 0 .085-.012.134-.012.218-.036.425-.061.644-.085.049-.012.097-.024.158-.024.158-.025.304-.061.462-.085l.462-.073c.267-.049.535-.097.79-.146.037 0 .073-.012.11-.024h.036c.96-.195 1.921-.414 2.857-.681" stroke="#F6FFFF" stroke-width="3.49" stroke-miterlimit="10" stroke-linecap="round" stroke-linejoin="round"/><path d="M298.122 330.915l6.93 10.304 7.647-3.439-3.113-12.005m0 0a46.107 46.107 0 002.408-1.701c.012 0 .012-.013.024-.013.024-.024.048-.048.085-.072.207-.158.425-.329.632-.499.122-.085.243-.194.365-.291.121-.098.243-.195.365-.304a.478.478 0 00.121-.097c.17-.134.328-.28.486-.413.037-.037.073-.061.11-.098a42.299 42.299 0 002.152-2.017m0 0l11.148 5.468 4.899-6.804-8.704-8.847m0 0c.437-.875.85-1.762 1.24-2.673.012-.049.036-.085.048-.134.11-.243.207-.486.304-.741.012-.012.012-.024.024-.049 0-.012 0-.024.013-.036.048-.122.085-.231.133-.352.049-.146.11-.292.17-.438.086-.255.171-.51.268-.765.012-.037.024-.085.036-.134.329-.924.608-1.871.851-2.819m.001 0l12.388-.839.851-8.336-11.975-3.317m0 0a40.747 40.747 0 00-.255-2.928c-.013-.049-.013-.098-.025-.134m-26.149 35.3c-.219.097-.426.194-.633.28-.194.097-.389.182-.583.267-.061.024-.11.036-.158.061a33.603 33.603 0 01-15.403 2.503c-.061-.012-.11-.012-.17-.012l-.693-.073c-.207-.025-.426-.037-.632-.061a.729.729 0 00-.159-.024 33.6 33.6 0 01-14.6-5.541c-.037-.025-.085-.061-.134-.085l-.559-.414c-.17-.121-.353-.243-.523-.376a4.538 4.538 0 01-.134-.098 33.534 33.534 0 01-9.859-12.09l-.073-.146c-.097-.207-.194-.425-.292-.644-.085-.182-.17-.377-.255-.571-.024-.049-.036-.097-.061-.146a33.614 33.614 0 01-2.504-15.408.65.65 0 00.012-.158l.073-.693c.024-.218.037-.425.061-.644.012-.048.012-.097.024-.146a33.609 33.609 0 015.544-14.606c.024-.036.061-.085.085-.121.121-.182.255-.353.377-.523.133-.194.267-.376.413-.571a.857.857 0 01.097-.121 33.445 33.445 0 0112.097-9.867.69.69 0 01.145-.061c.195-.097.39-.182.596-.28.207-.085.413-.182.62-.279a.698.698 0 00.146-.061 33.645 33.645 0 0115.415-2.491c.049 0 .11 0 .158.012.219.012.438.037.657.061l.681.073c.048 0 .097.012.158.024a33.478 33.478 0 0114.588 5.529c.049.037.097.061.134.097.182.122.352.256.535.377l.547.401c.048.037.085.073.133.097a33.548 33.548 0 019.872 12.091c.024.049.049.097.061.146.097.194.182.389.267.583.097.207.195.425.292.644a.698.698 0 00.061.146 33.553 33.553 0 012.492 15.396c0 .061-.012.109-.012.17-.012.219-.037.425-.061.632l-.073.693c-.012.048-.012.109-.024.17a33.44 33.44 0 01-5.532 14.569c-.036.049-.06.098-.097.146-.134.182-.267.377-.413.571l-.365.511a.857.857 0 00-.097.121 33.556 33.556 0 01-12.097 9.867l-.145.073v0z" stroke="#F6FFFF" stroke-width="3.49" stroke-miterlimit="10" stroke-linecap="round" stroke-linejoin="round"/><path d="M300.165 402.84l-27.159-27.147m62.415 27.147l-27.171-27.147m-25.701 27.147l-10.114-10.098m45.358 10.098l-27.159-27.147m62.402 27.147l-27.159-27.147m44.787 27.147l-27.159-27.147m44.787 27.147l-27.171-27.147m44.786 27.147l-27.159-27.147m44.787 27.147l-27.159-27.147m44.786 27.147l-27.171-27.147m44.787 27.147l-27.159-27.147m44.787 27.147l-27.159-27.147m33.201 15.566l-15.586-15.566M308.979 402.84l-27.159-27.147m62.402 27.147l-27.159-27.147m62.414 27.147l-27.171-27.147m62.415 27.147l-27.159-27.147m62.402 27.147l-27.159-27.147M291.351 402.84l-18.916-18.908m54.171 18.908l-27.171-27.147m62.414 27.147l-27.158-27.147m62.402 27.147l-27.159-27.147m62.414 27.147l-27.171-27.147m62.414 27.147l-27.158-27.147m42.014 24.376l-24.399-24.376m24.4 6.757l-6.772-6.757M272.435 402.84v-27.147h210.013v27.147" stroke="#F6FFFF" stroke-width="2.607" stroke-miterlimit="10"/><path d="M108.74 307.001c.037-.219.061-.425.085-.632.013-.097.025-.207.037-.316l.036-.62v-.632c0-.789-.085-1.567-.243-2.345l3.854-3.548-2.833-5.019-5.02 1.471-.548-.474c-.17-.134-.34-.255-.498-.389a4.588 4.588 0 00-.267-.182 8.094 8.094 0 00-.523-.341c-.012-.012-.037-.024-.049-.036-.012-.012-.024-.012-.036-.024-.073-.037-.146-.085-.207-.122-.073-.036-.134-.085-.207-.121-.012 0-.024-.012-.048-.025-.012-.012-.037-.012-.049-.024a8.938 8.938 0 00-.839-.425 11.317 11.317 0 00-1.264-.511l-1.143-5.103-5.762-.061-1.24 5.092a12.145 12.145 0 00-2.115.887c-.025.012-.037.024-.061.024-.013.012-.025.024-.037.024a1.858 1.858 0 00-.207.122c-.012 0-.024.012-.036.012-.06.036-.11.073-.17.109-.012 0-.024.012-.037.012-.11.073-.219.134-.328.207-.085.049-.17.109-.267.17-.45.304-.9.644-1.326 1.009l-4.984-1.568-2.942 4.97 3.793 3.609a13.9 13.9 0 00-.182.996l-.037.353a9.373 9.373 0 00-.06.607v.025c0 .121-.013.243-.013.364v.292a.74.74 0 000 .231v.048c0 .778.085 1.568.243 2.346l-3.853 3.536 2.832 5.03 5.021-1.47c.414.377.851.717 1.3 1.033.183.121.353.243.536.352.012.012.036.025.048.037.013 0 .025.012.037.024.073.037.146.073.207.122.073.036.133.073.206.121.013 0 .025.012.037.012.024.012.036.025.06.037.268.146.56.291.84.425.413.194.826.365 1.264.51l1.13 5.104 5.775.049 1.24-5.08c.425-.133.851-.291 1.264-.474.292-.133.572-.267.851-.413.012-.012.037-.024.061-.036.012 0 .024-.012.037-.012.06-.049.133-.085.206-.122.012-.012.025-.012.037-.012.048-.036.109-.073.17-.109.012 0 .024-.013.036-.025a13.224 13.224 0 001.921-1.385l4.985 1.568 2.942-4.958-3.793-3.621c.048-.231.097-.474.133-.705zm-8.984 5.067c-.012 0-.012.012-.024.012a8.075 8.075 0 01-3.671.948h-.402A8.187 8.187 0 0192 312.007c-.012 0-.024-.012-.036-.012a.922.922 0 00-.146-.085.505.505 0 00-.134-.085l-.024-.024a8.074 8.074 0 01-2.663-2.698c0-.012-.012-.024-.012-.036-.036-.049-.06-.098-.085-.146a1.33 1.33 0 00-.073-.134c-.012-.012-.024-.024-.024-.036a8.231 8.231 0 01-.948-3.67v-.365c0-.012 0-.024.012-.036a8.053 8.053 0 011.009-3.658c.012 0 .012-.012.024-.024a.904.904 0 01.085-.146c.024-.048.049-.097.073-.133.012-.013.012-.025.024-.037a8.077 8.077 0 012.711-2.649l.025-.024c.048-.025.097-.049.133-.073a.628.628 0 01.158-.085l.025-.024a8.062 8.062 0 013.671-.936h.401a8.023 8.023 0 013.66 1.021c.012 0 .024.012.036.012.037.024.085.06.134.085.048.024.097.048.146.085.012 0 .012.012.024.012a8.326 8.326 0 012.662 2.71c0 .012.013.024.013.036.024.037.06.085.085.134l.073.146c.012.012.012.024.024.036a8.183 8.183 0 01.948 3.67v.194c0 .049 0 .11-.012.17v.037a7.995 7.995 0 01-1.009 3.645c-.012.012-.012.025-.024.037-.025.048-.049.085-.073.133-.037.049-.061.098-.085.146-.013.012-.025.025-.025.037a8.063 8.063 0 01-2.711 2.649c0 .012-.012.012-.024.024-.049.024-.11.049-.158.085a1.32 1.32 0 01-.134.073z" fill="#F6FFFF"/><path d="M49.244 402.84c4.911-47.221 44.847-84.028 93.39-84.028s88.479 36.807 93.39 84.028" stroke="#F6FFFF" stroke-width="1.765" stroke-miterlimit="10"/><path d="M-106.95 139.979c13.676-23.72 39.303-39.675 68.662-39.675 43.754 0 79.216 35.446 79.216 79.179m0 0c0 43.733-35.462 79.179-79.215 79.179-29.36 0-54.987-15.967-68.663-39.686l147.878-39.493zM-39.843 402.84C-34.737 306.527 45 230.009 142.633 230.009S320.004 306.527 325.11 402.84" stroke="#F6FFFF" stroke-width=".882" stroke-miterlimit="10"/><path d="M-106.95 172.253c3.622-34.668 33.03-61.79 68.662-61.79 38.076 0 69.052 30.962 69.052 69.02 0 38.059-30.976 69.008-69.051 69.008m0 0c-35.633 0-65.041-27.11-68.663-61.79l68.663 61.79z" stroke="#F6FFFF" stroke-width="6.98" stroke-miterlimit="10"/><path d="M272.435 402.839v-92.083h108.732v92.083" stroke="#F6FFFF" stroke-width="2.607" stroke-miterlimit="10"/><path d="M-106.95 211.454h227.883V402.84" stroke="#F6FFFF" stroke-width="1.765" stroke-miterlimit="10"/><path d="M-106.95 30.518H58.64V402.84" stroke="#F6FFFF" stroke-width="1.765" stroke-miterlimit="10"/><path d="M270.076 328.436v74.404h2.359v-74.404h-2.359z" fill="#F6FFFF"/></g><path d="M245.94 416c-42.488-25.383-63.672-98.024-52.973-147.331 13.452-61.985 61.582-106.25 80.77-166.742 13.817-43.57 11.968-91.824-5.148-134.234-2.052-5.086-4.324-10.11-6.36-15.206H-318V416h563.94z" fill="url(#paint0_linear)"/><g filter="url(#filter0_d)"><path d="M223.544 399.998c-30.019-37.262-43.435-88.152-33.371-135.112 12.653-59.033 57.339-106.394 75.387-164.005 12.997-41.495 11.258-87.452-4.842-127.842-1.93-4.844-4.067-9.629-5.982-14.482h-550.975v441.441h519.783z" fill="#fff"/></g><mask id="a" maskUnits="userSpaceOnUse" x="-297" y="-42" width="572" height="442"><path d="M223.544 399.998c-30.019-37.262-43.435-88.152-33.371-135.112 12.653-59.033 57.339-106.394 75.387-164.005 12.997-41.495 11.258-87.452-4.842-127.842-1.93-4.844-4.067-9.629-5.982-14.482h-550.975v441.441h519.783z" fill="#fff"/></mask><g mask="url(#a)"><path d="M100.253 233.387c-.012-.146-.024-.304-.048-.45l-.037-.267-.036-.255a4.988 4.988 0 00-.085-.45c0-.024 0-.06-.012-.085 0-.036-.012-.073-.012-.121a36.415 36.415 0 00-.243-1.106 4.866 4.866 0 00-.097-.401m0 0l5.896-3.816-1.885-4.35-6.82 1.64m0 .001a24.906 24.906 0 00-.936-1.374.212.212 0 01-.048-.06c-.098-.122-.183-.243-.28-.365-.049-.073-.11-.134-.158-.206-.06-.073-.11-.146-.17-.207a8.398 8.398 0 00-.292-.352c-.012-.025-.024-.049-.049-.061a21.343 21.343 0 00-1.118-1.24m0 0l3.197-6.245-3.805-2.844-5.094 4.849m0-.001a28.595 28.595 0 00-1.495-.729.175.175 0 01-.073-.024c-.146-.061-.28-.121-.425-.182-.073-.037-.159-.061-.244-.097-.085-.037-.158-.061-.243-.098-.146-.048-.291-.109-.425-.158a.177.177 0 00-.085-.024 18.619 18.619 0 00-1.58-.51m-.001 0l-.364-7.012-4.717-.558-1.982 6.744m0 0c-.547.024-1.106.06-1.653.121-.037 0-.061 0-.085.012a44.57 44.57 0 00-.365.037c-.025.012-.06.012-.085.012-.085.012-.17.024-.268.036a1.91 1.91 0 00-.255.049 23.81 23.81 0 00-.45.073c-.024 0-.048 0-.06.012h-.025c-.547.097-1.082.219-1.629.352m0 0l-3.817-5.893-4.352 1.883 1.64 6.817m.001 0c-.11.073-.231.146-.34.231-.317.194-.633.413-.937.632a.677.677 0 01-.097.073c0 .012-.012.012-.012.012-.013.012-.037.024-.049.036-.122.098-.243.183-.365.28-.073.049-.133.109-.206.158-.073.061-.146.109-.207.17-.024.024-.049.036-.073.061a4.708 4.708 0 00-.28.231 21.763 21.763 0 00-1.289 1.166" stroke="#F2F2F2" stroke-width="1.765" stroke-miterlimit="10"/><path d="M61.23 219.534l-6.261-3.183-2.845 3.803 4.85 5.079m.001 0c-.255.486-.498.984-.73 1.495 0 .024-.012.048-.024.085-.06.134-.121.267-.182.413-.037.085-.061.158-.097.243-.037.085-.061.17-.098.243-.048.146-.11.292-.158.438a.168.168 0 00-.024.072 18.379 18.379 0 00-.51 1.58m-.001 0l-7.014.365-.56 4.715 6.748 1.98m0 0c.024.547.06 1.106.121 1.665 0 .024 0 .049.012.073.013.146.037.304.05.45l.035.267c.013.085.025.17.05.267l.072.438c0 .024.012.06.012.085.098.547.22 1.093.353 1.628m0 0l-5.897 3.816 1.885 4.362 6.82-1.653m0 0c.304.462.608.924.936 1.373.024.025.037.049.049.061.097.122.182.243.28.365.048.073.109.146.157.206.061.073.11.146.17.219.098.109.195.231.292.34a26.7 26.7 0 001.167 1.3m.001.001l-3.186 6.246 3.806 2.843 5.081-4.848m0 0c.486.255.985.498 1.495.729.025.012.049.012.073.024.146.061.28.121.426.182.085.037.158.061.243.097.085.037.17.061.255.098.134.06.28.109.414.158.036.012.06.024.085.024a18.27 18.27 0 001.58.51m0 0l.365 7.012 4.717.559 1.981-6.744m.001 0a19.792 19.792 0 001.665-.122c.024 0 .049 0 .073-.012l.365-.037c.024 0 .06-.012.085-.012l.267-.036.268-.037a5.18 5.18 0 00.437-.085c.025 0 .049 0 .073-.012h.013a24.523 24.523 0 001.629-.352" stroke="#F2F2F2" stroke-width="1.765" stroke-miterlimit="10"/><path d="M83.1 258.31l3.818 5.893 4.364-1.883-1.653-6.817m0 0c.462-.292.924-.608 1.374-.936 0-.012.012-.012.012-.012.012-.012.036-.025.048-.037.122-.085.244-.182.365-.279.073-.049.134-.11.207-.158.073-.061.146-.11.219-.17.012-.012.036-.037.06-.049.098-.085.195-.158.28-.231.024-.024.049-.036.06-.061.426-.364.84-.729 1.24-1.117m.001 0l6.249 3.183 2.844-3.791-4.85-5.091m-.001 0c.256-.486.499-.985.73-1.495.012-.024.012-.049.024-.073.06-.146.122-.279.182-.425 0 0 .013-.012.013-.024 0 0 0-.013.012-.025.024-.061.048-.133.073-.194.036-.085.073-.17.097-.243.06-.146.11-.292.158-.426.012-.024.024-.048.024-.085.195-.522.365-1.045.51-1.579m.001 0l7.015-.365.559-4.715-6.747-1.98m0 0a18.749 18.749 0 00-.122-1.653c0-.036 0-.061-.012-.085m-15.111 19.734c-.122.048-.243.109-.365.158l-.328.146a.228.228 0 00-.085.024 19.017 19.017 0 01-8.741 1.276c-.024 0-.061 0-.085-.012l-.401-.037a3.546 3.546 0 00-.353-.048c-.036 0-.06-.013-.097-.013a18.834 18.834 0 01-8.194-3.268c-.037-.012-.06-.037-.085-.049-.11-.073-.207-.158-.316-.231a51.365 51.365 0 00-.292-.218c-.024-.025-.049-.037-.073-.061a19.025 19.025 0 01-5.47-6.927c-.013-.024-.025-.06-.037-.085-.049-.121-.11-.243-.158-.364a3.901 3.901 0 01-.134-.328c-.012-.025-.024-.061-.036-.085a18.993 18.993 0 01-1.277-8.737c0-.025.012-.061.012-.085.013-.134.025-.268.049-.401l.036-.353c0-.036.012-.06.012-.085a19.054 19.054 0 013.27-8.214c.013-.024.037-.049.05-.073l.218-.292c.073-.097.158-.206.243-.316.013-.024.037-.048.049-.073a19.137 19.137 0 016.93-5.468c.036-.012.06-.024.085-.036.109-.049.23-.097.34-.146.122-.049.243-.097.353-.146a.6.6 0 00.085-.036 19.004 19.004 0 018.74-1.276c.037 0 .061.012.098.012l.364.036c.134.025.256.037.39.049.024 0 .048.012.085.012a19.032 19.032 0 018.206 3.269c.024.012.048.036.073.049l.291.218c.11.085.207.158.317.231.024.024.048.049.072.061a19.13 19.13 0 015.471 6.926.466.466 0 00.037.085l.145.328c.05.122.098.243.159.365.012.036.012.061.024.085a18.993 18.993 0 011.276 8.737c0 .036 0 .061-.012.097l-.036.353a3.75 3.75 0 01-.049.388c0 .037-.012.073-.012.098a18.868 18.868 0 01-3.27 8.202c-.013.024-.037.048-.049.073-.073.109-.158.206-.243.316-.073.097-.134.194-.207.291-.024.025-.036.049-.06.073a19.025 19.025 0 01-6.93 5.468c-.024.013-.06.025-.085.037v0z" stroke="#F2F2F2" stroke-width="1.765" stroke-miterlimit="10"/><path d="M-69.495 184.769c.025.206.05.413.073.62.025.121.037.243.061.364.012.109.025.231.049.353.036.206.06.413.097.607.012.037.012.073.024.109.013.061.013.11.025.171.097.498.206 1.008.328 1.506.036.183.085.365.134.535l-8.036 5.213 2.553 5.93 9.312-2.248a31.62 31.62 0 001.277 1.883c.024.025.036.049.06.085.122.158.243.329.377.486l.22.292c.072.097.157.195.23.28.134.17.255.328.39.486l.072.073a25.1 25.1 0 001.532 1.677l-4.352 8.53 5.178 3.864 6.93-6.598c.669.352 1.35.68 2.055.984.024.012.06.024.097.036.182.086.377.171.571.244.11.048.219.097.328.133.122.049.231.097.34.134.195.085.39.146.584.219.037.012.061.024.098.036.717.255 1.446.486 2.164.693l.498 9.551 6.419.753 2.699-9.174c.753-.025 1.52-.085 2.273-.17.037 0 .073 0 .097-.013.17-.012.34-.036.499-.06.036 0 .085-.012.121-.012.122-.013.244-.037.365-.049.122-.024.231-.036.353-.061.206-.024.413-.061.608-.097.036 0 .06-.012.085-.012.012 0 .024 0 .024-.012a27.102 27.102 0 002.225-.486l5.203 8.032 5.945-2.552-2.262-9.296c.159-.109.329-.207.475-.304.437-.279.863-.571 1.276-.875a.544.544 0 01.134-.097c0-.012.012-.012.012-.024.024-.012.049-.024.073-.049.17-.121.328-.243.498-.364.098-.085.183-.158.28-.231.097-.073.195-.146.292-.231.024-.024.06-.049.085-.073.134-.097.255-.207.389-.316a.535.535 0 01.085-.073c.571-.486 1.13-.996 1.678-1.519l8.522 4.338 3.866-5.176-6.602-6.927a31.14 31.14 0 00.985-2.041c.012-.036.024-.073.049-.109.073-.183.158-.377.23-.559.05-.122.098-.231.147-.341.036-.109.085-.23.133-.34.073-.194.146-.389.207-.583.012-.024.024-.061.036-.097.268-.717.487-1.434.693-2.163l9.556-.498.766-6.416-9.191-2.698a28.257 28.257 0 00-.17-2.26c0-.037 0-.073-.012-.11-.012-.206-.049-.413-.073-.619-.012-.122-.037-.231-.049-.353-.012-.121-.036-.243-.049-.364-.036-.207-.072-.401-.109-.608 0-.036-.012-.073-.012-.109a44.771 44.771 0 00-.486-2.212l8.023-5.213-2.553-5.93-9.3 2.248a28.306 28.306 0 00-1.276-1.871c-.025-.036-.049-.061-.073-.097-.122-.158-.243-.328-.365-.486-.073-.097-.158-.195-.23-.292-.074-.097-.147-.182-.22-.279l-.401-.474c-.024-.037-.049-.061-.06-.085a33.34 33.34 0 00-1.532-1.677l4.352-8.531-5.191-3.864-6.93 6.611a31.466 31.466 0 00-2.042-.997c-.037-.012-.061-.024-.098-.036-.194-.085-.376-.17-.57-.243a3.997 3.997 0 00-.341-.134 2.856 2.856 0 00-.34-.134c-.183-.073-.378-.145-.572-.218l-.11-.037a34.174 34.174 0 00-2.163-.692l-.487-9.551-6.43-.754-2.7 9.174a28.63 28.63 0 00-2.26.171c-.037 0-.074.012-.11.012-.17.012-.328.036-.499.061-.036 0-.073.012-.11.012-.12.012-.242.036-.364.048-.121.025-.243.037-.365.061-.194.024-.4.061-.607.097-.025.012-.061.012-.086.012-.012.013-.012.013-.024.013a27.09 27.09 0 00-2.212.486l-5.216-8.033-5.932 2.552 2.249 9.308c-.633.401-1.265.827-1.873 1.276-.012 0-.012 0-.024.012a.235.235 0 00-.06.049c-.17.122-.341.243-.5.377-.096.073-.194.146-.279.218-.097.073-.194.146-.292.231-.036.025-.06.049-.097.073a8.77 8.77 0 00-.377.316c-.024.024-.06.049-.085.073-.583.486-1.142.996-1.677 1.531l-8.535-4.35-3.853 5.176 6.6 6.927a39.7 39.7 0 00-.996 2.041l-.037.11a7.87 7.87 0 00-.243.571s-.012.012-.012.024c-.012.012-.012.024-.012.036-.036.086-.073.183-.11.268-.048.109-.084.231-.133.34l-.219.583c-.012.037-.024.061-.036.098a34.203 34.203 0 00-.693 2.162l-9.556.499-.754 6.416 9.18 2.697c.036.754.084 1.507.17 2.26 0 .037.011.073.011.11zM-48.9 157.89c.17-.085.328-.146.498-.219.146-.061.304-.134.45-.194.036-.013.085-.037.121-.049a25.691 25.691 0 0111.902-1.725h.134c.17.024.352.048.535.072.158.013.316.037.486.049.036.012.085.012.121.024a25.814 25.814 0 0111.185 4.448c.024.024.06.048.097.073.146.109.292.218.438.316.122.097.255.194.389.303.036.025.06.049.097.073a25.791 25.791 0 017.452 9.442c.025.036.037.073.061.109.073.17.146.341.22.499.06.158.12.303.181.449a.37.37 0 01.05.122 25.86 25.86 0 011.738 11.908c0 .037-.013.073-.013.11-.024.182-.036.364-.06.546-.025.158-.037.328-.061.486 0 .037-.012.073-.012.11a25.84 25.84 0 01-4.462 11.191c-.024.037-.049.061-.073.097-.085.134-.195.268-.292.389-.11.146-.206.292-.316.438a.606.606 0 00-.085.097 25.691 25.691 0 01-9.446 7.449c-.036.024-.073.036-.11.061-.157.06-.303.133-.461.194a8.405 8.405 0 01-.487.207.417.417 0 01-.109.048 25.92 25.92 0 01-11.914 1.738c-.036-.012-.085-.012-.121-.012-.17-.025-.34-.037-.511-.061-.17-.024-.34-.036-.523-.061-.036-.012-.073-.012-.121-.024a25.801 25.801 0 01-11.173-4.448l-.11-.072c-.133-.098-.267-.195-.4-.304-.134-.097-.28-.207-.426-.316a.677.677 0 00-.097-.073 25.91 25.91 0 01-7.452-9.442c-.013-.036-.037-.073-.049-.109-.073-.146-.134-.304-.195-.45-.072-.17-.145-.328-.218-.498a.853.853 0 00-.049-.121 25.644 25.644 0 01-1.726-11.897c0-.036 0-.085.012-.133.012-.158.036-.316.049-.487l.072-.522c0-.049.013-.097.013-.134a25.875 25.875 0 014.45-11.167l.072-.109.328-.438c.098-.121.195-.255.292-.389a.627.627 0 00.073-.097 25.937 25.937 0 019.446-7.449.423.423 0 01.11-.048z" fill="#F2F2F2"/><path d="M132.555 298.446c.049.219.11.437.158.656.037.122.073.255.11.389.024.122.06.255.097.377l.182.656.037.109c.024.061.036.122.048.17.231.742.487 1.471.754 2.175" stroke="#F2F2F2" stroke-width="3.49" stroke-miterlimit="10" stroke-linecap="round" stroke-linejoin="round"/><path d="M133.941 302.978l-8.084 6.659 3.525 6.137 9.835-3.597m0 0a39.481 39.481 0 001.617 1.884c.024.024.061.048.085.085.158.158.304.328.462.486l.28.279.279.28c.171.17.329.316.499.474.024.024.049.06.085.085a30.309 30.309 0 001.872 1.628m0 0l-3.671 9.806 6.115 3.561 6.711-8.032" stroke="#F2F2F2" stroke-width="3.49" stroke-miterlimit="10" stroke-linecap="round" stroke-linejoin="round"/><path d="M153.55 322.713c.45.17.912.34 1.374.498.316.109.644.219.973.316.036.012.085.024.121.036.219.061.426.122.645.195.133.036.255.06.389.097l.376.109c.219.049.438.11.657.158.049.012.085.024.121.024.803.195 1.617.353 2.432.487m0 0l1.739 10.328 7.075.025 1.787-10.317m0 0c.815-.134 1.629-.28 2.444-.474a.356.356 0 00.109-.024c.182-.037.365-.085.535-.122.049-.012.085-.024.134-.036.121-.037.255-.061.377-.098.133-.036.255-.073.389-.109.218-.061.437-.121.644-.182.036-.012.061-.025.097-.025.012 0 .012-.012.024-.012.791-.243 1.581-.51 2.347-.802m0 0l6.662 8.081 6.139-3.512-3.598-9.842m0 0a29.278 29.278 0 001.872-1.617c.012 0 .012-.012.024-.012l.073-.073c.158-.145.328-.303.486-.461l.28-.28c.097-.097.195-.182.28-.279.036-.037.073-.061.097-.098.134-.133.255-.255.377-.388a.265.265 0 01.085-.085 39.51 39.51 0 001.629-1.872m0 0l9.811 3.67 3.562-6.124-8.048-6.708m0 0c.304-.765.583-1.555.827-2.345l.036-.11.182-.656c.037-.121.073-.255.11-.376.024-.11.061-.207.085-.316 0-.012 0-.025.012-.037 0-.012 0-.024.012-.036.049-.219.11-.438.158-.656.012-.037.012-.073.025-.11.194-.814.352-1.628.486-2.442m0 0l10.333-1.726.013-7.072-10.322-1.798m0 0a34.962 34.962 0 00-.462-2.443.356.356 0 00-.024-.109c-.049-.219-.098-.438-.158-.656a6.336 6.336 0 01-.098-.389c-.036-.134-.073-.255-.109-.389-.061-.219-.122-.425-.182-.644l-.037-.109c-.243-.802-.51-1.58-.802-2.358m0 0l8.084-6.659-3.526-6.136-9.835 3.609m0 0a33.883 33.883 0 00-1.616-1.884c-.025-.024-.049-.061-.086-.085-.145-.17-.303-.328-.462-.498-.097-.085-.182-.182-.279-.28-.097-.085-.183-.182-.28-.279a17.233 17.233 0 00-.486-.462c-.037-.036-.061-.061-.097-.085a33.856 33.856 0 00-1.86-1.64m0 0l3.659-9.807-6.115-3.56-6.711 8.044" stroke="#F2F2F2" stroke-width="3.49" stroke-miterlimit="10" stroke-linecap="round" stroke-linejoin="round"/><path d="M178.546 258.686a38.766 38.766 0 00-2.347-.826.356.356 0 01-.109-.024 13.611 13.611 0 00-.657-.195l-.376-.109c-.134-.036-.256-.061-.39-.097-.218-.061-.437-.11-.656-.17-.036 0-.073-.012-.122-.025a27.965 27.965 0 00-2.431-.474m0 .001l-1.726-10.329-7.076-.024-1.799 10.316m0 0a34.99 34.99 0 00-2.444.462.356.356 0 01-.109.024c-.183.049-.353.085-.535.134a.44.44 0 00-.122.024c-.133.037-.267.073-.389.11-.133.024-.255.06-.389.097-.219.061-.425.121-.644.194-.037 0-.061.012-.097.025h-.025c-.79.243-1.58.51-2.346.802m0-.001l-6.662-8.081-6.139 3.524 3.61 9.831m0 0a33.883 33.883 0 00-1.884 1.616l-.024.024-.061.061c-.17.158-.329.304-.499.474-.097.085-.182.182-.279.267-.098.098-.183.195-.28.292-.036.024-.061.061-.097.085-.122.134-.243.267-.377.389a.615.615 0 01-.085.097 40.4 40.4 0 00-1.629 1.871m0 .001l-9.811-3.67-3.562 6.112 8.048 6.708m0 0a40.781 40.781 0 00-.826 2.345c-.013.036-.013.073-.025.121-.073.207-.133.426-.194.644l-.11.389a4.349 4.349 0 00-.097.377c-.061.219-.109.437-.17.656a.44.44 0 01-.024.122c-.013.06-.025.121-.049.182-.17.741-.316 1.495-.426 2.248m.001 0l-10.334 1.738-.024 7.072 10.321 1.786m0 0c.122.814.279 1.628.462 2.443.012.036.012.072.024.121m34.101 20.293c-.037 0-.085.012-.134.012h-.547c-.195 0-.389 0-.584-.012h-.133a28.495 28.495 0 01-11.841-2.989m0 0l7.732-13.282m0 0c1.495.632 3.136.972 4.863.984 1.726 0 3.367-.34 4.862-.947m.001-.001l7.647 13.318m-.001.001a28.338 28.338 0 01-11.865 2.916m-.584-37.244c5.082.024 9.191 4.155 9.179 9.235-.012 5.067-4.158 9.174-9.227 9.162-5.082-.012-9.191-4.156-9.179-9.223.025-5.067 4.158-9.186 9.227-9.174v0zm6.298 20.281c.012-.013.036-.025.048-.037-.012.012-.036.024-.048.037zm18.284 2.418c-.024.036-.036.073-.061.121-.085.146-.182.304-.267.462-.11.17-.207.34-.304.51l-.073.11a28.123 28.123 0 01-8.51 8.749m0 0l-7.635-13.318m0 0c2.602-2.005 4.425-4.994 4.887-8.409m0 0l15.367.049m0-.001a28.192 28.192 0 01-3.404 11.727m-11.877-12.553v-.097.097zm2.808-24.303a28.253 28.253 0 018.461 8.798c.024.049.049.085.073.122l.292.51c.085.158.182.316.267.474.025.036.037.073.061.121a28.19 28.19 0 013.331 11.739m0-.001l-15.366-.048m0 0a12.749 12.749 0 00-4.839-8.433m0 0l7.72-13.282m-2.796 22.59c-.012-.037-.012-.073-.012-.097 0 .024 0 .06.012.097zm-6.347-10.268a.096.096 0 000 0zm-18.855-14.096a28.226 28.226 0 0111.853-2.916h1.398a28.315 28.315 0 0111.841 3.001m0 0l-7.732 13.27m0 0a12.665 12.665 0 00-4.863-.972 12.48 12.48 0 00-4.863.947m.001 0l-7.635-13.33m6.139 14.059c-.012 0-.036.013-.049.025.013-.012.037-.025.049-.025zm-18.284-2.418a.573.573 0 00.061-.121c.097-.17.207-.34.304-.523.085-.146.17-.304.267-.449.025-.037.049-.085.073-.122a28.386 28.386 0 018.51-8.749m0 0l7.647 13.33m0 0a12.714 12.714 0 00-4.899 8.397m0 0l-15.367-.049m0 0a28.37 28.37 0 013.404-11.714m18.222 24.533c-.023-.012-.035-.024-.059-.035.024.011.036.023.059.035zm-6.345-11.895c0-.037 0-.061.012-.098-.012.037-.012.061-.012.098zm-11.901 14.314c-.025-.049-.037-.085-.061-.121a28.248 28.248 0 01-3.331-11.739m0 0l15.366.049m.001 0v-.012a12.77 12.77 0 004.838 8.445m0 0l-7.72 13.27m0 0a28.124 28.124 0 01-8.461-8.798c-.024-.037-.049-.085-.073-.122-.085-.145-.17-.303-.268-.461l-.291-.511m11.901-12.686v0zm62.877 111.369l-1.264-7.838-17.543-.158m0 0a65.16 65.16 0 00-1.435-3.901c-.024-.073-.061-.134-.085-.194-.134-.341-.28-.693-.438-1.033-.085-.207-.182-.413-.267-.62-.097-.207-.182-.401-.28-.595a26.504 26.504 0 00-.486-1.033c-.024-.061-.061-.122-.085-.17a50.6 50.6 0 00-1.969-3.67" stroke="#F2F2F2" stroke-width="3.49" stroke-miterlimit="10" stroke-linecap="round" stroke-linejoin="round"/><path d="M192.344 383.628l11.549-13.209-7.489-9.186-15.269 8.639m0 0a61.36 61.36 0 00-3.197-2.673c-.049-.036-.097-.073-.158-.109a30.116 30.116 0 00-.912-.693c-.17-.134-.352-.255-.523-.389-.182-.133-.364-.267-.547-.389-.316-.218-.62-.437-.936-.644a1.935 1.935 0 00-.17-.109 58.5 58.5 0 00-3.538-2.199m0-.001l3.392-17.206-11.076-4.204-8.911 15.104m0 0a64.792 64.792 0 00-4.097-.717c-.06 0-.133-.012-.194-.024a33.494 33.494 0 00-1.131-.134l-.656-.073c-.219-.024-.45-.048-.669-.061-.377-.036-.754-.06-1.118-.097-.073 0-.146-.012-.207-.012a53.303 53.303 0 00-4.158-.122m0 .001l-5.677-16.599-11.695 1.883-.158 17.535m0 0a67.977 67.977 0 00-4.097 1.507c-.279.121-.559.23-.839.352-.06.036-.133.061-.194.097-.207.085-.414.182-.62.267-.195.098-.401.183-.608.28-.34.158-.681.316-1.021.486-.049.024-.098.036-.146.061-.012.012-.024.012-.037.024a53.228 53.228 0 00-3.659 1.969m0-.001l-13.214-11.543-9.191 7.485 8.644 15.262m0 0a56.36 56.36 0 00-2.675 3.196c-.012.012-.012.024-.024.024-.024.049-.06.086-.085.122-.243.304-.462.608-.693.923-.134.171-.255.353-.39.523a15.11 15.11 0 00-.388.547c-.049.061-.085.121-.134.182-.17.243-.34.498-.51.753-.037.049-.073.11-.11.171a58.88 58.88 0 00-2.2 3.536m0 0l-17.215-3.391-4.206 11.07 15.111 8.907m-.001 0a56.7 56.7 0 00-.4 2.09m44.883 0c2.298-2.77 5.568-4.763 9.398-5.371m0 0c5.568-.911 10.941 1.325 14.321 5.371l-14.321-5.371zm21.773-27.632a47.497 47.497 0 0116.376 12.249c.048.061.097.121.146.17.218.255.413.51.62.765.194.231.389.462.571.705l.146.183a47.511 47.511 0 018.692 18.494m-26.891.437a21.382 21.382 0 00-8.814-8.955m0 0l9.154-24.048m-11.768 22.857a.873.873 0 010 0zm-35-18.167a47.345 47.345 0 0118.795-8.044c.073-.012.146-.024.231-.036.316-.061.644-.11.972-.17.292-.049.596-.098.888-.134l.231-.037a47.594 47.594 0 0120.375 1.726m0 0l-9.142 24.036m0 0a21.344 21.344 0 00-8.303-.292 21.322 21.322 0 00-7.793 2.892m0 0l-16.254-19.941m13.992 21.557c-.036.024-.06.036-.084.06.024-.024.048-.036.084-.06zm-30.89.985l.073-.219c.121-.316.243-.62.364-.936.098-.267.207-.547.316-.826.025-.073.061-.146.086-.219a47.475 47.475 0 0111.682-16.769m.001 0l16.254 19.941m-.001 0a21.5 21.5 0 00-3.404 4.799m-26.988 0c.413-1.944.96-3.876 1.616-5.772" stroke="#F2F2F2" stroke-width="3.49" stroke-miterlimit="10" stroke-linecap="round" stroke-linejoin="round"/><path d="M-10.691 275.662l12.777-12.771m-109.037 108.986l5.799-5.796-5.799 5.796zM1.842 280.754l30.612-30.61m-139.405 139.353l10.893-10.888-10.893 10.888zm119.565-101.89l30.088-30.087m-143.526 143.46l11.635-11.629-11.635 11.629zM21.792 296.04l11.562-11.556M-85.068 402.84l4.303-4.29-4.303 4.29zm114.531-96.86l11.768-11.763m-5.726 23.343l25.725-25.712m-21.664 39.273l33.176-33.173m-31.839 49.456l15.39-15.383m-19.438 37.037l26.891-26.879m-7.707 25.312l21.518-21.496m-56.883 56.844l33.104-33.076-33.104 33.076zm-24.861-124.88L8.14 265.637m-115.091 115.05l8.097-8.093-8.097 8.093zm124.342-89.058l17.02-17.012m-128.28 128.222l8.704-8.7-8.705 8.7zM32.71 311.558l16.63-16.624m16.34 18.884l9.798-9.794m-34.83 34.814l14.224-14.205-14.224 14.205zM7.435 283.973l30.15-30.135m-142.189 142.111l11.78-11.774-11.78 11.774zm130.42-95.133l11.635-11.617M-76.254 402.84l.267-.256-.267.256zm114.057-78.767l32.204-32.201m-30.088 65.314l17.19-17.182M27.36 387.358l43.291-43.271m-5.154 22.772l17.579-17.583m-53.588 53.563l18.77-18.762-18.77 18.762zm45.467-36.624l7.124-7.133m-43.777 43.757l13.372-13.366-13.373 13.366zm8.813.001l8.923-8.92m-.108 8.919l4.485-4.484" stroke="#F2F2F2" stroke-width="2.607" stroke-miterlimit="10"/><path d="M56.513 333.637c-.073-.571-.146-1.155-.243-1.726-.049-.34-.098-.68-.158-1.02-.061-.341-.11-.681-.17-1.009a73.393 73.393 0 00-.317-1.725c-.024-.098-.036-.195-.06-.304-.025-.146-.05-.304-.086-.462a98.195 98.195 0 00-.972-4.253c-.134-.51-.268-1.021-.413-1.531m0 0l22.49-15.104-7.5-16.684-26.236 6.792m0 0a86.83 86.83 0 00-3.695-5.249 3.564 3.564 0 00-.195-.255 57.345 57.345 0 00-1.07-1.374c-.219-.267-.425-.534-.644-.802a45.3 45.3 0 00-.657-.789c-.376-.45-.753-.9-1.142-1.337l-.195-.231a89.304 89.304 0 00-4.413-4.678" stroke="#F2F2F2" stroke-width="6.98" stroke-miterlimit="10"/><path d="M30.837 281.896l11.939-24.327-14.856-10.694-19.318 18.993m0 0a85.315 85.315 0 00-5.835-2.698c-.085-.036-.183-.085-.28-.121a188.02 188.02 0 00-1.629-.656l-.948-.365c-.329-.121-.645-.243-.973-.364-.547-.207-1.094-.389-1.641-.584-.097-.036-.195-.073-.292-.097a87.31 87.31 0 00-6.163-1.859M64.828 402.84l-17.202-17.474m0 0a90.564 90.564 0 002.699-5.833c.036-.097.073-.194.121-.279.22-.547.438-1.082.657-1.629.012-.036.024-.06.036-.097.012-.036.025-.061.037-.097l.292-.766c.121-.316.243-.644.364-.96.195-.546.39-1.105.584-1.652.036-.097.073-.195.097-.292a84.874 84.874 0 001.848-6.149m0 0l27.037-1.835 1.848-18.202-26.113-7.231m0 0a87.18 87.18 0 00-.572-6.391c-.012-.11-.036-.207-.048-.316M-75.646 402.84a73.145 73.145 0 01-21.47-26.321c-.048-.109-.097-.206-.146-.316a68.885 68.885 0 01-.632-1.409 57.812 57.812 0 01-.571-1.252 3.901 3.901 0 00-.134-.328 73.023 73.023 0 01-5.446-33.623c0-.109.012-.219.024-.328.036-.51.097-1.033.146-1.543l.146-1.386c.012-.109.024-.218.048-.328a73.15 73.15 0 0112.097-31.861c.06-.085.121-.182.194-.279.268-.377.535-.754.815-1.13.291-.414.583-.827.9-1.24.06-.097.133-.182.206-.279a73.008 73.008 0 0126.405-21.521c.097-.06.207-.109.304-.158.438-.194.875-.388 1.3-.583.463-.206.913-.413 1.375-.607.109-.049.206-.098.316-.134a73.28 73.28 0 0133.638-5.456c.11.012.231.024.34.024l1.435.146c.499.049.985.097 1.471.158l.353.036a73.279 73.279 0 0131.851 12.091c.097.073.195.134.292.195.389.279.766.559 1.155.838.401.292.814.571 1.216.875.085.073.182.146.28.207a73.175 73.175 0 0121.53 26.393c.048.109.109.206.157.315.195.414.377.839.572 1.264.206.462.425.936.62 1.398.048.109.097.218.133.328a73.086 73.086 0 015.459 33.599c-.012.121-.024.255-.037.376-.036.462-.085.924-.133 1.386-.049.498-.098.996-.158 1.494l-.037.365a73.297 73.297 0 01-12.096 31.824c-.06.098-.134.195-.195.292-.291.425-.607.839-.9 1.252a64.26 64.26 0 01-.814 1.118c-.073.085-.133.182-.206.279a72.876 72.876 0 01-13.86 13.829" stroke="#F2F2F2" stroke-width="6.98" stroke-miterlimit="10"/><path d="M-86.393 369.715c7.573 16.829 21.968 28.47 38.452 33.125m32.593 0a59.627 59.627 0 008.292-3.014c30.234-13.585 43.716-49.092 30.125-79.301" stroke="#F2F2F2" stroke-width="6.98" stroke-miterlimit="10"/><path d="M-10.861 391.369c-7.902 3.548-17.19.024-20.74-7.874-3.55-7.899-.025-17.183 7.877-20.731 7.902-3.56 17.19-.024 20.74 7.874 3.55 7.899.025 17.182-7.877 20.731zm17.591-46.31c-7.902 3.549-17.178.025-20.74-7.874-3.55-7.898-.024-17.182 7.878-20.73 7.902-3.561 17.19-.037 20.74 7.862 3.562 7.91.036 17.182-7.878 20.742z" stroke="#F2F2F2" stroke-width="6.98" stroke-miterlimit="10"/><path d="M262.161 246.158l1.338-1.336m-20.363 20.365l6.467-6.464-6.467 6.464zm7.634 8.506l24.011-23.987m-39.997 39.979l7.987-7.996-7.987 7.996zm46.963-30.804l15.317-15.323m-50.403 50.38l7.89-7.886-7.89 7.886zm50.294-34.122l5.86-5.857m-62.074 62.046l14.758-14.752-14.758 14.752zm23.086-63.431l7.708-7.704m-24.4 24.388l7.878-7.886-7.878 7.886zm39.401-23.234l6.541-6.549m-52.652 52.628l20.01-20.001-20.01 20.001zm27.365-27.341l13.373-13.367-13.373 13.367zm22.393-6.246l7.404-7.4m-59.351 59.324l4.353-4.351-4.353 4.351zm9.459-9.454l6.516-6.514-6.516 6.514zm54.998-38.837l14.029-14.022m-66.56 66.529l7.671-7.668-7.671 7.668zm57.467-49.371l13.786-13.78m-65.758 65.739l5.325-5.334-5.325 5.334zm56.178-48.095l5.301-5.286m-60.02 59.992l7.732-7.729-7.732 7.729zm58.245-50.137l5.386-5.396m-65.15 65.132l13.81-13.816-13.81 13.816zm62.524-54.438l11.792-11.775m-60.834 60.806l5.641-5.65-5.641 5.65zm50.902-42.81l15.208-15.201m-60.384 60.356l6.127-6.124-6.127 6.124zM263 249.366l6.905-6.914m-24.776 24.765l7.185-7.17-7.185 7.17zm42.951-26.782l1.325-1.325m-52.141 52.118l9.847-9.831-9.847 9.831zm10.953-10.948l28.18-28.168-28.18 28.168zm38.028-21.861l11.075-11.082m-50.282 50.271l7.063-7.06-7.063 7.06zm52.895-36.734l5.653-5.651m-60.87 60.843l11.841-11.836-11.841 11.836zm65.101-48.934l7.805-7.789m-60.092 60.064l5.3-5.298-5.3 5.298zm59.314-43.138l7.61-7.618m-66.511 66.492l14.017-14.022-14.017 14.022zm6.711-79.373l8.497-8.482m-37.918 37.901l3.21-3.208-3.21 3.208zm13.908-13.902l8.583-8.579-8.583 8.579zm27.16-11.009l20.436-20.427m-53.151 53.127l12.388-12.383-12.388 12.383zm50.135-33.964l6.14-6.136m-60.372 60.344l15.22-15.214-15.22 15.214zm65.769-49.602l13.81-13.804m-65.149 65.119l5.397-5.395-5.397 5.395zm59.764-43.587l5.337-5.334m-65.769 65.739l13.786-13.78-13.786 13.78zm65.927-49.76l14.759-14.74m-62.086 62.058l5.847-5.857-5.847 5.857z" stroke="#F2F2F2" stroke-width="1.765" stroke-miterlimit="10"/><path d="M276.568 252.368l-6.917-10.305-7.659 3.439 3.124 12.018m0 0l-.62.401c-.547.376-1.082.753-1.617 1.154a1.772 1.772 0 01-.183.134c0 .012-.012.012-.012.024-.036.012-.061.037-.097.061-.207.17-.426.328-.632.498l-.365.292c-.122.097-.243.206-.365.303-.036.037-.085.061-.121.098-.158.146-.328.279-.487.425-.036.024-.072.061-.109.085a42.38 42.38 0 00-2.14 2.017m0 0l-11.147-5.456-4.912 6.793 8.705 8.859m-.001 0a40.152 40.152 0 00-1.227 2.661c-.025.048-.037.097-.061.133-.097.256-.207.499-.304.742-.049.145-.11.303-.17.449-.049.146-.11.292-.158.438-.098.255-.183.498-.268.753a.6.6 0 00-.048.134 45.809 45.809 0 00-.851 2.819m0 0l-12.388.838-.839 8.348 11.963 3.306" stroke="#F2F2F2" stroke-width="3.49" stroke-miterlimit="10" stroke-linecap="round" stroke-linejoin="round"/><path d="M246.661 293.828c.049.972.134 1.957.268 2.929 0 .048.012.097.012.146l.109.79.073.473c.037.146.061.304.085.462.049.255.097.523.146.79.012.037.012.085.024.134.195.972.414 1.92.681 2.868m0 0l-10.309 6.914 3.441 7.655 12.011-3.123m0 0a37.363 37.363 0 001.702 2.406.424.424 0 00.085.122c.158.206.328.413.486.632.097.121.207.243.304.364l.292.365c.182.206.352.401.522.607.037.037.061.073.098.11a37.188 37.188 0 002.018 2.138m0 0l-5.47 11.143 6.807 4.909 8.851-8.712m0 0c.875.449 1.763.863 2.674 1.239.037.025.085.037.122.061.255.097.498.194.754.304.146.048.291.109.437.158.146.06.292.121.438.17.255.097.511.182.754.267.048.012.097.037.146.049.924.316 1.872.595 2.808.85m24.569-9.356c-.219.097-.425.194-.632.279a12.62 12.62 0 01-.584.268c-.06.024-.109.036-.158.06a33.602 33.602 0 01-15.403 2.504c-.06-.013-.109-.013-.17-.013l-.693-.073c-.206-.024-.425-.036-.632-.06a.722.722 0 00-.158-.025 33.592 33.592 0 01-14.601-5.541c-.036-.024-.085-.06-.133-.085-.183-.133-.377-.279-.56-.413-.17-.121-.352-.243-.522-.377a2.595 2.595 0 01-.134-.097 33.532 33.532 0 01-9.859-12.09l-.073-.146c-.098-.207-.195-.426-.292-.644-.085-.183-.17-.377-.255-.571-.025-.049-.037-.098-.061-.146a33.614 33.614 0 01-2.505-15.408c.013-.049.013-.098.013-.158l.073-.693c.024-.219.036-.425.06-.644.013-.049.012-.097.025-.146a33.607 33.607 0 015.543-14.606c.025-.036.061-.085.085-.121.122-.183.256-.353.377-.523.134-.194.268-.377.414-.571a.848.848 0 01.097-.122 33.462 33.462 0 0112.096-9.867c.049-.024.097-.048.146-.06.194-.097.389-.183.596-.28.206-.085.413-.182.62-.279.048-.012.097-.037.146-.061a33.643 33.643 0 0115.415-2.491c.048 0 .109 0 .158.012.219.012.437.037.656.061l.681.073c.049 0 .097.012.158.024a33.47 33.47 0 0114.589 5.529c.048.036.097.061.133.097.183.122.353.255.535.377l.547.401c.049.036.085.073.134.097a33.558 33.558 0 019.872 12.091.725.725 0 01.06.146c.098.194.183.388.268.583.097.206.194.425.292.644.012.049.036.097.06.146a33.525 33.525 0 012.492 15.396c0 .06-.012.109-.012.17-.012.219-.036.425-.06.632l-.073.692c-.013.049-.013.11-.025.17a33.442 33.442 0 01-5.531 14.57c-.037.049-.061.097-.097.146-.134.182-.268.377-.414.571l-.364.51a.873.873 0 00-.098.122 33.563 33.563 0 01-12.096 9.867 9.93 9.93 0 00-.146.073v0z" stroke="#F2F2F2" stroke-width="3.49" stroke-miterlimit="10" stroke-linecap="round" stroke-linejoin="round"/><path d="M300.164 402.84l-27.158-27.147m9.543 27.146l-10.115-10.098m18.917 10.099l-18.917-18.908m.001 18.908v-27.147h210.012v27.147" stroke="#F2F2F2" stroke-width="2.607" stroke-miterlimit="10"/><path d="M108.74 307.001c.036-.219.061-.426.085-.632l.036-.316.037-.62v-.632c0-.79-.085-1.567-.243-2.345l3.853-3.548-2.832-5.019-5.021 1.471-.547-.474c-.17-.134-.34-.256-.498-.389-.086-.061-.171-.122-.268-.182a7.578 7.578 0 00-.523-.341c-.012-.012-.036-.024-.048-.036-.012-.012-.025-.012-.037-.024-.073-.037-.146-.086-.206-.122-.073-.036-.134-.085-.207-.122-.012 0-.024-.012-.049-.024-.012-.012-.036-.012-.048-.024a9.061 9.061 0 00-.839-.425 11.41 11.41 0 00-1.265-.511l-1.142-5.103-5.763-.061-1.24 5.091c-.425.134-.85.292-1.264.474-.292.122-.572.268-.851.413-.024.013-.037.025-.06.025-.013.012-.025.024-.037.024a1.847 1.847 0 00-.207.121c-.012 0-.024.013-.037.013-.06.036-.109.073-.17.109-.012 0-.024.012-.036.012-.11.073-.219.134-.328.207-.085.048-.17.109-.268.17-.45.304-.9.644-1.325 1.008l-4.984-1.567-2.942 4.97 3.793 3.609c-.073.328-.134.668-.183.996l-.036.353a9.373 9.373 0 00-.061.607v.025c0 .121-.012.243-.012.364v.292a.74.74 0 000 .231v.048c0 .778.085 1.568.243 2.345l-3.854 3.537 2.833 5.03 5.02-1.47c.414.377.852.717 1.301 1.033.183.121.353.243.535.352.013.012.037.024.049.037.012 0 .024.012.037.024.072.036.145.073.206.121.073.037.134.073.207.122.012 0 .024.012.036.012.025.012.037.024.061.037.267.145.56.291.839.425.413.194.827.364 1.264.51l1.13 5.104 5.776.048 1.24-5.079c.425-.134.85-.292 1.264-.474.292-.133.571-.267.851-.413a.25.25 0 01.061-.036c.012 0 .024-.013.036-.013a1.17 1.17 0 01.207-.121c.012-.012.024-.012.036-.012.049-.037.11-.073.17-.11.013 0 .025-.012.037-.024a13.3 13.3 0 001.921-1.385l4.984 1.567 2.942-4.957-3.793-3.622c.049-.23.097-.473.134-.704zm-8.984 5.067c-.012 0-.012.012-.025.012a8.088 8.088 0 01-3.671.948h-.401a8.188 8.188 0 01-3.66-1.021c-.012 0-.024-.012-.036-.012a.848.848 0 00-.146-.085.481.481 0 00-.134-.085l-.024-.024a8.073 8.073 0 01-2.662-2.698c0-.012-.012-.024-.012-.037-.037-.048-.061-.097-.085-.145-.025-.049-.05-.098-.073-.134-.013-.012-.025-.024-.025-.037a8.227 8.227 0 01-.948-3.669v-.365c0-.012 0-.024.012-.036a8.053 8.053 0 011.01-3.658c.011 0 .011-.012.023-.024a.904.904 0 01.086-.146 1.35 1.35 0 01.073-.134c.012-.012.012-.024.024-.036a8.067 8.067 0 012.71-2.649l.025-.024c.049-.025.097-.049.134-.073a.626.626 0 01.158-.085l.024-.025a8.074 8.074 0 013.672-.935h.401a8.023 8.023 0 013.66 1.02c.011 0 .023.013.036.013.036.024.085.06.133.085a.812.812 0 01.146.085c.012 0 .012.012.025.012a8.336 8.336 0 012.662 2.71c0 .012.012.024.012.036.024.036.061.085.085.134l.073.146c.012.012.012.024.024.036a8.197 8.197 0 01.949 3.67v.194c0 .049 0 .109-.012.17v.037a8.007 8.007 0 01-1.009 3.645c-.013.012-.013.024-.025.037-.024.048-.048.085-.073.133a.919.919 0 00-.085.146c-.012.012-.024.024-.024.037a8.09 8.09 0 01-2.711 2.649c0 .012-.012.012-.024.024-.05.024-.11.048-.159.085a1.323 1.323 0 01-.133.073z" fill="#F2F2F2"/><path d="M49.243 402.84c4.912-47.221 44.848-84.028 93.391-84.028 48.543 0 88.478 36.807 93.39 84.028" stroke="#F2F2F2" stroke-width="1.765" stroke-miterlimit="10"/><path d="M-106.951 139.979c13.677-23.72 39.304-39.675 68.663-39.675 43.753 0 79.215 35.446 79.215 79.179m0 0c0 43.733-35.462 79.179-79.215 79.179-29.36 0-54.986-15.967-68.663-39.687l147.878-39.492zM-39.844 402.84C-34.738 306.527 45 230.009 142.633 230.009c97.633 0 177.371 76.518 182.477 172.831" stroke="#F2F2F2" stroke-width=".882" stroke-miterlimit="10"/><path d="M-106.951 186.701c3.623 34.68 33.03 61.79 68.663 61.79 38.076 0 69.052-30.95 69.052-69.008 0-38.059-30.976-69.02-69.052-69.02-35.632 0-65.04 27.122-68.663 61.79" stroke="#F2F2F2" stroke-width="6.98" stroke-miterlimit="10"/><path d="M272.434 402.839v-92.084h108.733v92.084" stroke="#F2F2F2" stroke-width="2.607" stroke-miterlimit="10"/><path d="M-106.951 211.454h227.884V402.84" stroke="#F2F2F2" stroke-width="1.765" stroke-miterlimit="10"/><path d="M-106.951 30.518H58.64v372.321" stroke="#F2F2F2" stroke-width="1.765" stroke-miterlimit="10"/><path d="M270.076 328.436v74.403h2.358v-74.403h-2.358z" fill="#F2F2F2"/></g><defs><linearGradient id="paint0_linear" x1="246.216" y1="469.525" x2="-114.463" y2="300.605" gradientUnits="userSpaceOnUse"><stop stop-color="#E52D2D"/><stop offset=".251" stop-color="#E11F28"/><stop offset=".49" stop-color="#333867"/><stop offset=".812" stop-color="#46A8DE"/><stop offset="1" stop-color="#46A8DE"/></linearGradient><filter id="filter0_d" x="-298.239" y="-49.443" width="586.429" height="457.441" filterUnits="userSpaceOnUse" color-interpolation-filters="sRGB"><feFlood flood-opacity="0" result="BackgroundImageFix"/><feColorMatrix in="SourceAlpha" values="0 0 0 0 0 0 0 0 0 0 0 0 0 0 0 0 0 0 127 0"/><feOffset dx="6"/><feGaussianBlur stdDeviation="4"/><feColorMatrix values="0 0 0 0 0 0 0 0 0 0 0 0 0 0 0 0 0 0 0.25 0"/><feBlend in2="BackgroundImageFix" result="effect1_dropShadow"/><feBlend in="SourceGraphic" in2="effect1_dropShadow" result="shape"/></filter></defs></svg>