<svg width="796" height="600" fill="none" xmlns="http://www.w3.org/2000/svg"><g opacity=".4"><path d="M272.164 372.66c-.017-.199-.033-.415-.066-.614a20.813 20.813 0 01-.05-.365l-.05-.349a6.555 6.555 0 00-.116-.614c0-.033 0-.083-.017-.116 0-.05-.016-.1-.016-.166a50.99 50.99 0 00-.332-1.51 6.329 6.329 0 00-.133-.548m0 0l8.054-5.212-2.574-5.941-9.315 2.24m0 0c-.399-.63-.83-1.261-1.279-1.875a.283.283 0 01-.066-.083c-.133-.166-.249-.332-.382-.498-.066-.1-.149-.183-.216-.282-.083-.1-.149-.199-.232-.282-.133-.166-.266-.332-.399-.482-.016-.033-.033-.066-.066-.083a29.3 29.3 0 00-1.528-1.692m0-.001l4.367-8.53-5.197-3.884-6.957 6.622m0 0a39.844 39.844 0 00-2.043-.996.228.228 0 01-.099-.033c-.2-.083-.382-.166-.582-.249-.099-.049-.215-.083-.332-.132-.116-.05-.215-.083-.332-.133-.199-.067-.398-.15-.581-.216a.234.234 0 00-.116-.033 24.884 24.884 0 00-2.159-.697m0 0l-.498-9.577-6.442-.763-2.707 9.211m0 0c-.747.033-1.511.083-2.258.166-.05 0-.083 0-.116.017l-.498.049c-.034.017-.083.017-.117.017-.116.017-.232.033-.365.05a2.549 2.549 0 00-.349.066c-.215.033-.415.067-.614.1-.033 0-.066 0-.083.016h-.033c-.747.133-1.478.299-2.225.482m0 0l-5.214-8.05-5.944 2.573 2.241 9.311" stroke="#F6FFFF" stroke-width="1.765" stroke-miterlimit="10"/><path d="M224.128 349.573c-.149.1-.315.2-.465.316-.431.265-.863.564-1.278.863a.901.901 0 01-.133.099c0 .017-.017.017-.017.017-.016.017-.049.033-.066.05-.166.133-.332.249-.498.382-.1.066-.183.149-.282.215-.1.083-.2.15-.283.233-.033.033-.066.049-.099.083a6.231 6.231 0 00-.382.315.38.38 0 00-.083.066c-.581.498-1.146.996-1.677 1.527m0 0l-8.551-4.348-3.886 5.195 6.625 6.937m0 0a39 39 0 00-.996 2.042c0 .033-.017.066-.033.116-.083.182-.166.365-.249.564-.05.116-.083.216-.133.332-.05.116-.083.232-.133.332-.066.199-.149.398-.216.597-.016.034-.033.067-.033.1a24.864 24.864 0 00-.697 2.158m0 0l-9.581.498-.764 6.439 9.215 2.705m0 0c.034.747.084 1.511.167 2.274 0 .033 0 .067.016.1.017.199.05.415.067.614l.049.365c.017.116.034.232.067.365l.099.598c0 .033.017.083.017.116.133.747.299 1.494.482 2.224m0 0l-8.054 5.211 2.574 5.958 9.315-2.257m0 0c.415.631.83 1.262 1.279 1.876.033.033.05.066.066.083.133.166.249.332.382.498.066.099.149.199.216.282.083.099.149.199.232.299.133.149.266.315.399.464.016.033.05.067.066.083.498.581.997 1.145 1.528 1.693m0 0l-4.35 8.531 5.197 3.884 6.94-6.623m0 0c.664.349 1.345.681 2.043.996.033.017.066.017.099.033.199.083.382.166.581.249.117.05.216.083.332.133.117.05.233.083.349.133.183.083.382.149.565.216.05.016.083.033.116.033.714.265 1.428.498 2.159.697m0 0l.498 9.576 6.442.764 2.707-9.211m0 0a26.864 26.864 0 002.275-.166c.033 0 .066 0 .099-.017l.498-.05c.034 0 .083-.016.117-.016.116-.017.249-.034.365-.05.116-.017.232-.033.365-.05.199-.033.399-.066.598-.116.033 0 .066 0 .1-.017h.016a33.067 33.067 0 002.225-.481m0 0l5.214 8.049 5.961-2.572-2.258-9.311m0 0c.631-.399 1.262-.83 1.876-1.278 0-.017.017-.017.017-.017.016-.016.049-.033.066-.05.166-.116.332-.249.498-.381.1-.067.183-.15.282-.216.1-.083.2-.149.299-.232.017-.017.05-.05.083-.067.133-.116.266-.216.382-.315.033-.033.067-.05.083-.083a37.21 37.21 0 001.694-1.527m0 0l8.534 4.348 3.886-5.178-6.625-6.954m0 0c.348-.664.681-1.344.996-2.041.017-.033.017-.067.033-.1.083-.199.166-.382.249-.581 0 0 .017-.016.017-.033 0 0 0-.016.017-.033.033-.083.066-.183.099-.266.05-.116.1-.232.133-.332.083-.199.149-.398.216-.58.016-.034.033-.067.033-.117.266-.713.498-1.427.697-2.157m.001 0l9.58-.498.764-6.44-9.215-2.705m-.001 0a25.562 25.562 0 00-.166-2.257c0-.05 0-.083-.016-.116m-20.639 26.953c-.166.066-.333.149-.499.216l-.448.199a.3.3 0 00-.116.033 25.98 25.98 0 01-11.939 1.743c-.033 0-.083 0-.116-.017l-.548-.05a4.668 4.668 0 00-.481-.066c-.05 0-.083-.017-.133-.017a25.737 25.737 0 01-11.192-4.464c-.049-.017-.083-.05-.116-.067-.149-.099-.282-.215-.431-.315l-.399-.299c-.033-.033-.066-.05-.1-.083a25.987 25.987 0 01-7.472-9.46c-.016-.033-.033-.083-.049-.116-.067-.166-.15-.332-.216-.498a4.963 4.963 0 01-.183-.448c-.017-.033-.033-.083-.05-.116a25.943 25.943 0 01-1.743-11.933c0-.034.016-.083.016-.117.017-.182.034-.365.067-.547.016-.166.033-.332.05-.482 0-.049.016-.083.016-.116a26.032 26.032 0 014.467-11.219c.016-.033.05-.067.066-.1l.299-.398c.1-.133.216-.282.332-.432.017-.033.05-.066.067-.099a26.134 26.134 0 019.464-7.469.691.691 0 00.116-.05c.15-.066.316-.132.465-.199.166-.066.332-.132.482-.199.05-.016.083-.033.116-.05a25.979 25.979 0 0111.939-1.742c.049 0 .083.016.132.016l.499.05c.182.033.348.05.531.066.033 0 .066.017.116.017a25.98 25.98 0 0111.208 4.465c.033.016.066.049.1.066l.398.299c.15.116.282.216.432.315a.436.436 0 00.1.083 26.123 26.123 0 017.471 9.46c.017.05.034.083.05.116l.2.449c.066.165.132.331.215.497.017.05.017.083.034.117a25.94 25.94 0 011.743 11.933c0 .049 0 .083-.017.132l-.049.482c-.017.182-.034.365-.067.531 0 .05-.016.099-.016.133a25.764 25.764 0 01-4.467 11.202c-.017.034-.05.067-.066.1-.1.149-.216.282-.332.432-.1.132-.183.265-.283.398-.033.033-.05.066-.083.099a25.982 25.982 0 01-9.464 7.469c-.033.017-.083.033-.116.05v0z" stroke="#F6FFFF" stroke-width="1.765" stroke-miterlimit="10"/><path d="M40.318 306.256l.1.846c.033.166.05.332.083.498.016.15.033.316.066.482.05.282.083.564.133.829.016.05.016.1.033.15.017.083.017.149.033.232.133.681.282 1.378.449 2.058.05.249.116.498.182.73l-10.975 7.12 3.487 8.1 12.718-3.071c.548.88 1.13 1.726 1.744 2.573.033.033.05.066.083.116.166.216.332.448.515.664l.299.398c.1.133.215.266.315.382.183.232.349.448.531.664l.1.099c.664.797 1.362 1.56 2.092 2.291l-5.944 11.651 7.073 5.277 9.465-9.012c.913.482 1.843.93 2.806 1.345.033.016.083.033.133.049.249.117.514.233.78.332.15.067.3.133.448.183.167.066.316.133.465.182.266.117.532.2.797.299.05.017.084.033.133.05.98.349 1.976.664 2.956.946l.68 13.045 8.768 1.029 3.686-12.53a39.534 39.534 0 003.105-.233c.05 0 .1 0 .133-.016a8.77 8.77 0 00.68-.083c.05 0 .117-.017.167-.017.166-.017.332-.05.498-.066.166-.034.315-.05.481-.083.282-.034.565-.083.83-.133.05 0 .084-.017.117-.017.016 0 .033 0 .033-.016a36.988 36.988 0 003.038-.664l7.107 10.97 8.12-3.485-3.089-12.697c.216-.149.449-.282.648-.415.598-.381 1.179-.78 1.743-1.194a.74.74 0 01.183-.133c0-.017.017-.017.017-.033.033-.017.066-.034.099-.067.233-.166.449-.332.681-.498a6.62 6.62 0 01.382-.315c.133-.1.266-.199.398-.315.034-.034.083-.067.117-.1.182-.133.348-.282.531-.432.033-.033.066-.066.116-.099a53.82 53.82 0 002.292-2.075l11.639 5.925 5.28-7.07-9.016-9.46c.482-.913.93-1.842 1.345-2.788.017-.05.033-.1.067-.15.099-.249.216-.514.315-.763.067-.166.133-.315.199-.465.05-.149.117-.315.183-.465.1-.265.199-.531.282-.796a38.534 38.534 0 00.997-3.087l13.051-.681 1.046-8.763-12.553-3.684a38.155 38.155 0 00-.233-3.087c0-.05 0-.1-.016-.15-.017-.282-.067-.564-.1-.846-.016-.166-.05-.315-.066-.481-.017-.166-.05-.332-.067-.498l-.149-.83c0-.05-.017-.1-.017-.149a60.774 60.774 0 00-.664-3.021l10.959-7.12-3.487-8.099-12.702 3.07a38.226 38.226 0 00-1.744-2.556c-.033-.05-.066-.083-.099-.133-.166-.215-.333-.448-.499-.664-.099-.132-.215-.265-.315-.398s-.199-.249-.299-.382l-.548-.647c-.033-.05-.066-.083-.083-.116a46.117 46.117 0 00-2.092-2.29l5.944-11.651-7.09-5.278-9.464 9.029a42.772 42.772 0 00-2.79-1.361c-.05-.017-.083-.034-.133-.05-.265-.116-.514-.233-.78-.332a5.591 5.591 0 00-.465-.183c-.15-.066-.299-.132-.465-.182-.249-.1-.515-.199-.78-.299l-.15-.05a47.388 47.388 0 00-2.955-.946l-.664-13.045-8.784-1.029-3.686 12.531c-1.03.033-2.06.116-3.089.232-.05 0-.1.017-.15.017-.232.016-.448.049-.68.083-.05 0-.1.016-.15.016-.165.017-.332.05-.498.067-.166.033-.332.049-.498.083-.265.033-.548.083-.83.132a.276.276 0 01-.116.017c-.017.017-.017.017-.033.017a37.708 37.708 0 00-3.022.663l-7.124-10.97-8.103 3.485 3.072 12.713a43.57 43.57 0 00-2.557 1.743c-.016 0-.016 0-.033.017a.283.283 0 00-.083.066c-.232.166-.465.332-.68.515a7.658 7.658 0 00-.383.298c-.133.1-.265.199-.398.316-.05.033-.083.066-.133.099-.166.133-.349.282-.515.432-.033.033-.083.066-.116.099a34.065 34.065 0 00-2.291 2.092l-11.657-5.942-5.263 7.07 9.016 9.46c-.482.913-.93 1.843-1.362 2.789l-.05.149c-.116.249-.232.514-.332.78 0 0-.016.017-.016.033-.017.017-.017.033-.017.05-.05.116-.1.249-.15.365-.066.149-.116.315-.182.465l-.299.796c-.016.05-.033.083-.05.133a47.098 47.098 0 00-.946 2.954l-13.051.681-1.03 8.763 12.537 3.685a48.55 48.55 0 00.232 3.087c0 .049.017.099.017.149zm28.128-36.712c.232-.116.448-.199.68-.299.2-.083.416-.183.615-.266.05-.016.116-.049.166-.066a35.107 35.107 0 0116.255-2.357h.183c.233.034.482.067.73.1.217.017.432.05.665.066.05.017.116.017.166.034a35.234 35.234 0 0115.276 6.074c.033.033.083.066.133.1.199.149.398.298.598.431.166.133.348.266.531.415.05.033.083.066.133.1a35.202 35.202 0 0110.178 12.895c.033.05.05.1.083.15.1.232.2.464.299.68.083.216.166.415.249.614.033.05.05.1.067.166a35.32 35.32 0 012.374 16.265c0 .05-.017.1-.017.149-.033.249-.049.498-.083.747-.033.216-.049.448-.083.664 0 .05-.016.1-.016.149a35.292 35.292 0 01-6.094 15.286c-.033.05-.066.083-.1.133-.116.182-.265.365-.398.531-.15.199-.282.398-.432.597a.81.81 0 00-.116.133 35.088 35.088 0 01-12.902 10.174c-.05.033-.1.05-.15.083-.215.083-.414.183-.63.266-.216.099-.448.199-.664.282-.05.033-.1.05-.15.066a35.395 35.395 0 01-16.272 2.373c-.05-.016-.116-.016-.166-.016-.233-.033-.465-.05-.697-.083-.233-.033-.465-.05-.714-.083-.05-.017-.1-.017-.166-.033a35.263 35.263 0 01-15.26-6.075l-.15-.099c-.182-.133-.365-.266-.547-.415a46.699 46.699 0 01-.581-.432.92.92 0 00-.133-.099 35.394 35.394 0 01-10.179-12.896c-.016-.05-.05-.1-.066-.149-.1-.2-.183-.415-.266-.614-.1-.233-.199-.449-.299-.681a1.07 1.07 0 00-.066-.166 35.023 35.023 0 01-2.358-16.248c0-.05 0-.116.017-.183.016-.215.05-.431.066-.664.033-.232.066-.481.1-.713 0-.067.016-.133.016-.183a35.348 35.348 0 016.078-15.252l.1-.15.448-.597c.132-.166.265-.349.398-.531a.902.902 0 00.1-.133 35.412 35.412 0 0112.901-10.174c.05-.033.1-.05.15-.066z" fill="#F6FFFF"/><path d="M316.283 461.519c.066.299.149.598.216.896.049.166.099.349.149.531.033.166.083.349.133.515l.249.896.05.149c.033.083.05.166.066.233a52.084 52.084 0 001.03 2.971" stroke="#F6FFFF" stroke-width="3.49" stroke-miterlimit="10" stroke-linecap="round" stroke-linejoin="round"/><path d="M318.176 467.709l-11.042 9.096 4.815 8.381 13.433-4.913m0 0c.697.88 1.444 1.726 2.208 2.573.033.033.083.066.116.116.216.216.416.448.631.664l.382.382.382.381c.233.233.449.432.681.648.033.033.066.083.116.116a41.13 41.13 0 002.557 2.224m0 0l-5.014 13.393 8.352 4.863 9.165-10.97m0 0c.615.232 1.246.465 1.877.68.431.15.88.299 1.328.432.05.016.116.033.166.05.299.083.581.166.88.265.183.05.349.083.531.133.167.05.349.1.515.149.299.067.598.15.897.216.066.017.116.033.166.033 1.096.266 2.208.482 3.321.664m0 0l2.374 14.107 9.664.033 2.441-14.09m0 0a47.29 47.29 0 003.337-.648c.05 0 .1-.016.15-.033.249-.049.498-.116.73-.166.067-.016.117-.033.183-.049.166-.05.349-.083.515-.133.182-.05.348-.1.531-.15.299-.083.598-.166.88-.249.05-.016.083-.033.133-.033.017 0 .017-.016.033-.016a51.644 51.644 0 003.205-1.096m0 0l9.099 11.037 8.385-4.796-4.915-13.444m0 0a39.839 39.839 0 002.557-2.207c.017 0 .017-.017.034-.017l.099-.099c.216-.199.448-.415.664-.631l.382-.381c.133-.133.266-.249.382-.382.05-.05.1-.083.133-.133.183-.183.349-.349.515-.531a.378.378 0 01.116-.116c.78-.83 1.511-1.693 2.225-2.556m0 0l13.4 5.012 4.865-8.365-10.992-9.161m0 0a43.255 43.255 0 001.129-3.203l.05-.15.249-.896c.049-.166.099-.349.149-.514.033-.15.083-.283.116-.432 0-.017 0-.033.017-.05 0-.016 0-.033.017-.05.066-.298.149-.597.215-.896.017-.05.017-.099.034-.149.265-1.112.481-2.224.664-3.336m0 0l14.113-2.357.017-9.659-14.097-2.456m0-.001a47.129 47.129 0 00-.631-3.336c0-.049-.017-.099-.033-.149-.067-.299-.133-.597-.216-.896-.05-.183-.1-.365-.133-.531-.05-.183-.1-.349-.149-.531-.083-.299-.166-.581-.249-.88l-.05-.149a52.53 52.53 0 00-1.096-3.22m0 0l11.042-9.095-4.815-8.381-13.433 4.929m0-.001a46.746 46.746 0 00-2.209-2.572c-.033-.033-.066-.083-.116-.116-.199-.233-.415-.448-.631-.681-.133-.116-.249-.249-.382-.381-.133-.117-.249-.249-.382-.382a22.696 22.696 0 00-.664-.631c-.05-.05-.083-.083-.133-.116a46.334 46.334 0 00-2.54-2.241" stroke="#F6FFFF" stroke-width="3.49" stroke-miterlimit="10" stroke-linecap="round" stroke-linejoin="round"/><path d="M391.617 414.484l4.998-13.394-8.352-4.863-9.166 10.987m0 0a51.675 51.675 0 00-3.205-1.128c-.049 0-.099-.017-.149-.033-.299-.1-.598-.183-.897-.266-.166-.05-.348-.1-.514-.149-.183-.05-.349-.083-.532-.133-.299-.083-.598-.15-.896-.233-.05 0-.1-.016-.166-.033a38.089 38.089 0 00-3.321-.647m0 0l-2.358-14.107-9.664-.033-2.457 14.09m0 0a47.183 47.183 0 00-3.338.631.47.47 0 01-.149.033c-.249.067-.482.117-.731.183a.611.611 0 00-.166.033c-.183.05-.365.1-.531.149-.183.034-.349.083-.532.133-.298.083-.581.166-.88.266-.049 0-.083.016-.132.033h-.034a52.274 52.274 0 00-3.204 1.095m0 0l-9.099-11.037-8.386 4.813 4.932 13.427m0 0a46.381 46.381 0 00-2.574 2.207l-.033.034-.083.083c-.233.215-.448.415-.681.647-.133.116-.249.249-.382.365-.133.133-.249.266-.382.398-.049.034-.083.083-.132.117-.167.182-.333.365-.515.531-.033.049-.067.083-.116.132a54.787 54.787 0 00-2.225 2.556m-.001 0l-13.399-5.012-4.865 8.348 10.992 9.162m0 0a55.86 55.86 0 00-1.129 3.203c-.017.05-.017.099-.034.166-.099.282-.182.581-.265.879-.05.183-.1.349-.15.532-.05.166-.099.348-.133.514-.083.299-.149.598-.232.896 0 .05-.017.116-.033.166-.017.083-.033.166-.067.249a38.991 38.991 0 00-.581 3.071m0 0l-14.113 2.373-.034 9.659 14.098 2.44m-.001 0c.166 1.112.382 2.224.631 3.336.016.05.016.1.033.166m46.576 27.717c-.05 0-.116.016-.183.016h-.747c-.266 0-.531 0-.797-.016h-.183c-5.612-.166-11.141-1.577-16.172-4.083m0 0l10.56-18.141m0 0c2.043.863 4.284 1.328 6.642 1.345 2.358 0 4.599-.465 6.642-1.295m0 0l10.444 18.19m0 0a38.698 38.698 0 01-16.206 3.984m-.797-50.87c6.941.033 12.553 5.676 12.536 12.614-.016 6.921-5.678 12.53-12.603 12.514-6.94-.017-12.552-5.676-12.536-12.597.033-6.921 5.679-12.547 12.603-12.531v0zm8.601 27.7c.017-.016.05-.033.066-.049-.016.016-.049.033-.066.049zm24.973 3.303c-.033.05-.05.1-.083.166-.116.199-.249.415-.365.631-.15.232-.283.464-.415.697l-.1.149a38.406 38.406 0 01-11.623 11.95m0 0l-10.428-18.19m0 0c3.554-2.738 6.044-6.821 6.675-11.485m0 0l20.988.066m0 .001a38.468 38.468 0 01-4.649 16.015m-16.222-17.144v-.133.133zm3.835-33.194a38.578 38.578 0 0111.557 12.016c.033.067.066.117.099.166l.399.697c.116.216.249.432.365.648.033.049.05.099.083.166a38.482 38.482 0 014.55 16.032m0 0l-20.988-.066m0-.001a17.412 17.412 0 00-6.609-11.518m0 0l10.544-18.14m-3.819 30.854c-.016-.05-.016-.1-.016-.133 0 .033 0 .083.016.133zm-8.667-14.025a.123.123 0 000 0zm-25.754-19.252a38.562 38.562 0 0116.189-3.983h1.91a38.683 38.683 0 0116.173 4.099m0 0l-10.561 18.124m0 0a17.315 17.315 0 00-6.641-1.328c-2.342-.016-4.6.448-6.642 1.295m0 0l-10.428-18.207m8.385 19.203a.125.125 0 000 0zm-24.973-3.303a.715.715 0 00.083-.166c.133-.232.283-.465.416-.714.116-.199.232-.415.365-.614.033-.05.066-.116.099-.166a38.76 38.76 0 0111.624-11.95m0 0l10.444 18.207m0 0a17.368 17.368 0 00-6.692 11.469m0 0l-20.988-.067m0 0a38.75 38.75 0 014.649-15.999m24.891 33.509c-.033-.017-.05-.033-.084-.05.034.017.051.033.084.05zm-8.668-16.248c0-.05 0-.083.017-.134-.017.051-.017.084-.017.134zm-16.256 19.55c-.033-.066-.05-.116-.083-.166a38.571 38.571 0 01-4.549-16.032m0 0l20.987.066m0 .001v-.017a17.457 17.457 0 006.609 11.535m0 0l-10.544 18.123m0 0a38.393 38.393 0 01-11.556-12.016c-.033-.05-.067-.116-.1-.166-.116-.199-.232-.415-.365-.631l-.399-.697m16.256-17.326v0zm85.878 152.109l-1.727-10.705-23.96-.216m0 0a89.313 89.313 0 00-1.959-5.327c-.034-.1-.083-.183-.117-.266a25.75 25.75 0 00-.597-1.411c-.117-.282-.249-.564-.366-.846-.132-.282-.249-.548-.382-.813a34.46 34.46 0 00-.664-1.411c-.033-.083-.083-.166-.116-.232a68.994 68.994 0 00-2.69-5.013" stroke="#F6FFFF" stroke-width="3.49" stroke-miterlimit="10" stroke-linecap="round" stroke-linejoin="round"/><path d="M397.943 577.863l15.774-18.041-10.228-12.547-20.855 11.8m0 0a84.04 84.04 0 00-4.367-3.651c-.067-.05-.133-.1-.216-.15-.399-.315-.814-.63-1.245-.946-.233-.182-.482-.348-.714-.531-.249-.182-.498-.365-.748-.531-.431-.299-.846-.597-1.278-.879-.067-.05-.15-.1-.233-.15a80.915 80.915 0 00-4.831-3.004m0 0l4.632-23.501-15.126-5.743-12.171 20.63m0 0a90.581 90.581 0 00-5.596-.979c-.083 0-.183-.017-.266-.033-.515-.066-1.029-.133-1.544-.183l-.897-.099a16.55 16.55 0 00-.913-.083c-.515-.05-1.029-.083-1.527-.133-.1 0-.2-.017-.283-.017a73.208 73.208 0 00-5.678-.166m0 0l-7.755-22.671-15.973 2.573-.216 23.949m0 0a94.16 94.16 0 00-5.346 1.958l-.25.1c-.381.166-.763.315-1.145.481-.083.05-.183.083-.266.133-.282.116-.564.249-.847.365-.265.133-.548.249-.83.382-.465.216-.93.431-1.395.664-.066.033-.133.049-.199.083-.017.016-.033.016-.05.033a72.613 72.613 0 00-4.998 2.689m0-.001l-18.049-15.767-12.553 10.224 11.806 20.846m0 0a76.689 76.689 0 00-3.653 4.365c-.016.016-.016.033-.033.033-.033.066-.083.116-.116.166-.332.415-.631.83-.947 1.261-.182.233-.348.482-.531.714-.183.249-.365.498-.531.747-.067.083-.117.166-.183.249a49.69 49.69 0 00-.847 1.261 80.395 80.395 0 00-3.005 4.83m0 0l-23.512-4.631-5.745 15.12 20.639 12.165m-.001 0a79.107 79.107 0 00-.547 2.855m61.303 0c3.139-3.784 7.605-6.506 12.836-7.336m0 0c7.604-1.244 14.944 1.809 19.56 7.336l-19.56-7.336zm29.738-37.741a64.852 64.852 0 0122.366 16.73c.067.083.133.166.199.232.299.349.565.697.847 1.046.266.315.532.63.781.962l.199.249a64.913 64.913 0 0111.872 25.261m-36.729.597a29.19 29.19 0 00-12.038-12.232m0 0l12.503-32.845m-16.073 31.219a1.04 1.04 0 010 0zm-47.804-24.813a64.675 64.675 0 0125.67-10.987c.1-.016.2-.033.316-.05.432-.082.88-.149 1.328-.232a30.05 30.05 0 011.212-.182c.1-.017.2-.034.316-.05a64.972 64.972 0 0127.829 2.357m0 0l-12.487 32.828m0 0a29.166 29.166 0 00-11.34-.398 29.12 29.12 0 00-10.644 3.95m0 0l-22.2-27.236m19.112 29.443c-.05.034-.083.05-.117.084.034-.034.067-.05.117-.084zm-42.192 1.345l.1-.299c.166-.432.332-.846.498-1.278.133-.365.282-.747.431-1.129.034-.099.083-.199.117-.298a64.837 64.837 0 0115.956-22.904m0 0l22.2 27.235m0 0a29.349 29.349 0 00-4.649 6.556m-36.861 0a66.012 66.012 0 012.208-7.883" stroke="#F6FFFF" stroke-width="3.49" stroke-miterlimit="10" stroke-linecap="round" stroke-linejoin="round"/><path d="M16.939 389.688l3.985-3.983m-31.764 79.864l65.355-65.325m20.788 27.335l45.662-45.641M-10.84 513.699l5.097-5.095-5.097 5.095zM120.633 430.4l17.451-17.443M-10.84 561.813l7.92-7.916-7.92 7.916zm32.727-153.022l22.964-22.937M-10.84 441.52l6.476-6.473-6.476 6.473zm100.407-52.246l19.493-19.501m-119.9 119.862l22.615-22.605-22.615 22.605zm44.533-44.512l39.867-39.849-39.867 39.849zm66.749-18.606l22.068-22.041M-10.84 537.748l4.051-4.049-4.051 4.049zm148.592-100.394l41.81-41.807M-10.84 585.879l14.877-14.871-14.877 14.871zm163.304-139.164l41.096-41.094M-2.472 601.563l15.89-15.883-15.89 15.883zM165 458.233l15.791-15.784M19.048 604.102l5.878-5.859-5.878 5.859zm156.43-132.293l16.073-16.066m-7.821 31.883l35.135-35.119m-29.589 53.641l45.313-45.309m-43.487 67.549l21.021-21.012m-26.55 50.587l36.729-36.712m-10.527 34.571l29.389-29.36m-77.691 77.64l45.213-45.177-45.213 45.177zM19.413 399.248l20.606-20.597m54.147-6.024l3.968-3.967M-10.84 477.601l70.203-70.171-70.203 70.171zm99.543-51.383l33.026-33.011m-132.57 132.509l3.737-3.735-3.736 3.735zm140.358-92.179l16.836-16.829M-10.84 573.846L.218 562.793l-11.058 11.053zm169.829-121.638l23.247-23.235M7.026 604.102l11.889-11.883-11.889 11.883zm172.885-124.675l22.715-22.704m22.316 25.791l13.383-13.377m-47.571 47.55l19.427-19.402-19.427 19.402zM24.361 418.351l25.322-25.31m-60.523 60.495l14.545-14.539-14.545 14.539zm69.904-21.759l60.938-60.893M-10.84 501.666l9.331-9.344-9.331 9.344zm121.843-73.672l18.281-18.274M-10.84 549.781l5.529-5.527-5.53 5.527zm156.23-108.029l41.179-41.16m-194.204 194.1l16.09-16.083-16.09 16.083zm178.131-129.936l15.891-15.867M31.086 604.102l.365-.348-.365.348zm155.782-107.58l43.985-43.982m-41.096 89.208l23.479-23.468m-40.631 64.678l59.128-59.102m-7.04 31.103l24.01-24.016m-73.192 73.159l25.637-25.625-25.637 25.625zm62.1-50.022l9.73-9.743m-59.792 59.765l18.265-18.256-18.265 18.256zm12.038 0l12.188-12.182m-.15 12.182l6.127-6.124" stroke="#F6FFFF" stroke-width="2.607" stroke-miterlimit="10"/><path d="M212.422 509.583c-.099-.78-.199-1.576-.332-2.356a39.13 39.13 0 00-.216-1.394c-.083-.465-.149-.93-.232-1.378a96.737 96.737 0 00-.432-2.357c-.033-.132-.05-.265-.083-.415-.033-.199-.066-.415-.116-.63a135.262 135.262 0 00-1.328-5.809c-.183-.697-.366-1.394-.565-2.091" stroke="#F6FFFF" stroke-width="6.98" stroke-miterlimit="10"/><path d="M209.118 493.153l30.718-20.63-10.245-22.788-35.832 9.278m0 0a118.473 118.473 0 00-5.048-7.17 5.011 5.011 0 00-.265-.348c-.482-.631-.963-1.262-1.462-1.876-.298-.365-.581-.73-.88-1.095-.298-.365-.597-.73-.896-1.079-.515-.614-1.03-1.228-1.561-1.826-.083-.099-.183-.215-.266-.315a122.53 122.53 0 00-6.027-6.39m0 0l16.305-33.226-20.29-14.605-26.385 25.94m0 0a115.838 115.838 0 00-7.97-3.684c-.116-.05-.249-.116-.382-.166-.73-.299-1.477-.598-2.225-.896l-1.295-.498c-.448-.166-.88-.332-1.328-.498-.747-.282-1.495-.531-2.242-.797a3.87 3.87 0 00-.398-.133 119.718 119.718 0 00-8.419-2.539m0 0l-2.507-36.911-24.873-2.523-9.863 35.666m0 0c-2.922.15-5.828.415-8.75.78a4.473 4.473 0 00-.416.067c-.63.083-1.262.149-1.91.249-.149.016-.298.05-.464.066-.465.083-.93.15-1.395.233-.448.066-.913.149-1.378.232-.78.133-1.56.282-2.341.431-.117.017-.233.034-.332.05-.034.017-.067.017-.083.033-2.89.565-5.729 1.229-8.552 2.009m0 0l-20.639-30.721-22.798 10.257 9.282 35.816" stroke="#F6FFFF" stroke-width="6.98" stroke-miterlimit="10"/><path d="M25.706 423.545c-.598.382-1.212.78-1.81 1.195a122.337 122.337 0 00-4.848 3.453c-.166.132-.349.265-.515.398-.017.016-.05.033-.067.05-.082.066-.182.132-.265.199-.631.498-1.262.979-1.893 1.477-.365.282-.714.581-1.08.88l-1.095.896c-.116.099-.233.199-.365.299-.482.414-.964.829-1.445 1.261a2.48 2.48 0 00-.316.265 122.636 122.636 0 00-6.409 6.008m0 .001l-16.438-8.05m1.062 159.628a119.317 119.317 0 005.048 7.187c.1.116.183.215.266.331.481.631.98 1.262 1.461 1.893.299.365.598.713.897 1.078.299.365.58.731.896 1.096.283.332.565.68.864 1.012m224.126 0l-23.495-23.866m0 0a124.028 124.028 0 003.686-7.967c.05-.132.099-.265.166-.381.299-.747.598-1.477.896-2.224.017-.05.034-.083.05-.133.017-.05.033-.083.05-.133l.399-1.045c.166-.432.332-.88.498-1.311.265-.747.531-1.511.797-2.258.049-.132.099-.265.132-.398a115.544 115.544 0 002.524-8.398m0 0l36.928-2.506 2.524-24.862-35.666-9.875m0 0a119.014 119.014 0 00-.78-8.73c-.017-.15-.05-.282-.067-.432M31.916 604.102a99.895 99.895 0 01-29.323-35.949c-.067-.149-.133-.282-.2-.431a97.962 97.962 0 01-.863-1.925 77.964 77.964 0 01-.78-1.71c-.05-.149-.117-.298-.183-.448a99.732 99.732 0 01-7.439-45.923c0-.15.017-.299.033-.448.05-.697.133-1.411.2-2.108l.199-1.892c.017-.149.033-.299.066-.448a99.9 99.9 0 0116.522-43.517c.083-.116.166-.249.265-.382.366-.514.731-1.029 1.113-1.543.398-.565.797-1.129 1.229-1.693.083-.133.182-.249.282-.382a99.718 99.718 0 0136.065-29.393c.132-.083.282-.149.415-.215.597-.266 1.195-.532 1.776-.797.631-.282 1.246-.564 1.877-.83.15-.066.282-.133.431-.183a100.096 100.096 0 0145.945-7.451c.15.016.315.033.465.033.664.066 1.311.132 1.959.199a72.7 72.7 0 012.009.216l.482.049a100.094 100.094 0 0143.503 16.514c.133.1.266.183.399.266.531.382 1.046.763 1.577 1.145.548.398 1.112.78 1.66 1.195.117.1.249.199.382.282 12.487 9.527 22.599 21.908 29.407 36.048.066.15.149.282.216.432.265.564.514 1.145.78 1.726.282.631.581 1.278.847 1.909.066.149.133.298.182.448a99.82 99.82 0 017.456 45.89l-.05.514c-.05.631-.116 1.262-.183 1.892a83.14 83.14 0 01-.216 2.042l-.049.498a100.117 100.117 0 01-16.522 43.467c-.083.132-.182.265-.265.398-.399.581-.831 1.145-1.229 1.709a83.073 83.073 0 01-1.113 1.527c-.099.116-.182.249-.282.382a99.47 99.47 0 01-18.929 18.887" stroke="#F6FFFF" stroke-width="6.98" stroke-miterlimit="10"/><path d="M114.274 604.102a81.404 81.404 0 0011.324-4.116c41.295-18.555 59.709-67.051 41.146-108.311-18.564-41.276-67.066-59.682-108.36-41.126m0 0c-41.28 18.538-59.71 67.034-41.146 108.31 10.344 22.987 30.004 38.887 52.52 45.243L58.382 450.549z" stroke="#F6FFFF" stroke-width="6.98" stroke-miterlimit="10"/><path d="M57.121 564.419c-10.792 4.847-23.478.033-28.327-10.754-4.848-10.788-.033-23.468 10.76-28.315 10.793-4.862 23.479-.049 28.327 10.739 4.849 10.804.033 23.467-10.76 28.33zm63.28 24.016c-10.793 4.846-23.479.033-28.327-10.755-4.849-10.788-.034-23.468 10.759-28.314 10.793-4.863 23.479-.033 28.327 10.755 4.849 10.788.034 23.468-10.759 28.314zm-33.574-60.844a5.662 5.662 0 012.839-7.502 5.68 5.68 0 017.505 2.855 5.665 5.665 0 01-2.856 7.485 5.65 5.65 0 01-7.488-2.838v0zm-5.679-26.422c-10.793 4.846-23.479.033-28.327-10.755-4.849-10.788-.033-23.468 10.76-28.314 10.792-4.863 23.478-.05 28.327 10.738 4.848 10.788.033 23.468-10.76 28.331v0zm63.279 24.016c-10.793 4.846-23.462.033-28.327-10.755-4.848-10.788-.033-23.468 10.76-28.314 10.793-4.863 23.478-.05 28.327 10.738 4.865 10.804.05 23.468-10.76 28.331z" stroke="#F6FFFF" stroke-width="6.98" stroke-miterlimit="10"/><path d="M493.302 390.103l1.826-1.826m-27.812 27.816l8.834-8.829-8.834 8.829zm10.428 11.618l32.793-32.762m-54.628 54.603l10.909-10.92-10.909 10.92zm64.143-42.072l20.921-20.929m-68.842 68.811l10.777-10.772-10.777 10.772zm68.693-46.605l8.003-7.999m-84.782 84.743l20.158-20.149-20.158 20.149zm31.532-86.635l10.527-10.523m-33.325 33.31l10.759-10.771-10.759 10.771zm53.815-31.733l8.933-8.945m-71.914 71.88l27.331-27.318-27.331 27.318zm37.377-37.343l18.264-18.256-18.264 18.256zm30.585-8.53l10.112-10.108M460.625 477.9l5.944-5.942-5.944 5.942zm12.918-12.913l8.9-8.895-8.9 8.895zm75.118-53.043l19.161-19.152m-90.909 90.867l10.478-10.473-10.478 10.473zm78.489-67.433l18.83-18.821m-89.813 89.789l7.272-7.286-7.272 7.286zm76.728-65.69l7.24-7.22m-81.976 81.939l10.561-10.556-10.561 10.556zm79.552-68.479l7.355-7.369m-88.983 88.959l18.863-18.871-18.863 18.871zm85.397-74.353l16.106-16.083m-83.088 83.051l7.704-7.718-7.704 7.718zm69.522-58.471l20.772-20.762m-82.474 82.436l8.369-8.365-8.369 8.365zm62.533-51.5l9.647-9.626m-68.676 68.644l15.06-15.053-15.06 15.053zm56.505-45.459l16.837-16.829m-72.611 72.578l27.878-27.866-27.878 27.866zm67.779-56.728l13.466-13.46m-71.233 71.201l1.909-1.909-1.909 1.909zm17.816-17.792l38.539-38.521-38.539 38.521zm-48.185-111.696l9.431-9.444m-33.84 33.824l9.813-9.792-9.813 9.792zm58.663-36.579l1.81-1.809m-71.216 71.183l13.45-13.427-13.45 13.427zm14.961-14.954l38.489-38.471-38.489 38.471zm51.938-29.857l15.127-15.136m-68.676 68.661l9.647-9.643-9.647 9.643zm72.246-50.172l7.721-7.718m-83.138 83.1l16.172-16.165-16.172 16.165zm88.916-66.835l10.66-10.639m-82.075 82.038l7.239-7.236-7.239 7.236zm81.012-58.918l10.395-10.407m-90.843 90.818l19.145-19.153-19.145 19.153zm101.071-79l6.144-6.125m-81.03 80.993l10.046-10.041-10.046 10.041zm59.228-59.201l8.9-8.896-8.9 8.896zm-76.248-45.077l11.607-11.585m-51.789 51.766l4.383-4.382-4.383 4.382zm18.995-18.987l11.723-11.717-11.723 11.717zm37.095-15.037l27.912-27.899M467.93 454.05l16.92-16.912-16.92 16.912zm68.477-46.388l8.385-8.381M462.335 481.7l20.788-20.779-20.788 20.779zm89.829-67.748l18.863-18.854m-88.983 88.942l7.372-7.369-7.372 7.369zm81.627-59.532l7.29-7.286m-89.83 89.788l18.829-18.82-18.829 18.82zm90.045-67.963l20.158-20.132m-84.798 84.76l7.986-8-7.986 8zm65.969-43.899l10.759-10.755m-68.841 68.811l20.838-20.829-20.838 20.829zm50.211-39.169l27.099-27.086m-71.914 71.898l9.016-9.029-9.016 9.029zm16.256-16.249l18.082-18.09-18.082 18.09zm52.436-41.392l10.993-11.004m-54.662 54.637l32.877-32.845-32.877 32.845zm49.581-44.032l4.466-4.464m-51.822 51.799l11.606-11.602-11.606 11.602zm21.038-21.045l11.756-11.734-11.756 11.734zm3.702 1.826l10.777-10.788m-33.309 33.31l10.527-10.539-10.527 10.539zm26.235-20.714l9.813-9.808m-33.839 33.807l9.464-9.443-9.464 9.443zm27.729-22.189l8.85-8.846m-27.912 27.915l1.926-1.941-1.926 1.941z" stroke="#F6FFFF" stroke-width="1.765" stroke-miterlimit="10"/><path d="M582.883 445.055l-.15-1.095-.099-.631c-.034-.216-.067-.431-.1-.631-.066-.365-.133-.73-.199-1.078l-.05-.199c-.017-.083-.033-.183-.05-.283a48.009 48.009 0 00-.614-2.655c-.083-.332-.166-.647-.249-.963m0 0l14.08-9.46-4.699-10.439-16.422 4.248m0 0a61.298 61.298 0 00-2.308-3.286.887.887 0 01-.116-.149c-.232-.299-.448-.581-.681-.863l-.398-.498c-.15-.166-.282-.332-.415-.498-.233-.282-.482-.564-.714-.846-.033-.034-.083-.083-.117-.133a57.44 57.44 0 00-2.772-2.938m0 0l7.472-15.219-9.299-6.689-12.088 11.884m0 0a51.993 51.993 0 00-3.653-1.693c-.05-.017-.116-.05-.166-.066a39.11 39.11 0 00-1.013-.415c-.199-.083-.415-.15-.614-.233-.199-.083-.399-.149-.598-.232-.349-.116-.681-.249-1.029-.365-.067-.017-.117-.033-.183-.05a46.668 46.668 0 00-3.852-1.162m0 0l-1.146-16.912-11.407-1.162-4.516 16.331m0 0a63.947 63.947 0 00-4.002.365c-.066.017-.133.017-.199.034-.283.033-.581.066-.88.116a.82.82 0 00-.2.033l-.647.1a51.59 51.59 0 01-.631.099c-.365.067-.714.133-1.079.199-.05.017-.1.017-.15.034h-.033c-1.328.265-2.624.58-3.919.929m0 0l-9.448-14.074-10.46 4.697 4.267 16.414m0 0l-.847.548a66.78 66.78 0 00-2.208 1.576 2.325 2.325 0 01-.249.183c0 .016-.017.016-.017.033-.05.017-.083.05-.133.083-.282.232-.581.448-.863.68l-.498.399c-.167.133-.333.282-.499.415-.049.049-.116.083-.166.132-.216.2-.448.382-.664.581-.05.034-.099.083-.149.116a58.119 58.119 0 00-2.923 2.756m0 0l-15.226-7.452-6.708 9.277 11.889 12.1m0 0a54.939 54.939 0 00-1.677 3.634c-.033.067-.05.133-.083.183-.133.348-.283.68-.415 1.012-.067.199-.15.415-.233.614-.066.2-.149.399-.216.598-.133.348-.249.68-.365 1.029a.784.784 0 00-.066.182 63.951 63.951 0 00-1.163 3.851m0 0l-16.92 1.145-1.145 11.402 16.338 4.514m0 0c.067 1.328.183 2.672.366 4 0 .066.016.133.016.199l.15 1.079.099.647c.05.199.083.415.117.631.066.348.132.714.199 1.079.017.05.016.116.033.182a51.88 51.88 0 00.93 3.917m0 0l-14.08 9.444 4.699 10.456 16.405-4.266" stroke="#F6FFFF" stroke-width="3.49" stroke-miterlimit="10" stroke-linecap="round" stroke-linejoin="round"/><path d="M481.065 482.58a51.04 51.04 0 002.324 3.287.597.597 0 00.116.165c.216.283.449.565.665.864.132.165.282.331.415.497l.398.498c.249.282.482.548.714.83.05.05.083.1.133.15a51.573 51.573 0 002.756 2.921m0 0l-7.472 15.219 9.299 6.705 12.088-11.9m0 0a48.769 48.769 0 003.653 1.693c.05.033.116.05.166.083.349.133.681.265 1.029.415.2.066.399.149.598.216.199.082.399.165.598.232.349.133.697.249 1.029.365.067.017.133.05.2.066 1.262.432 2.557.814 3.835 1.162m0 0l1.162 16.912 11.391 1.146 4.533-16.332m0 0a54.923 54.923 0 004.002-.365c.066 0 .116-.016.182-.016.299-.05.582-.083.88-.117.067-.016.133-.033.216-.033.216-.033.415-.083.631-.116.216-.033.432-.066.631-.1.366-.066.731-.132 1.08-.199a.477.477 0 00.149-.033h.05a51.132 51.132 0 003.902-.929m0 0l9.464 14.074 10.444-4.697-4.25-16.398" stroke="#F6FFFF" stroke-width="3.49" stroke-miterlimit="10" stroke-linecap="round" stroke-linejoin="round"/><path d="M558.076 498.845a62.21 62.21 0 003.287-2.323c.017 0 .017-.017.034-.017a.755.755 0 01.116-.1c.282-.215.581-.448.863-.68.166-.116.332-.266.498-.398.166-.133.332-.266.499-.415a.652.652 0 00.166-.133c.232-.183.448-.382.664-.564.05-.05.099-.083.149-.133a57.58 57.58 0 002.939-2.755" stroke="#F6FFFF" stroke-width="3.49" stroke-miterlimit="10" stroke-linecap="round" stroke-linejoin="round"/><path d="M567.291 491.327l15.226 7.468 6.692-9.294-11.889-12.082m0 0a66.781 66.781 0 001.694-3.652c.016-.066.05-.116.066-.182.15-.332.282-.664.415-1.013.017-.016.017-.033.033-.066 0-.017 0-.033.017-.05.066-.166.116-.315.183-.481.066-.199.149-.398.232-.598.116-.348.233-.697.365-1.045.017-.05.034-.116.05-.183.449-1.261.83-2.556 1.163-3.85m0 0l16.92-1.145 1.162-11.386-16.355-4.531m-.001 0a54.815 54.815 0 00-.348-4c-.017-.066-.017-.132-.033-.182m-35.716 48.214c-.299.132-.581.265-.864.381-.265.133-.531.249-.797.366-.083.033-.149.049-.216.082a45.873 45.873 0 01-21.037 3.419c-.083-.016-.15-.016-.233-.016l-.946-.1c-.283-.033-.581-.05-.864-.083a1 1 0 00-.216-.033 45.873 45.873 0 01-19.941-7.568c-.05-.033-.117-.083-.183-.116l-.764-.565c-.232-.165-.481-.331-.714-.514-.05-.033-.116-.083-.183-.133a45.805 45.805 0 01-13.466-16.514 36.97 36.97 0 01-.099-.199c-.133-.282-.266-.581-.399-.879-.116-.249-.232-.515-.349-.78-.033-.067-.049-.133-.083-.2a45.905 45.905 0 01-3.42-21.044c.017-.067.016-.133.016-.216l.1-.946c.033-.299.05-.581.083-.88.017-.066.017-.133.033-.199a45.903 45.903 0 017.572-19.949c.033-.05.083-.116.116-.166.166-.249.349-.482.515-.714.183-.265.365-.514.564-.78a1.29 1.29 0 01.133-.166 45.685 45.685 0 0116.522-13.476.935.935 0 01.199-.083c.266-.133.531-.249.814-.382.282-.116.564-.249.846-.382.067-.017.133-.05.2-.083a45.945 45.945 0 0121.054-3.402c.066 0 .149 0 .216.016.299.017.598.05.896.083l.93.1c.067 0 .133.017.216.033a45.71 45.71 0 0119.925 7.552c.067.049.133.083.183.132.249.166.482.349.731.515l.747.548c.066.049.116.099.183.132a45.815 45.815 0 0113.482 16.514.957.957 0 01.083.199c.133.266.249.531.366.797.132.282.265.581.398.88.017.066.05.132.083.199a45.825 45.825 0 013.404 21.028c0 .083-.016.149-.016.232-.017.299-.05.581-.084.863l-.099.946c-.017.067-.017.15-.033.233a45.691 45.691 0 01-7.555 19.899c-.05.067-.083.133-.133.199-.183.249-.365.515-.565.78l-.498.698c-.05.049-.1.116-.133.165a45.827 45.827 0 01-16.521 13.477l-.199.1v0z" stroke="#F6FFFF" stroke-width="3.49" stroke-miterlimit="10" stroke-linecap="round" stroke-linejoin="round"/><path d="M-10.84 35.313L11.41 13.09m-22.25 70.354l22.25-22.24m-22.25-49.939L2.593-2.162M-10.84 59.379l22.25-22.24m-22.25 70.354L11.41 85.27m-22.25 46.288l22.25-22.239m-22.25 46.304l22.25-22.239m-22.25 46.288l22.25-22.223m-22.25 46.289l22.25-22.24m-22.25 46.305l22.25-22.24m-22.25 46.289l22.25-22.223m-22.25 46.288l22.25-22.24m-6.808 30.854l6.808-6.788M-10.84 47.346l22.25-22.24m-22.25 70.371l22.25-22.24m-22.25 70.354l22.25-22.24m-22.25 70.354l22.25-22.24m-22.25 70.371l22.25-22.24M-10.84 23.297l22.25-22.24m-22.25 70.354l22.25-22.24m-22.25 70.354l22.25-22.24m-22.25 70.371l22.25-22.239m-22.25 70.353l22.25-22.24m-22.25 70.355l22.25-22.24m-18.83 42.886l18.83-18.821M-10.84-2.162h22.25V284.53h-22.25m556.047 319.572l-37.094-37.077m85.247 37.077l-37.111-37.077m-35.101 37.077l-13.815-13.792m61.951 13.792l-37.095-37.077m85.231 37.077l-37.094-37.077m61.17 37.077l-37.094-37.077m61.171 37.077l-37.111-37.077m61.17 37.077l-37.094-37.077m61.171 37.077l-37.095-37.077m61.171 37.077l-37.111-37.077m61.171 37.077l-37.095-37.077m61.171 37.077l-37.094-37.077m45.346 21.26l-21.286-21.26m-215.642 37.077l-37.094-37.077m85.231 37.077l-37.095-37.077m85.247 37.077l-37.11-37.077m85.246 37.077l-37.094-37.077m85.231 37.077l-37.094-37.077m-179.544 37.077l-25.836-25.824m73.989 25.824l-37.111-37.077m85.247 37.077l-37.094-37.077m85.23 37.077L640.5 567.025m85.247 37.077l-37.111-37.077m85.247 37.077l-37.094-37.077m57.384 33.293l-33.325-33.293m33.325 9.228l-9.248-9.228m-277.592 37.078v-37.077h286.841v37.077" stroke="#F6FFFF" stroke-width="2.607" stroke-miterlimit="10"/><path d="M283.755 473.203c.05-.299.083-.581.116-.863.017-.133.033-.282.05-.432l.05-.846v-.863c0-1.079-.117-2.141-.332-3.203l5.263-4.846-3.869-6.855-6.857 2.008-.748-.647c-.232-.183-.464-.349-.68-.531a6.829 6.829 0 00-.366-.249 10.672 10.672 0 00-.714-.465c-.016-.016-.049-.033-.066-.05-.017-.016-.033-.016-.05-.033-.099-.049-.199-.116-.282-.166-.1-.049-.183-.116-.282-.166-.017 0-.034-.016-.067-.033-.016-.016-.05-.016-.066-.033a12.346 12.346 0 00-1.146-.581 15.652 15.652 0 00-1.727-.697l-1.561-6.971-7.87-.083-1.694 6.954c-.581.183-1.162.399-1.727.648-.398.166-.78.365-1.162.564-.033.017-.05.033-.083.033-.016.017-.033.033-.05.033-.099.05-.182.1-.282.166-.017 0-.033.017-.05.017-.083.05-.149.1-.232.149-.017 0-.033.017-.05.017-.149.1-.299.182-.448.282-.117.066-.233.149-.366.232-.614.415-1.228.88-1.81 1.378l-6.807-2.141-4.019 6.788 5.181 4.929c-.1.448-.183.913-.249 1.361-.017.15-.033.316-.05.482-.033.265-.066.547-.083.829v.034c0 .166-.017.332-.017.497v.399a1.04 1.04 0 000 .315v.067c0 1.062.117 2.141.333 3.203l-5.264 4.829 3.869 6.871 6.857-2.008c.565.515 1.163.979 1.777 1.411.249.166.482.332.731.481.016.017.049.033.066.05.017 0 .033.017.05.033.1.05.199.1.282.166.1.05.183.1.282.166.017 0 .034.017.05.017.033.016.05.033.083.05.366.199.764.398 1.146.58.565.266 1.129.498 1.727.698l1.544 6.97 7.887.067 1.694-6.938a16.598 16.598 0 001.727-.647c.398-.183.78-.365 1.162-.564a.342.342 0 01.083-.05c.017 0 .033-.017.05-.017.083-.066.182-.116.282-.166.017-.016.033-.016.05-.016.066-.05.149-.1.232-.15.017 0 .034-.016.05-.033a18.152 18.152 0 002.624-1.892l6.807 2.141 4.019-6.772-5.181-4.945c.067-.316.133-.648.183-.963zm-12.271 6.921c-.016 0-.016.016-.033.016a11.037 11.037 0 01-5.015 1.295h-.548a11.175 11.175 0 01-4.997-1.394c-.017 0-.034-.017-.05-.017a1.214 1.214 0 00-.2-.116c-.049-.05-.116-.083-.182-.116l-.033-.033a11.027 11.027 0 01-3.637-3.685c0-.016-.016-.033-.016-.049-.05-.067-.083-.133-.117-.2-.033-.066-.066-.132-.099-.182-.017-.017-.033-.033-.033-.05a11.252 11.252 0 01-1.296-5.012v-.498c0-.017 0-.033.017-.05.05-1.743.531-3.469 1.378-4.996.017 0 .017-.016.033-.033.034-.066.067-.133.117-.199.033-.066.066-.133.099-.183.017-.016.017-.033.033-.049a11.028 11.028 0 013.703-3.618l.033-.034a1.78 1.78 0 00.183-.099.893.893 0 01.216-.116l.033-.034a11.032 11.032 0 015.015-1.278h.548c1.76.067 3.47.532 4.998 1.395.016 0 .033.016.049.016.05.033.117.083.183.116.066.034.133.067.199.117.017 0 .017.016.033.016a11.402 11.402 0 013.637 3.701c0 .017.016.033.016.05.034.05.083.116.117.183l.099.199c.017.016.017.033.034.05a11.203 11.203 0 011.295 5.012v.265c0 .067 0 .15-.017.233v.049a10.933 10.933 0 01-1.378 4.98c-.017.016-.017.033-.033.049-.034.067-.067.117-.1.183-.05.066-.083.133-.116.199-.017.017-.033.033-.033.05a11.028 11.028 0 01-3.703 3.618c0 .017-.017.017-.033.033-.067.033-.15.066-.216.116-.05.033-.116.067-.183.1zM60.99 167.374c.033-.282.083-.564.117-.846.016-.15.016-.282.033-.432.033-.282.05-.564.05-.863v-.149c.016-.1.016-.216.016-.316v-.398a19.065 19.065 0 00-.332-3.203l5.264-4.83-3.87-6.854-6.873 2.008a6.984 6.984 0 00-.748-.647 10.555 10.555 0 00-.68-.531l-.349-.249c-.233-.166-.482-.316-.714-.482-.033 0-.05-.016-.083-.033-.017-.016-.033-.033-.05-.033a1.596 1.596 0 00-.282-.166c-.083-.066-.183-.116-.282-.166-.017-.016-.034-.016-.05-.033-.033-.017-.05-.033-.083-.05a18.785 18.785 0 00-1.146-.581 19.238 19.238 0 00-1.71-.68l-1.561-6.987-7.87-.067-1.694 6.938a20.18 20.18 0 00-1.744.663c-.381.166-.78.349-1.162.565a.123.123 0 00-.066.033c-.017.017-.034.017-.05.033l-.299.15c0 .016-.017.016-.033.033-.083.033-.166.083-.25.132-.016.017-.032.017-.05.034-.148.083-.298.182-.43.265-.134.083-.25.166-.366.233-.631.431-1.229.896-1.81 1.394l-6.824-2.141-4.002 6.788 5.164 4.929c-.1.448-.183.896-.232 1.344-.034.166-.05.332-.067.482-.033.282-.05.564-.066.83v.049c-.017.166-.017.332-.034.498v.78a17.5 17.5 0 00.333 3.203l-5.264 4.83 3.869 6.855 6.874-2.009a16.26 16.26 0 001.777 1.428c.232.166.465.315.714.464a.24.24 0 01.066.05c.033.017.05.033.067.033.083.067.182.117.282.166.083.067.182.117.282.166.017.017.033.017.05.034.016.016.05.033.066.049.382.199.764.399 1.163.581a19.23 19.23 0 001.71.681l1.56 6.97 7.871.083 1.694-6.937a19.83 19.83 0 001.743-.664c.382-.166.78-.349 1.146-.564.033 0 .05-.017.083-.033.017-.017.033-.017.05-.034l.299-.149c0-.017.016-.017.033-.033.083-.05.166-.083.232-.133.033-.017.05-.017.067-.033a18.045 18.045 0 002.607-1.892l6.824 2.141 4.002-6.788-5.164-4.93c.066-.332.133-.647.182-.979zm-12.27 6.921c-.017.017-.033.017-.05.033a11.257 11.257 0 01-5.015 1.295h-.498c-.016-.017-.033-.017-.05-.017a10.95 10.95 0 01-4.98-1.377c-.018-.017-.034-.017-.05-.034-.067-.033-.134-.066-.2-.116-.066-.033-.133-.066-.183-.099-.016-.017-.033-.017-.05-.033a11.03 11.03 0 01-3.62-3.702l-.032-.033c-.034-.066-.067-.133-.117-.199l-.1-.199c-.016-.017-.016-.033-.032-.033a11.229 11.229 0 01-1.279-5.013v-.564a11.161 11.161 0 011.395-4.979c0-.016.016-.033.016-.05.034-.066.083-.132.117-.199.033-.05.083-.116.116-.182 0-.017.016-.017.016-.034a11.228 11.228 0 013.703-3.634c.017 0 .033-.017.05-.017.05-.033.116-.083.183-.116.066-.033.133-.066.199-.116.017 0 .033 0 .05-.017a11.256 11.256 0 015.014-1.294h.498c.017 0 .034.016.05.016 1.744.05 3.454.531 4.981 1.378.017.016.034.016.05.033.067.033.133.066.183.1.066.049.133.083.2.116.016.016.032.016.05.033a11.026 11.026 0 013.619 3.701c.016 0 .016.017.033.033l.1.199c.033.067.083.133.116.2 0 .016.016.016.016.033a11.025 11.025 0 011.296 5.012v.548a11.166 11.166 0 01-1.395 4.995c0 .017-.017.033-.017.05-.033.05-.083.116-.116.166a.907.907 0 01-.116.216c0 .016-.017.016-.033.033a11.18 11.18 0 01-3.687 3.635c-.016 0-.033.016-.05.016-.066.05-.132.083-.199.116-.066.034-.116.067-.182.1zM5.98 393.771c.033-.282.083-.565.116-.847.017-.149.017-.282.033-.431a7.15 7.15 0 00.05-.863v-.15c.017-.099.017-.215.017-.315v-.398a17.488 17.488 0 00-.332-3.204l5.263-4.829-3.868-6.855-6.875 2.009a6.882 6.882 0 00-.747-.648 10.89 10.89 0 00-.68-.531l-.35-.249c-.232-.166-.48-.315-.713-.481-.034 0-.05-.017-.083-.033-.017-.017-.034-.033-.05-.033a1.498 1.498 0 00-.282-.166 1.498 1.498 0 00-.283-.166c-.016-.017-.033-.017-.05-.034-.033-.016-.05-.033-.083-.049-.365-.2-.747-.399-1.145-.581a19.24 19.24 0 00-1.71-.681l-1.561-6.987-3.487-.033v12.763c1.644.116 3.238.581 4.682 1.377.017.017.033.017.05.033.066.034.133.067.183.1.066.05.133.083.199.116.017.017.033.017.05.033a11.029 11.029 0 013.62 3.702c.016 0 .016.016.033.033l.1.199c.033.066.082.133.116.199 0 .017.016.017.016.033a11.031 11.031 0 011.295 5.079v.481a11.17 11.17 0 01-1.394 4.996c0 .016-.017.033-.017.05-.033.049-.083.116-.116.166a.881.881 0 01-.117.215c0 .017-.016.017-.033.033a11.18 11.18 0 01-3.686 3.635c-.016 0-.033.017-.05.017-.066.05-.133.083-.199.116s-.116.066-.183.1c-.016.016-.033.016-.05.033a11.32 11.32 0 01-4.5 1.278v12.763l3.023.033 1.693-6.938a19.827 19.827 0 001.744-.664c.382-.165.78-.348 1.146-.564.033 0 .05-.016.083-.033.016-.017.033-.017.05-.033l.298-.15c0-.016.017-.016.034-.033.083-.05.166-.083.232-.133.033-.016.05-.016.066-.033a17.893 17.893 0 002.607-1.892l6.825 2.141 4.001-6.788-5.164-4.929c.067-.332.133-.647.183-.979z" fill="#F6FFFF"/><path d="M202.493 604.102c6.708-64.495 61.253-114.767 127.555-114.767 66.301 0 120.846 50.272 127.555 114.767" stroke="#F6FFFF" stroke-width="1.765" stroke-miterlimit="10"/><path d="M-10.84 245.08c18.68-32.397 53.682-54.188 93.781-54.188 59.76 0 108.194 48.413 108.194 108.145m0 0c0 59.731-48.434 108.144-108.194 108.144-40.1 0-75.101-21.808-93.781-54.205l201.975-53.939zM80.816 604.102c6.974-131.546 115.882-236.056 249.232-236.056 133.349 0 242.257 104.51 249.231 236.056" stroke="#F6FFFF" stroke-width=".882" stroke-miterlimit="10"/><path d="M-10.84 289.161c4.948-47.35 45.114-84.394 93.781-84.394 52.005 0 94.313 42.288 94.313 94.269 0 51.981-42.308 94.253-94.313 94.253m0 0c-48.667 0-88.833-37.027-93.781-84.394l93.781 84.394z" stroke="#F6FFFF" stroke-width="6.98" stroke-miterlimit="10"/><path d="M507.333 604.102V478.331h148.509v125.771" stroke="#F6FFFF" stroke-width="2.607" stroke-miterlimit="10"/><path d="M-10.84 342.703h311.249v261.399" stroke="#F6FFFF" stroke-width="1.765" stroke-miterlimit="10"/><path d="M-10.84 95.576h226.168v508.526" stroke="#F6FFFF" stroke-width="1.765" stroke-miterlimit="10"/><path d="M504.111 502.48v101.622h3.222V502.48h-3.222z" fill="#F6FFFF"/></g><path d="M475.243 622.077c-58.032-34.669-86.965-133.883-72.351-201.228 18.372-84.661 84.109-145.119 110.316-227.74 18.872-59.51 16.347-125.416-7.031-183.34-2.802-6.948-5.905-13.81-8.686-20.769H-295v633.077h770.243z" fill="url(#paint0_linear)"/><g filter="url(#filter0_d)"><path d="M440.557 600.221c-41.001-50.894-59.325-120.401-45.579-184.539 17.282-80.629 78.314-145.315 102.965-224.003 17.752-56.675 15.377-119.443-6.613-174.61-2.636-6.616-5.555-13.15-8.171-19.779h-752.534v602.931h709.932z" fill="#fff"/></g><mask id="a" maskUnits="userSpaceOnUse" x="-270" y="-3" width="780" height="604"><path d="M440.557 600.221c-41.001-50.894-59.325-120.401-45.579-184.539 17.282-80.629 78.314-145.315 102.965-224.003 17.752-56.675 15.377-119.443-6.613-174.61-2.636-6.616-5.555-13.15-8.171-19.779h-752.534v602.931h709.932z" fill="#fff"/></mask><g mask="url(#a)"><path d="M272.164 372.66c-.017-.2-.033-.415-.066-.614a20.981 20.981 0 01-.05-.366l-.05-.348a6.555 6.555 0 00-.116-.614c0-.033 0-.083-.017-.116 0-.05-.016-.1-.016-.166-.1-.498-.216-1.013-.332-1.511a6.398 6.398 0 00-.133-.547m0-.001l8.054-5.211-2.574-5.942-9.315 2.241m0 0a33.755 33.755 0 00-1.279-1.875c-.033-.034-.05-.05-.066-.083-.133-.166-.249-.332-.382-.498-.066-.1-.149-.183-.216-.282-.083-.1-.149-.2-.232-.283-.133-.166-.266-.332-.399-.481-.016-.033-.033-.066-.066-.083a29.654 29.654 0 00-1.528-1.693m0 0l4.367-8.531-5.197-3.883-6.957 6.622m0 0a39.844 39.844 0 00-2.043-.996.228.228 0 01-.099-.033c-.2-.083-.382-.166-.582-.249-.099-.05-.215-.083-.332-.133-.116-.049-.215-.083-.332-.132-.199-.067-.398-.15-.581-.216a.234.234 0 00-.116-.033 24.884 24.884 0 00-2.159-.697m0-.001l-.498-9.576-6.442-.763-2.707 9.211m0 0c-.747.033-1.511.083-2.258.166-.05 0-.083 0-.116.016l-.498.05c-.034.017-.083.017-.117.017-.116.016-.232.033-.365.05a2.549 2.549 0 00-.349.066c-.215.033-.415.066-.614.1-.033 0-.066 0-.083.016h-.033c-.747.133-1.478.299-2.225.481m0 .001l-5.214-8.05-5.944 2.573 2.241 9.31m0 0c-.149.1-.315.199-.465.316-.431.265-.863.564-1.278.863a.901.901 0 01-.133.099c0 .017-.017.017-.017.017-.016.016-.049.033-.066.05-.166.132-.332.249-.498.381-.1.067-.183.15-.282.216-.1.083-.2.149-.283.232-.033.034-.066.05-.099.083-.133.1-.249.2-.382.316-.033.016-.067.05-.083.066-.581.498-1.146.996-1.677 1.527m0 0l-8.551-4.348-3.886 5.195 6.625 6.937m0 0a38.966 38.966 0 00-.996 2.041c0 .034-.017.067-.033.117-.083.182-.166.365-.249.564-.05.116-.083.216-.133.332-.05.116-.083.232-.133.332-.066.199-.149.398-.216.597-.016.033-.033.067-.033.1a24.843 24.843 0 00-.697 2.157m0 0l-9.581.498-.764 6.44 9.215 2.705m0 0c.034.747.084 1.511.167 2.274 0 .033 0 .066.016.1.017.199.05.415.067.614l.049.365c.017.116.034.232.067.365l.099.597c0 .034.017.083.017.117.133.746.299 1.493.482 2.224m0 0l-8.054 5.211 2.574 5.958 9.315-2.257m0 0c.415.631.83 1.261 1.279 1.876.033.033.05.066.066.083.133.165.249.331.382.497.066.1.149.2.216.283.083.099.149.199.232.298.133.15.266.316.399.465.016.033.05.066.066.083.498.581.997 1.145 1.528 1.693m0 0l-4.35 8.531 5.197 3.883 6.94-6.622m0 0c.664.349 1.345.681 2.043.996.033.017.066.017.099.033.199.083.382.166.581.249.117.05.216.083.332.133.117.05.233.083.349.133.183.083.382.149.565.215.05.017.083.034.116.034.714.265 1.428.498 2.159.697m0 0l.498 9.576 6.442.763 2.707-9.211m0 0a26.456 26.456 0 002.275-.166c.033 0 .066 0 .099-.016l.498-.05c.034 0 .083-.017.117-.017l.365-.049c.116-.017.232-.034.365-.05.199-.033.399-.067.598-.116.033 0 .066 0 .1-.017h.016a33.697 33.697 0 002.225-.481m0-.001l5.214 8.05 5.961-2.573-2.258-9.311" stroke="#F2F2F2" stroke-width="1.765" stroke-miterlimit="10"/><path d="M257.653 402.866c.631-.399 1.262-.83 1.876-1.278 0-.017.017-.017.017-.017.016-.017.049-.033.066-.05.166-.116.332-.249.498-.382.1-.066.183-.149.282-.215.1-.083.2-.15.299-.233.017-.016.05-.049.083-.066.133-.116.266-.216.382-.315.033-.034.067-.05.083-.083a37.21 37.21 0 001.694-1.527m0 0l8.534 4.348 3.886-5.178-6.625-6.954m0 0c.348-.664.681-1.344.996-2.041.017-.033.017-.067.033-.1.083-.199.166-.382.249-.581 0 0 .017-.016.017-.033 0 0 0-.016.017-.033.033-.083.066-.183.099-.266.05-.116.1-.232.133-.332.083-.199.149-.398.216-.58.016-.034.033-.067.033-.117.266-.713.498-1.427.697-2.157m.001 0l9.58-.498.764-6.44-9.215-2.705m-.001 0a25.534 25.534 0 00-.166-2.257c0-.05 0-.083-.016-.117m-20.639 26.954c-.166.066-.333.149-.499.215a60.69 60.69 0 01-.448.199.301.301 0 00-.116.034 25.979 25.979 0 01-11.939 1.742c-.033 0-.083 0-.116-.016l-.548-.05a4.668 4.668 0 00-.481-.066c-.05 0-.083-.017-.133-.017a25.726 25.726 0 01-11.192-4.465c-.049-.016-.083-.049-.116-.066-.149-.1-.282-.216-.431-.315l-.399-.299c-.033-.033-.066-.05-.1-.083a25.995 25.995 0 01-7.472-9.46c-.016-.033-.033-.083-.049-.116-.067-.166-.15-.332-.216-.498a5.085 5.085 0 01-.183-.448c-.017-.034-.033-.083-.05-.117a25.94 25.94 0 01-1.743-11.933c0-.033.016-.083.016-.116.017-.182.034-.365.067-.547.016-.166.033-.332.05-.482 0-.05.016-.083.016-.116a26.032 26.032 0 014.467-11.219c.016-.034.05-.067.066-.1l.299-.398c.1-.133.216-.282.332-.432.017-.033.05-.066.067-.099a26.134 26.134 0 019.464-7.469.785.785 0 00.116-.05c.15-.066.316-.133.465-.199.166-.066.332-.133.482-.199a.785.785 0 00.116-.05 25.98 25.98 0 0111.939-1.743c.049 0 .083.017.132.017l.499.05c.182.033.348.05.531.066.033 0 .066.017.116.017a25.991 25.991 0 0111.208 4.464c.033.017.066.05.1.067l.398.298c.15.117.282.216.432.316a.436.436 0 00.1.083 26.123 26.123 0 017.471 9.46c.017.05.034.083.05.116l.2.448c.066.166.132.332.215.498.017.05.017.083.034.116a25.943 25.943 0 011.743 11.933c0 .05 0 .083-.017.133l-.049.482c-.017.182-.034.365-.067.531 0 .049-.016.099-.016.132a25.772 25.772 0 01-4.467 11.203c-.017.033-.05.067-.066.1-.1.149-.216.282-.332.431-.1.133-.183.266-.283.399-.033.033-.05.066-.083.099a25.992 25.992 0 01-9.464 7.469c-.033.016-.083.033-.116.05v0z" stroke="#F2F2F2" stroke-width="1.765" stroke-miterlimit="10"/><path d="M40.318 306.256l.1.846c.033.166.05.332.083.498.016.149.033.315.066.481.05.282.083.565.133.83.016.05.016.1.033.15.017.082.017.149.033.232.133.68.282 1.377.449 2.058.05.249.116.498.182.73l-10.975 7.12 3.487 8.099 12.718-3.07c.548.88 1.13 1.726 1.744 2.572.033.034.05.067.083.117.166.215.332.448.515.664l.299.398c.1.133.215.265.315.382.183.232.349.448.531.663l.1.1a34.03 34.03 0 002.092 2.29l-5.944 11.651 7.073 5.278 9.465-9.012a39.79 39.79 0 002.806 1.344.991.991 0 00.133.05c.249.116.514.233.78.332.15.067.3.133.448.183.167.066.316.132.465.182.266.116.532.199.797.299.05.017.084.033.133.05.98.348 1.976.664 2.956.946l.68 13.045 8.768 1.029 3.686-12.531a39.056 39.056 0 003.105-.232c.05 0 .1 0 .133-.017.232-.016.465-.049.68-.083.05 0 .117-.016.167-.016.166-.017.332-.05.498-.067.166-.033.315-.049.481-.083.282-.033.565-.083.83-.132.05 0 .084-.017.117-.017.016 0 .033 0 .033-.017a36.576 36.576 0 003.038-.663l7.107 10.97 8.12-3.485-3.089-12.697c.216-.149.449-.282.648-.415.598-.382 1.179-.78 1.743-1.195a.767.767 0 01.183-.133c0-.016.017-.016.017-.033a.335.335 0 00.099-.066c.233-.166.449-.332.681-.498.133-.116.249-.216.382-.315.133-.1.266-.199.398-.316.034-.033.083-.066.117-.099.182-.133.348-.282.531-.432.033-.033.066-.066.116-.099a53.82 53.82 0 002.292-2.075l11.639 5.925 5.28-7.07-9.016-9.46c.482-.913.93-1.843 1.345-2.789.017-.049.033-.099.067-.149.099-.249.216-.514.315-.763.067-.166.133-.316.199-.465.05-.149.117-.315.183-.465.1-.265.199-.531.282-.796a38.676 38.676 0 00.997-3.087l13.051-.681 1.046-8.763-12.553-3.685a38.155 38.155 0 00-.233-3.087c0-.049 0-.099-.016-.149-.017-.282-.067-.564-.1-.846-.016-.166-.05-.316-.066-.482-.017-.166-.05-.332-.067-.498l-.149-.829c0-.05-.017-.1-.017-.15a60.735 60.735 0 00-.664-3.02l10.959-7.12-3.487-8.1-12.702 3.071a38.226 38.226 0 00-1.744-2.556c-.033-.05-.066-.083-.099-.133-.166-.216-.333-.448-.499-.664-.099-.133-.215-.265-.315-.398s-.199-.249-.299-.382l-.548-.647c-.033-.05-.066-.083-.083-.116a46.595 46.595 0 00-2.092-2.291l5.944-11.651-7.09-5.277-9.464 9.028a43.29 43.29 0 00-2.79-1.361c-.05-.016-.083-.033-.133-.049-.265-.117-.514-.233-.78-.332a5.263 5.263 0 00-.465-.183c-.15-.066-.299-.133-.465-.182-.249-.1-.515-.2-.78-.299l-.15-.05a46.73 46.73 0 00-2.955-.946l-.664-13.045-8.784-1.029-3.686 12.53a39.1 39.1 0 00-3.089.233c-.05 0-.1.016-.15.016-.232.017-.448.05-.68.083-.05 0-.1.017-.15.017-.165.017-.332.05-.498.066-.166.034-.332.05-.498.083-.265.034-.548.083-.83.133a.276.276 0 01-.116.017c-.017.016-.017.016-.033.016a38.154 38.154 0 00-3.022.664l-7.124-10.97-8.103 3.485 3.072 12.713a43.57 43.57 0 00-2.557 1.743c-.016 0-.016 0-.033.016a.305.305 0 00-.083.067c-.232.166-.465.332-.68.514-.134.1-.267.2-.383.299-.133.1-.265.199-.398.315-.05.034-.083.067-.133.1-.166.133-.349.282-.515.432-.033.033-.083.066-.116.099a34.32 34.32 0 00-2.291 2.091l-11.657-5.941-5.263 7.07 9.016 9.46a54.03 54.03 0 00-1.362 2.788l-.05.15c-.116.249-.232.514-.332.78 0 0-.016.016-.016.033-.017.017-.017.033-.017.05-.05.116-.1.249-.15.365-.066.149-.116.315-.182.465l-.299.796c-.016.05-.033.083-.05.133a46.888 46.888 0 00-.946 2.954l-13.051.681-1.03 8.763 12.537 3.684a48.55 48.55 0 00.232 3.087c0 .05.017.1.017.15zm28.128-36.712c.232-.117.448-.2.68-.299.2-.083.416-.183.615-.266.05-.016.116-.05.166-.066a35.106 35.106 0 0116.255-2.357h.183c.233.033.482.067.73.1.217.016.432.049.665.066.05.017.116.017.166.033a35.248 35.248 0 0115.276 6.075.901.901 0 00.133.099c.199.15.398.299.598.432.166.133.348.265.531.415.05.033.083.066.133.099a35.214 35.214 0 0110.178 12.896c.033.05.05.1.083.149.1.233.2.465.299.681.083.216.166.415.249.614.033.05.05.1.067.166a35.32 35.32 0 012.374 16.265c0 .05-.017.099-.017.149-.033.249-.049.498-.083.747-.033.216-.049.448-.083.664 0 .05-.016.099-.016.149a35.292 35.292 0 01-6.094 15.286c-.033.05-.066.083-.1.133-.116.182-.265.365-.398.531-.15.199-.282.398-.432.597a.81.81 0 00-.116.133 35.098 35.098 0 01-12.902 10.174c-.05.033-.1.05-.15.083-.215.083-.414.182-.63.265-.216.1-.448.2-.664.283-.05.033-.1.049-.15.066a35.395 35.395 0 01-16.272 2.373c-.05-.016-.116-.016-.166-.016-.233-.034-.465-.05-.697-.083-.233-.034-.465-.05-.714-.083-.05-.017-.1-.017-.166-.034a35.249 35.249 0 01-15.26-6.074l-.15-.1a11.59 11.59 0 01-.547-.414c-.183-.133-.382-.283-.581-.432-.034-.033-.083-.066-.133-.1a35.383 35.383 0 01-10.179-12.895c-.016-.05-.05-.1-.066-.15-.1-.199-.183-.415-.266-.614-.1-.232-.199-.448-.299-.68a1.07 1.07 0 00-.066-.166 35.025 35.025 0 01-2.358-16.248c0-.05 0-.117.017-.183.016-.216.05-.431.066-.664.033-.232.066-.481.1-.713 0-.067.016-.133.016-.183a35.347 35.347 0 016.078-15.253l.1-.149.448-.597c.132-.166.265-.349.398-.531a.958.958 0 00.1-.133 35.39 35.39 0 0112.901-10.174c.05-.033.1-.05.15-.066z" fill="#F2F2F2"/><path d="M316.283 461.519c.066.299.149.597.216.896.049.166.099.349.149.531.033.166.083.349.133.515l.249.896.05.149c.033.083.05.166.066.233a51.782 51.782 0 001.03 2.97" stroke="#F2F2F2" stroke-width="3.49" stroke-miterlimit="10" stroke-linecap="round" stroke-linejoin="round"/><path d="M318.176 467.709l-11.042 9.095 4.815 8.382 13.433-4.913m0 0c.697.88 1.444 1.726 2.208 2.572.033.034.083.067.116.117.216.215.416.448.631.663l.382.382.382.382c.233.232.449.431.681.647.033.033.066.083.116.116a40.8 40.8 0 002.557 2.224" stroke="#F2F2F2" stroke-width="3.49" stroke-miterlimit="10" stroke-linecap="round" stroke-linejoin="round"/><path d="M332.455 487.376l-5.014 13.394 8.352 4.863 9.165-10.971m0 .001a64.83 64.83 0 001.877.68c.431.149.88.299 1.328.432.05.016.116.033.166.049.299.083.581.166.88.266.183.05.349.083.531.133.167.05.349.099.515.149.299.066.598.149.897.216.066.016.116.033.166.033 1.096.266 2.208.481 3.321.664m0 0l2.374 14.107 9.664.033 2.441-14.09m0 0a47.29 47.29 0 003.337-.648c.05 0 .1-.016.15-.033.249-.05.498-.116.73-.166.067-.017.117-.033.183-.05.166-.049.349-.083.515-.132.182-.05.348-.1.531-.15.299-.083.598-.166.88-.249.05-.016.083-.033.133-.033.017 0 .017-.017.033-.017a52.303 52.303 0 003.205-1.095m0 0l9.099 11.037 8.385-4.796-4.915-13.444m0 0a39.839 39.839 0 002.557-2.207c.017 0 .017-.017.034-.017l.099-.1c.216-.199.448-.414.664-.63l.382-.382c.133-.133.266-.249.382-.382.05-.049.1-.083.133-.132.183-.183.349-.349.515-.532a.389.389 0 01.116-.116c.78-.83 1.511-1.693 2.225-2.556m0 0l13.4 5.013 4.865-8.365-10.992-9.162" stroke="#F2F2F2" stroke-width="3.49" stroke-miterlimit="10" stroke-linecap="round" stroke-linejoin="round"/><path d="M405.764 467.992a43.118 43.118 0 001.129-3.204l.05-.149.249-.896c.049-.166.099-.349.149-.515.033-.149.083-.282.116-.431 0-.017 0-.033.017-.05 0-.017 0-.033.017-.05.066-.299.149-.597.215-.896.017-.05.017-.1.034-.149.265-1.112.481-2.224.664-3.336m0 0l14.113-2.357.017-9.659-14.097-2.457" stroke="#F2F2F2" stroke-width="3.49" stroke-miterlimit="10" stroke-linecap="round" stroke-linejoin="round"/><path d="M408.437 443.843a47.129 47.129 0 00-.631-3.336c0-.05-.017-.099-.033-.149-.067-.299-.133-.598-.216-.896-.05-.183-.1-.365-.133-.531-.05-.183-.1-.349-.149-.532-.083-.298-.166-.58-.249-.879l-.05-.15a52.731 52.731 0 00-1.096-3.219m0 0l11.042-9.095-4.815-8.382-13.433 4.93m0-.001a46.746 46.746 0 00-2.209-2.572c-.033-.033-.066-.083-.116-.116-.199-.233-.415-.449-.631-.681-.133-.116-.249-.249-.382-.382-.133-.116-.249-.249-.382-.381a22.696 22.696 0 00-.664-.631c-.05-.05-.083-.083-.133-.116a46.334 46.334 0 00-2.54-2.241m0 0l4.998-13.393-8.352-4.863-9.166 10.987m0 0a52.346 52.346 0 00-3.205-1.129.477.477 0 01-.149-.033 19.007 19.007 0 00-.897-.265c-.166-.05-.348-.1-.514-.15-.183-.049-.349-.083-.532-.132-.299-.083-.598-.15-.896-.233-.05 0-.1-.016-.166-.033a38.089 38.089 0 00-3.321-.647m0 0l-2.358-14.107-9.664-.034-2.457 14.091m0 0a47.183 47.183 0 00-3.338.631c-.05.016-.099.033-.149.033-.249.066-.482.116-.731.182a.578.578 0 00-.166.034c-.183.049-.365.099-.531.149-.183.033-.349.083-.532.133-.298.083-.581.166-.88.265-.049 0-.083.017-.132.033h-.034a52.282 52.282 0 00-3.204 1.096m0 0l-9.099-11.037-8.386 4.813 4.932 13.427" stroke="#F2F2F2" stroke-width="3.49" stroke-miterlimit="10" stroke-linecap="round" stroke-linejoin="round"/><path d="M332.688 414.301a46.381 46.381 0 00-2.574 2.207l-.033.033-.083.083c-.233.216-.448.415-.681.648-.133.116-.249.249-.382.365-.133.133-.249.265-.382.398-.049.033-.083.083-.132.116-.167.183-.333.365-.515.531-.033.05-.067.083-.116.133a54.278 54.278 0 00-2.225 2.556m-.001 0l-13.399-5.012-4.865 8.348 10.992 9.162" stroke="#F2F2F2" stroke-width="3.49" stroke-miterlimit="10" stroke-linecap="round" stroke-linejoin="round"/><path d="M318.292 433.868a56.162 56.162 0 00-1.129 3.204c-.017.049-.017.099-.034.166-.099.282-.182.58-.265.879-.05.183-.1.349-.15.531a6.09 6.09 0 00-.133.515c-.083.299-.149.597-.232.896 0 .05-.017.116-.033.166-.017.083-.033.166-.067.249a38.88 38.88 0 00-.581 3.07" stroke="#F2F2F2" stroke-width="3.49" stroke-miterlimit="10" stroke-linecap="round" stroke-linejoin="round"/><path d="M315.668 443.544l-14.113 2.374-.034 9.659 14.098 2.44m-.001 0c.166 1.112.382 2.224.631 3.336.016.05.016.099.033.166m46.576 27.716c-.05 0-.116.017-.183.017h-.747c-.266 0-.531 0-.797-.017h-.183a38.9 38.9 0 01-16.172-4.083m0 .001l10.56-18.141m0 0c2.043.863 4.284 1.328 6.642 1.345 2.358 0 4.599-.465 6.642-1.295m0 0l10.444 18.19m0 0a38.681 38.681 0 01-16.206 3.983m-.797-50.869c6.941.033 12.553 5.676 12.536 12.614-.016 6.92-5.678 12.53-12.603 12.513-6.94-.016-12.552-5.676-12.536-12.596.033-6.921 5.679-12.548 12.603-12.531v0zm8.601 27.7c.017-.016.05-.033.066-.05-.016.017-.049.034-.066.05zm24.973 3.303c-.033.05-.05.099-.083.166-.116.199-.249.415-.365.631-.15.232-.283.464-.415.697a7.736 7.736 0 00-.1.149 38.406 38.406 0 01-11.623 11.95m0 0l-10.428-18.19m0 0c3.554-2.739 6.044-6.821 6.675-11.485m0 0l20.988.066m0 0a38.468 38.468 0 01-4.649 16.016m-16.222-17.144v-.133.133zm3.835-33.194a38.578 38.578 0 0111.557 12.016c.033.066.066.116.099.166l.399.697c.116.216.249.432.365.647.033.05.05.1.083.166a38.49 38.49 0 014.55 16.033m0 0l-20.988-.067m0 0a17.412 17.412 0 00-6.609-11.518m0 0l10.544-18.14m-3.819 30.854c-.016-.05-.016-.1-.016-.134 0 .034 0 .084.016.134zm-8.667-14.025a.12.12 0 000 0zm-25.754-19.252a38.547 38.547 0 0116.189-3.983h1.91a38.668 38.668 0 0116.173 4.099m0 0l-10.561 18.124m0 0a17.297 17.297 0 00-6.641-1.328c-2.342-.017-4.6.448-6.642 1.294m0 0l-10.428-18.206m8.385 19.202a.133.133 0 000 0zm-24.973-3.302a.736.736 0 00.083-.166c.133-.233.283-.465.416-.714.116-.199.232-.415.365-.614.033-.05.066-.116.099-.166a38.76 38.76 0 0111.624-11.95m0 0l10.444 18.207m0 0a17.368 17.368 0 00-6.692 11.468m0 0l-20.988-.066m0 0a38.75 38.75 0 014.649-15.999m24.891 33.509c-.033-.017-.05-.034-.084-.05.034.016.051.033.084.05zm-8.668-16.248c0-.05 0-.084.017-.134-.017.05-.017.084-.017.134zm-16.256 19.55c-.033-.066-.05-.116-.083-.166a38.571 38.571 0 01-4.549-16.032m0 0l20.987.066m0 0v-.016a17.455 17.455 0 006.609 11.534m0 0l-10.544 18.124m0 0a38.404 38.404 0 01-11.556-12.016c-.033-.05-.067-.116-.1-.166-.116-.199-.232-.415-.365-.631l-.399-.697m16.256-17.327v0zm85.878 152.11l-1.727-10.705-23.96-.216m0 0a89.342 89.342 0 00-1.959-5.328c-.034-.099-.083-.182-.117-.265a25.75 25.75 0 00-.597-1.411c-.117-.282-.249-.564-.366-.846-.132-.283-.249-.548-.382-.814a34.418 34.418 0 00-.664-1.41c-.033-.083-.083-.166-.116-.233a69.181 69.181 0 00-2.69-5.012m0 0l15.774-18.04-10.228-12.548-20.855 11.801m0 0a83.542 83.542 0 00-4.367-3.651c-.067-.05-.133-.1-.216-.15-.399-.315-.814-.63-1.245-.946-.233-.182-.482-.348-.714-.531a19.425 19.425 0 00-.748-.531c-.431-.299-.846-.598-1.278-.88a3.275 3.275 0 00-.233-.149 80.915 80.915 0 00-4.831-3.004m0 0l4.632-23.502-15.126-5.742-12.171 20.63m0 0a89.104 89.104 0 00-5.596-.979c-.083 0-.183-.017-.266-.034-.515-.066-1.029-.132-1.544-.182l-.897-.1a17.585 17.585 0 00-.913-.083c-.515-.05-1.029-.083-1.527-.133-.1 0-.2-.016-.283-.016a72.226 72.226 0 00-5.678-.166m0 0l-7.755-22.671-15.973 2.572-.216 23.95m0 0a93.397 93.397 0 00-5.346 1.958l-.25.1c-.381.166-.763.315-1.145.481-.083.05-.183.083-.266.133-.282.116-.564.249-.847.365-.265.133-.548.249-.83.382-.465.215-.93.431-1.395.663-.066.034-.133.05-.199.083-.017.017-.033.017-.05.034a72.6 72.6 0 00-4.998 2.688m0 0l-18.049-15.767-12.553 10.224 11.806 20.845m0 .001a76.689 76.689 0 00-3.653 4.365c-.016.016-.016.033-.033.033-.033.066-.083.116-.116.166-.332.415-.631.83-.947 1.261-.182.233-.348.482-.531.714-.183.249-.365.498-.531.747-.067.083-.117.166-.183.249a49.69 49.69 0 00-.847 1.261 80.395 80.395 0 00-3.005 4.83m0-.001l-23.512-4.63-5.745 15.12 20.639 12.165m-.001 0a79.107 79.107 0 00-.547 2.855m61.303 0c3.139-3.784 7.605-6.506 12.836-7.336m0 0c7.604-1.245 14.944 1.809 19.56 7.336l-19.56-7.336zm29.738-37.741a64.862 64.862 0 0122.366 16.729c.067.083.133.166.199.233.299.348.565.697.847 1.045.266.316.532.631.781.963l.199.249a64.915 64.915 0 0111.872 25.26m-36.729.598a29.19 29.19 0 00-12.038-12.232m0 0l12.503-32.845m-16.073 31.218a1.456 1.456 0 010 0zm-47.804-24.812a64.675 64.675 0 0125.67-10.987c.1-.017.2-.033.316-.05.432-.083.88-.149 1.328-.232.399-.067.814-.133 1.212-.183.1-.016.2-.033.316-.049a64.988 64.988 0 0127.829 2.356m0 0l-12.487 32.828m0 .001a29.146 29.146 0 00-11.34-.398 29.103 29.103 0 00-10.644 3.95m0-.001l-22.2-27.235m19.112 29.443c-.05.033-.083.05-.117.083.034-.033.067-.05.117-.083zm-42.192 1.344l.1-.298c.166-.432.332-.847.498-1.278.133-.365.282-.747.431-1.129.034-.099.083-.199.117-.299a64.842 64.842 0 0115.956-22.903m0 0l22.2 27.235m0 0a29.326 29.326 0 00-4.649 6.556m-36.861 0a66.028 66.028 0 012.208-7.884" stroke="#F2F2F2" stroke-width="3.49" stroke-miterlimit="10" stroke-linecap="round" stroke-linejoin="round"/><path d="M16.939 389.688l3.985-3.983m-31.764 79.863l65.355-65.325m20.788 27.335l45.662-45.641M-10.84 513.699l5.097-5.095-5.097 5.095zM120.633 430.4l17.451-17.443M-10.84 561.813l7.92-7.917-7.92 7.917zm32.727-153.022l22.964-22.937M-10.84 441.52l6.476-6.473-6.476 6.473zm100.407-52.246l19.493-19.501m-119.9 119.862l22.615-22.605-22.615 22.605zm44.533-44.513l39.867-39.848-39.867 39.848zm66.749-18.606l22.068-22.04M-10.84 537.748l4.051-4.05-4.051 4.05zm148.592-100.394l41.81-41.807M-10.84 585.879l14.877-14.871-14.877 14.871zm163.304-139.164l41.096-41.094M-2.472 601.563l15.89-15.884-15.89 15.884zM165 458.233l15.791-15.784M19.048 604.102l5.878-5.859-5.878 5.859zm156.43-132.293l16.073-16.066m-7.821 31.882l35.135-35.118m-29.589 53.641l45.313-45.309m-43.487 67.548l21.021-21.011m-26.55 50.587l36.729-36.712m-10.527 34.571l29.389-29.36m-77.691 77.64l45.213-45.177-45.213 45.177zM19.413 399.248l20.606-20.597m54.147-6.025l3.968-3.966M-10.84 477.601l70.203-70.171-70.203 70.171zm99.543-51.383l33.026-33.011m-132.57 132.508l3.737-3.734-3.736 3.734zm140.358-92.179l16.836-16.829M-10.84 573.846L.218 562.792l-11.058 11.054zm169.829-121.638l23.247-23.236M7.026 604.102l11.889-11.884-11.889 11.884zm172.885-124.675l22.715-22.705m22.316 25.792l13.383-13.377m-47.571 47.55l19.427-19.402-19.427 19.402zM24.361 418.351l25.322-25.31m-60.523 60.495l14.545-14.539-14.545 14.539zm69.904-21.759l60.938-60.893M-10.84 501.666l9.331-9.344-9.331 9.344zm121.843-73.673l18.281-18.273M-10.84 549.781l5.529-5.527-5.53 5.527zm156.23-108.029l41.179-41.16M-7.635 594.691l16.09-16.082-16.09 16.082zm178.131-129.936l15.891-15.866M31.086 604.102l.365-.348-.365.348zm155.782-107.581l43.985-43.981m-41.096 89.208l23.479-23.468m-40.631 64.677l59.128-59.101m-7.04 31.103l24.01-24.016m-73.192 73.159l25.637-25.626-25.637 25.626zm62.1-50.023l9.73-9.742m-59.792 59.765l18.265-18.257-18.265 18.257zm12.038 0l12.188-12.182m-.15 12.182l6.127-6.124" stroke="#F2F2F2" stroke-width="2.607" stroke-miterlimit="10"/><path d="M212.422 509.583c-.099-.78-.199-1.577-.332-2.357a39.85 39.85 0 00-.216-1.394c-.083-.464-.149-.929-.232-1.377a96.737 96.737 0 00-.432-2.357c-.033-.133-.05-.266-.083-.415-.033-.199-.066-.415-.116-.631a135.562 135.562 0 00-1.328-5.808 99.653 99.653 0 00-.565-2.092m0 0l30.718-20.629-10.245-22.788-35.832 9.278m0 0a118.159 118.159 0 00-5.048-7.17 5.274 5.274 0 00-.265-.349c-.482-.63-.963-1.261-1.462-1.875-.298-.365-.581-.73-.88-1.095a53.444 53.444 0 00-.896-1.079c-.515-.614-1.03-1.228-1.561-1.826l-.266-.315a121.734 121.734 0 00-6.027-6.39" stroke="#F2F2F2" stroke-width="6.98" stroke-miterlimit="10"/><path d="M177.354 438.914l16.305-33.227-20.29-14.605-26.385 25.941m0 0a116.323 116.323 0 00-7.97-3.685c-.116-.049-.249-.116-.382-.165-.73-.299-1.477-.598-2.225-.897l-1.295-.498c-.448-.166-.88-.332-1.328-.498-.747-.282-1.495-.531-2.242-.796-.133-.05-.265-.1-.398-.133a119.189 119.189 0 00-8.419-2.539m0 0l-2.507-36.912-24.873-2.522-9.863 35.666m0 0c-2.922.15-5.828.415-8.75.78-.133.017-.266.033-.416.067-.63.083-1.262.149-1.91.249-.149.016-.298.049-.464.066-.465.083-.93.149-1.395.232-.448.067-.913.15-1.378.233-.78.132-1.56.282-2.341.431-.117.017-.233.033-.332.05-.034.017-.067.017-.083.033-2.89.564-5.729 1.228-8.552 2.008m0 .001l-20.639-30.721-22.798 10.257 9.282 35.816" stroke="#F2F2F2" stroke-width="6.98" stroke-miterlimit="10"/><path d="M25.706 423.545c-.598.382-1.212.78-1.81 1.195a122.312 122.312 0 00-4.848 3.452c-.166.133-.349.266-.515.399-.017.016-.05.033-.067.049-.082.067-.182.133-.265.2-.631.497-1.262.979-1.893 1.477-.365.282-.714.581-1.08.879l-1.095.897c-.116.099-.233.199-.365.298-.482.415-.964.83-1.445 1.262a2.48 2.48 0 00-.316.265 122.636 122.636 0 00-6.409 6.008m0 .001l-16.438-8.05m1.062 159.628a118.978 118.978 0 005.048 7.186c.1.116.183.216.266.332.481.631.98 1.262 1.461 1.892.299.365.598.714.897 1.079.299.365.58.73.896 1.095.283.332.565.681.864 1.013m224.126 0l-23.495-23.866m0 0a124.028 124.028 0 003.686-7.967c.05-.133.099-.265.166-.381.299-.747.598-1.478.896-2.224.017-.05.034-.083.05-.133.017-.05.033-.083.05-.133l.399-1.046c.166-.431.332-.879.498-1.311.265-.747.531-1.51.797-2.257.049-.133.099-.265.132-.398a115.544 115.544 0 002.524-8.398m0 0l36.928-2.507 2.524-24.862-35.666-9.875m0 0a119.113 119.113 0 00-.78-8.73c-.017-.149-.05-.282-.067-.431M31.916 604.102a99.895 99.895 0 01-29.323-35.949c-.067-.149-.133-.282-.2-.431-.298-.648-.58-1.278-.863-1.925a80.167 80.167 0 01-.78-1.71 5.077 5.077 0 00-.183-.448 99.732 99.732 0 01-7.439-45.923c0-.15.017-.299.033-.449.05-.697.133-1.41.2-2.107l.199-1.892c.017-.15.033-.299.066-.448a99.9 99.9 0 0116.522-43.517c.083-.116.166-.249.265-.382.366-.514.731-1.029 1.113-1.543.398-.565.797-1.129 1.229-1.693.083-.133.182-.249.282-.382a99.718 99.718 0 0136.065-29.393c.132-.083.282-.149.415-.216a186.12 186.12 0 001.776-.796c.631-.282 1.246-.565 1.877-.83.15-.067.282-.133.431-.183a100.096 100.096 0 0145.945-7.452c.15.017.315.033.465.033l1.959.2c.681.066 1.345.132 2.009.215.166.017.316.034.482.05a100.081 100.081 0 0143.503 16.514c.133.1.266.183.399.266.531.381 1.046.763 1.577 1.145.548.398 1.112.78 1.66 1.195.117.099.249.199.382.282a99.964 99.964 0 0129.407 36.048c.066.149.149.282.216.432.265.564.514 1.145.78 1.726.282.63.581 1.278.847 1.908.066.15.133.299.182.448a99.824 99.824 0 017.456 45.89l-.05.515a71.18 71.18 0 01-.183 1.892 82.545 82.545 0 01-.216 2.041l-.049.498a100.108 100.108 0 01-16.522 43.467c-.083.133-.182.266-.265.399-.399.581-.831 1.145-1.229 1.709a83.073 83.073 0 01-1.113 1.527c-.099.116-.182.249-.282.382a99.498 99.498 0 01-18.929 18.887" stroke="#F2F2F2" stroke-width="6.98" stroke-miterlimit="10"/><path d="M17.238 558.859c10.344 22.986 30.004 38.886 52.52 45.243m44.516 0a81.404 81.404 0 0011.324-4.116c41.295-18.556 59.709-67.051 41.146-108.311M57.121 564.419c-10.792 4.846-23.478.033-28.327-10.755-4.848-10.788-.033-23.468 10.76-28.314 10.793-4.863 23.479-.05 28.327 10.738 4.849 10.805.033 23.468-10.76 28.331z" stroke="#F2F2F2" stroke-width="6.98" stroke-miterlimit="10"/><path d="M120.401 588.435c-10.793 4.846-23.479.033-28.327-10.755-4.849-10.788-.034-23.468 10.759-28.314 10.793-4.863 23.479-.033 28.327 10.755 4.849 10.787.034 23.467-10.759 28.314zm-33.574-60.844a5.662 5.662 0 012.839-7.502 5.679 5.679 0 017.505 2.855 5.665 5.665 0 01-2.856 7.485 5.65 5.65 0 01-7.488-2.838v0zm-5.679-26.422c-10.793 4.846-23.479.033-28.327-10.755-4.849-10.788-.033-23.468 10.76-28.314 10.792-4.863 23.478-.05 28.327 10.738 4.848 10.788.033 23.468-10.76 28.331v0zm63.279 24.015c-10.793 4.847-23.462.034-28.327-10.754-4.848-10.788-.033-23.468 10.76-28.314 10.793-4.863 23.478-.05 28.327 10.738 4.865 10.804.05 23.468-10.76 28.33z" stroke="#F2F2F2" stroke-width="6.98" stroke-miterlimit="10"/><path d="M493.302 390.102l1.826-1.825m-27.812 27.816l8.834-8.829-8.834 8.829zm10.428 11.618l32.793-32.762m-54.628 54.603l10.909-10.921-10.909 10.921zm64.143-42.072l20.921-20.929m-68.842 68.81l10.777-10.771-10.777 10.771zm68.693-46.604l8.003-7.999m-84.782 84.743l20.158-20.149-20.158 20.149zm31.532-86.636l10.527-10.522m-33.325 33.31l10.759-10.772-10.759 10.772zm53.815-31.733l8.933-8.946m-71.914 71.881l27.331-27.318-27.331 27.318zm37.377-37.343l18.264-18.256-18.264 18.256zm30.585-8.531l10.112-10.107M460.625 477.9l5.944-5.942-5.944 5.942zm12.918-12.913l8.9-8.896-8.9 8.896zm75.118-53.043l19.161-19.153m-90.909 90.868l10.478-10.473-10.478 10.473zm78.489-67.433l18.83-18.821m-89.813 89.789l7.272-7.286-7.272 7.286zm76.728-65.69l7.24-7.22m-81.976 81.938l10.561-10.555-10.561 10.555zm79.552-68.478l7.355-7.369m-88.983 88.959l18.863-18.871-18.863 18.871zm85.397-74.354l16.106-16.082m-83.088 83.05l7.704-7.717-7.704 7.717zm-8.302-107.464l9.431-9.443m-33.84 33.824l9.813-9.792-9.813 9.792zm58.663-36.58l1.81-1.809m-71.216 71.184l13.45-13.427-13.45 13.427zm14.961-14.954l38.489-38.471-38.489 38.471zm51.938-29.857l15.127-15.136m-68.676 68.661l9.647-9.643-9.647 9.643zm72.246-50.173l7.721-7.717m-83.138 83.1l16.172-16.165-16.172 16.165zm88.916-66.835l10.66-10.639m-82.075 82.038l7.239-7.236-7.239 7.236zm81.012-58.919l10.395-10.406m-90.843 90.818l19.145-19.153-19.145 19.153zm9.165-108.41l11.607-11.585m-51.789 51.765l4.383-4.381-4.383 4.381zm18.995-18.986l11.723-11.718-11.723 11.718zm37.095-15.037l27.912-27.899M467.93 454.05l16.92-16.912-16.92 16.912zm68.477-46.388l8.385-8.381M462.335 481.7l20.788-20.779-20.788 20.779zm89.829-67.748l18.863-18.854m-88.983 88.942l7.372-7.369-7.372 7.369zm81.627-59.533l7.29-7.286m-89.83 89.789l18.829-18.821-18.829 18.821zm90.045-67.963l20.158-20.132m-84.798 84.76l7.986-8-7.986 8z" stroke="#F2F2F2" stroke-width="1.765" stroke-miterlimit="10"/><path d="M512.978 398.584l-9.448-14.074-10.46 4.697 4.267 16.414m0 0l-.847.547a66.812 66.812 0 00-2.208 1.577c-.083.066-.166.133-.249.183 0 .016-.017.016-.017.033-.05.016-.083.05-.133.083-.282.232-.581.448-.863.68l-.498.398c-.167.133-.333.283-.499.415-.049.05-.116.083-.166.133-.216.199-.448.382-.664.581-.05.033-.099.083-.149.116a57.65 57.65 0 00-2.923 2.755m0 .001l-15.226-7.452-6.708 9.277 11.889 12.099m0 0a55.202 55.202 0 00-1.677 3.635c-.033.066-.05.133-.083.183-.133.348-.283.68-.415 1.012-.067.199-.15.415-.233.614-.066.199-.149.398-.216.598-.133.348-.249.68-.365 1.029a.784.784 0 00-.066.182 63.951 63.951 0 00-1.163 3.851m0 0l-16.92 1.145-1.145 11.402 16.338 4.514m0 0c.067 1.328.183 2.672.366 4 0 .066.016.133.016.199l.15 1.079.099.647c.05.199.083.415.117.631.066.348.132.713.199 1.078.017.05.016.117.033.183.266 1.328.565 2.622.93 3.917m0 0l-14.08 9.444 4.699 10.456 16.405-4.266m0 0a50.743 50.743 0 002.324 3.286.602.602 0 00.116.166c.216.282.449.565.665.863.132.166.282.332.415.498l.398.498c.249.282.482.548.714.83.05.05.083.099.133.149a50.903 50.903 0 002.756 2.921m0 .001l-7.472 15.219 9.299 6.705 12.088-11.9m0 0a48.769 48.769 0 003.653 1.693c.05.033.116.049.166.083.349.132.681.265 1.029.414.2.067.399.15.598.216.199.083.399.166.598.233.349.132.697.249 1.029.365.067.016.133.05.2.066a63.68 63.68 0 003.835 1.162m33.558-12.78c-.299.133-.581.266-.864.382a16.14 16.14 0 01-.797.365c-.083.033-.149.05-.216.083a45.886 45.886 0 01-21.037 3.419c-.083-.016-.15-.016-.233-.016l-.946-.1c-.283-.033-.581-.05-.864-.083a.942.942 0 00-.216-.033 45.885 45.885 0 01-19.941-7.568c-.05-.033-.117-.083-.183-.116l-.764-.565c-.232-.166-.481-.332-.714-.514-.05-.033-.116-.083-.183-.133a45.805 45.805 0 01-13.466-16.514l-.099-.199a44.325 44.325 0 01-.399-.88c-.116-.249-.232-.514-.349-.78-.033-.066-.049-.132-.083-.199a45.909 45.909 0 01-3.42-21.045c.017-.066.016-.132.016-.215l.1-.946c.033-.299.05-.581.083-.88.017-.066.017-.133.033-.199a45.903 45.903 0 017.572-19.949c.033-.05.083-.117.116-.166.166-.249.349-.482.515-.714.183-.266.365-.515.564-.78a1.29 1.29 0 01.133-.166 45.687 45.687 0 0116.522-13.477c.066-.033.133-.066.199-.083.266-.132.531-.249.814-.381.282-.117.564-.249.846-.382.067-.017.133-.05.2-.083a45.932 45.932 0 0121.054-3.402c.066 0 .149 0 .216.016.299.017.598.05.896.083l.93.1c.067 0 .133.016.216.033a45.72 45.72 0 0119.925 7.551c.067.05.133.083.183.133.249.166.482.349.731.515l.747.547c.066.05.116.1.183.133a45.815 45.815 0 0113.482 16.514.935.935 0 01.083.199c.133.266.249.531.366.797.132.282.265.581.398.879.017.067.05.133.083.2a45.825 45.825 0 013.404 21.028c0 .083-.016.149-.016.232-.017.299-.05.581-.084.863l-.099.946c-.017.066-.017.149-.033.232a45.7 45.7 0 01-7.555 19.9c-.05.066-.083.133-.133.199-.183.249-.365.515-.565.78l-.498.697c-.05.05-.1.116-.133.166a45.827 45.827 0 01-16.521 13.477l-.199.099v0z" stroke="#F2F2F2" stroke-width="3.49" stroke-miterlimit="10" stroke-linecap="round" stroke-linejoin="round"/><path d="M-10.84 35.313L11.41 13.09m-22.25 70.354l22.25-22.24m-22.25-49.94L2.593-2.162M-10.84 59.379l22.25-22.24m-22.25 70.354l22.25-22.224m-22.25 46.289l22.25-22.24m-22.25 46.305l22.25-22.239m-22.25 46.288l22.25-22.223m-22.25 46.288l22.25-22.239m-22.25 46.305l22.25-22.24m-22.25 46.289l22.25-22.224m-22.25 46.289l22.25-22.24m-6.808 30.854l6.808-6.789M-10.84 47.346l22.25-22.24m-22.25 70.37l22.25-22.24m-22.25 70.355l22.25-22.24m-22.25 70.354l22.25-22.24m-22.25 70.37l22.25-22.239M-10.84 23.297l22.25-22.24m-22.25 70.354l22.25-22.24m-22.25 70.354l22.25-22.24m-22.25 70.371l22.25-22.239m-22.25 70.353l22.25-22.24m-22.25 70.354l22.25-22.239m-18.83 42.886l18.83-18.821M-10.84-2.162h22.25V284.53h-22.25m556.047 319.572l-37.094-37.077m13.035 37.076l-13.815-13.791m25.836 13.792l-25.836-25.825m0 25.825v-37.077h286.841v37.077" stroke="#F2F2F2" stroke-width="2.607" stroke-miterlimit="10"/><path d="M283.755 473.203c.05-.299.083-.581.116-.863.017-.133.033-.282.05-.432l.05-.846v-.863c0-1.079-.117-2.141-.332-3.203l5.263-4.847-3.869-6.854-6.857 2.008-.748-.647c-.232-.183-.464-.349-.68-.531a6.829 6.829 0 00-.366-.249 10.292 10.292 0 00-.714-.465c-.016-.017-.049-.033-.066-.05-.017-.016-.033-.016-.05-.033-.099-.05-.199-.116-.282-.166-.1-.05-.183-.116-.282-.166-.017 0-.034-.016-.067-.033-.016-.017-.05-.017-.066-.033a12.346 12.346 0 00-1.146-.581 15.459 15.459 0 00-1.727-.697l-1.561-6.971-7.87-.083-1.694 6.954c-.581.183-1.162.398-1.727.647-.398.166-.78.366-1.162.565-.033.016-.05.033-.083.033-.016.017-.033.033-.05.033-.099.05-.182.1-.282.166-.017 0-.033.017-.05.017-.083.05-.149.099-.232.149-.017 0-.033.017-.05.017-.149.099-.299.182-.448.282-.117.066-.233.149-.366.232-.614.415-1.228.88-1.81 1.378l-6.807-2.141-4.019 6.788 5.181 4.929c-.1.448-.183.913-.249 1.361-.017.149-.033.315-.05.481-.033.266-.066.548-.083.83v.033c0 .166-.017.332-.017.498v.399a1.04 1.04 0 000 .315v.066c0 1.062.117 2.141.333 3.203l-5.264 4.83 3.869 6.871 6.857-2.008c.565.514 1.163.979 1.777 1.411.249.166.482.332.731.481.016.017.049.033.066.05.017 0 .033.016.05.033.1.05.199.1.282.166.1.05.183.1.282.166.017 0 .034.017.05.017.033.016.05.033.083.049.366.199.764.399 1.146.581.565.266 1.129.498 1.727.697l1.544 6.971 7.887.066 1.694-6.937a16.829 16.829 0 001.727-.647c.398-.183.78-.366 1.162-.565a.378.378 0 01.083-.049c.017 0 .033-.017.05-.017.083-.066.182-.116.282-.166.017-.017.033-.017.05-.017.066-.049.149-.099.232-.149.017 0 .034-.017.05-.033a18.229 18.229 0 002.624-1.892l6.807 2.141 4.019-6.772-5.181-4.946c.067-.315.133-.647.183-.962zm-12.271 6.921c-.016 0-.016.016-.033.016a11.037 11.037 0 01-5.015 1.295h-.548a11.187 11.187 0 01-4.997-1.394c-.017 0-.034-.017-.05-.017a1.214 1.214 0 00-.2-.116c-.049-.05-.116-.083-.182-.116l-.033-.033a11.027 11.027 0 01-3.637-3.685c0-.017-.016-.033-.016-.05-.05-.066-.083-.133-.117-.199-.033-.066-.066-.133-.099-.182-.017-.017-.033-.034-.033-.05a11.252 11.252 0 01-1.296-5.012v-.498c0-.017 0-.034.017-.05.05-1.743.531-3.469 1.378-4.996.017 0 .017-.016.033-.033.034-.066.067-.133.117-.199a1.78 1.78 0 01.099-.183c.017-.016.017-.033.033-.05a11.037 11.037 0 013.703-3.618l.033-.033a1.78 1.78 0 00.183-.099.931.931 0 01.216-.117l.033-.033a11.032 11.032 0 015.015-1.278h.548c1.76.067 3.47.531 4.998 1.394.016 0 .033.017.049.017.05.033.117.083.183.116.066.033.133.067.199.116.017 0 .017.017.033.017a11.383 11.383 0 013.637 3.701c0 .017.016.033.016.05.034.05.083.116.117.182l.099.2c.017.016.017.033.034.049a11.207 11.207 0 011.295 5.013v.265c0 .067 0 .149-.017.232v.05a10.929 10.929 0 01-1.378 4.979c-.017.017-.017.033-.033.05-.034.066-.067.116-.1.183-.05.066-.083.132-.116.199-.017.016-.033.033-.033.05a11.037 11.037 0 01-3.703 3.618c0 .016-.017.016-.033.033-.067.033-.15.066-.216.116-.05.033-.116.066-.183.1zM60.99 167.374c.033-.282.083-.564.117-.846.016-.15.016-.283.033-.432.033-.282.05-.564.05-.863v-.149c.016-.1.016-.216.016-.316v-.398a19.065 19.065 0 00-.332-3.203l5.264-4.83-3.87-6.854-6.873 2.008a6.873 6.873 0 00-.748-.647 10.569 10.569 0 00-.68-.532l-.349-.249c-.233-.165-.482-.315-.714-.481-.033 0-.05-.016-.083-.033-.017-.017-.033-.033-.05-.033-.083-.067-.182-.116-.282-.166-.083-.067-.183-.116-.282-.166-.017-.017-.034-.017-.05-.033-.033-.017-.05-.034-.083-.05a18.785 18.785 0 00-1.146-.581 19.238 19.238 0 00-1.71-.68l-1.561-6.988-7.87-.066-1.694 6.937c-.598.2-1.179.415-1.744.664-.381.166-.78.349-1.162.565a.123.123 0 00-.066.033c-.017.016-.034.016-.05.033l-.299.149c0 .017-.017.017-.033.033a1.891 1.891 0 00-.25.133c-.016.017-.032.017-.05.033-.148.083-.298.183-.43.266-.134.083-.25.166-.366.232a21.26 21.26 0 00-1.81 1.394l-6.824-2.141-4.002 6.789 5.164 4.929c-.1.448-.183.896-.232 1.344-.034.166-.05.332-.067.481-.033.283-.05.565-.066.83v.05c-.017.166-.017.332-.034.498v.78a17.5 17.5 0 00.333 3.203l-5.264 4.83 3.869 6.854 6.874-2.008a16.186 16.186 0 002.49 1.892.23.23 0 01.067.05c.033.017.05.033.067.033.083.067.182.116.282.166.083.067.182.116.282.166.017.017.033.017.05.033.016.017.05.033.066.05.382.199.764.398 1.163.581.547.249 1.129.481 1.71.68l1.56 6.971 7.871.083 1.694-6.937a20.15 20.15 0 001.743-.664c.382-.166.78-.349 1.146-.565.033 0 .05-.016.083-.033.017-.016.033-.016.05-.033l.299-.149c0-.017.016-.017.033-.033.083-.05.166-.083.232-.133.033-.017.05-.017.067-.033a17.977 17.977 0 002.607-1.893l6.824 2.141 4.002-6.788-5.164-4.929c.066-.332.133-.647.182-.979zm-12.27 6.921c-.017.016-.033.016-.05.033a11.27 11.27 0 01-5.015 1.295h-.498c-.016-.017-.033-.017-.05-.017a10.939 10.939 0 01-4.98-1.378c-.018-.016-.034-.016-.05-.033-.067-.033-.134-.066-.2-.116-.066-.033-.133-.066-.183-.1-.016-.016-.033-.016-.05-.033a11.026 11.026 0 01-3.62-3.701l-.032-.033c-.034-.066-.067-.133-.117-.199l-.1-.199c-.016-.017-.016-.034-.032-.034a11.221 11.221 0 01-1.279-5.012v-.564a11.158 11.158 0 011.395-4.979c0-.017.016-.033.016-.05.034-.066.083-.133.117-.199.033-.05.083-.116.116-.183 0-.016.016-.016.016-.033a11.228 11.228 0 013.703-3.634c.017 0 .033-.017.05-.017.05-.033.116-.083.183-.116.066-.033.133-.067.199-.116.017 0 .033 0 .05-.017a11.27 11.27 0 015.014-1.295h.498c.017 0 .034.017.05.017 1.744.05 3.454.531 4.981 1.378.017.016.034.016.05.033.067.033.133.066.183.099.066.05.133.083.2.117.016.016.032.016.05.033a11.017 11.017 0 013.619 3.701c.016 0 .016.016.033.033l.1.199c.033.067.083.133.116.199 0 .017.016.017.016.033a11.032 11.032 0 011.296 5.013v.547a11.166 11.166 0 01-1.395 4.996c0 .017-.017.033-.017.05-.033.05-.083.116-.116.166a.907.907 0 01-.116.216c0 .016-.017.016-.033.033a11.177 11.177 0 01-3.687 3.634c-.016 0-.033.017-.05.017-.066.05-.132.083-.199.116-.066.033-.116.067-.182.1zM5.98 393.77c.033-.282.083-.564.116-.846.017-.149.017-.282.033-.432.034-.282.05-.564.05-.863v-.149c.017-.099.017-.216.017-.315v-.399a17.477 17.477 0 00-.332-3.203l5.263-4.829-3.868-6.855-6.875 2.008a6.984 6.984 0 00-.747-.647 10.527 10.527 0 00-.68-.531l-.35-.249c-.232-.166-.48-.315-.713-.481-.034 0-.05-.017-.083-.034-.017-.016-.034-.033-.05-.033-.083-.066-.183-.116-.282-.166a1.614 1.614 0 00-.283-.166c-.016-.016-.033-.016-.05-.033-.033-.016-.05-.033-.083-.05a18.782 18.782 0 00-1.145-.581 19.543 19.543 0 00-1.71-.68l-1.561-6.987-3.487-.033v12.763c1.644.116 3.238.58 4.682 1.377.017.017.033.017.05.033.066.033.133.067.183.1.066.05.133.083.199.116.017.017.033.017.05.033a11.035 11.035 0 013.62 3.701c.016 0 .016.017.033.033l.1.2c.033.066.082.132.116.199 0 .016.016.016.016.033a11.028 11.028 0 011.295 5.079v.481a11.17 11.17 0 01-1.394 4.996c0 .016-.017.033-.017.049-.033.05-.083.117-.116.166a.888.888 0 01-.117.216c0 .017-.016.017-.033.033a11.18 11.18 0 01-3.686 3.635c-.016 0-.033.017-.05.017a1.283 1.283 0 01-.199.116c-.066.033-.116.066-.183.099-.016.017-.033.017-.05.034a11.302 11.302 0 01-4.5 1.277v12.763l3.023.034 1.693-6.938a19.827 19.827 0 001.744-.664c.382-.166.78-.348 1.146-.564.033 0 .05-.017.083-.033.016-.017.033-.017.05-.033l.298-.15c0-.016.017-.016.034-.033.083-.05.166-.083.232-.133.033-.016.05-.016.066-.033a17.968 17.968 0 002.607-1.892l6.825 2.141 4.001-6.788-5.164-4.929c.067-.332.133-.648.183-.98z" fill="#F2F2F2"/><path d="M202.493 604.102c6.708-64.495 61.253-114.767 127.555-114.767 66.301 0 120.846 50.272 127.555 114.767" stroke="#F2F2F2" stroke-width="1.765" stroke-miterlimit="10"/><path d="M-10.84 245.08c18.68-32.397 53.682-54.188 93.781-54.188 59.76 0 108.194 48.412 108.194 108.144m0 0c0 59.732-48.434 108.145-108.194 108.145-40.1 0-75.101-21.808-93.781-54.205l201.975-53.94zM80.816 604.102c6.974-131.546 115.882-236.056 249.232-236.056 133.349 0 242.257 104.51 249.231 236.056" stroke="#F2F2F2" stroke-width=".882" stroke-miterlimit="10"/><path d="M-10.84 308.895c4.948 47.367 45.114 84.394 93.781 84.394 52.005 0 94.313-42.272 94.313-94.253s-42.308-94.27-94.313-94.27c-48.667 0-88.833 37.044-93.781 84.395" stroke="#F2F2F2" stroke-width="6.98" stroke-miterlimit="10"/><path d="M507.333 604.102V478.331h148.509v125.771" stroke="#F2F2F2" stroke-width="2.607" stroke-miterlimit="10"/><path d="M-10.84 342.702h311.249v261.4" stroke="#F2F2F2" stroke-width="1.765" stroke-miterlimit="10"/><path d="M-10.84 95.576h226.168v508.526" stroke="#F2F2F2" stroke-width="1.765" stroke-miterlimit="10"/><path d="M504.111 502.479v101.623h3.222V502.479h-3.222z" fill="#F2F2F2"/></g><defs><linearGradient id="paint0_linear" x1="475.62" y1="695.182" x2="-17.004" y2="464.467" gradientUnits="userSpaceOnUse"><stop stop-color="#E52D2D"/><stop offset=".251" stop-color="#E11F28"/><stop offset=".49" stop-color="#333867"/><stop offset=".812" stop-color="#46A8DE"/><stop offset="1" stop-color="#46A8DE"/></linearGradient><filter id="filter0_d" x="-271.375" y="-10.71" width="795.106" height="618.93" filterUnits="userSpaceOnUse" color-interpolation-filters="sRGB"><feFlood flood-opacity="0" result="BackgroundImageFix"/><feColorMatrix in="SourceAlpha" values="0 0 0 0 0 0 0 0 0 0 0 0 0 0 0 0 0 0 127 0"/><feOffset dx="6"/><feGaussianBlur stdDeviation="4"/><feColorMatrix values="0 0 0 0 0 0 0 0 0 0 0 0 0 0 0 0 0 0 0.25 0"/><feBlend in2="BackgroundImageFix" result="effect1_dropShadow"/><feBlend in="SourceGraphic" in2="effect1_dropShadow" result="shape"/></filter></defs></svg>