<svg width="380" height="330" fill="none" xmlns="http://www.w3.org/2000/svg"><g opacity=".4"><path d="M63.868 223.693c-.01-.12-.02-.25-.04-.37l-.03-.22-.03-.21c-.02-.13-.04-.25-.07-.37 0-.02 0-.05-.01-.07 0-.03-.01-.06-.01-.1-.06-.3-.13-.61-.2-.91-.02-.11-.05-.22-.08-.33m0 0l4.853-3.141-1.551-3.58-5.614 1.35m0 0c-.24-.38-.5-.76-.77-1.13a.176.176 0 01-.04-.05c-.08-.1-.15-.2-.23-.3-.04-.06-.09-.11-.13-.17-.05-.06-.09-.121-.14-.171-.08-.1-.16-.2-.24-.29-.01-.02-.02-.04-.04-.05-.29-.35-.601-.69-.921-1.02" stroke="#F6FFFF" stroke-width="1.765" stroke-miterlimit="10"/><path d="M58.575 212.561l2.632-5.141-3.132-2.34-4.193 3.991m0 0c-.4-.21-.81-.411-1.23-.601-.02 0-.04-.01-.06-.02-.12-.05-.231-.1-.351-.15-.06-.03-.13-.05-.2-.08s-.13-.05-.2-.08c-.12-.04-.24-.09-.35-.13a.145.145 0 00-.07-.02c-.43-.16-.861-.3-1.301-.42m0 0l-.3-5.771-3.883-.46-1.631 5.551m0 0c-.45.02-.91.05-1.361.1-.03 0-.05 0-.07.01l-.3.03c-.02.01-.05.01-.07.01l-.22.03c-.07.01-.14.02-.21.04-.13.02-.25.04-.37.06-.02 0-.04 0-.05.01h-.02c-.451.08-.892.18-1.342.29m0 0l-3.142-4.85-3.582 1.55 1.351 5.611m0 0c-.09.06-.19.12-.28.19-.26.16-.52.34-.77.52-.02.02-.05.04-.08.06 0 .01-.01.01-.01.01-.01.01-.03.02-.04.03-.101.08-.201.15-.301.23-.06.04-.11.09-.17.13-.06.05-.12.09-.17.14-.02.02-.04.03-.06.05-.08.06-.15.12-.23.19-.02.01-.04.03-.05.04-.35.3-.691.6-1.011.92m0 0l-5.153-2.62-2.342 3.13 3.993 4.181m0 0c-.21.4-.41.81-.6 1.23 0 .02-.01.04-.02.07-.05.11-.1.22-.15.34-.03.07-.05.13-.08.2s-.05.14-.08.2c-.04.12-.09.24-.13.36-.01.02-.02.04-.02.06-.161.431-.301.861-.421 1.301m0 0l-5.774.3-.46 3.881 5.553 1.63m0 0c.02.45.05.91.1 1.37 0 .02 0 .04.01.06.01.12.03.25.04.37l.03.22c.01.07.02.14.04.22l.06.36c0 .02.01.05.01.07.08.45.18.9.29 1.34m.001 0l-4.854 3.141 1.552 3.591 5.613-1.361m0 0c.25.38.5.76.771 1.131.02.02.03.04.04.05.08.1.15.2.23.3.04.06.09.12.13.17.05.06.09.12.14.18.08.09.16.19.24.28.01.02.03.04.04.05.3.35.6.69.921 1.02m0 0l-2.622 5.141 3.132 2.34 4.183-3.99" stroke="#F6FFFF" stroke-width="1.765" stroke-miterlimit="10"/><path d="M36.16 242.607c.4.21.811.41 1.231.6.02.01.04.01.06.02.12.05.23.1.35.15.07.03.13.05.2.08s.14.05.21.08c.111.05.231.09.341.13.03.01.05.02.07.02.43.16.86.3 1.301.42" stroke="#F6FFFF" stroke-width="1.765" stroke-miterlimit="10"/><path d="M39.923 244.107l.3 5.771 3.883.46 1.63-5.551m.001 0c.45-.01.91-.05 1.37-.1.02 0 .04 0 .06-.01l.3-.03c.02 0 .05-.01.071-.01l.22-.03.22-.03c.12-.02.24-.04.36-.07.02 0 .04 0 .06-.01h.01c.45-.08.901-.18 1.341-.29m0 0l3.142 4.851 3.592-1.551-1.36-5.611m0 0c.38-.24.76-.5 1.13-.77 0-.01.01-.01.01-.01.01-.01.03-.02.04-.03.1-.07.2-.15.301-.23.06-.04.11-.09.17-.13.06-.05.12-.09.18-.14.01-.01.03-.03.05-.04.08-.07.16-.13.23-.19.02-.02.04-.03.05-.05.35-.3.69-.6 1.021-.92m0 0l5.143 2.62 2.341-3.12-3.992-4.191m0 0c.21-.4.41-.81.6-1.23.01-.02.01-.04.02-.06.05-.12.1-.23.15-.35 0 0 .01-.01.01-.02 0 0 0-.01.01-.02.02-.05.04-.11.06-.16.03-.07.06-.14.08-.2.05-.12.09-.24.13-.35.01-.02.02-.04.02-.07.16-.43.3-.86.42-1.3m.001 0l5.773-.301.46-3.88-5.553-1.63m0-.001c-.01-.45-.05-.91-.1-1.36 0-.03 0-.05-.01-.07M51.43 239.936c-.1.04-.2.09-.3.13l-.27.12c-.02 0-.05.01-.07.02a15.654 15.654 0 01-7.195 1.05c-.02 0-.05 0-.07-.01l-.33-.03c-.1-.02-.19-.03-.29-.04-.03 0-.05-.01-.08-.01a15.503 15.503 0 01-6.744-2.69c-.03-.01-.05-.03-.07-.04-.09-.06-.17-.13-.26-.19l-.24-.18c-.02-.02-.04-.03-.06-.05a15.668 15.668 0 01-4.504-5.701c-.01-.02-.02-.05-.03-.07-.04-.1-.09-.2-.13-.3a3.06 3.06 0 01-.11-.27c-.01-.02-.02-.05-.03-.07a15.635 15.635 0 01-1.05-7.192c0-.02.01-.05.01-.07.01-.11.02-.22.04-.33l.03-.29c0-.03.01-.05.01-.07.35-2.43 1.28-4.751 2.691-6.761.01-.02.03-.04.04-.06l.18-.24c.06-.08.13-.17.2-.26.01-.02.03-.04.04-.06a15.749 15.749 0 015.704-4.501c.03-.01.05-.02.07-.03.09-.04.19-.08.28-.12.1-.04.2-.08.29-.12.03-.01.05-.02.07-.03a15.654 15.654 0 017.195-1.05c.03 0 .05.01.08.01l.3.03c.11.02.21.03.32.04.02 0 .04.01.07.01 2.432.35 4.744 1.28 6.755 2.69.02.01.04.03.06.04l.24.18c.09.07.17.13.26.19a15.752 15.752 0 014.563 5.751c.01.03.02.05.03.07l.12.27c.04.101.08.201.13.301.01.03.01.05.02.07a15.625 15.625 0 011.051 7.191c0 .03 0 .05-.01.08l-.03.29c-.01.11-.02.22-.04.32 0 .03-.01.06-.01.08a15.525 15.525 0 01-2.692 6.751c-.01.02-.03.04-.04.06-.06.09-.13.17-.2.26-.06.08-.11.16-.17.24-.02.02-.03.04-.05.06a15.656 15.656 0 01-5.704 4.501c-.02.01-.05.02-.07.03v0z" stroke="#F6FFFF" stroke-width="1.765" stroke-miterlimit="10"/><path d="M90.455 277.243c.04.18.09.36.13.54.03.1.06.21.09.32.02.1.05.21.08.31l.15.54.03.09c.02.05.03.1.04.14.19.61.4 1.21.62 1.79m.001 0l-6.654 5.481 2.902 5.051 8.095-2.96" stroke="#F6FFFF" stroke-width="3.49" stroke-miterlimit="10" stroke-linecap="round" stroke-linejoin="round"/><path d="M95.939 288.545c.42.53.87 1.04 1.33 1.55.02.02.05.04.07.07.13.13.25.27.38.4l.23.23.23.23c.141.14.271.26.411.39.02.02.04.05.07.07.49.47 1.01.91 1.541 1.34m.001 0l-3.022 8.072 5.033 2.93 5.523-6.611m0 0c.37.14.75.28 1.131.41.26.09.53.18.8.26l.1.03c.18.05.35.1.53.16.111.03.211.05.321.08l.31.09c.18.04.36.09.54.13.04.01.07.02.1.02.661.16 1.331.29 2.002.401m0 0l1.431 8.501 5.823.02 1.471-8.491m0-.001c.671-.11 1.341-.23 2.012-.39.03 0 .06-.01.09-.02.15-.03.3-.07.44-.1l.11-.03c.1-.03.21-.05.31-.08l.32-.09c.181-.05.361-.1.531-.15.03-.01.05-.02.08-.02.01 0 .01-.01.02-.01.65-.2 1.301-.42 1.931-.66m0 0l5.484 6.651 5.053-2.89-2.962-8.102m0 0c.53-.42 1.041-.86 1.541-1.33.01 0 .01-.01.02-.01l.06-.06c.13-.12.27-.25.4-.38l.23-.23c.08-.08.16-.15.23-.23.03-.03.06-.05.08-.08.111-.11.211-.21.311-.32.02-.03.04-.05.07-.07.47-.5.91-1.02 1.341-1.54m0 0l8.075 3.02 2.932-5.041-6.625-5.521m0 0c.251-.63.481-1.28.681-1.93l.03-.09.15-.54.09-.31c.02-.09.05-.17.07-.26 0-.01 0-.02.01-.03 0-.01 0-.02.01-.03.04-.18.09-.36.13-.54.01-.03.01-.06.02-.09.16-.67.29-1.341.4-2.011m.001 0l8.505-1.42.01-5.821-8.495-1.48m0 0c-.1-.67-.23-1.34-.381-2.011 0-.03-.01-.06-.02-.09-.04-.18-.08-.36-.13-.54-.03-.11-.06-.22-.08-.32l-.09-.32-.15-.53-.03-.09c-.2-.66-.42-1.3-.66-1.94m-.001 0l6.654-5.481-2.901-5.051-8.096 2.97m0 0c-.42-.53-.87-1.05-1.331-1.55-.02-.02-.04-.05-.07-.07-.12-.14-.25-.27-.38-.41-.08-.07-.15-.15-.23-.23-.08-.07-.15-.15-.23-.23-.13-.13-.27-.26-.4-.38-.03-.03-.05-.05-.081-.07-.49-.47-1.01-.92-1.53-1.35m0 0l3.012-8.072-5.033-2.93-5.524 6.621m0 0c-.63-.25-1.281-.47-1.931-.68-.03 0-.06-.01-.09-.02-.18-.06-.36-.11-.54-.16-.1-.03-.21-.06-.311-.09-.11-.03-.21-.05-.32-.08-.18-.05-.36-.09-.54-.14-.03 0-.06-.01-.1-.02-.661-.16-1.331-.29-2.001-.39m0 0l-1.421-8.502-5.824-.02-1.481 8.492m0 0c-.67.1-1.341.23-2.011.38-.03.01-.06.02-.09.02-.15.04-.291.07-.441.11-.03 0-.07.01-.1.02-.11.03-.22.06-.32.09-.11.02-.21.05-.32.08-.18.05-.35.1-.53.16-.03 0-.05.01-.081.02h-.02c-.65.2-1.3.42-1.931.66m0 0l-5.483-6.651-5.053 2.9 2.972 8.091m0 .001c-.53.42-1.051.87-1.551 1.33l-.02.02-.05.05c-.14.13-.27.25-.41.39-.08.07-.15.15-.23.22-.08.08-.151.16-.231.24-.03.02-.05.05-.08.07-.1.11-.2.22-.31.32a.5.5 0 01-.07.08c-.46.5-.91 1.01-1.341 1.54m-.001 0l-8.075-3.02-2.931 5.031 6.624 5.521m0 0c-.25.64-.47 1.28-.68 1.93-.01.03-.01.06-.02.1-.06.17-.11.35-.16.53l-.09.32c-.03.1-.06.21-.08.31-.05.18-.09.36-.14.54 0 .03-.01.07-.02.1-.01.05-.02.1-.04.15-.14.61-.261 1.231-.351 1.851m0 0l-8.505 1.43-.02 5.821 8.495 1.47m0 0c.1.67.23 1.341.38 2.011.01.03.01.06.02.1m28.068 16.703c-.03 0-.07.01-.11.01h-.45c-.161 0-.321 0-.481-.01h-.11a23.44 23.44 0 01-9.746-2.461m0 0l6.364-10.932m0 0c1.231.52 2.581.8 4.002.81 1.421 0 2.772-.28 4.003-.78m0 0l6.294 10.962m0 0a23.326 23.326 0 01-9.766 2.401m-.48-30.656c4.182.02 7.564 3.421 7.554 7.601-.01 4.171-3.422 7.552-7.594 7.542-4.183-.01-7.565-3.421-7.555-7.592.02-4.17 3.422-7.561 7.595-7.551v0zm5.183 16.693c.01-.01.03-.02.04-.03-.01.01-.03.02-.04.03zm15.05 1.99c-.02.03-.03.06-.05.1-.07.12-.15.251-.22.381-.091.14-.171.28-.251.42l-.06.09a23.134 23.134 0 01-7.004 7.201m-.001 0l-6.284-10.962m0 0a10.536 10.536 0 004.023-6.921m0 0l12.648.04m0 0a23.186 23.186 0 01-2.802 9.651m-9.775-10.331v-.08.08zm2.311-20.004a23.264 23.264 0 016.964 7.241c.02.041.04.071.06.101l.24.42c.07.13.15.26.22.39.02.03.03.06.05.1a23.197 23.197 0 012.742 9.661m0 0l-12.648-.04m.001 0a10.5 10.5 0 00-3.983-6.941m0 0l6.354-10.932m-2.301 18.594c-.01-.03-.01-.06-.01-.081 0 .021 0 .051.01.081zm-5.224-8.452a.076.076 0 000 0zm-15.52-11.602a23.244 23.244 0 019.756-2.401h1.151c3.382.1 6.714.951 9.746 2.471m0 0l-6.364 10.922m0 0c-1.23-.51-2.581-.8-4.002-.8-1.411-.01-2.772.27-4.003.78m0 0l-6.284-10.972m5.053 11.572a.076.076 0 000 0zm-15.049-1.99c.02-.03.04-.07.05-.1.08-.14.17-.28.25-.43.07-.12.14-.251.22-.371.02-.03.04-.07.06-.1a23.373 23.373 0 017.005-7.201m0 0l6.294 10.972m0 0a10.463 10.463 0 00-4.033 6.911m0 0l-12.648-.04m0 0a23.32 23.32 0 012.802-9.641m14.998 20.192c-.019-.01-.029-.019-.048-.029.019.01.029.019.048.029zm-5.222-9.79c0-.031 0-.051.01-.081-.01.03-.01.05-.01.081zm-9.796 11.782c-.02-.04-.03-.071-.05-.101a23.24 23.24 0 01-2.742-9.661m0 0l12.648.04m0 0v-.01a10.522 10.522 0 003.983 6.951m-.001 0l-6.354 10.922m0 0a23.138 23.138 0 01-6.964-7.241c-.02-.03-.04-.07-.06-.1-.07-.12-.14-.25-.22-.38l-.24-.421m9.796-10.441v0zm32.12 75.853l9.506-10.872-6.164-7.561-12.568 7.111m0 0c-.85-.76-1.731-1.5-2.631-2.2-.04-.03-.08-.06-.13-.09-.241-.19-.491-.38-.751-.57-.14-.11-.29-.211-.43-.321-.15-.11-.3-.22-.45-.32-.261-.18-.511-.36-.771-.53-.04-.03-.09-.06-.14-.09a48.653 48.653 0 00-2.912-1.81m0 0l2.792-14.163-9.116-3.46-7.335 12.432" stroke="#F6FFFF" stroke-width="3.49" stroke-miterlimit="10" stroke-linecap="round" stroke-linejoin="round"/><path d="M108.567 324.911a54.095 54.095 0 00-3.372-.59c-.05 0-.11-.01-.16-.02-.311-.04-.621-.08-.931-.11l-.54-.06c-.18-.02-.371-.04-.551-.05-.31-.03-.62-.05-.92-.08-.06 0-.12-.01-.17-.01a43.743 43.743 0 00-3.422-.1m-.001 0l-4.672-13.662-9.627 1.55-.13 14.432m0 0c-1.08.36-2.151.75-3.222 1.181l-.15.06c-.23.1-.46.19-.69.29-.05.03-.11.05-.16.08-.17.07-.34.15-.51.22-.16.08-.33.15-.501.23-.28.13-.56.26-.84.4-.04.02-.08.03-.12.05-.01.01-.02.01-.03.02-1.021.5-2.032 1.04-3.013 1.62m0 0l-10.877-9.502-7.564 6.161 7.114 12.563" stroke="#F6FFFF" stroke-width="3.49" stroke-miterlimit="10" stroke-linecap="round" stroke-linejoin="round"/><path d="M-17.133 262.68l25.196-25.194m-114.743 114.7l8.966-8.962-8.966 8.962zm98.413-83.865l24.765-24.764m-118.134 118.081l9.576-9.572-9.576 9.572zM-.712 275.262l9.516-9.511m-97.472 97.417l3.542-3.531-3.542 3.531zm94.269-79.724l9.686-9.682m-4.712 19.213l21.173-21.163m-17.832 32.325l27.308-27.304M15.017 317.54l12.668-12.662m-16 30.485l22.134-22.124m-6.344 20.834l17.711-17.693m-46.82 46.788l27.248-27.225-27.247 27.225zm-2.701-91.536l14.01-14.003M-95.914 363.168l7.165-7.162-7.165 7.162zM8.273 288.035l13.689-13.683m13.448 15.543l8.066-8.061m-28.668 28.655l11.707-11.692-11.707 11.692zm-27.338-45.158l24.816-24.805m-117.034 116.971l9.696-9.692-9.696 9.692zM2.6 279.193l9.576-9.562m-93.59 93.537l.22-.21-.22.21zm93.88-64.832l26.507-26.504m-24.766 53.759l14.15-14.142M3.87 350.426l35.633-35.617m-4.243 18.744l14.47-14.473M5.622 363.168l15.45-15.443-15.45 15.443zm37.423-30.145l5.864-5.871m-36.033 36.016l11.007-11.002-11.007 11.002z" stroke="#F6FFFF" stroke-width="2.607" stroke-miterlimit="10"/><path d="M27.865 306.208c-.06-.47-.12-.95-.2-1.42-.04-.28-.08-.56-.13-.84-.05-.281-.09-.561-.14-.831-.08-.48-.17-.95-.26-1.42-.02-.08-.03-.16-.05-.25-.02-.12-.04-.25-.07-.38a81.16 81.16 0 00-.8-3.501c-.11-.42-.22-.84-.341-1.26m.001 0l18.511-12.432-6.174-13.733-21.593 5.591m-.001 0a71.425 71.425 0 00-3.041-4.32c-.05-.07-.1-.14-.16-.21-.29-.38-.581-.76-.881-1.131-.18-.22-.35-.44-.53-.66-.18-.22-.36-.44-.54-.65-.311-.37-.621-.74-.941-1.1l-.16-.19a74.078 74.078 0 00-3.633-3.851m0 0l9.826-20.023-12.227-8.802-15.9 15.633m37.664 83.745l22.254-1.511 1.52-14.982-21.493-5.951m0 0a71.687 71.687 0 00-.47-5.261c-.01-.09-.03-.17-.04-.26m-108.779 56.96a60.2 60.2 0 01-17.672-21.664c-.04-.09-.08-.17-.12-.26-.18-.39-.35-.77-.52-1.16-.16-.34-.32-.69-.47-1.03-.03-.09-.07-.18-.11-.27a60.093 60.093 0 01-4.483-27.675c0-.09.01-.18.02-.27.03-.42.08-.85.12-1.271l.12-1.14c.01-.09.02-.18.04-.27a60.206 60.206 0 019.956-26.224c.05-.07.1-.15.16-.23.22-.31.44-.621.67-.931.241-.34.481-.68.741-1.02.05-.08.11-.15.17-.23a60.098 60.098 0 0121.734-17.713c.08-.05.17-.09.25-.13.36-.16.72-.32 1.071-.48.38-.17.75-.34 1.13-.5.09-.04.17-.08.261-.11a60.314 60.314 0 0127.688-4.491c.09.01.19.02.28.02l1.18.12c.41.04.811.08 1.211.13l.29.03a60.307 60.307 0 0126.217 9.952c.08.06.16.11.24.16.32.23.63.46.95.69.331.24.671.47 1.001.72.07.06.15.12.23.17a60.24 60.24 0 0117.722 21.724c.04.09.09.17.13.26.16.34.31.69.47 1.04.17.38.35.77.51 1.15.04.09.08.18.11.27a60.16 60.16 0 014.493 27.655l-.03.31c-.03.38-.07.761-.11 1.141-.04.41-.08.82-.13 1.23l-.03.3a60.338 60.338 0 01-9.956 26.195c-.05.08-.11.16-.16.24-.24.35-.5.69-.74 1.03-.22.31-.44.61-.671.92-.06.07-.11.15-.17.23a59.965 59.965 0 01-11.407 11.382" stroke="#F6FFFF" stroke-width="6.98" stroke-miterlimit="10"/><path d="M-31.282 363.168a49.04 49.04 0 006.825-2.48C.428 349.506 11.524 320.28.338 295.416c-11.187-24.874-40.415-35.966-65.301-24.784m0 0c-24.876 11.172-35.983 40.397-24.796 65.271 6.234 13.853 18.082 23.434 31.65 27.265l-6.854-92.536z" stroke="#F6FFFF" stroke-width="6.98" stroke-miterlimit="10"/><path d="M-13.11 315.61c-6.504 2.92-14.14.02-17.071-6.482-2.922-6.501-.02-14.142 6.484-17.063 6.504-2.93 14.149-.03 17.07 6.472 2.933 6.511.03 14.142-6.483 17.073z" stroke="#F6FFFF" stroke-width="6.98" stroke-miterlimit="10"/><path d="M197.132 234.205l1.101-1.1m-16.761 16.763l5.324-5.321-5.324 5.321zm6.284 7.001l19.763-19.744m-32.921 32.906l6.574-6.581-6.574 6.581zm38.655-25.354l12.608-12.612m-41.486 41.467l6.494-6.491-6.494 6.491zm41.396-28.085l4.823-4.821m-51.093 51.069l12.148-12.142-12.148 12.142zm19.002-52.209l6.344-6.341m-20.082 20.073l6.484-6.491-6.484 6.491zm32.43-19.123l5.383-5.391m-43.337 43.318l16.47-16.463-16.47 16.463zm22.524-22.504l11.007-11.002-11.007 11.002zm18.432-5.141l6.094-6.091m-48.851 48.828l3.582-3.58-3.582 3.58zm7.785-7.781l5.363-5.361-5.363 5.361zm45.268-31.966l11.548-11.542m-54.785 54.76l6.314-6.311-6.314 6.311zm47.3-40.637l11.347-11.342m-54.124 54.109l4.383-4.39-4.383 4.39zm46.24-39.587l4.362-4.35m-49.401 49.378l6.364-6.361-6.364 6.361zm47.94-41.267l4.433-4.441m-53.624 53.61l11.367-11.372-11.367 11.372zm51.463-44.808l9.706-9.692m-50.072 50.049l4.643-4.651-4.643 4.651zm41.897-35.236l12.518-12.512m-49.702 49.678l5.043-5.041-5.043 5.041zm37.684-31.035l5.814-5.801m-41.387 41.367l9.076-9.072-9.076 9.072zm34.052-27.395l10.146-10.142m-43.758 43.738l16.801-16.793-16.801 16.793zm40.847-34.186l8.115-8.111m-42.927 42.907l1.15-1.15-1.15 1.15zm10.736-10.722l23.225-23.214-23.225 23.214zm-29.038-67.311l5.683-5.691m-20.393 20.383l5.914-5.901-5.914 5.901zm35.353-22.044l1.09-1.09m-42.917 42.897l8.105-8.091-8.105 8.091zm9.016-9.011l23.195-23.184-23.195 23.184zm31.3-17.993l9.116-9.122m-41.386 41.378l5.813-5.812-5.813 5.812zm43.537-30.236l4.653-4.651m-50.102 50.079l9.746-9.742-9.746 9.742zm53.584-40.277l6.424-6.411m-49.461 49.439l4.363-4.361-4.363 4.361zm48.821-35.507l6.264-6.271m-54.745 54.73l11.537-11.542-11.537 11.542zm60.909-47.608l3.702-3.691m-48.831 48.808l6.054-6.051-6.054 6.051zm35.693-35.676l5.363-5.361-5.363 5.361zm-45.95-27.165l6.995-6.981m-31.21 31.196l2.641-2.641-2.641 2.641zm11.447-11.442l7.065-7.062-7.065 7.062zm22.355-9.062l16.82-16.813m-43.747 43.728l10.196-10.192-10.196 10.192zm41.265-27.955l5.054-5.051m-49.692 49.669l12.528-12.522-12.528 12.522zm54.134-40.828l11.368-11.362m-53.624 53.6l4.442-4.441-4.442 4.441zm49.191-35.876l4.393-4.391m-54.134 54.109l11.347-11.342-11.347 11.342zm54.264-40.957l12.148-12.132m-51.103 51.079l4.813-4.821-4.813 4.821zm39.756-26.455l6.484-6.481m-41.487 41.468l12.558-12.553-12.558 12.553zm30.26-23.604l16.33-16.323m-43.337 43.327l5.433-5.441-5.433 5.441zm9.796-9.791l10.897-10.902-10.897 10.902zm31.6-24.945l6.624-6.631m-32.941 32.926l19.812-19.794-19.812 19.794zm29.879-26.535l2.692-2.691m-31.23 31.216l6.995-6.991-6.995 6.991zm12.678-12.682l7.085-7.071-7.085 7.071zm2.231 1.1l6.494-6.501m-20.072 20.073l6.344-6.351-6.344 6.351zm15.81-12.482l5.913-5.911m-20.393 20.374l5.704-5.691-5.704 5.691zm16.711-13.373l5.334-5.331m-16.821 16.823l1.161-1.17-1.161 1.17z" stroke="#F6FFFF" stroke-width="1.765" stroke-miterlimit="10"/><path d="M251.117 267.321l-.09-.66-.06-.38c-.02-.13-.04-.26-.06-.38-.04-.22-.08-.44-.12-.65l-.03-.12c-.01-.05-.02-.11-.03-.17-.11-.541-.23-1.071-.37-1.601-.05-.2-.1-.39-.15-.58m0 0l8.485-5.701-2.832-6.291-9.896 2.561m0 0a36.869 36.869 0 00-1.391-1.981.55.55 0 01-.07-.09c-.14-.18-.27-.35-.41-.52l-.24-.3c-.09-.1-.17-.2-.25-.3-.141-.17-.291-.34-.431-.51a.572.572 0 01-.07-.08c-.54-.61-1.09-1.2-1.671-1.77m0 0l4.503-9.172-5.603-4.031-7.285 7.162m0-.001a31.58 31.58 0 00-2.202-1.02c-.03-.01-.07-.03-.1-.04-.21-.09-.41-.17-.61-.25-.12-.05-.25-.09-.37-.14-.12-.05-.24-.09-.361-.14-.21-.07-.41-.15-.62-.22l-.11-.03c-.77-.27-1.541-.5-2.321-.7m-.001 0l-.69-10.192-6.874-.7-2.722 9.842m0 0c-.811.05-1.611.12-2.412.22-.04.01-.08.01-.12.02-.17.02-.35.04-.53.07-.04 0-.08.01-.12.02l-.391.06c-.12.02-.25.04-.38.06l-.65.12c-.03.01-.06.01-.09.02h-.02c-.801.16-1.581.35-2.362.56" stroke="#F6FFFF" stroke-width="3.49" stroke-miterlimit="10" stroke-linecap="round" stroke-linejoin="round"/><path d="M208.991 239.316l-5.694-8.481-6.304 2.83 2.572 9.892m0 0l-.511.33a40.32 40.32 0 00-1.48 1.06c0 .01-.01.01-.01.02-.03.01-.051.03-.081.05-.17.14-.35.27-.52.41l-.3.24c-.1.08-.2.17-.3.25-.03.03-.07.05-.1.08-.13.12-.27.23-.401.35-.03.02-.06.05-.09.07-.61.54-1.2 1.09-1.761 1.66m0 .001l-9.175-4.491-4.043 5.591 7.164 7.291m0 0c-.36.71-.7 1.45-1.011 2.191-.02.04-.03.08-.05.11-.08.21-.17.41-.25.61-.04.12-.09.25-.14.37-.04.12-.09.24-.13.36-.08.21-.15.41-.22.62-.02.04-.03.07-.04.11-.26.77-.49 1.54-.7 2.32m0 0l-10.197.69-.69 6.872 9.846 2.72" stroke="#F6FFFF" stroke-width="3.49" stroke-miterlimit="10" stroke-linecap="round" stroke-linejoin="round"/><path d="M184.375 273.442c.04.8.11 1.61.22 2.41 0 .04.01.08.01.12l.09.651.06.39c.03.12.05.25.07.38.04.21.08.43.12.65.01.03.01.07.02.11.16.8.341 1.58.561 2.36m-.001 0l-8.485 5.691 2.832 6.301 9.886-2.57m0 0c.441.68.911 1.34 1.401 1.98.02.04.04.07.07.1.13.17.27.34.4.52.081.1.171.2.251.3l.24.3c.15.17.29.331.43.501.03.03.05.06.08.09.53.61 1.091 1.2 1.661 1.76m0 0l-4.502 9.172 5.603 4.04 7.285-7.171m0 0c.721.37 1.451.71 2.202 1.02.03.02.07.03.1.05.21.08.41.16.62.25.12.04.24.09.36.13.12.05.241.1.361.14.21.08.42.15.62.22.04.01.08.03.12.04.761.26 1.541.49 2.312.7m-.001 0l.7 10.192 6.864.69 2.732-9.841m0 0a33.19 33.19 0 002.412-.22c.04 0 .07-.01.11-.01.18-.03.35-.05.53-.07.04-.01.08-.02.131-.02.13-.02.25-.05.38-.07.13-.02.26-.04.38-.06.22-.04.44-.08.65-.12.03 0 .06-.01.09-.02h.03c.791-.16 1.582-.34 2.352-.561" stroke="#F6FFFF" stroke-width="3.49" stroke-miterlimit="10" stroke-linecap="round" stroke-linejoin="round"/><path d="M226.731 303.967l5.704 8.482 6.294-2.831-2.562-9.881" stroke="#F6FFFF" stroke-width="3.49" stroke-miterlimit="10" stroke-linecap="round" stroke-linejoin="round"/><path d="M236.167 299.737a38.097 38.097 0 001.982-1.401c.01 0 .01-.01.02-.01.02-.02.04-.04.07-.06.17-.13.35-.27.52-.41.1-.07.2-.16.3-.24.1-.08.2-.16.301-.25.04-.02.07-.05.1-.08.14-.11.27-.23.4-.34.03-.03.06-.05.09-.08.61-.53 1.201-1.09 1.771-1.66m0 0l9.176 4.501 4.033-5.601-7.165-7.282m0 0c.36-.72.701-1.45 1.021-2.2.01-.04.03-.07.04-.11.09-.2.17-.4.25-.61.01-.01.01-.02.02-.04 0-.01 0-.02.01-.03.04-.1.07-.19.11-.29.04-.12.09-.24.14-.36.07-.21.14-.42.22-.63.01-.03.02-.07.03-.11.27-.761.501-1.541.701-2.321m0 0l10.196-.69.701-6.861-9.857-2.731m0 0c-.04-.8-.11-1.6-.21-2.41-.01-.04-.01-.08-.02-.11m-21.523 29.055c-.18.08-.35.16-.52.23-.16.08-.321.15-.481.22-.05.02-.09.03-.13.05a27.66 27.66 0 01-12.678 2.061c-.05-.01-.09-.01-.14-.01l-.57-.061c-.17-.02-.35-.03-.521-.05a.583.583 0 00-.13-.019 27.668 27.668 0 01-12.017-4.561c-.03-.02-.07-.05-.11-.07l-.461-.34c-.14-.1-.29-.2-.43-.31a2.78 2.78 0 01-.11-.08 27.615 27.615 0 01-8.175-10.072c-.08-.17-.16-.35-.24-.53-.07-.15-.14-.31-.21-.47-.02-.04-.03-.08-.05-.12a27.657 27.657 0 01-2.062-12.683c.01-.04.01-.08.01-.13l.06-.57c.02-.18.03-.35.05-.53.01-.04.01-.08.02-.12a27.678 27.678 0 014.563-12.022l.07-.1c.1-.15.21-.29.31-.43.111-.16.221-.31.341-.47a.7.7 0 01.08-.1 27.538 27.538 0 019.956-8.122c.04-.02.08-.04.12-.05.16-.08.32-.15.49-.23.171-.07.341-.15.511-.23.04-.01.08-.03.12-.05a27.695 27.695 0 0112.688-2.05c.04 0 .09 0 .13.01.18.01.36.03.54.05l.561.06c.04 0 .08.01.13.02 4.302.55 8.425 2.11 12.007 4.551.04.03.08.05.11.08.151.1.291.21.441.31l.45.33c.04.03.07.06.11.08a27.606 27.606 0 018.125 9.952c.02.04.04.08.05.12.08.16.15.32.22.48.08.17.161.35.241.53.01.04.03.08.05.12a27.617 27.617 0 012.051 12.672c0 .05-.01.09-.01.14-.01.18-.03.35-.05.52l-.06.57c-.01.04-.01.09-.02.14a27.54 27.54 0 01-4.553 11.992c-.03.04-.05.08-.08.12-.11.15-.22.311-.34.471l-.301.42a.7.7 0 00-.08.1 27.61 27.61 0 01-9.956 8.121l-.12.06v0z" stroke="#F6FFFF" stroke-width="3.49" stroke-miterlimit="10" stroke-linecap="round" stroke-linejoin="round"/><path d="M70.853 284.284c.03-.18.05-.35.07-.52l.03-.26.03-.51v-.52c0-.651-.07-1.291-.2-1.931l3.172-2.92-2.332-4.131-4.132 1.21-.45-.39c-.14-.11-.28-.21-.41-.32-.07-.05-.14-.1-.221-.15-.14-.1-.28-.19-.43-.28-.01-.01-.03-.02-.04-.03-.01-.01-.02-.01-.03-.02-.06-.03-.12-.07-.17-.1-.06-.03-.11-.07-.17-.1-.01 0-.02-.01-.04-.02-.01-.01-.03-.01-.04-.02-.23-.13-.46-.25-.691-.35-.34-.16-.68-.3-1.04-.42l-.941-4.201-4.743-.05-1.02 4.191a10.05 10.05 0 00-1.742.73c-.02.01-.03.02-.05.02-.01.01-.02.02-.03.02-.06.03-.11.06-.17.1-.01 0-.02.01-.03.01-.05.03-.09.06-.14.09-.01 0-.02.01-.03.01-.09.06-.18.11-.27.17-.07.04-.14.09-.22.14-.37.25-.741.53-1.091.83l-4.103-1.29-2.422 4.091 3.123 2.97c-.06.27-.11.55-.15.82l-.03.29c-.02.16-.04.33-.05.5v.02c0 .1-.01.201-.01.301v.24c-.01.06-.01.13 0 .19v.04c0 .64.07 1.29.2 1.93l-3.173 2.91L49 291.715l4.133-1.21c.34.31.7.59 1.07.85.15.1.29.2.44.29.01.01.03.02.04.03.01 0 .02.01.03.02.06.03.12.06.17.1.06.03.11.06.17.1.01 0 .02.01.03.01.02.01.03.02.05.03.221.12.461.24.691.35.34.16.68.3 1.04.42l.931 4.201 4.754.04 1.02-4.181a10.058 10.058 0 001.741-.73c.01-.01.03-.02.05-.03.01 0 .02-.01.03-.01a.95.95 0 01.17-.1c.01-.01.02-.01.03-.01.04-.03.09-.06.14-.09.01 0 .02-.01.03-.02.56-.33 1.081-.71 1.582-1.14l4.102 1.29 2.422-4.08-3.122-2.981c.04-.19.08-.39.11-.58zm-7.395 4.171c-.01 0-.01.01-.02.01-.93.5-1.971.76-3.022.78h-.33a6.738 6.738 0 01-3.012-.84c-.01 0-.02-.01-.03-.01-.04-.03-.08-.05-.12-.07-.03-.03-.07-.05-.11-.07l-.02-.02a6.655 6.655 0 01-2.191-2.221c0-.01-.01-.02-.01-.03a.746.746 0 01-.07-.12 1.09 1.09 0 00-.06-.11c-.01-.01-.02-.02-.02-.03a6.777 6.777 0 01-.781-3.02v-.3c0-.01 0-.02.01-.03.03-1.051.32-2.091.83-3.011.01 0 .01-.01.02-.02.02-.04.04-.08.07-.12.02-.04.04-.08.06-.11.01-.01.01-.02.02-.03a6.64 6.64 0 012.232-2.18l.02-.02c.04-.02.08-.04.11-.06.04-.03.08-.05.13-.07l.02-.02a6.632 6.632 0 013.022-.771h.33c1.06.04 2.092.32 3.012.841.01 0 .02.01.03.01.03.02.07.05.11.07.04.02.08.04.12.07.01 0 .01.01.02.01.89.56 1.641 1.33 2.192 2.23 0 .01.01.02.01.03.02.03.05.07.07.11l.06.12c.01.01.01.02.02.03.49.93.76 1.96.78 3.021v.16c0 .04 0 .09-.01.14v.03a6.585 6.585 0 01-.83 3c-.01.01-.01.02-.02.03-.02.04-.04.07-.06.11a.74.74 0 00-.07.12c-.01.01-.02.02-.02.03a6.652 6.652 0 01-2.232 2.181c0 .01-.01.01-.02.02-.04.02-.09.04-.13.07-.03.02-.07.04-.11.06z" fill="#F6FFFF"/><path d="M21.882 363.168c4.042-38.867 36.913-69.162 76.868-69.162 39.956 0 72.827 30.295 76.869 69.162" stroke="#F6FFFF" stroke-width="1.765" stroke-miterlimit="10"/><path d="M-106.68 146.81c11.257-19.524 32.35-32.656 56.516-32.656 36.013 0 65.201 29.175 65.201 65.171m0 0c0 35.997-29.188 65.172-65.201 65.172-24.165 0-45.259-13.142-56.516-32.666l121.717-32.506zm-66.482 183.843c4.203-79.274 69.834-142.255 150.195-142.255 80.361 0 145.993 62.981 150.195 142.255" stroke="#F6FFFF" stroke-width=".882" stroke-miterlimit="10"/><path d="M-106.68 173.374c2.982-28.535 27.187-50.859 56.516-50.859 31.34 0 56.836 25.485 56.836 56.81 0 31.326-25.496 56.8-56.836 56.8m0 0c-29.329 0-53.534-22.314-56.516-50.859l56.516 50.859z" stroke="#F6FFFF" stroke-width="6.98" stroke-miterlimit="10"/><path d="M205.588 363.168v-75.794h89.497v75.794" stroke="#F6FFFF" stroke-width="2.607" stroke-miterlimit="10"/><path d="M-106.68 205.64H80.889v157.528" stroke="#F6FFFF" stroke-width="1.765" stroke-miterlimit="10"/><path d="M-106.68 56.714H29.616v306.454" stroke="#F6FFFF" stroke-width="1.765" stroke-miterlimit="10"/><path d="M203.647 301.927v61.241h1.941v-61.241h-1.941z" fill="#F6FFFF"/></g><path d="M183.781 374c-34.972-20.892-52.408-80.682-43.602-121.266 11.072-51.02 50.688-87.454 66.481-137.244 11.372-35.862 9.851-75.58-4.237-110.487-1.689-4.187-3.559-8.321-5.235-12.516h-477.581V374h464.174z" fill="url(#paint0_linear)"/><g filter="url(#filter0_d)"><path d="M165.346 360.829c-24.708-30.67-35.75-72.557-27.467-111.209 10.415-48.59 47.195-87.572 62.051-134.991 10.697-34.155 9.266-71.98-3.986-105.226-1.589-3.987-3.347-7.925-4.924-11.92h-453.502V360.83h427.828z" fill="#fff"/></g><mask id="a" maskUnits="userSpaceOnUse" x="-263" y="-3" width="471" height="364"><path d="M165.346 360.829c-24.708-30.67-35.75-72.557-27.467-111.209 10.415-48.59 47.195-87.572 62.051-134.991 10.697-34.155 9.266-71.98-3.986-105.226-1.589-3.987-3.347-7.925-4.924-11.92h-453.502V360.83h427.828z" fill="#fff"/></mask><g mask="url(#a)"><path d="M63.867 223.693c-.01-.12-.02-.25-.04-.37l-.03-.22-.03-.21c-.02-.13-.04-.25-.07-.37 0-.02 0-.05-.01-.07 0-.03-.01-.06-.01-.1-.06-.3-.13-.61-.2-.91-.02-.11-.05-.22-.08-.33m0 0l4.853-3.141-1.551-3.581-5.614 1.351" stroke="#F2F2F2" stroke-width="1.765" stroke-miterlimit="10"/><path d="M61.086 215.742c-.24-.38-.5-.761-.77-1.131a.176.176 0 01-.04-.05c-.08-.1-.15-.2-.23-.3-.04-.06-.09-.11-.13-.17-.05-.06-.09-.12-.14-.17-.08-.1-.16-.2-.24-.29-.01-.02-.02-.04-.04-.05-.29-.35-.601-.69-.921-1.02m-.001 0l2.632-5.141-3.132-2.34-4.193 3.99" stroke="#F2F2F2" stroke-width="1.765" stroke-miterlimit="10"/><path d="M53.882 209.07c-.4-.21-.811-.41-1.231-.6-.02 0-.04-.01-.06-.02-.12-.05-.23-.1-.35-.15-.06-.03-.13-.05-.2-.08s-.13-.05-.2-.08c-.12-.04-.24-.09-.351-.13a.145.145 0 00-.07-.02c-.43-.16-.86-.3-1.3-.42m-.001 0l-.3-5.771-3.883-.46-1.63 5.551m-.001 0c-.45.02-.91.05-1.36.1-.03 0-.05 0-.07.01l-.301.03c-.02.01-.05.01-.07.01l-.22.03c-.07.01-.14.02-.21.04-.13.02-.25.04-.37.06-.02 0-.04 0-.05.01h-.02c-.451.08-.891.18-1.342.29" stroke="#F2F2F2" stroke-width="1.765" stroke-miterlimit="10"/><path d="M40.293 207.47l-3.142-4.851-3.583 1.551 1.351 5.611m0 0c-.09.06-.19.12-.28.19-.26.16-.52.34-.77.52-.02.02-.05.04-.08.06 0 .01-.01.01-.01.01-.01.01-.03.02-.04.03-.101.08-.201.15-.301.23-.06.04-.11.09-.17.13-.06.05-.12.09-.17.14-.02.02-.04.03-.06.05-.08.06-.15.12-.23.19-.02.01-.04.03-.05.04-.35.3-.691.6-1.011.92m0 0l-5.153-2.62-2.342 3.13 3.993 4.181m0 0c-.21.4-.41.81-.6 1.23 0 .02-.01.04-.02.07-.05.11-.1.22-.15.34-.03.07-.05.13-.08.2s-.05.14-.08.2c-.04.12-.09.24-.13.36-.01.02-.02.04-.02.06-.16.43-.3.86-.42 1.3m-.001.001l-5.773.3-.46 3.88 5.553 1.631m0 0c.02.45.05.91.1 1.37 0 .02 0 .04.01.06.01.12.03.25.04.37l.03.22c.01.07.02.14.04.22l.06.36c0 .02.01.05.01.07.08.45.18.9.29 1.34m0 0l-4.853 3.141 1.55 3.59 5.614-1.36m.001 0c.25.38.5.76.77 1.13.02.02.03.04.04.05.08.1.15.2.23.3.04.06.09.12.13.17.05.06.09.12.14.181.08.09.16.19.24.28.01.02.03.04.04.05.301.35.601.69.921 1.02m0 0l-2.622 5.141 3.132 2.34 4.183-3.991m0 0c.4.211.81.411 1.23.601.02.01.04.01.06.02.12.05.23.1.35.15.07.03.13.05.2.08s.14.05.211.08c.11.05.23.09.34.13.03.01.05.02.07.02.43.16.86.3 1.301.42m0 0l.3 5.771 3.883.46 1.631-5.551m0 0c.45-.01.91-.05 1.371-.1.02 0 .04 0 .06-.01l.3-.03c.02 0 .05-.01.07-.01l.22-.03.22-.03c.12-.02.24-.04.361-.07.02 0 .04 0 .06-.01h.01c.45-.08.9-.18 1.34-.29m0 0l3.143 4.85 3.592-1.55-1.361-5.611m0 0c.38-.24.76-.5 1.13-.77 0-.01.01-.01.01-.01.01-.01.03-.02.04-.03.1-.07.2-.15.301-.23.06-.04.11-.09.17-.13.06-.05.12-.09.18-.14.01-.01.03-.03.05-.04.08-.07.16-.13.23-.19.02-.02.04-.03.05-.05.35-.3.69-.6 1.021-.92m0 0l5.143 2.62 2.342-3.12-3.993-4.191m0 0c.21-.4.41-.81.6-1.23.01-.02.01-.04.02-.06.05-.12.1-.23.15-.35 0 0 .01-.01.01-.02 0 0 0-.01.01-.02.02-.05.04-.11.06-.16.03-.07.06-.14.08-.2.05-.12.09-.24.13-.35.01-.02.02-.04.02-.07.16-.43.3-.861.42-1.301m.001 0l5.774-.3.46-3.88-5.553-1.631m0 0c-.01-.45-.05-.91-.1-1.36 0-.03 0-.05-.01-.07M51.43 239.936c-.1.04-.2.09-.3.13l-.27.12c-.02 0-.05.01-.07.02a15.654 15.654 0 01-7.195 1.05c-.02 0-.05 0-.07-.01l-.33-.03c-.1-.02-.19-.03-.29-.04-.03 0-.05-.01-.08-.01a15.503 15.503 0 01-6.745-2.69c-.03-.01-.05-.03-.07-.04-.09-.06-.17-.13-.26-.191l-.24-.18c-.02-.02-.04-.03-.06-.05a15.651 15.651 0 01-4.503-5.701c-.01-.02-.02-.05-.03-.07-.04-.1-.09-.2-.13-.3a3.06 3.06 0 01-.11-.27c-.01-.02-.02-.05-.03-.07a15.63 15.63 0 01-1.051-7.191c0-.02.01-.05.01-.07.01-.11.02-.22.04-.33l.03-.29c0-.03.01-.05.01-.07.35-2.43 1.28-4.751 2.692-6.761.01-.02.03-.04.04-.06l.18-.24c.06-.08.13-.17.2-.26.01-.02.03-.04.04-.06a15.739 15.739 0 015.704-4.501c.03-.01.05-.02.07-.03.09-.04.19-.08.28-.12.1-.04.2-.08.29-.12.03-.01.05-.02.07-.03a15.654 15.654 0 017.195-1.05c.03 0 .05.01.08.01l.3.03c.11.02.21.03.32.04.02 0 .04.01.07.01a15.67 15.67 0 016.755 2.69c.02.01.04.03.06.04l.24.18c.09.07.17.13.26.19a15.743 15.743 0 014.563 5.751c.01.03.02.05.03.07l.12.27c.04.1.08.2.13.3.01.03.01.05.02.07a15.635 15.635 0 011.05 7.192c0 .03 0 .05-.01.08l-.03.29c-.01.11-.02.22-.04.32 0 .03-.01.06-.01.08a15.525 15.525 0 01-2.691 6.751c-.01.02-.03.04-.04.06-.06.09-.13.17-.2.26-.06.08-.11.16-.17.24-.02.02-.03.04-.05.06a15.666 15.666 0 01-5.704 4.501c-.02.01-.05.02-.07.03v0z" stroke="#F2F2F2" stroke-width="1.765" stroke-miterlimit="10"/><path d="M90.454 277.242c.04.181.09.361.13.541.03.1.06.21.09.32.02.1.05.21.08.31l.15.54.03.09c.02.05.03.1.04.14.19.61.4 1.21.62 1.79m.001 0l-6.654 5.481 2.902 5.051 8.095-2.961m0 0c.42.531.87 1.041 1.33 1.551.02.02.05.04.07.07.131.13.251.27.381.4l.23.23.23.23c.14.14.27.26.41.39.02.02.04.05.07.07.491.47 1.011.91 1.542 1.34m0 0l-3.022 8.072 5.033 2.93 5.523-6.611m0 0c.371.14.751.28 1.131.41.26.09.53.18.801.26l.1.03c.18.05.35.1.53.16.11.03.21.05.32.08l.31.09c.181.04.361.09.541.13.04.01.07.02.1.02.66.16 1.331.29 2.001.4m0 0l1.431 8.502 5.824.02 1.471-8.492m0 0c.67-.11 1.341-.23 2.011-.39.03 0 .06-.01.09-.02.15-.03.3-.07.441-.1l.11-.03c.1-.03.21-.05.31-.08l.32-.09c.18-.05.36-.1.53-.15.03-.01.05-.02.08-.02.01 0 .01-.01.02-.01.651-.2 1.301-.42 1.932-.66m0 0l5.483 6.651 5.053-2.89-2.962-8.102m0 0a23.78 23.78 0 001.541-1.33c.01 0 .01-.01.02-.01l.06-.06c.13-.12.271-.25.401-.38l.23-.23c.08-.08.16-.15.23-.23.03-.03.06-.05.08-.08.11-.11.21-.21.31-.32.02-.03.04-.05.07-.07.471-.5.911-1.02 1.341-1.541m0 .001l8.075 3.02 2.932-5.041-6.625-5.521m.001 0c.25-.63.48-1.28.68-1.93l.03-.09.15-.54c.03-.1.06-.21.091-.31.02-.09.05-.17.07-.26 0-.01 0-.02.01-.03 0-.01 0-.02.01-.03.04-.18.09-.36.13-.54.01-.03.01-.06.02-.09a28.7 28.7 0 00.4-2.011m0 0l8.505-1.42.01-5.821-8.495-1.48" stroke="#F2F2F2" stroke-width="3.49" stroke-miterlimit="10" stroke-linecap="round" stroke-linejoin="round"/><path d="M145.99 266.591c-.1-.671-.23-1.341-.381-2.011 0-.03-.01-.06-.02-.09-.04-.18-.08-.36-.13-.54-.03-.11-.06-.22-.08-.32l-.09-.32-.15-.53-.03-.09c-.2-.66-.42-1.3-.66-1.94m0 0l6.654-5.481-2.902-5.051-8.095 2.97m0 0c-.42-.53-.87-1.05-1.331-1.55-.02-.02-.04-.05-.07-.07-.12-.14-.25-.27-.38-.41-.08-.07-.15-.15-.23-.23-.08-.07-.15-.15-.23-.23-.13-.13-.27-.26-.4-.38-.03-.03-.05-.05-.081-.07-.49-.47-1.01-.921-1.53-1.351m-.001 0l3.012-8.071-5.033-2.931-5.523 6.622m0 0a31.73 31.73 0 00-1.931-.68c-.03 0-.06-.01-.09-.02-.181-.06-.361-.11-.541-.16l-.31-.09c-.11-.03-.21-.05-.32-.08-.18-.05-.36-.09-.541-.14-.03 0-.06-.01-.1-.02-.66-.16-1.33-.291-2.001-.391m0 .001l-1.421-8.502-5.824-.02-1.481 8.492m0 0c-.67.1-1.34.23-2.011.38-.03.01-.06.02-.09.02-.15.04-.29.07-.44.11-.03 0-.07.01-.1.02-.11.03-.22.06-.32.09-.11.02-.211.05-.321.08-.18.05-.35.1-.53.16-.03 0-.05.01-.08.02h-.02c-.65.2-1.301.42-1.931.66m-.001 0l-5.483-6.652-5.053 2.901 2.972 8.091m0 0c-.53.42-1.051.871-1.551 1.331l-.02.02-.05.05c-.14.13-.27.25-.41.39-.08.07-.15.15-.23.22-.08.08-.151.16-.231.24-.03.02-.05.05-.08.07-.1.11-.2.22-.31.32a.5.5 0 01-.07.08c-.46.5-.91 1.01-1.341 1.54m0 0l-8.075-3.02-2.932 5.031 6.624 5.521" stroke="#F2F2F2" stroke-width="3.49" stroke-miterlimit="10" stroke-linecap="round" stroke-linejoin="round"/><path d="M91.665 260.579c-.25.641-.47 1.281-.68 1.931-.01.03-.01.06-.02.1-.06.17-.11.35-.16.53l-.09.32c-.03.1-.06.21-.08.31-.05.18-.09.36-.14.54 0 .03-.01.07-.02.1-.01.05-.02.1-.04.15-.14.61-.261 1.23-.351 1.851m0 0l-8.505 1.43-.02 5.821 8.495 1.47" stroke="#F2F2F2" stroke-width="3.49" stroke-miterlimit="10" stroke-linecap="round" stroke-linejoin="round"/><path d="M90.054 275.132c.1.67.23 1.34.38 2.011.01.03.01.06.02.1m28.068 16.702c-.03 0-.07.01-.11.01h-.45c-.161 0-.321 0-.481-.01h-.11c-3.382-.1-6.714-.95-9.746-2.46m0 0l6.364-10.932m0 0c1.231.52 2.582.8 4.003.81 1.421 0 2.772-.28 4.002-.78m.001 0l6.294 10.962m0 0a23.326 23.326 0 01-9.767 2.4m-.48-30.655c4.183.02 7.565 3.421 7.555 7.601-.01 4.171-3.422 7.552-7.595 7.542-4.183-.01-7.565-3.421-7.555-7.592.02-4.17 3.422-7.561 7.595-7.551v0zm5.183 16.693c.01-.01.03-.02.04-.03-.01.01-.03.02-.04.03zm15.05 1.99c-.02.03-.03.06-.05.1-.07.12-.15.25-.22.38-.09.14-.171.28-.251.42l-.06.09a23.137 23.137 0 01-7.004 7.202m0 0l-6.284-10.962m0 0a10.538 10.538 0 004.022-6.921m.001 0l12.648.04m0 0a23.186 23.186 0 01-2.802 9.651m-9.776-10.331v-.081.081zm2.311-20.004a23.242 23.242 0 017.025 7.341l.24.42c.07.13.15.26.22.39.02.03.03.06.05.1a23.22 23.22 0 012.742 9.662m0 0l-12.649-.04m.001 0a10.5 10.5 0 00-3.983-6.941m0 0l6.354-10.932m-2.301 18.593c-.01-.03-.01-.06-.01-.08 0 .02 0 .05.01.08zm-5.224-8.451a.076.076 0 000 0zm-15.52-11.602a23.23 23.23 0 019.756-2.401h1.151a23.3 23.3 0 019.746 2.471m.001 0l-6.364 10.922m-.001 0c-1.23-.51-2.581-.8-4.002-.8-1.411-.01-2.772.27-4.003.78m0 0l-6.284-10.972m5.053 11.572a.077.077 0 000 0zm-15.048-1.991c.02-.03.04-.07.05-.1.08-.14.17-.28.25-.43.07-.12.14-.25.22-.37.02-.03.04-.07.06-.1a23.366 23.366 0 017.004-7.201m0 0l6.294 10.972m0 0a10.463 10.463 0 00-4.033 6.911m0 0l-12.648-.04m0 0a23.339 23.339 0 012.802-9.642m14.998 20.193c-.019-.01-.029-.019-.048-.029.019.01.029.019.048.029zm-5.222-9.791c0-.03 0-.05.01-.08-.01.03-.01.05-.01.08zm-9.796 11.782c-.02-.04-.03-.07-.05-.1a23.24 23.24 0 01-2.742-9.662m0 0l12.648.04m0 .001v-.01a10.522 10.522 0 003.983 6.951m0 0l-6.354 10.922m0 0a23.136 23.136 0 01-6.965-7.242c-.02-.03-.04-.07-.06-.1-.07-.12-.14-.25-.22-.38l-.24-.42m9.796-10.441v0zm32.121 75.853l9.506-10.872-6.164-7.561-12.568 7.111m0 0c-.85-.76-1.731-1.5-2.631-2.2a1.28 1.28 0 00-.13-.091c-.241-.19-.491-.38-.751-.57-.14-.11-.29-.21-.43-.32-.15-.11-.3-.22-.45-.32-.261-.18-.511-.36-.771-.53-.04-.03-.09-.06-.14-.09a48.653 48.653 0 00-2.912-1.81m-.001 0l2.792-14.163-9.116-3.46-7.335 12.432" stroke="#F2F2F2" stroke-width="3.49" stroke-miterlimit="10" stroke-linecap="round" stroke-linejoin="round"/><path d="M108.566 324.911a54.095 54.095 0 00-3.372-.59c-.05 0-.11-.01-.16-.02-.311-.04-.621-.08-.931-.11l-.54-.06c-.18-.02-.371-.04-.551-.05-.31-.03-.62-.05-.92-.08-.06 0-.12-.01-.17-.01a43.743 43.743 0 00-3.422-.1m0 0l-4.673-13.663-9.626 1.551-.13 14.432m-.001 0c-1.08.36-2.151.75-3.222 1.18l-.15.06c-.23.1-.46.19-.69.29-.05.03-.11.05-.16.08-.17.07-.34.15-.51.221-.16.08-.33.15-.501.23-.28.13-.56.26-.84.4-.04.02-.08.03-.12.05-.01.01-.02.01-.03.02-1.021.5-2.032 1.04-3.012 1.62" stroke="#F2F2F2" stroke-width="3.49" stroke-miterlimit="10" stroke-linecap="round" stroke-linejoin="round"/><path d="M74.835 330.362l-10.877-9.502-7.565 6.161 7.115 12.562" stroke="#F2F2F2" stroke-width="3.49" stroke-miterlimit="10" stroke-linecap="round" stroke-linejoin="round"/><path d="M-17.134 262.68l25.196-25.194m-114.743 114.7l8.966-8.962-8.966 8.962zm98.412-83.865l24.766-24.764m-118.135 118.08l9.576-9.571-9.576 9.571zM-.714 275.262l9.516-9.511m-97.471 97.417l3.542-3.531-3.542 3.531zM5.6 283.444l9.686-9.682m-4.713 19.213l21.174-21.164m-17.832 32.326l27.308-27.305M15.016 317.54l12.668-12.663m-16 30.486l22.134-22.124m-6.344 20.834l17.711-17.694m-46.82 46.789l27.248-27.225-27.247 27.225zm-2.701-91.537l14.009-14.002M-95.914 363.168l7.165-7.162-7.165 7.162zM8.272 288.034l13.688-13.682m13.45 15.543l8.064-8.062m-28.668 28.655l11.708-11.692-11.708 11.692zM-12.53 265.33l24.815-24.804M-104.75 357.497l9.696-9.692-9.696 9.692zM2.598 279.193l9.576-9.562m-93.589 93.537l.22-.21-.22.21zm93.879-64.832l26.507-26.505m-24.765 53.76l14.149-14.142M3.869 350.425L39.5 314.809m-4.24 18.743l14.468-14.472M5.62 363.168l15.45-15.443-15.45 15.443zm37.424-30.146l5.864-5.871m-36.033 36.017l11.007-11.002-11.007 11.002z" stroke="#F2F2F2" stroke-width="2.607" stroke-miterlimit="10"/><path d="M27.864 306.208c-.06-.47-.12-.95-.2-1.421-.04-.28-.08-.56-.13-.84-.05-.28-.09-.56-.14-.83-.08-.48-.17-.95-.26-1.42-.02-.08-.03-.16-.05-.25-.02-.12-.04-.25-.07-.38a80.82 80.82 0 00-.8-3.501c-.11-.42-.22-.84-.341-1.26m0 0l18.512-12.432-6.174-13.733-21.593 5.591m-.001 0a71.425 71.425 0 00-3.042-4.32c-.05-.07-.1-.14-.16-.211-.29-.38-.58-.76-.88-1.13-.18-.22-.35-.44-.53-.66-.18-.22-.36-.44-.541-.65a49.5 49.5 0 00-.94-1.1l-.16-.19a73.686 73.686 0 00-3.633-3.851m0 0l9.827-20.023-12.228-8.802-15.9 15.633m37.663 83.745l22.255-1.511 1.52-14.982-21.493-5.951m0 0a71.797 71.797 0 00-.47-5.261c-.01-.09-.03-.17-.04-.26m-108.78 56.96a60.207 60.207 0 01-17.67-21.664c-.04-.09-.08-.17-.12-.26-.18-.39-.351-.77-.521-1.16-.16-.34-.32-.69-.47-1.031-.03-.09-.07-.18-.11-.27a60.089 60.089 0 01-4.483-27.674c0-.09.01-.18.02-.271.03-.42.08-.85.12-1.27l.12-1.14c.01-.09.02-.18.04-.27a60.21 60.21 0 019.956-26.225c.05-.07.1-.15.16-.23.22-.31.44-.62.67-.93.24-.34.481-.68.741-1.02.05-.08.11-.15.17-.23a60.098 60.098 0 0121.734-17.713c.08-.05.17-.09.25-.13.36-.16.72-.32 1.07-.48.381-.17.751-.34 1.132-.5.09-.04.17-.08.26-.11a60.314 60.314 0 0127.687-4.491c.09.01.19.02.28.02l1.181.12c.41.04.81.08 1.211.13l.29.03a60.308 60.308 0 0126.217 9.952c.08.06.16.11.24.16.32.23.63.46.95.69.33.24.671.47 1.001.72.07.06.15.12.23.17a60.24 60.24 0 0117.722 21.724c.04.09.09.17.13.26.16.34.31.69.47 1.04.17.38.35.77.51 1.15.04.09.08.18.11.27a60.158 60.158 0 014.493 27.655l-.03.31c-.03.38-.07.76-.11 1.14-.04.41-.08.821-.13 1.231l-.03.3a60.334 60.334 0 01-9.956 26.194c-.05.08-.11.16-.16.24-.24.35-.5.69-.74 1.031-.221.31-.441.61-.671.92-.06.07-.11.15-.17.23A59.994 59.994 0 01-8.53 363.168" stroke="#F2F2F2" stroke-width="6.98" stroke-miterlimit="10"/><path d="M-89.76 335.903c6.234 13.852 18.081 23.434 31.65 27.265m26.827 0a49.044 49.044 0 006.824-2.481C.427 349.505 11.524 320.28.337 295.416" stroke="#F2F2F2" stroke-width="6.98" stroke-miterlimit="10"/><path d="M-13.112 315.609c-6.504 2.921-14.139.02-17.07-6.481-2.922-6.501-.02-14.142 6.484-17.063 6.504-2.93 14.149-.03 17.07 6.471 2.932 6.512.03 14.143-6.484 17.073z" stroke="#F2F2F2" stroke-width="6.98" stroke-miterlimit="10"/><path d="M197.132 234.205l1.101-1.1m-16.761 16.763l5.324-5.321-5.324 5.321zm6.284 7.001l19.763-19.744m-32.921 32.906l6.574-6.581-6.574 6.581zm38.654-25.354l12.608-12.612m-41.486 41.467l6.494-6.491-6.494 6.491zm41.396-28.085l4.823-4.821m-51.092 51.069l12.148-12.142-12.148 12.142zm19.002-52.209l6.344-6.341m-20.083 20.073l6.484-6.491-6.484 6.491zm32.43-19.123l5.384-5.391m-43.338 43.317l16.471-16.462-16.471 16.462zm22.525-22.503l11.006-11.002-11.006 11.002zm18.431-5.141l6.094-6.091m-48.851 48.828l3.582-3.58-3.582 3.58zm7.785-7.781l5.363-5.361-5.363 5.361zm45.269-31.966l11.547-11.542m-54.785 54.76l6.314-6.311-6.314 6.311zm47.3-40.637l11.348-11.342m-54.125 54.109l4.383-4.391-4.383 4.391zm46.24-39.587l4.363-4.35m-49.402 49.378l6.365-6.361-6.365 6.361zm47.941-41.267l4.433-4.441m-53.624 53.609l11.367-11.372-11.367 11.372zm51.462-44.807l9.706-9.692m-50.071 50.049l4.643-4.651-4.643 4.651zm41.896-35.236l12.518-12.513m-49.701 49.679l5.043-5.041-5.043 5.041zm-9.717-66.692l5.684-5.691m-20.393 20.384l5.914-5.901-5.914 5.901zm35.352-22.044l1.091-1.09m-42.917 42.897l8.105-8.091-8.105 8.091zm9.015-9.011l23.195-23.184-23.195 23.184zm31.301-17.993l9.115-9.122m-41.386 41.377l5.814-5.811-5.814 5.811zm43.537-30.235l4.653-4.651m-50.102 50.079l9.747-9.742-9.747 9.742zm53.585-40.277l6.424-6.411m-49.462 49.439l4.363-4.361-4.363 4.361zm48.821-35.507l6.264-6.271m-54.744 54.73l11.537-11.542-11.537 11.542zm5.523-65.332l6.995-6.981m-31.21 31.195l2.641-2.64-2.641 2.64zm11.447-11.442l7.065-7.061-7.065 7.061zm22.354-9.061l16.821-16.813m-43.748 43.728l10.197-10.192-10.197 10.192zm41.266-27.955l5.053-5.051m-49.691 49.669l12.528-12.523-12.528 12.523zm54.134-40.828l11.367-11.362m-53.624 53.6l4.443-4.441-4.443 4.441zm49.192-35.877l4.393-4.39m-54.135 54.109l11.348-11.342-11.348 11.342zm54.265-40.957l12.147-12.132m-51.102 51.079l4.813-4.821-4.813 4.821z" stroke="#F2F2F2" stroke-width="1.765" stroke-miterlimit="10"/><path d="M208.989 239.316l-5.693-8.482-6.304 2.831 2.571 9.892" stroke="#F2F2F2" stroke-width="3.49" stroke-miterlimit="10" stroke-linecap="round" stroke-linejoin="round"/><path d="M199.563 243.556l-.51.331a39.324 39.324 0 00-1.481 1.06c0 .01-.01.01-.01.02-.03.01-.05.03-.08.05-.171.14-.351.27-.521.41l-.3.24c-.1.08-.2.17-.3.25-.03.03-.07.05-.1.08-.13.12-.27.23-.401.35-.03.02-.06.05-.09.07-.61.54-1.2 1.09-1.761 1.66m0 0l-9.175-4.49-4.043 5.591 7.165 7.291m0 0a32.95 32.95 0 00-1.011 2.19c-.02.04-.03.08-.05.11-.08.21-.17.41-.25.61-.04.12-.09.25-.14.371-.04.12-.09.24-.13.36-.08.21-.15.41-.22.62-.02.04-.03.07-.04.11-.261.77-.491 1.54-.701 2.32m0 0l-10.196.69-.691 6.871 9.847 2.721m0 0c.04.8.11 1.61.22 2.41 0 .04.01.08.01.12l.09.65.06.39c.03.12.05.25.07.38.04.21.08.431.12.651.01.03.01.07.02.11.16.8.34 1.58.56 2.36" stroke="#F2F2F2" stroke-width="3.49" stroke-miterlimit="10" stroke-linecap="round" stroke-linejoin="round"/><path d="M185.524 280.513l-8.485 5.691 2.831 6.301 9.887-2.57" stroke="#F2F2F2" stroke-width="3.49" stroke-miterlimit="10" stroke-linecap="round" stroke-linejoin="round"/><path d="M189.756 289.935c.441.68.911 1.34 1.401 1.98.02.04.04.07.07.1.13.17.27.34.401.52.08.1.17.2.25.3l.24.3c.15.17.29.33.43.5.03.03.05.06.08.09.531.61 1.091 1.201 1.661 1.761m.001 0l-4.503 9.171 5.604 4.041 7.284-7.171m0 0c.721.37 1.451.71 2.202 1.02.03.02.07.03.1.05.21.08.41.16.62.25.12.04.24.09.36.13.12.05.241.1.361.14.21.08.42.15.62.22.04.01.08.03.12.04.761.26 1.541.49 2.312.7m20.222-7.701c-.18.08-.35.16-.52.23-.16.08-.32.15-.481.22-.05.02-.09.03-.13.05a27.66 27.66 0 01-12.678 2.06c-.05-.01-.09-.01-.14-.01l-.57-.06c-.17-.02-.35-.03-.52-.05a.603.603 0 00-.131-.02 27.643 27.643 0 01-12.017-4.561c-.03-.02-.07-.05-.11-.07-.15-.11-.31-.23-.461-.34-.14-.1-.29-.2-.43-.31a2.78 2.78 0 01-.11-.08 27.603 27.603 0 01-8.115-9.951l-.06-.12c-.08-.17-.16-.351-.24-.531-.07-.15-.14-.31-.21-.47-.02-.04-.03-.08-.05-.12a27.664 27.664 0 01-2.062-12.682c.01-.04.01-.08.01-.13l.06-.57c.02-.18.03-.35.05-.53.01-.04.01-.08.02-.12a27.673 27.673 0 014.563-12.022l.07-.1c.1-.15.21-.29.311-.43.11-.16.22-.31.34-.47a.7.7 0 01.08-.1 27.527 27.527 0 019.956-8.122c.04-.02.08-.04.12-.05.16-.08.32-.15.49-.23.171-.07.341-.15.511-.23.04-.01.08-.03.12-.05a27.695 27.695 0 0112.688-2.05c.04 0 .09 0 .13.01.18.01.36.03.54.05l.561.06c.04 0 .08.01.13.02 4.303.55 8.425 2.11 12.007 4.551.04.03.08.05.11.08.151.1.291.21.441.31l.45.33c.04.03.07.06.11.08a27.611 27.611 0 018.125 9.951c.02.04.04.08.05.12.08.16.15.32.22.48.08.171.161.351.241.531.01.04.03.08.05.12 1.671 4 2.371 8.351 2.051 12.672 0 .05-.01.09-.01.14-.01.18-.03.35-.05.52l-.06.57c-.01.04-.01.09-.02.14a27.527 27.527 0 01-4.553 11.992c-.03.04-.05.08-.08.12-.11.15-.22.31-.34.47l-.301.42a.7.7 0 00-.08.1 27.613 27.613 0 01-9.956 8.122l-.12.06v0z" stroke="#F2F2F2" stroke-width="3.49" stroke-miterlimit="10" stroke-linecap="round" stroke-linejoin="round"/><path d="M70.852 284.284c.03-.18.05-.35.07-.52l.03-.26.03-.51v-.521c0-.65-.07-1.29-.2-1.93l3.172-2.92-2.332-4.131-4.132 1.21-.45-.39c-.14-.11-.28-.21-.41-.32-.07-.05-.14-.1-.221-.15-.14-.1-.28-.19-.43-.28-.01-.01-.03-.02-.04-.03-.01-.01-.02-.01-.03-.02-.06-.03-.12-.07-.17-.1-.06-.03-.11-.07-.17-.1-.01 0-.02-.01-.04-.02-.01-.01-.03-.01-.04-.02-.23-.13-.46-.25-.691-.35-.34-.16-.68-.3-1.04-.42l-.941-4.201-4.743-.05-1.02 4.191a10.067 10.067 0 00-1.742.73c-.02.01-.03.02-.05.02-.01.01-.02.02-.03.02-.06.03-.11.06-.17.1-.01 0-.02.01-.03.01-.05.03-.09.06-.14.09-.01 0-.02.01-.03.01-.09.06-.18.11-.27.17-.07.04-.14.09-.22.14-.37.25-.741.53-1.091.83l-4.103-1.29-2.421 4.091 3.122 2.97c-.06.27-.11.55-.15.82l-.03.29c-.02.16-.04.33-.05.5v.02c0 .1-.01.2-.01.3v.24c-.01.06-.01.13 0 .19v.04c0 .641.07 1.291.2 1.931l-3.172 2.91 2.331 4.141 4.133-1.21c.34.31.7.59 1.07.85.15.1.29.2.44.29.01.01.03.02.04.03.01 0 .02.01.03.02.06.03.12.06.17.1.06.03.11.06.17.1.01 0 .02.01.03.01.02.01.03.02.05.03.221.12.461.24.691.35.34.16.68.3 1.041.42l.93 4.201 4.754.04 1.02-4.181a10.058 10.058 0 001.741-.73c.01-.01.03-.02.05-.03.01 0 .02-.01.03-.01a.95.95 0 01.17-.1c.01-.01.02-.01.03-.01.04-.03.09-.06.14-.09.01 0 .02-.01.03-.02.561-.33 1.081-.71 1.582-1.14l4.102 1.29 2.422-4.081-3.122-2.98c.04-.19.08-.39.11-.58zm-7.395 4.17c-.01 0-.01.01-.02.01a6.643 6.643 0 01-3.022.781h-.33a6.726 6.726 0 01-3.012-.841c-.01 0-.02-.01-.03-.01-.04-.03-.08-.05-.12-.07a.412.412 0 00-.11-.07l-.02-.02a6.644 6.644 0 01-2.191-2.22c0-.01-.01-.02-.01-.03a.746.746 0 01-.07-.12c-.02-.04-.04-.08-.06-.11-.01-.01-.02-.02-.02-.03a6.778 6.778 0 01-.781-3.021v-.3c0-.01 0-.02.01-.03.03-1.05.32-2.09.83-3.01.01 0 .01-.01.02-.02.02-.04.04-.08.07-.12.02-.04.04-.08.06-.11.01-.01.01-.02.02-.03a6.652 6.652 0 012.232-2.181l.02-.02c.04-.02.08-.04.11-.06.04-.03.08-.05.13-.07l.02-.02c.93-.49 1.971-.76 3.022-.77h.33a6.61 6.61 0 013.012.84c.01 0 .02.01.03.01.03.02.07.05.11.07.04.02.08.04.12.07.01 0 .01.01.02.01a6.878 6.878 0 012.192 2.231c0 .01.01.02.01.03.02.03.05.07.07.11l.06.12c.01.01.01.02.02.03.49.93.76 1.96.78 3.02v.16c0 .04 0 .09-.01.14v.03a6.584 6.584 0 01-.83 3.001c-.01.01-.01.02-.02.03-.02.04-.04.07-.06.11-.03.04-.05.08-.07.12-.01.01-.02.02-.02.03a6.64 6.64 0 01-2.232 2.18c0 .01-.01.01-.02.02-.04.02-.09.04-.13.07-.03.02-.07.04-.11.06z" fill="#F2F2F2"/><path d="M21.881 363.168c4.043-38.867 36.913-69.162 76.869-69.162 39.955 0 72.826 30.295 76.869 69.162" stroke="#F2F2F2" stroke-width="1.765" stroke-miterlimit="10"/><path d="M-106.681 146.81c11.257-19.524 32.35-32.656 56.516-32.656 36.013 0 65.201 29.175 65.201 65.171m0 0c0 35.997-29.188 65.172-65.2 65.172-24.166 0-45.26-13.143-56.517-32.666l121.717-32.506zm-66.482 183.843c4.203-79.274 69.834-142.255 150.195-142.255 80.361 0 145.993 62.981 150.195 142.255" stroke="#F2F2F2" stroke-width=".882" stroke-miterlimit="10"/><path d="M-106.681 185.266c2.982 28.545 27.188 50.859 56.516 50.859 31.34 0 56.836-25.474 56.836-56.8 0-31.325-25.496-56.81-56.836-56.81-29.328 0-53.534 22.324-56.516 50.859" stroke="#F2F2F2" stroke-width="6.98" stroke-miterlimit="10"/><path d="M205.587 363.168v-75.794h89.497v75.794" stroke="#F2F2F2" stroke-width="2.607" stroke-miterlimit="10"/><path d="M-106.681 205.64h187.57v157.528" stroke="#F2F2F2" stroke-width="1.765" stroke-miterlimit="10"/><path d="M-106.681 56.714H29.616v306.454" stroke="#F2F2F2" stroke-width="1.765" stroke-miterlimit="10"/><path d="M203.646 301.927v61.241h1.941v-61.241h-1.941z" fill="#F2F2F2"/></g><defs><linearGradient id="paint0_linear" x1="184.008" y1="418.056" x2="-112.863" y2="279.019" gradientUnits="userSpaceOnUse"><stop stop-color="#E52D2D"/><stop offset=".251" stop-color="#E11F28"/><stop offset=".49" stop-color="#333867"/><stop offset=".812" stop-color="#46A8DE"/><stop offset="1" stop-color="#46A8DE"/></linearGradient><filter id="filter0_d" x="-264.482" y="-10.517" width="485.514" height="379.345" filterUnits="userSpaceOnUse" color-interpolation-filters="sRGB"><feFlood flood-opacity="0" result="BackgroundImageFix"/><feColorMatrix in="SourceAlpha" values="0 0 0 0 0 0 0 0 0 0 0 0 0 0 0 0 0 0 127 0"/><feOffset dx="6"/><feGaussianBlur stdDeviation="4"/><feColorMatrix values="0 0 0 0 0 0 0 0 0 0 0 0 0 0 0 0 0 0 0.25 0"/><feBlend in2="BackgroundImageFix" result="effect1_dropShadow"/><feBlend in="SourceGraphic" in2="effect1_dropShadow" result="shape"/></filter></defs></svg>