<svg width="633" height="272" fill="none" xmlns="http://www.w3.org/2000/svg"><path d="M159.469 199.203h-22.641V239H81.984v-39.797H0v-40.781L85.5 33.406h51.328V157.72h22.641v41.484zm-77.485-41.484v-23.907c0-4.5.141-10.546.422-18.14.375-7.688.656-11.719.844-12.094h-1.547c-3.187 7.219-6.797 13.969-10.828 20.25l-22.781 33.891h33.89zm550.563 41.484h-22.641V239h-54.844v-39.797h-81.984v-40.781l85.5-125.016h51.328V157.72h22.641v41.484zm-77.485-41.484v-23.907c0-4.5.141-10.546.422-18.14.375-7.688.657-11.719.844-12.094h-1.547c-3.187 7.219-6.797 13.969-10.828 20.25l-22.781 33.891h33.89z" fill="#F0F0F0"/><path fill-rule="evenodd" clip-rule="evenodd" d="M452.078 113.526v44.948l-36.873 7.26a102.247 102.247 0 01-8.022 19.307l20.574 30.864-31.773 31.774-30.865-20.576a102.386 102.386 0 01-19.307 8.024L338.552 272h-44.948l-7.26-36.873a102.25 102.25 0 01-19.307-8.023l-30.864 20.575-31.774-31.774 20.576-30.864a102.386 102.386 0 01-8.024-19.307l-36.873-7.26v-44.948l36.873-7.26a102.41 102.41 0 018.023-19.307l-20.575-30.864 31.774-31.774 30.864 20.576a102.36 102.36 0 0119.307-8.024L293.604 0h44.948l7.26 36.873a102.354 102.354 0 0119.307 8.023l30.864-20.575 31.774 31.774-20.576 30.864a102.343 102.343 0 018.024 19.307l36.873 7.26zm-136 82.406c33.1 0 59.932-26.832 59.932-59.932 0-33.099-26.832-59.932-59.932-59.932-33.099 0-59.932 26.833-59.932 59.932 0 33.1 26.833 59.932 59.932 59.932z" fill="#F0F0F0"/></svg>