<svg width="129" height="264" fill="none" xmlns="http://www.w3.org/2000/svg"><path d="M268 154.144v-44.288l-36.331-7.154a100.846 100.846 0 00-7.905-19.023l20.272-30.41-31.306-31.307-30.409 20.273a100.892 100.892 0 00-19.025-7.905L156.144-2h-44.287l-7.155 36.33a101.01 101.01 0 00-19.023 7.905L55.27 21.962 23.963 53.269l20.273 30.41a100.873 100.873 0 00-7.905 19.023L0 109.855v44.287l36.33 7.155a100.96 100.96 0 007.906 19.023l-20.273 30.41 31.307 31.307 30.41-20.274a100.897 100.897 0 0019.022 7.906L111.856 266h44.287l7.155-36.331a100.936 100.936 0 0019.023-7.906l30.409 20.273 31.307-31.306-20.273-30.41a100.793 100.793 0 007.905-19.024L268 154.144zm-134 65.717c-48.442 0-87.861-39.419-87.861-87.862 0-48.442 39.419-87.861 87.861-87.861 48.442 0 87.861 39.419 87.861 87.861 0 48.443-39.419 87.862-87.861 87.862z" fill="#414141"/></svg>