<svg width="20" height="15" fill="none" xmlns="http://www.w3.org/2000/svg"><path d="M19.887 4.997a.504.504 0 00-.388-.185h-1.906c-.47-1.24-1.084-2.456-1.78-2.915C13.403.312 7.01.312 4.6 1.897c-.697.46-1.307 1.677-1.78 2.915H.915a.5.5 0 00-.491.604l.282 1.368c.048.233.254.4.49.4h.566a3.386 3.386 0 00-.813 2.213c-.004.979.368 1.863 1.047 2.49.008.006.015.01.022.017v1.914c0 .415.337.752.753.752h1.758a.753.753 0 00.752-.752v-.77h9.85v.77c0 .415.338.752.753.752h1.758a.753.753 0 00.752-.752v-1.877c.722-.66 1.066-1.569 1.07-2.476a3.378 3.378 0 00-.85-2.283h.602a.5.5 0 00.491-.4l.283-1.367a.506.506 0 00-.102-.418zM5.427 3.153c1.921-1.264 7.638-1.264 9.558 0 .373.245.853 1.235 1.293 2.446H4.134c.44-1.211.92-2.2 1.292-2.446zm-2.25 6.432a1.48 1.48 0 112.96 0 1.48 1.48 0 01-2.96 0zm12.598 1.48a1.48 1.48 0 110-2.96 1.48 1.48 0 010 2.96z" fill="#E42A2C"/></svg>