<svg width="20" height="20" fill="none" xmlns="http://www.w3.org/2000/svg"><path d="M19.937 8.89c-.031-.281-.36-.493-.643-.493a2.22 2.22 0 01-2.07-1.37 2.228 2.228 0 01.559-2.473.556.556 0 00.06-.754 9.903 9.903 0 00-1.584-1.6.557.557 0 00-.76.062c-.596.66-1.666.905-2.494.56A2.221 2.221 0 0111.655.65a.555.555 0 00-.491-.584A9.98 9.98 0 008.914.06a.557.557 0 00-.495.572 2.225 2.225 0 01-1.37 2.134c-.817.333-1.88.09-2.475-.564a.557.557 0 00-.755-.064 9.94 9.94 0 00-1.617 1.6.556.556 0 00.06.76c.695.63.92 1.633.558 2.495-.345.822-1.198 1.352-2.175 1.352a.544.544 0 00-.578.49 10.024 10.024 0 00-.004 2.275c.031.282.369.492.655.492.871-.023 1.707.516 2.058 1.37.35.852.125 1.846-.56 2.473a.555.555 0 00-.06.753 9.93 9.93 0 001.582 1.6c.23.185.562.16.761-.06.598-.661 1.669-.906 2.493-.56a2.218 2.218 0 011.353 2.17.555.555 0 00.49.584 9.893 9.893 0 002.25.006.557.557 0 00.496-.572 2.223 2.223 0 011.368-2.133c.823-.336 1.882-.09 2.477.563a.559.559 0 00.754.063 9.95 9.95 0 001.618-1.599.555.555 0 00-.06-.76 2.215 2.215 0 01-.56-2.494 2.238 2.238 0 012.046-1.356l.123.003a.557.557 0 00.586-.49c.088-.752.09-1.517.004-2.274zM10 15.765a5.765 5.765 0 114.95-2.809l-2.525-2.524c.183-.431.28-.898.28-1.38a3.51 3.51 0 00-1.036-2.5A3.511 3.511 0 009.17 5.517c-.315 0-.628.042-.932.125a.4.4 0 00-.277.279.39.39 0 00.111.382l1.664 1.673c.043.043.043.147.037.185l-.004.027c-.042.459-.123 1.01-.19 1.22l-.026.026-.028.029c-.214.068-.773.15-1.239.192v-.002l-.02.005a.266.266 0 01-.211-.08c-.435-.435-1.632-1.623-1.632-1.623a.407.407 0 00-.291-.13.396.396 0 00-.373.301c-.33 1.22.02 2.532.912 3.424a3.512 3.512 0 002.5 1.036c.481 0 .949-.097 1.38-.28l2.551 2.552a5.736 5.736 0 01-3.102.907z" fill="#E42A2C"/></svg>