<svg width="13" height="11" fill="none" xmlns="http://www.w3.org/2000/svg"><path d="M.337 10.973a.498.498 0 01-.244-.174A.464.464 0 010 10.52c0-2.184.459-3.93 1.364-5.193C2.458 3.803 4.184 2.982 6.5 2.88V.478c0-.093.029-.185.083-.263a.495.495 0 01.22-.176.521.521 0 01.542.093l5.5 5.022A.48.48 0 0113 5.5a.46.46 0 01-.155.345l-5.5 5.022a.522.522 0 01-.542.094.496.496 0 01-.22-.177.463.463 0 01-.083-.263V8.137c-1.406.04-2.469.258-3.315.677-.914.451-1.577 1.127-2.29 2.002a.521.521 0 01-.557.158z" fill="#fff"/></svg>