<svg width="92" height="52" fill="none" xmlns="http://www.w3.org/2000/svg"><path fill-rule="evenodd" clip-rule="evenodd" d="M71.894 0h-2.04c-.28.023-.558.06-.837.066-.263.007-.412.09-.494.367-.425 1.46-.878 2.913-1.308 4.373-.072.247-.178.368-.447.444-.849.244-1.678.547-2.525.803a.604.604 0 01-.464-.073c-1.352-.988-2.69-1.993-4.111-3.051-6.383.243-13.17.354-19.556.515-8.895.224-17.789.448-26.683.675-4.264.108-8.528.222-12.79.334-.157.005-.313.015-.469.122h57.29c-.273.206-.55.405-.822.614a.254.254 0 00-.062.098c-5.455.174-11.095.278-16.463.414-8.895.224-17.789.448-26.683.674-4.264.109-8.528.223-12.79.335-.157.003-.313.014-.469.122h56.854l.306.83c-5.69.189-11.602.296-17.218.437-8.895.226-17.789.448-26.683.675-4.264.108-8.528.222-12.79.334-.157.004-.313.014-.469.122h57.737c.09.244.178.488.268.73-5.944.207-12.168.318-18.063.467-8.895.224-17.789.448-26.683.674-4.264.11-8.528.222-12.79.335-.157.005-.313.013-.469.123h60.172l1.05.756c-6.444.192-15.59.296-21.28.44-8.895.223-17.789.447-26.683.674-4.264.108-8.528.222-12.79.335-.157.003-.313.013-.469.121l63.413.01a10.065 10.065 0 017.238-3.053c5.586-.003 10.052 4.403 10.059 9.925 0 1.552-.36 3.003-.982 4.297l5.539 3.793a.777.777 0 01.232-.03c1.555.056 3.111.09 4.668.144.256.01.396-.05.483-.314.378-1.124.778-2.238 1.175-3.37-.803-.53-1.538-1.014-2.273-1.502-.677-.45-1.36-.895-2.026-1.363a.535.535 0 01-.196-.381c-.015-.798.013-1.594-.005-2.39-.007-.308.07-.5.346-.677 1.3-.835 2.58-1.7 3.871-2.545.16-.104.223-.184.16-.381-.369-1.126-.72-2.26-1.08-3.398-1.665.048-3.247.07-4.823.152-.477.025-.741-.093-1.006-.497-.46-.707-1.019-1.352-1.52-2.033-.073-.097-.113-.274-.075-.383a244.417 244.417 0 011.577-4.29c.115-.304.104-.506-.184-.699-.906-.608-1.802-1.232-2.7-1.855-.192-.136-.33-.118-.523.028-1.264.955-2.542 1.89-3.806 2.846-.175.132-.316.124-.507.063a103.39 103.39 0 00-2.66-.823c-.201-.06-.305-.138-.367-.35-.437-1.47-.899-2.932-1.335-4.401-.076-.247-.174-.372-.45-.35-.171.013-.347-.036-.52-.058z" fill="#fff"/><path d="M26.067 23.677l-.77 3.518h-7.474l.748-3.518h-1.12l-3.552 14.257h1.121l1.122-4.166h7.848l-2.01 5.786c-.39 1.513-1.223 2.269-2.498 2.269H7.174c-1.465 0-1.955-.927-1.471-2.778l4.413-16.664c.498-1.851 1.509-2.778 3.037-2.778h6.772c2.49-.03 4.095 0 4.811.093 1.107.403 1.659 1.104 1.659 2.106 0 .494-.11 1.12-.328 1.875zm27.722 0l-4.67 18.146h-7.662L46.2 23.677h-1.121l-4.65 18.146h-7.66l4.742-18.146h-1.027l-4.858 18.146h-7.614l5.885-22.22h22.374c1.23.464 1.846 1.197 1.846 2.199 0 .494-.11 1.12-.328 1.875zm19.035 0l-.957 3.24h-7.194l.654-3.24h-1.121l-1.028 4.443h8.314l-1.027 4.63h-8.408l-1.4 5.184h1.12l1.12-3.796h7.194l-1.353 5.416c-.39 1.513-1.224 2.269-2.5 2.269h-12.31c-1.464 0-1.954-.927-1.47-2.778l4.414-16.664c.497-1.851 1.51-2.778 3.036-2.778h6.772c2.492-.03 4.095 0 4.811.093 1.106.403 1.658 1.104 1.658 2.106 0 .494-.108 1.12-.326 1.875zM3.859 49.085H2.192l.18-.664h-.245l-.474 1.765h.24l.136-.501h1.672l-.398 1.461H.493a.42.42 0 01-.11-.02.471.471 0 01-.163-.07.493.493 0 01-.147-.136.39.39 0 01-.07-.215.4.4 0 01.012-.158c.01-.06.026-.122.048-.199l.61-2.262a.71.71 0 01.245-.388c.126-.102.31-.15.556-.15h2.194c.142 0 .25.01.321.036.072.028.12.06.147.098a.222.222 0 01.039.134c-.005.05-.005.103-.01.153l-.306 1.116zm2.856-2.342l-1.193 4.405h-1.83l1.192-4.405h1.831zm-.151 2.002h1.657l-.413 1.544h.278l.435-1.624c.005-.028-.005-.05-.034-.076a.29.29 0 00-.119-.048H6.615l.272-.994H9.72c.07 0 .13.017.19.049.06.038.11.08.153.129.038.055.07.108.092.167.022.06.033.12.033.168l-.702 2.602c-.005.016-.022.053-.044.108a.7.7 0 01-.304.313.688.688 0 01-.312.063H6.56a3.4 3.4 0 01-.249-.01.356.356 0 01-.169-.048.203.203 0 01-.094-.124.713.713 0 01-.021-.228l.538-1.991zm5.28.708H10.2L10.592 48c.08-.302.337-.453.778-.453h2.332c.082 0 .152.005.217.01.066.007.12.022.16.048a.21.21 0 01.074.127.487.487 0 01-.021.225l-.256.945h-1.624l.138-.49h-.263l-.283 1.04zm.305-.194h1.635l-.394 1.44c-.075.298-.331.447-.766.447h-2.418a.378.378 0 01-.18-.037.312.312 0 01-.12-.102.28.28 0 01-.055-.136.261.261 0 010-.135l.261-.948h1.64l-.137.496h.258l.276-1.025zm3.613.194h-1.645L14.51 48c.08-.302.336-.453.778-.453h2.331c.082 0 .152.005.218.01a.36.36 0 01.159.048.211.211 0 01.075.127.466.466 0 01-.022.225l-.256.945H16.17l.137-.49h-.263l-.282 1.04zm.304-.194h1.635l-.393 1.44c-.075.298-.331.447-.767.447h-2.418a.378.378 0 01-.18-.037.312.312 0 01-.12-.102.28.28 0 01-.054-.136.26.26 0 010-.135l.26-.948h1.64l-.137.496h.258l.276-1.025zm2.487-1.719h1.638l-.217.8h-1.639l.218-.8zm-.278 1.037h1.639l-.697 2.569h-1.64l.698-2.569zm5.345.508h-1.667l.181-.664h-.246l-.474 1.765h.24l.137-.501h1.672l-.399 1.461h-2.81a.4.4 0 01-.108-.02.478.478 0 01-.164-.07.487.487 0 01-.145-.136.378.378 0 01-.072-.215.4.4 0 01.011-.158c.01-.06.027-.122.049-.199l.609-2.262a.71.71 0 01.246-.388c.125-.102.31-.15.555-.15h2.194c.143 0 .251.01.323.036.07.028.12.06.146.098a.222.222 0 01.038.134c-.005.05-.005.103-.01.153l-.306 1.116zm2.609-1.545h4.76c.197 0 .339.029.43.089.088.058.11.166.066.333l-.86 3.184h-1.601l.74-2.735h-.305l-.74 2.735h-1.575l.742-2.735h-.312l-.74 2.735h-1.579l.974-3.605zm6.58 2.78h.294l.518-1.91h-.295l-.517 1.91zm1.85.428c-.07.264-.243.398-.51.398h-2.68c-.141 0-.245-.037-.305-.108-.06-.07-.07-.182-.034-.333L31.86 48c.082-.302.338-.453.775-.453h2.293c.147 0 .256.027.333.087.07.06.128.146.169.268l-.77 2.846zm4.932-3.164l-.278 1.031h-1.099l-.688 2.533h-1.638l.686-2.533h-.947l.276-1.031h.976l.229-.84h1.645l-.23.84h1.068zm1.222 2.736h.294l.518-1.91h-.295l-.517 1.91zm1.852.428c-.072.264-.245.398-.512.398h-2.68c-.141 0-.245-.037-.305-.108-.06-.07-.07-.182-.033-.333l.73-2.705c.081-.302.337-.453.774-.453h2.293c.147 0 .256.027.333.087.07.06.128.146.169.268l-.768 2.846zm2.67-2.353l-.747 2.753h-1.645l.855-3.165c.082-.296.338-.442.768-.442h2.522c.06 0 .11.011.148.033a.24.24 0 01.087.081c.016.038.033.075.038.113a.805.805 0 01.007.124l-.333 1.22h-1.623l.195-.717h-.272zm3.639 1.058h-1.643L47.722 48c.08-.302.337-.453.779-.453h2.33c.083 0 .153.005.218.01.066.007.12.022.16.048a.21.21 0 01.075.127.465.465 0 01-.022.225l-.256.945h-1.623l.137-.49h-.263l-.283 1.04zm.305-.194h1.635l-.392 1.44c-.077.298-.333.447-.768.447h-2.418a.379.379 0 01-.18-.037.312.312 0 01-.12-.102.28.28 0 01-.055-.136.261.261 0 010-.135l.261-.948h1.64l-.137.496h.258l.276-1.025zm7.081.68h-1.65l.413-1.53h-.288l-.44 1.62c-.007.027.005.054.036.076a.374.374 0 00.126.05h1.755l-.267.993H53.21a.34.34 0 01-.19-.055.494.494 0 01-.153-.13.654.654 0 01-.103-.162.388.388 0 01-.037-.16l.674-2.495a1.46 1.46 0 01.17-.292.893.893 0 01.19-.182.62.62 0 01.218-.093c.077-.017.164-.027.256-.027h2.13c.169 0 .294.027.386.077.092.048.138.16.143.328l-.534 1.982zm3.624 1.209h-1.657l.742-2.738h-.252l-.74 2.738h-1.644l.974-3.6h2.942c.14 0 .256.021.338.064.08.048.14.14.179.28l-.882 3.256zm2.076-.304h-1.029c-.284-.021-.446-.14-.485-.35l.691-2.547a.331.331 0 01.082-.146.595.595 0 01.148-.13.965.965 0 01.18-.092.476.476 0 01.184-.038h2.316a.957.957 0 01.283.13.443.443 0 01.136.183.635.635 0 01.038.227l-.016.27L63.602 52h-3l.21-.788h1.444l.72-2.661h-.295l-.62 2.293zm3.133-3.304h1.64l-.217.8h-1.64l.217-.8zm-.278 1.037h1.64l-.698 2.569H64.22l.696-2.569zm4.885 2.571h-1.656l.74-2.738h-.25l-.742 2.738H66.25l.974-3.6h2.942c.14 0 .254.021.336.064.082.048.143.14.181.28l-.882 3.256zm4.157-1.209h-1.65l.413-1.53h-.29l-.44 1.62c-.006.027.006.054.04.076a.351.351 0 00.123.05h1.755l-.267.993h-2.833a.33.33 0 01-.19-.055.477.477 0 01-.152-.13.571.571 0 01-.103-.162.367.367 0 01-.039-.16L71 48.145c.054-.12.109-.215.17-.292a.848.848 0 01.188-.182.62.62 0 01.218-.093 1.2 1.2 0 01.257-.027h2.129c.169 0 .294.027.387.077.093.048.137.16.142.328l-.534 1.982zm3.841 0h-1.65l.413-1.53h-.288l-.442 1.62c-.005.027.007.054.039.076a.374.374 0 00.125.05h1.754l-.268.993H74.65a.34.34 0 01-.19-.055.493.493 0 01-.153-.13.66.66 0 01-.104-.162.394.394 0 01-.038-.16l.676-2.495a1.46 1.46 0 01.169-.292.86.86 0 01.19-.182.609.609 0 01.218-.093c.075-.017.164-.027.256-.027h2.13c.17 0 .293.027.387.077.092.048.135.16.14.328l-.533 1.982zm2.462-1.544l-.746 2.753h-1.643l.855-3.165c.08-.296.337-.442.769-.442h2.52a.26.26 0 01.236.114c.015.038.031.075.036.113.005.043.005.086.005.124l-.33 1.22h-1.624l.196-.717h-.273zm2.514-.855h1.639l-.218.8h-1.638l.217-.8zm-.278 1.037h1.639l-.696 2.569h-1.64l.697-2.569zm4.884 2.571h-1.655l.74-2.738h-.252l-.74 2.738H83.83l.974-3.6h2.941c.143 0 .257.021.338.064.083.048.143.14.18.28l-.882 3.256zm2.076-.304h-1.029c-.283-.021-.447-.14-.485-.35l.691-2.547a.35.35 0 01.082-.146.594.594 0 01.147-.13.992.992 0 01.181-.092.484.484 0 01.186-.038h2.314a.936.936 0 01.283.13.444.444 0 01.136.183.637.637 0 01.038.227c-.005.082-.012.173-.017.27L90.998 52h-3l.212-.788h1.442l.72-2.661h-.295l-.62 2.293z" fill="#fff"/></svg>