<svg width="294" height="167" fill="none" xmlns="http://www.w3.org/2000/svg"><path fill-rule="evenodd" clip-rule="evenodd" d="M229.747 0h-6.519c-.893.075-1.78.192-2.674.213-.839.021-1.315.288-1.577 1.177-1.358 4.692-2.808 9.357-4.182 14.044-.23.794-.567 1.182-1.428 1.427-2.711.783-5.364 1.758-8.07 2.578-.438.133-1.117.032-1.481-.234-4.321-3.174-8.599-6.402-13.139-9.8-20.396.783-42.087 1.14-62.494 1.657-28.423.719-56.846 1.438-85.269 2.167-13.626.346-27.252.714-40.873 1.07-.502.017-1 .049-1.497.395h183.074c-.872.66-1.754 1.3-2.626 1.97-.08.064-.144.187-.198.314-17.433.56-35.455.895-52.611 1.332-28.423.719-56.846 1.438-85.269 2.162-13.626.352-27.252.72-40.873 1.076-.502.01-1 .048-1.497.394h181.683l.979 2.663c-18.182.607-37.076.953-55.023 1.406-28.423.724-56.846 1.438-85.269 2.168-13.626.346-27.252.713-40.873 1.07-.502.016-1 .048-1.497.394h184.507c.289.783.567 1.566.856 2.343-18.995.666-38.884 1.023-57.724 1.502-28.423.72-56.846 1.438-85.269 2.163-13.626.351-27.252.713-40.873 1.075-.502.016-1 .043-1.497.395h192.288l3.353 2.428c-20.589.618-49.819.953-68.002 1.412-28.423.718-56.846 1.437-85.269 2.167-13.626.346-27.252.714-40.873 1.076-.502.01-1 .042-1.497.389l202.646.032a32.088 32.088 0 0123.129-9.805c17.851-.01 32.124 14.14 32.145 31.875 0 4.985-1.149 9.645-3.139 13.799l17.701 12.18c.225-.064.46-.102.744-.096 4.968.18 9.941.293 14.914.463.819.032 1.268-.16 1.546-1.007 1.208-3.61 2.487-7.19 3.754-10.821-2.567-1.705-4.915-3.26-7.262-4.826-2.166-1.448-4.348-2.876-6.476-4.377-.343-.24-.621-.805-.626-1.225-.048-2.562.043-5.118-.016-7.675-.021-.99.225-1.608 1.107-2.173 4.15-2.684 8.241-5.464 12.369-8.175.508-.335.711-.59.508-1.225-1.176-3.616-2.299-7.253-3.449-10.912-5.321.154-10.375.224-15.412.49-1.524.08-2.369-.298-3.214-1.598-1.471-2.269-3.257-4.34-4.861-6.53-.23-.308-.359-.878-.236-1.23a789.882 789.882 0 015.038-13.777c.369-.975.332-1.625-.588-2.242a668.21 668.21 0 01-8.626-5.96c-.615-.437-1.059-.378-1.674.09-4.037 3.068-8.123 6.072-12.161 9.14-.561.426-1.01.4-1.62.202-2.824-.916-5.658-1.8-8.503-2.642-.642-.191-.973-.442-1.171-1.123-1.396-4.719-2.872-9.416-4.267-14.135-.241-.793-.557-1.193-1.439-1.124-.545.043-1.107-.117-1.658-.186z" fill="url(#paint0_linear)"/><path d="M83.3 76.041l-2.46 11.296H56.957l2.39-11.296h-3.582l-11.348 45.786H48l3.583-13.378h25.08l-6.422 18.581c-1.246 4.857-3.91 7.286-7.984 7.286H22.924c-4.679 0-6.246-2.977-4.7-8.921l14.102-53.519c1.593-5.943 4.823-8.92 9.706-8.92h21.642c7.957-.096 13.086 0 15.375.298 3.534 1.294 5.3 3.547 5.3 6.764 0 1.587-.349 3.595-1.049 6.023zm88.59 0l-14.925 58.275h-24.482l15.155-58.275h-3.583l-14.856 58.275h-24.481l15.155-58.275h-3.283l-15.525 58.275H76.733l18.808-71.36h71.499c3.93 1.491 5.898 3.845 5.898 7.062 0 1.587-.353 3.595-1.048 6.023zm60.831 0l-3.059 10.407h-22.99l2.091-10.407h-3.583l-3.284 14.268h26.568l-3.284 14.87h-26.867l-4.476 16.648h3.578l3.583-12.191h22.99l-4.327 17.394c-1.246 4.857-3.909 7.286-7.989 7.286H172.34c-4.68 0-6.247-2.977-4.701-8.921l14.107-53.519c1.588-5.943 4.824-8.92 9.701-8.92h21.642c7.963-.096 13.086 0 15.375.298 3.535 1.294 5.299 3.547 5.299 6.764 0 1.587-.347 3.595-1.042 6.023zM12.33 157.637H7.005l.578-2.13h-.786l-1.514 5.667h.765l.438-1.609h5.343l-1.273 4.692h-8.98c-.07 0-.192-.016-.353-.064a1.499 1.499 0 01-.518-.223 1.581 1.581 0 01-.471-.437c-.14-.192-.209-.415-.225-.692a1.289 1.289 0 01.038-.506c.032-.192.085-.394.155-.639l1.946-7.265c.123-.5.385-.916.787-1.246.4-.33.989-.485 1.775-.485h7.01c.455 0 .803.032 1.028.118.23.09.385.191.47.314a.713.713 0 01.123.431c-.016.16-.016.33-.032.49l-.978 3.584zm9.129-7.52l-3.813 14.146h-5.85l3.813-14.146h5.85zm-.481 6.429h5.294l-1.32 4.958h.887l1.39-5.214c.016-.091-.016-.16-.107-.245a.93.93 0 00-.38-.155h-5.604l.872-3.19h9.048c.225 0 .417.054.61.155.192.122.347.261.486.415.123.176.225.346.295.538.07.192.107.384.107.538l-2.246 8.356c-.016.053-.07.171-.14.346a2.249 2.249 0 01-.347.517c-.155.192-.37.346-.626.49-.262.133-.593.202-.994.202h-7.241c-.31 0-.572-.016-.797-.032a1.14 1.14 0 01-.54-.154.65.65 0 01-.3-.4 2.29 2.29 0 01-.07-.729l1.723-6.396zm16.872 2.274h-5.257l1.257-4.666c.256-.969 1.075-1.454 2.486-1.454h7.45c.262 0 .486.016.695.032.209.022.385.07.508.155a.67.67 0 01.24.405 1.57 1.57 0 01-.069.724l-.818 3.036h-5.187l.438-1.577h-.84l-.903 3.345zm.973-.623h5.225l-1.257 4.628c-.24.953-1.059 1.432-2.45 1.432h-7.727c-.23 0-.417-.032-.577-.117a1 1 0 01-.38-.33.904.904 0 01-.176-.437.84.84 0 010-.431l.834-3.047h5.24l-.438 1.593h.824l.882-3.291zm11.546.623h-5.257l1.257-4.666c.256-.969 1.075-1.454 2.486-1.454h7.45c.262 0 .486.016.695.032.209.022.385.07.508.155a.67.67 0 01.24.405c.038.186.022.431-.069.724l-.818 3.036h-5.187l.438-1.577h-.84l-.903 3.345zm.973-.623h5.225l-1.257 4.628c-.24.953-1.059 1.432-2.45 1.432h-7.727c-.23 0-.417-.032-.577-.117a1 1 0 01-.38-.33.905.905 0 01-.176-.437.842.842 0 010-.431l.834-3.047h5.24l-.438 1.593h.824l.882-3.291zm7.947-5.518h5.235l-.695 2.567h-5.236l.696-2.567zm-.888 3.329h5.235l-2.224 8.249H56.17l2.23-8.249zm17.081 1.629h-5.327l.578-2.13h-.786l-1.514 5.667h.765l.439-1.609h5.342l-1.273 4.692h-8.979c-.07 0-.192-.016-.347-.064a1.521 1.521 0 01-.524-.223 1.564 1.564 0 01-.466-.437c-.144-.192-.214-.415-.23-.692a1.287 1.287 0 01.038-.506 6.02 6.02 0 01.155-.639l1.947-7.265c.123-.5.385-.916.786-1.246.4-.33.989-.485 1.775-.485h7.011c.454 0 .802.032 1.032.118.225.09.38.191.465.314a.713.713 0 01.123.431c-.016.16-.016.33-.032.49l-.978 3.584zm8.337-4.958h15.214c.626 0 1.08.091 1.374.282.278.187.348.533.209 1.071l-2.749 10.225H92.75l2.37-8.782h-.98l-2.363 8.782h-5.032l2.369-8.782h-.995l-2.363 8.782h-5.049l3.113-11.578zm21.027 8.926h.941l1.653-6.135h-.942l-1.652 6.135zm5.915 1.374c-.225.847-.781 1.278-1.632 1.278h-8.567c-.449 0-.78-.117-.973-.346-.192-.224-.224-.586-.107-1.07l2.332-8.687c.262-.969 1.08-1.454 2.476-1.454h7.326c.471 0 .818.086 1.064.277.225.192.412.469.54.863l-2.459 9.139zm15.759-10.161l-.887 3.312h-3.514l-2.198 8.133h-5.235l2.192-8.133h-3.026l.882-3.312h3.118l.732-2.701h5.257l-.733 2.701h3.412zm3.904 8.787h.941l1.653-6.135h-.941l-1.653 6.135zm5.92 1.374c-.23.847-.786 1.278-1.636 1.278h-8.567c-.45 0-.781-.117-.974-.346-.192-.224-.224-.586-.107-1.07l2.332-8.687c.262-.969 1.08-1.454 2.476-1.454h7.326c.471 0 .818.086 1.064.277.225.192.412.469.541.863l-2.455 9.139zm8.53-7.557l-2.385 8.841h-5.257l2.732-10.162c.262-.953 1.081-1.422 2.455-1.422h8.059c.193 0 .348.037.471.107a.775.775 0 01.278.26c.053.123.107.24.123.363.021.138.021.277.021.399l-1.064 3.914h-5.187l.625-2.3h-.871zm11.631 3.398h-5.252l1.252-4.666c.256-.969 1.075-1.454 2.486-1.454h7.45c.262 0 .486.016.695.032.209.022.385.07.508.155.118.09.203.229.241.405.037.186.021.431-.07.724l-.818 3.036h-5.187l.438-1.577h-.839l-.904 3.345zm.973-.623h5.225l-1.252 4.628c-.245.953-1.064 1.432-2.454 1.432h-7.728c-.229 0-.417-.032-.577-.117a1.006 1.006 0 01-.38-.33.903.903 0 01-.176-.437.829.829 0 010-.431l.834-3.047h5.241l-.439 1.593h.824l.882-3.291zm22.632 2.183h-5.278l1.32-4.91h-.919l-1.407 5.203c-.021.085.016.17.118.24.107.074.246.122.401.159h5.61l-.856 3.191h-9.054c-.224 0-.417-.054-.609-.176a1.565 1.565 0 01-.487-.416 2.119 2.119 0 01-.332-.521 1.263 1.263 0 01-.117-.517l2.155-8.01c.176-.384.348-.692.54-.937.193-.24.385-.432.61-.586.208-.139.438-.245.695-.298.246-.054.524-.086.818-.086h6.808c.54 0 .941.086 1.235.245.294.155.439.517.455 1.055l-1.706 6.364zm11.578 3.883h-5.295l2.369-8.793h-.802l-2.364 8.793h-5.256l3.112-11.563h9.401c.45 0 .819.07 1.081.208.256.154.449.447.572.9l-2.818 10.455zm6.636-.975h-3.289c-.909-.069-1.428-.447-1.551-1.124l2.209-8.18c.037-.16.123-.314.262-.469.123-.16.283-.298.471-.421a3.12 3.12 0 01.577-.293 1.52 1.52 0 01.588-.122h7.402c.395.122.695.261.903.415.209.176.348.368.434.592.085.229.123.468.123.729-.017.261-.038.554-.054.868L203.249 167h-9.588l.674-2.53h4.615l2.299-8.548h-.941l-1.984 7.366zm10.011-10.609h5.241l-.695 2.567h-5.241l.695-2.567zm-.888 3.329h5.241l-2.23 8.249h-5.235l2.224-8.249zm15.61 8.255h-5.294l2.369-8.793h-.802l-2.369 8.793h-5.252l3.113-11.563h9.401c.449 0 .813.07 1.075.208.262.154.454.447.577.9l-2.818 10.455zm13.284-3.883h-5.273l1.321-4.91h-.925l-1.407 5.203c-.021.085.016.17.123.24.102.074.241.122.396.159h5.61l-.856 3.191h-9.053a1.06 1.06 0 01-.605-.176 1.507 1.507 0 01-.486-.416 1.84 1.84 0 01-.332-.521 1.188 1.188 0 01-.123-.517l2.16-8.01a4.44 4.44 0 01.541-.937c.187-.24.379-.432.604-.586.208-.139.438-.245.695-.298.246-.054.524-.086.824-.086h6.802c.54 0 .941.086 1.235.245.3.155.439.517.455 1.055l-1.706 6.364zm12.273 0h-5.273l1.321-4.91h-.92l-1.412 5.203c-.016.085.022.17.123.24.107.074.246.122.401.159h5.605l-.856 3.191h-9.048a1.09 1.09 0 01-.61-.176 1.573 1.573 0 01-.486-.416 2.119 2.119 0 01-.332-.521 1.263 1.263 0 01-.123-.517l2.161-8.01c.176-.384.347-.692.54-.937a2.71 2.71 0 01.609-.586c.209-.139.433-.245.695-.298a3.82 3.82 0 01.819-.086h6.807c.54 0 .936.086 1.236.245.294.155.433.517.449 1.055l-1.706 6.364zm7.872-4.958l-2.385 8.841h-5.252l2.733-10.162c.257-.953 1.075-1.422 2.455-1.422h8.053c.193 0 .348.037.471.107a.835.835 0 01.283.26c.048.123.102.24.118.363.016.138.016.277.016.399l-1.059 3.914h-5.187l.625-2.3h-.871zm8.032-2.743h5.235l-.695 2.567h-5.235l.695-2.567zm-.888 3.329h5.236l-2.225 8.249H261.4l2.23-8.249zm15.605 8.255h-5.289l2.364-8.793h-.802l-2.364 8.793h-5.257l3.112-11.563h9.402c.454 0 .818.07 1.08.208.262.154.454.447.572.9l-2.818 10.455zm6.636-.975h-3.288c-.904-.069-1.428-.447-1.551-1.124l2.208-8.18a1.14 1.14 0 01.262-.469c.123-.16.284-.298.471-.421.176-.117.369-.207.578-.293a1.54 1.54 0 01.593-.122h7.396c.401.122.695.261.904.415.208.176.347.368.433.592.085.229.123.468.123.729-.016.261-.038.554-.054.868L290.797 167h-9.589l.679-2.53h4.61l2.3-8.548h-.942l-1.984 7.366z" fill="#373738"/><defs><linearGradient id="paint0_linear" x1="244.202" y1="138.14" x2="61.13" y2="-45.633" gradientUnits="userSpaceOnUse"><stop stop-color="#E52D2D"/><stop offset=".251" stop-color="#E11F28"/><stop offset=".49" stop-color="#333867"/><stop offset=".812" stop-color="#46A8DE"/><stop offset="1" stop-color="#46A8DE"/></linearGradient></defs></svg>