<svg width="526" height="133" fill="none" xmlns="http://www.w3.org/2000/svg"><path d="M475.243 622.077c-58.032-34.669-86.965-133.883-72.351-201.228 18.372-84.661 84.109-145.119 110.316-227.74 18.872-59.51 16.347-125.416-7.031-183.34-2.802-6.948-5.905-13.81-8.686-20.769H-295v633.077h770.243z" fill="url(#paint0_linear)"/><g filter="url(#filter0_d)"><path d="M440.557 600.221c-41.001-50.894-59.325-120.401-45.579-184.539 17.282-80.629 78.314-145.315 102.965-224.003 17.752-56.675 15.377-119.443-6.613-174.61-2.636-6.616-5.555-13.15-8.171-19.779h-752.534v602.931h709.932z" fill="#fff"/></g><defs><linearGradient id="paint0_linear" x1="475.62" y1="695.182" x2="-17.004" y2="464.467" gradientUnits="userSpaceOnUse"><stop stop-color="#E52D2D"/><stop offset=".251" stop-color="#E11F28"/><stop offset=".49" stop-color="#333867"/><stop offset=".812" stop-color="#46A8DE"/><stop offset="1" stop-color="#46A8DE"/></linearGradient><filter id="filter0_d" x="-271.375" y="-10.71" width="795.106" height="618.93" filterUnits="userSpaceOnUse" color-interpolation-filters="sRGB"><feFlood flood-opacity="0" result="BackgroundImageFix"/><feColorMatrix in="SourceAlpha" values="0 0 0 0 0 0 0 0 0 0 0 0 0 0 0 0 0 0 127 0"/><feOffset dx="6"/><feGaussianBlur stdDeviation="4"/><feColorMatrix values="0 0 0 0 0 0 0 0 0 0 0 0 0 0 0 0 0 0 0.25 0"/><feBlend in2="BackgroundImageFix" result="effect1_dropShadow"/><feBlend in="SourceGraphic" in2="effect1_dropShadow" result="shape"/></filter></defs></svg>