<svg width="157" height="89" fill="none" xmlns="http://www.w3.org/2000/svg"><path fill-rule="evenodd" clip-rule="evenodd" d="M122.688 0h-3.481c-.477.04-.951.102-1.428.114-.448.01-.702.153-.842.627-.726 2.5-1.5 4.987-2.234 7.484-.122.423-.302.63-.762.761-1.448.417-2.864.937-4.309 1.374-.235.07-.597.017-.791-.125-2.308-1.692-4.592-3.412-7.017-5.223-10.892.418-22.475.608-33.372.883-15.179.383-30.357.766-45.535 1.155-7.277.185-14.553.38-21.827.57-.268.01-.534.026-.8.21h97.764c-.465.353-.936.693-1.402 1.051a.434.434 0 00-.105.167c-9.31.298-18.934.477-28.095.71-15.179.383-30.357.766-45.535 1.152-7.277.188-14.553.383-21.827.574-.268.005-.534.025-.8.21h97.022l.523 1.419c-9.71.323-19.8.508-29.383.75-15.179.385-30.357.766-45.535 1.154-7.277.185-14.553.38-21.827.57-.268.01-.534.026-.8.21h98.53c.154.418.303.835.457 1.25-10.144.354-20.764.545-30.825.8-15.179.383-30.357.766-45.535 1.152-7.277.188-14.553.38-21.827.574-.268.008-.534.023-.8.21h102.685l1.79 1.294c-10.994.33-26.604.508-36.313.752-15.179.383-30.357.767-45.535 1.155-7.277.185-14.553.38-21.827.574-.268.005-.534.022-.8.207l108.216.017a17.153 17.153 0 0112.352-5.225c9.532-.006 17.154 7.535 17.166 16.987 0 2.656-.614 5.14-1.677 7.354l9.453 6.49c.12-.033.245-.053.397-.05 2.653.096 5.309.156 7.964.247.437.017.677-.085.826-.537.645-1.924 1.328-3.831 2.004-5.767-1.37-.908-2.624-1.737-3.878-2.572-1.156-.772-2.321-1.532-3.458-2.333-.183-.127-.331-.428-.334-.652-.026-1.366.023-2.728-.009-4.09-.011-.528.12-.858.591-1.158 2.217-1.43 4.401-2.912 6.606-4.357.271-.179.38-.315.271-.653-.628-1.927-1.228-3.866-1.842-5.816-2.841.083-5.54.12-8.23.262-.814.042-1.265-.16-1.716-.852-.786-1.21-1.74-2.313-2.596-3.48-.123-.164-.192-.468-.126-.655a423.649 423.649 0 012.69-7.343c.197-.52.177-.866-.314-1.195a353.214 353.214 0 01-4.606-3.176c-.329-.233-.566-.201-.894.048-2.156 1.635-4.338 3.236-6.494 4.87-.3.228-.54.214-.865.109-1.508-.489-3.022-.96-4.541-1.408-.343-.102-.52-.236-.625-.599-.746-2.515-1.534-5.018-2.279-7.533-.129-.423-.297-.636-.769-.599-.291.023-.591-.062-.885-.099z" fill="url(#paint0_linear)"/><path d="M44.483 40.525l-1.313 6.02H30.416l1.276-6.02H29.78l-6.06 24.4h1.913l1.914-7.13H40.94L37.51 67.7c-.665 2.588-2.087 3.883-4.263 3.883H12.242c-2.499 0-3.336-1.587-2.51-4.755l7.53-28.522c.851-3.167 2.576-4.754 5.183-4.754h11.558c4.25-.05 6.988 0 8.21.16 1.888.689 2.83 1.89 2.83 3.604 0 .846-.186 1.916-.56 3.21zm47.309 0l-7.97 31.056H70.747l8.093-31.056h-1.913L68.993 71.58H55.921l8.093-31.056H62.26L53.97 71.58H40.976L51.02 33.55h38.181c2.1.795 3.15 2.05 3.15 3.764 0 .846-.188 1.916-.56 3.21zm32.484 0l-1.634 5.546h-12.276l1.116-5.546h-1.913l-1.754 7.604h14.188l-1.754 7.924h-14.347l-2.39 8.873h1.91l1.914-6.497h12.276l-2.31 9.27c-.665 2.588-2.087 3.883-4.266 3.883H92.032c-2.5 0-3.336-1.587-2.51-4.755l7.533-28.522c.848-3.167 2.576-4.754 5.18-4.754h11.557c4.253-.05 6.988 0 8.211.16 1.887.689 2.83 1.89 2.83 3.604 0 .846-.186 1.916-.557 3.21zM6.585 84.01H3.74l.309-1.135h-.42l-.808 3.02h.408l.234-.857h2.853l-.68 2.5H.843a.714.714 0 01-.189-.034.805.805 0 01-.277-.119.842.842 0 01-.251-.233.67.67 0 01-.12-.369.686.686 0 01.02-.27 3.18 3.18 0 01.083-.34l1.04-3.871c.065-.267.205-.489.42-.665.213-.175.527-.258.947-.258H6.26c.243 0 .428.017.548.063a.535.535 0 01.252.167.38.38 0 01.065.23c-.008.085-.008.176-.017.261l-.522 1.91zm4.875-4.007L9.422 87.54H6.3l2.036-7.538h3.124zm-.258 3.425h2.828l-.706 2.643h.474l.743-2.779c.008-.048-.009-.085-.057-.13a.494.494 0 00-.203-.083h-2.993l.466-1.7h4.832c.12 0 .222.028.325.082.103.066.186.14.26.222.066.093.12.184.157.286a.879.879 0 01.057.287l-1.2 4.453c-.008.029-.036.091-.074.185-.045.09-.102.184-.185.275a1.127 1.127 0 01-.334.261 1.17 1.17 0 01-.532.108h-3.866c-.166 0-.306-.008-.426-.017a.608.608 0 01-.288-.082.347.347 0 01-.16-.213 1.224 1.224 0 01-.037-.389l.92-3.409zm9.01 1.212h-2.807l.671-2.486c.137-.517.574-.775 1.328-.775h3.978c.14 0 .26.009.371.017a.588.588 0 01.272.082.36.36 0 01.128.216.83.83 0 01-.037.386l-.437 1.618h-2.77l.234-.84h-.448l-.483 1.782zm.52-.332h2.79l-.671 2.467c-.128.508-.565.763-1.308.763h-4.127a.643.643 0 01-.308-.062.533.533 0 01-.203-.176.48.48 0 01-.094-.233.448.448 0 010-.23l.446-1.623h2.798l-.234.848h.44l.471-1.754zm6.166.332H24.09l.672-2.486c.137-.517.573-.775 1.328-.775h3.977c.14 0 .26.009.372.017a.588.588 0 01.271.082.36.36 0 01.129.216c.02.1.011.23-.037.386l-.438 1.618h-2.77l.235-.84h-.449l-.482 1.782zm.52-.332h2.79l-.672 2.467c-.128.508-.565.763-1.308.763h-4.126a.644.644 0 01-.309-.062.533.533 0 01-.202-.176.48.48 0 01-.095-.233.448.448 0 010-.23l.446-1.623h2.799l-.235.848h.44l.471-1.754zm4.243-2.94h2.796l-.371 1.368H31.29l.371-1.368zm-.474 1.774h2.796l-1.188 4.396h-2.799l1.19-4.396zm9.121.868h-2.844l.308-1.135h-.42l-.808 3.02h.409l.234-.857h2.853l-.68 2.5h-4.795a.68.68 0 01-.185-.034.818.818 0 01-.28-.119.833.833 0 01-.249-.233.649.649 0 01-.122-.369.685.685 0 01.02-.27c.017-.102.045-.21.082-.34l1.04-3.871a1.22 1.22 0 01.42-.665c.214-.175.528-.258.948-.258h3.744c.242 0 .428.017.55.063a.54.54 0 01.25.167.38.38 0 01.065.23c-.009.085-.009.176-.017.261l-.523 1.91zm4.452-2.642h8.125c.334 0 .577.048.734.15.148.1.185.284.111.57l-1.468 5.45H49.53l1.265-4.68h-.522l-1.262 4.68h-2.688l1.265-4.68h-.53l-1.263 4.68h-2.696l1.662-6.17zm11.23 4.757h.502l.882-3.27h-.502l-.883 3.27zm3.158.732c-.12.451-.417.681-.871.681h-4.575c-.24 0-.417-.062-.52-.184-.103-.12-.12-.313-.057-.57l1.245-4.63c.14-.517.577-.775 1.322-.775h3.913c.25 0 .437.046.568.148.12.102.22.25.288.46l-1.313 4.87zm8.416-5.415l-.475 1.765h-1.876l-1.173 4.334h-2.796l1.17-4.334h-1.616l.471-1.765h1.665l.392-1.44h2.807l-.391 1.44h1.822zm2.084 4.683h.503l.882-3.27h-.502l-.883 3.27zm3.162.732c-.123.451-.42.681-.874.681H67.36c-.24 0-.417-.062-.52-.184-.103-.12-.12-.313-.057-.57l1.245-4.63c.14-.517.577-.775 1.322-.775h3.913c.25 0 .437.046.568.148.12.102.22.25.288.46l-1.31 4.87zm4.555-4.027l-1.275 4.71h-2.807l1.459-5.415c.14-.508.577-.758 1.31-.758h4.304c.103 0 .186.02.252.057a.411.411 0 01.148.139.736.736 0 01.066.193c.011.074.011.147.011.213l-.568 2.086h-2.77l.334-1.226h-.465zm6.211 1.81H80.77l.669-2.486c.137-.517.574-.775 1.328-.775h3.978c.14 0 .26.009.37.017a.588.588 0 01.272.082.36.36 0 01.129.216c.02.1.011.23-.037.386l-.437 1.618h-2.77l.234-.84h-.449l-.482 1.782zm.52-.332h2.79l-.669 2.467c-.131.508-.568.763-1.31.763H80.78a.644.644 0 01-.308-.062.533.533 0 01-.203-.176.48.48 0 01-.095-.233.448.448 0 010-.23l.446-1.623h2.799l-.234.848h.44l.47-1.754zm12.085 1.164h-2.819l.706-2.617h-.491l-.751 2.773c-.012.046.008.09.062.128.057.04.132.065.215.085h2.995l-.457 1.7h-4.835a.58.58 0 01-.325-.094.842.842 0 01-.26-.22 1.128 1.128 0 01-.177-.28.666.666 0 01-.063-.274l1.151-4.27c.094-.204.186-.368.288-.499a1.54 1.54 0 01.326-.312c.111-.074.234-.13.371-.159.132-.028.28-.045.437-.045h3.636c.288 0 .502.045.66.13.156.083.234.276.242.562l-.911 3.392zm6.183 2.069h-2.828l1.266-4.686h-.429l-1.262 4.686h-2.807l1.662-6.162h5.02c.24 0 .437.037.577.11.137.083.24.24.306.48l-1.505 5.572zm3.544-.519h-1.757c-.485-.037-.762-.239-.828-.6l1.18-4.359a.561.561 0 01.14-.25.998.998 0 01.251-.224c.094-.062.194-.11.308-.156a.815.815 0 01.314-.065h3.953c.211.065.371.139.482.221a.76.76 0 01.232.315c.045.122.065.25.065.39-.008.138-.02.294-.028.462L108.538 89h-5.121l.36-1.348h2.465l1.228-4.556h-.503l-1.059 3.926zm5.346-5.654h2.798l-.371 1.368h-2.799l.372-1.368zm-.474 1.774h2.798l-1.191 4.396h-2.795l1.188-4.396zm8.336 4.399h-2.828l1.265-4.686h-.428l-1.265 4.686h-2.804l1.662-6.162h5.02c.24 0 .434.037.574.11.14.083.243.24.309.48l-1.505 5.572zm7.093-2.069h-2.816l.706-2.617h-.494l-.751 2.773c-.012.046.008.09.065.128.055.04.129.065.212.085h2.995l-.457 1.7h-4.834a.565.565 0 01-.323-.094.815.815 0 01-.26-.22.992.992 0 01-.177-.28.64.64 0 01-.066-.274l1.154-4.27a2.38 2.38 0 01.289-.499c.1-.127.202-.23.322-.312a1.06 1.06 0 01.372-.159 2.08 2.08 0 01.439-.045h3.633c.288 0 .502.045.659.13.16.083.235.276.243.562l-.911 3.392zm6.554 0h-2.816l.706-2.617h-.491l-.754 2.773c-.009.046.011.09.065.128.057.04.132.065.215.085h2.992l-.457 1.7h-4.831a.581.581 0 01-.326-.094.837.837 0 01-.26-.22 1.148 1.148 0 01-.177-.28.67.67 0 01-.066-.274l1.154-4.27c.094-.204.186-.368.289-.499.102-.127.202-.23.325-.312.111-.074.231-.13.371-.159.129-.028.28-.045.437-.045h3.636c.288 0 .499.045.659.13.157.083.232.276.24.562l-.911 3.392zm4.204-2.642l-1.274 4.711h-2.804l1.459-5.415c.137-.508.574-.758 1.311-.758h4.301c.103 0 .185.02.251.057a.441.441 0 01.151.139c.026.065.055.128.063.193.009.074.009.147.009.213l-.566 2.086h-2.77l.334-1.226h-.465zm4.289-1.462h2.796l-.371 1.368h-2.796l.371-1.368zm-.474 1.774h2.796l-1.188 4.396h-2.799l1.191-4.396zm8.333 4.399h-2.824l1.262-4.686h-.428l-1.262 4.686h-2.808l1.662-6.162h5.021c.243 0 .437.037.577.11.14.083.242.24.305.48l-1.505 5.572zm3.544-.519h-1.756c-.483-.037-.762-.239-.828-.6l1.179-4.359a.603.603 0 01.14-.25 1.05 1.05 0 01.251-.224c.095-.062.198-.11.309-.156a.822.822 0 01.317-.065h3.949c.215.065.372.139.483.221a.757.757 0 01.231.315c.046.122.066.25.066.39-.009.138-.02.294-.029.462L155.289 89h-5.12l.363-1.348h2.461l1.228-4.556h-.502l-1.06 3.926z" fill="#373738"/><defs><linearGradient id="paint0_linear" x1="130.407" y1="73.619" x2="32.843" y2="-24.517" gradientUnits="userSpaceOnUse"><stop stop-color="#E52D2D"/><stop offset=".251" stop-color="#E11F28"/><stop offset=".49" stop-color="#333867"/><stop offset=".812" stop-color="#46A8DE"/><stop offset="1" stop-color="#46A8DE"/></linearGradient></defs></svg>