<svg width="197" height="426" fill="none" xmlns="http://www.w3.org/2000/svg"><path d="M426 248.199v-70.398l-57.749-11.372a160.459 160.459 0 00-12.567-30.239l32.223-48.337-49.762-49.764-48.337 32.225a160.371 160.371 0 00-30.24-12.566L248.2 0h-70.397L166.43 57.748a160.547 160.547 0 00-30.238 12.566L87.855 38.09 38.09 87.853l32.226 48.337a160.39 160.39 0 00-12.567 30.239L0 177.799v70.398l57.75 11.372a160.492 160.492 0 0012.566 30.238L38.09 338.145l49.765 49.764 48.337-32.225a160.298 160.298 0 0030.238 12.566L177.8 426h70.397l11.373-57.75a160.353 160.353 0 0030.238-12.566l48.337 32.223 49.765-49.762-32.226-48.338a160.33 160.33 0 0012.567-30.24L426 248.199zM213 352.66c-77.001 0-139.66-62.659-139.66-139.661 0-77.002 62.659-139.66 139.66-139.66s139.66 62.658 139.66 139.66S290.001 352.66 213 352.66z" fill="#414141"/></svg>