<svg width="32" height="32" fill="none" xmlns="http://www.w3.org/2000/svg"><circle cx="16" cy="16" r="16" fill="#2FB866"/><path fill-rule="evenodd" clip-rule="evenodd" d="M25 15.999h-2C23 11.943 20.054 9 15.99 9V7C21.129 7 25 10.869 25 15.999zM19 16c0-2.103-.897-3-3-3v-2c3.225 0 5 1.775 5 5h-2zm-.282 2.183a.998.998 0 01.704.26l4.064 3.696a1 1 0 01.086 1.391l-1.86 2.171a.992.992 0 01-.648.291 5.094 5.094 0 01-.359.008c-1.382 0-6.4-.293-10.406-4.298-4.592-4.594-4.306-10.516-4.29-10.766a1 1 0 01.29-.649l2.17-1.861a1 1 0 011.39.087l3.695 4.063a1 1 0 01-.043 1.391l-2.459 2.394c.107.572.468 1.733 1.66 2.926 1.192 1.189 2.35 1.55 2.926 1.66l2.393-2.461c.181-.186.428-.295.687-.303z" fill="#fff"/></svg>