<svg width="13" height="13" fill="none" xmlns="http://www.w3.org/2000/svg"><path d="M12.472 9.422A3.504 3.504 0 019 12.479c-4.963 0-9-4.037-9-9A3.504 3.504 0 013.058.008a1.002 1.002 0 011.04.6l1.256 2.93a.998.998 0 01-.083.94l-1.04 1.59a4.784 4.784 0 002.201 2.19l1.565-1.043a.997.997 0 01.949-.087l2.927 1.254a1.002 1.002 0 01.6 1.041zm-4.637-7.96a4.508 4.508 0 013.182 3.183.5.5 0 00.966-.258 5.51 5.51 0 00-3.89-3.89.5.5 0 00-.258.965zm-.518 1.933a2.504 2.504 0 011.768 1.768.5.5 0 00.966-.258 3.507 3.507 0 00-2.476-2.476.5.5 0 00-.258.966z" fill="#fff"/></svg>