<svg width="15" height="15" fill="none" xmlns="http://www.w3.org/2000/svg"><path d="M15 8.74V6.26l-2.033-.4a5.65 5.65 0 00-.443-1.065l1.135-1.702-1.753-1.752-1.702 1.135a5.647 5.647 0 00-1.064-.443L8.74 0H6.26l-.4 2.033c-.37.112-.725.26-1.065.443L3.093 1.34 1.341 3.093l1.135 1.702a5.646 5.646 0 00-.443 1.065L0 6.26v2.48l2.033.4c.112.37.26.725.443 1.064L1.34 11.906l1.752 1.753 1.702-1.135c.34.184.696.331 1.065.443L6.26 15h2.48l.4-2.033a5.65 5.65 0 001.064-.443l1.702 1.135 1.753-1.753-1.135-1.702a5.65 5.65 0 00.443-1.064L15 8.74zm-7.5 1.836A3.08 3.08 0 014.424 7.5 3.08 3.08 0 017.5 4.424 3.08 3.08 0 0110.576 7.5 3.08 3.08 0 017.5 10.576z" fill="#fff"/><path d="M15 8.74V6.26l-2.033-.4a5.65 5.65 0 00-.443-1.065l1.135-1.702-1.753-1.752-1.702 1.135a5.647 5.647 0 00-1.064-.443L8.74 0H6.26l-.4 2.033c-.37.112-.725.26-1.065.443L3.093 1.34 1.341 3.093l1.135 1.702a5.646 5.646 0 00-.443 1.065L0 6.26v2.48l2.033.4c.112.37.26.725.443 1.064L1.34 11.906l1.752 1.753 1.702-1.135c.34.184.696.331 1.065.443L6.26 15h2.48l.4-2.033a5.65 5.65 0 001.064-.443l1.702 1.135 1.753-1.753-1.135-1.702a5.65 5.65 0 00.443-1.064L15 8.74zm-7.5 1.836A3.08 3.08 0 014.424 7.5 3.08 3.08 0 017.5 4.424 3.08 3.08 0 0110.576 7.5 3.08 3.08 0 017.5 10.576z" fill="#fff"/></svg>