<svg width="12" height="12" fill="none" xmlns="http://www.w3.org/2000/svg"><path d="M12 6.992V5.008l-1.627-.32a4.527 4.527 0 00-.354-.852l.908-1.361-1.402-1.402-1.361.908a4.517 4.517 0 00-.852-.354L6.992 0H5.008l-.32 1.627a4.56 4.56 0 00-.852.354l-1.361-.908-1.402 1.402.908 1.361a4.517 4.517 0 00-.354.852L0 5.008v1.984l1.627.32c.089.295.207.58.354.852l-.908 1.361 1.402 1.402 1.361-.908c.272.147.557.265.852.354L5.008 12h1.984l.32-1.627a4.56 4.56 0 00.852-.354l1.361.908 1.402-1.402-.908-1.361a4.56 4.56 0 00.354-.852L12 6.992zM6 8.46A2.464 2.464 0 013.54 6 2.464 2.464 0 016 3.54 2.464 2.464 0 018.46 6 2.464 2.464 0 016 8.46z" fill="#E42A2C"/><path d="M12 6.992V5.008l-1.627-.32a4.527 4.527 0 00-.354-.852l.908-1.361-1.402-1.402-1.361.908a4.517 4.517 0 00-.852-.354L6.992 0H5.008l-.32 1.627a4.56 4.56 0 00-.852.354l-1.361-.908-1.402 1.402.908 1.361a4.517 4.517 0 00-.354.852L0 5.008v1.984l1.627.32c.089.295.207.58.354.852l-.908 1.361 1.402 1.402 1.361-.908c.272.147.557.265.852.354L5.008 12h1.984l.32-1.627a4.56 4.56 0 00.852-.354l1.361.908 1.402-1.402-.908-1.361a4.56 4.56 0 00.354-.852L12 6.992zM6 8.46A2.464 2.464 0 013.54 6 2.464 2.464 0 016 3.54 2.464 2.464 0 018.46 6 2.464 2.464 0 016 8.46z" fill="#E42A2C"/></svg>