<svg width="29" height="27" fill="none" xmlns="http://www.w3.org/2000/svg"><path d="M28.354 10.848c-.146-.87-.944-1.452-2.033-1.452h-1.016c-.653-.072-.799.146-.799.654v7.549c0 1.307-1.306 2.686-2.83 2.976-4.791 1.089-9.582 2.105-14.373 3.194-.508.145-1.089.145-1.67.145-.217 0-.58-.145-.653-.363-.073-.145.145-.435.29-.58.218-.146.509-.29.799-.436.87-.29 1.815-.58 2.686-.871 3.556-1.161 7.113-2.323 10.67-3.557 1.597-.508 2.468-1.597 2.468-2.976.073-4.355 0-8.783 0-13.139 0-.725-.363-1.306-1.161-1.597-.944-.362-1.815-.072-2.613.29-5.082 2.396-10.09 4.792-15.171 7.187C1.496 8.598.625 9.614.625 11.066v12.413c0 .218 0 .435.072.58.508 1.38 1.815 2.25 3.557 2.25h21.269c.798 0 1.451-.145 2.032-.653.726-.58.726-1.379.726-2.105V11.43c.145-.073.145-.363.073-.58zM13.546 9.542c.362-.944 1.16-1.525 2.322-1.67.799-.072 1.452.363 1.597 1.089.145 1.089-1.161 2.395-2.54 2.395-1.09 0-1.742-.798-1.38-1.814z" fill="#fff"/></svg>