<svg width="51" height="15" fill="none" xmlns="http://www.w3.org/2000/svg"><path fill-rule="evenodd" clip-rule="evenodd" d="M5.366.956h.07c.501-.01 1.725-.03 2.258 1.771.377 1.276.978 3.365 1.803 6.267h.336c.885-3.06 1.493-5.149 1.823-6.267C12.19.93 13.473.947 14.095.955l.11.001h4.368V14.56H14.12V6.543h-.298l-2.482 8.016H7.99L5.51 6.537h-.3v8.022H.76V.956h4.607zm19.598 0V8.98h.355l3.019-6.597A2.388 2.388 0 0130.173.957h4.308V14.56h-4.545V6.537h-.355l-2.96 6.596c-.586 1.307-1.894 1.426-1.894 1.426H20.42V.956h4.545zm20.396 9.55c2.204 0 4.195-1.287 4.829-3.086H36.272v7.139h4.322v-4.052h4.766z" fill="#fff"/><path d="M45.569.956h-9.523c.227 3.029 2.832 5.621 5.528 5.621h8.915c.515-2.517-1.256-5.62-4.92-5.62z" fill="#C4C4C4"/></svg>