<svg width="42" height="18" fill="none" xmlns="http://www.w3.org/2000/svg"><path fill-rule="evenodd" clip-rule="evenodd" d="M7.896 2.566c-.487.583-1.266 1.043-2.045.977-.098-.788.284-1.626.73-2.144C7.068.8 7.92.373 8.61.34c.08.822-.236 1.627-.714 2.227zM8.6 3.7c-.686-.04-1.312.208-1.818.41-.325.129-.601.239-.81.239-.236 0-.523-.116-.845-.246-.423-.17-.905-.363-1.412-.354-1.16.016-2.24.682-2.832 1.741-1.217 2.12-.316 5.258.86 6.982.577.855 1.266 1.791 2.175 1.758.4-.015.688-.139.985-.266.343-.148.699-.3 1.255-.3.536 0 .877.149 1.204.292.31.135.609.266 1.052.258.941-.017 1.533-.854 2.11-1.709a7.554 7.554 0 00.936-1.947l.005-.016-.022-.01c-.208-.097-1.797-.833-1.812-2.807-.015-1.657 1.26-2.497 1.46-2.63a.587.587 0 00.025-.015C10.305 3.864 9.04 3.732 8.601 3.7zm6.517 10.424V1.316h4.747c2.45 0 4.163 1.709 4.163 4.206 0 2.497-1.745 4.222-4.228 4.222H17.08v4.379h-1.963zm1.964-11.13h2.264c1.704 0 2.678.92 2.678 2.537 0 1.619-.974 2.547-2.686 2.547h-2.256V2.993zm13.43 9.593c-.52 1.002-1.664 1.635-2.898 1.635-1.825 0-3.1-1.1-3.1-2.76 0-1.643 1.234-2.588 3.514-2.727l2.451-.148V7.88c0-1.043-.674-1.61-1.875-1.61-.99 0-1.712.518-1.858 1.307h-1.769c.057-1.66 1.599-2.867 3.684-2.867 2.248 0 3.709 1.19 3.709 3.039v6.374h-1.818v-1.536h-.04zm-2.37.115c-1.047 0-1.712-.509-1.712-1.29 0-.804.64-1.273 1.866-1.346l2.183-.14v.723c0 1.2-1.006 2.053-2.337 2.053zm10.257 1.922c-.787 2.243-1.688 2.982-3.603 2.982-.146 0-.633-.016-.746-.049v-1.536c.121.016.422.033.576.033.868 0 1.355-.37 1.655-1.33l.179-.568-3.327-9.323h2.053l2.313 7.566h.04l2.313-7.566h1.996l-3.449 9.791z" fill="#fff"/></svg>