<svg width="51" height="16" fill="none" xmlns="http://www.w3.org/2000/svg"><path d="M21.956 15.093h-4.06L20.436.357h4.059l-2.54 14.736zM36.672.717A10.58 10.58 0 0033.03.09c-4.01 0-6.832 2.006-6.85 4.875-.033 2.117 2.021 3.292 3.558 3.998 1.57.721 2.105 1.192 2.105 1.834-.016.988-1.27 1.443-2.438 1.443-1.621 0-2.49-.235-3.81-.784l-.534-.236-.568 3.308c.952.407 2.707.769 4.528.785 4.26 0 7.032-1.976 7.065-5.033.016-1.677-1.069-2.963-3.407-4.013-1.42-.674-2.29-1.13-2.29-1.819.017-.627.736-1.27 2.338-1.27a7.283 7.283 0 013.024.565l.368.156.552-3.182z" fill="#fff"/><path fill-rule="evenodd" clip-rule="evenodd" d="M43.938.357h3.14l3.275 14.736h-3.758s-.368-1.694-.485-2.21h-5.212l-.852 2.21h-4.26l6.03-13.514C42.234.623 42.97.357 43.938.357zm-.25 5.392s-1.286 3.277-1.62 4.123h3.374c-.167-.736-.936-4.264-.936-4.264l-.284-1.27a93.715 93.715 0 01-.534 1.411zM.307.357h6.531c.886.03 1.604.297 1.838 1.238l1.42 6.773.434 2.037L14.505.357h4.293l-6.38 14.72H8.123L4.506 2.273C3.258 1.588 1.833 1.037.24.654L.307.357z" fill="#fff"/></svg>