<svg width="39" height="30" fill="none" xmlns="http://www.w3.org/2000/svg"><path fill-rule="evenodd" clip-rule="evenodd" d="M11.339 26.732v3.109h-.68v-.377c-.216.28-.544.455-.99.455-.877 0-1.565-.682-1.565-1.632 0-.95.688-1.633 1.566-1.633.445 0 .773.176.988.456v-.378h.68zm-1.584.56c-.59 0-.95.448-.95.995 0 .546.36.995.95.995.562 0 .942-.43.942-.995 0-.566-.38-.996-.942-.996zm24.58.995c0-.547.36-.996.95-.996.563 0 .942.43.942.996 0 .566-.38.995-.943.995-.589 0-.95-.449-.95-.995zm2.534-2.803v4.357h-.681v-.377c-.216.28-.543.455-.989.455-.877 0-1.565-.682-1.565-1.632 0-.95.688-1.633 1.566-1.633.445 0 .772.176.988.456v-1.626h.681zm-17.083 1.775c.438 0 .72.274.792.755h-1.624c.072-.45.347-.755.832-.755zm-1.546 1.028c0-.97.642-1.633 1.56-1.633.876 0 1.479.663 1.485 1.633 0 .09-.006.175-.013.26h-2.324c.098.56.497.761.936.761.314 0 .648-.117.91-.325l.334.5c-.38.32-.812.436-1.283.436-.937 0-1.605-.644-1.605-1.632zm9.776 0c0-.547.36-.996.95-.996.563 0 .942.43.942.996 0 .566-.38.995-.942.995-.59 0-.95-.449-.95-.995zm2.534-1.555v3.109h-.68v-.377c-.217.28-.544.455-.99.455-.877 0-1.565-.682-1.565-1.632 0-.95.688-1.633 1.566-1.633.445 0 .772.176.988.456v-.378h.68zm-6.377 1.555c0 .943.66 1.632 1.67 1.632.471 0 .785-.104 1.125-.37l-.326-.547a1.38 1.38 0 01-.82.28c-.543-.007-.942-.397-.942-.995 0-.599.4-.989.942-.996.296 0 .564.098.82.28l.326-.546c-.34-.267-.654-.37-1.125-.37-1.01 0-1.67.688-1.67 1.632zm7.948-1.177c.177-.274.433-.456.825-.456.138 0 .335.026.485.085l-.21.637a1.11 1.11 0 00-.425-.078c-.445 0-.668.286-.668.8v1.743h-.681v-3.109h.674v.378zm-17.417-.13c-.327-.215-.778-.326-1.276-.326-.793 0-1.303.378-1.303.995 0 .507.38.82 1.08.918l.321.045c.373.052.55.15.55.325 0 .24-.25.378-.714.378-.471 0-.811-.15-1.04-.326l-.321.527c.373.273.844.403 1.354.403.904 0 1.428-.422 1.428-1.014 0-.547-.412-.833-1.093-.93l-.321-.046c-.295-.04-.53-.097-.53-.306 0-.228.222-.364.595-.364.4 0 .786.15.976.267l.294-.547zm7.956.13c.177-.274.432-.456.825-.456.138 0 .334.026.485.085l-.21.637a1.11 1.11 0 00-.426-.078c-.445 0-.668.286-.668.8v1.743h-.68v-3.109h.674v.378zm-4.983-.378h-1.112v-.943h-.688v.943h-.635v.618h.635v1.418c0 .722.281 1.151 1.086 1.151.296 0 .636-.09.852-.24l-.197-.58a1.266 1.266 0 01-.602.176c-.34 0-.451-.208-.451-.52V27.35h1.112v-.618zM7.502 27.89v1.951h-.688v-1.73c0-.527-.222-.82-.687-.82-.452 0-.766.287-.766.827v1.723h-.688v-1.73c0-.527-.228-.82-.68-.82-.466 0-.767.287-.767.827v1.723H2.54v-3.109h.681v.384c.256-.364.582-.462.917-.462.478 0 .818.209 1.034.553.288-.436.7-.56 1.1-.553.76.007 1.231.501 1.231 1.236z" fill="#fff"/><path d="M24.793 21.45H14.479V3.037h10.314V21.45z" fill="#E8E8E8"/><path d="M15.133 12.243c0-3.735 1.76-7.062 4.502-9.206A11.785 11.785 0 0012.351.534C5.84.534.564 5.776.564 12.244c0 6.467 5.277 11.71 11.787 11.71 2.75 0 5.28-.937 7.284-2.504-2.741-2.145-4.502-5.471-4.502-9.207z" fill="#fff"/><path d="M38.707 12.243c0 6.468-5.277 11.71-11.787 11.71-2.75 0-5.28-.936-7.285-2.503 2.742-2.145 4.503-5.471 4.503-9.207 0-3.735-1.76-7.062-4.503-9.206A11.79 11.79 0 0126.92.534c6.51 0 11.787 5.242 11.787 11.71z" fill="#C4C4C4"/></svg>