<svg width="46" height="19" fill="none" xmlns="http://www.w3.org/2000/svg"><path d="M22.001 9.065v5.224h-1.668v-12.9h4.425a4.027 4.027 0 012.866 1.117 3.591 3.591 0 011.197 2.722 3.552 3.552 0 01-1.197 2.738c-.774.733-1.73 1.099-2.866 1.098h-2.757v.001zm0-6.088V7.48H24.8a2.22 2.22 0 001.65-.667 2.198 2.198 0 00.671-1.576 2.185 2.185 0 00-.67-1.576 2.177 2.177 0 00-1.651-.685H22v.001zm10.665 2.198c1.234 0 2.207.327 2.92.981.715.655 1.071 1.553 1.07 2.693v5.44H35.06v-1.225h-.072c-.691 1.008-1.61 1.513-2.757 1.513-.98 0-1.798-.288-2.458-.865a2.763 2.763 0 01-.988-2.161c0-.914.347-1.64 1.042-2.18.695-.539 1.623-.809 2.784-.81.991 0 1.807.18 2.448.54v-.379a1.876 1.876 0 00-.689-1.466 2.373 2.373 0 00-1.61-.604c-.933 0-1.67.39-2.213 1.17l-1.47-.918c.808-1.153 2.005-1.73 3.59-1.73zm-2.159 6.412a1.316 1.316 0 00.554 1.08c.369.289.827.441 1.296.433a2.67 2.67 0 001.877-.774c.553-.517.83-1.123.83-1.819-.52-.412-1.246-.617-2.177-.617-.678 0-1.243.162-1.696.486-.457.33-.684.73-.684 1.21zm15.311-6.124l-5.572 12.716h-1.722l2.068-4.45-3.664-8.266h1.814l2.648 6.34h.036L44 5.463h1.817z" fill="#fff"/><path d="M15.259 7.939c0-.505-.043-1.01-.129-1.507H8.093v2.854h4.03a3.418 3.418 0 01-1.49 2.252v1.853h2.406c1.408-1.29 2.22-3.197 2.22-5.452z" fill="#E0E0E0"/><path d="M8.093 15.18c2.014 0 3.71-.656 4.946-1.788l-2.406-1.853c-.67.451-1.532.709-2.54.709-1.946 0-3.599-1.303-4.19-3.06H1.427v1.91a7.43 7.43 0 002.75 2.98 7.502 7.502 0 003.917 1.103z" fill="#fff"/><path d="M3.904 9.189a4.411 4.411 0 010-2.837v-1.91H1.426a7.369 7.369 0 000 6.656l2.478-1.91z" fill="#D7D7D7"/><path d="M8.093 3.293a4.067 4.067 0 012.863 1.112l2.13-2.115A7.197 7.197 0 008.092.36a7.5 7.5 0 00-3.917 1.103 7.43 7.43 0 00-2.75 2.98l2.478 1.909c.59-1.756 2.243-3.059 4.189-3.059z" fill="#A9A9A9"/></svg>