<svg width="648" height="382" fill="none" xmlns="http://www.w3.org/2000/svg"><g clip-path="url(#clip0)"><path d="M431.969 154.097c.014.165.028.343.055.508.014.096.028.192.041.302l.041.288c.028.178.055.343.097.508 0 .027 0 .068.013.096 0 .041.014.082.014.137.083.412.179.837.275 1.249.027.151.069.302.11.453m0 0l-6.669 4.31 2.131 4.914 7.714-1.853m0 0c.33.522.687 1.043 1.058 1.551a.211.211 0 01.055.069c.11.137.207.274.317.411.055.083.123.151.178.234.069.082.124.164.193.233.11.137.22.275.33.398.014.028.027.055.055.069.399.48.825.947 1.265 1.4m0 0l-3.616 7.055 4.303 3.212 5.761-5.477m0 0c.55.288 1.114.563 1.691.824.028 0 .055.013.083.027.165.069.316.137.481.206.083.041.179.069.275.11.096.041.179.068.275.11.165.054.33.123.481.178a.198.198 0 00.097.027c.591.22 1.182.412 1.787.577m0 0l.412 7.92 5.335.631 2.241-7.618m.001 0a28.034 28.034 0 001.87-.137c.041 0 .068 0 .096-.014l.412-.041c.028-.014.069-.014.096-.014l.303-.041c.096-.014.192-.027.289-.055.178-.027.343-.055.508-.082.028 0 .055 0 .069-.014h.028c.618-.11 1.223-.247 1.842-.398m0 0l4.317 6.657 4.923-2.127-1.857-7.701m0 0c.124-.082.262-.164.385-.26.358-.22.715-.467 1.059-.714a.732.732 0 01.11-.082c0-.014.014-.014.014-.014.014-.014.041-.028.055-.041.137-.11.275-.206.412-.316.083-.055.152-.124.234-.178.083-.069.165-.124.234-.193.027-.027.055-.041.082-.068a5.6 5.6 0 00.317-.261.289.289 0 00.068-.055c.482-.412.949-.824 1.389-1.263m0 0l7.081 3.597 3.217-4.297-5.486-5.737m0 0c.289-.549.564-1.112.825-1.688 0-.028.014-.055.028-.096.068-.151.137-.302.206-.467.041-.096.069-.179.11-.275.041-.096.069-.192.11-.274.055-.165.124-.33.179-.494.013-.028.027-.055.027-.083.22-.59.413-1.18.578-1.784m0 0l7.933-.412.632-5.325-7.63-2.238m0 0a29.664 29.664 0 00-.138-1.88c0-.028 0-.055-.014-.083-.013-.164-.041-.343-.055-.508l-.041-.302c-.014-.096-.027-.192-.055-.301l-.082-.495c0-.027-.014-.068-.014-.096a27.571 27.571 0 00-.399-1.839m0 0l6.669-4.31-2.132-4.928-7.713 1.867" stroke="#F2F2F2" stroke-width="1.765" stroke-miterlimit="10"/><path d="M479.94 137.296c-.344-.521-.688-1.043-1.059-1.551-.027-.027-.041-.055-.055-.068-.11-.138-.206-.275-.316-.412-.055-.082-.124-.165-.179-.233-.069-.083-.124-.165-.192-.247-.11-.124-.22-.261-.33-.385-.014-.027-.042-.055-.055-.068a30.59 30.59 0 00-1.265-1.4m0-.001l3.602-7.055-4.303-3.212-5.748 5.477" stroke="#F2F2F2" stroke-width="1.765" stroke-miterlimit="10"/><path d="M470.041 128.141a31.536 31.536 0 00-1.692-.823c-.027-.014-.055-.014-.082-.028-.165-.069-.316-.137-.481-.206-.097-.041-.179-.068-.275-.11-.097-.041-.193-.068-.289-.109-.151-.069-.316-.124-.467-.179-.042-.014-.069-.027-.097-.027a20.763 20.763 0 00-1.787-.577m0 0l-.413-7.92-5.335-.631-2.241 7.618m0 0c-.618.013-1.251.068-1.883.137-.028 0-.055 0-.083.014l-.412.041c-.028 0-.069.014-.097.014l-.302.041c-.096.014-.193.027-.303.041-.165.027-.33.055-.495.096-.027 0-.055 0-.082.014h-.014c-.619.11-1.237.247-1.842.398m0 0l-4.318-6.657-4.936 2.127 1.87 7.701m0 0c-.522.329-1.044.686-1.553 1.057 0 .013-.014.013-.014.013-.014.014-.041.028-.055.042-.137.096-.275.206-.412.315-.083.055-.152.124-.234.179-.083.068-.165.123-.248.192a.289.289 0 01-.068.055c-.11.096-.22.178-.317.261-.027.027-.055.041-.068.068-.482.412-.949.824-1.403 1.263m0 0l-7.067-3.596-3.217 4.282 5.485 5.751m0 0a32.578 32.578 0 00-.824 1.688c-.014.028-.014.055-.028.083-.069.165-.137.316-.206.48 0 0-.014.014-.014.028 0 0 0 .013-.014.027-.027.069-.055.151-.082.22-.041.096-.083.192-.11.274-.069.165-.124.33-.179.481a.194.194 0 00-.027.096c-.22.59-.413 1.18-.578 1.784m0 0l-7.933.412-.633 5.326 7.631 2.237m0 0c.014.618.069 1.249.138 1.867 0 .041 0 .068.013.096m17.091-22.291c.137-.055.275-.124.412-.179l.372-.164a.255.255 0 00.096-.028 21.532 21.532 0 019.886-1.441c.027 0 .068 0 .096.014l.454.041c.137.027.261.041.398.055.042 0 .069.014.11.014a21.303 21.303 0 019.267 3.692c.042.014.069.041.097.055.123.082.233.178.357.261l.33.247c.028.027.055.041.083.068a21.495 21.495 0 016.187 7.824c.014.028.027.069.041.096.055.137.124.275.179.412.055.123.11.247.151.371.014.027.028.068.041.096a21.408 21.408 0 011.444 9.869c0 .027-.014.068-.014.096a4.664 4.664 0 01-.055.453 22.92 22.92 0 01-.041.398c0 .041-.014.068-.014.096a21.518 21.518 0 01-3.698 9.278c-.014.028-.042.055-.055.083l-.248.329c-.082.11-.178.233-.275.357-.013.027-.041.055-.055.082a21.633 21.633 0 01-7.837 6.177.656.656 0 00-.096.041c-.124.055-.261.11-.385.165-.138.055-.275.11-.399.165a.563.563 0 00-.096.041 21.532 21.532 0 01-9.886 1.441c-.041 0-.069-.014-.11-.014a57.424 57.424 0 01-.412-.041 5.133 5.133 0 00-.44-.055c-.028 0-.055-.014-.097-.014a21.519 21.519 0 01-9.28-3.692c-.028-.013-.055-.041-.083-.055l-.33-.247a6.582 6.582 0 00-.357-.261c-.028-.027-.055-.054-.083-.068a21.612 21.612 0 01-6.187-7.824c-.014-.041-.028-.069-.041-.096l-.165-.371c-.055-.137-.11-.274-.179-.411-.014-.042-.014-.069-.028-.096a21.424 21.424 0 01-1.443-9.869c0-.042 0-.069.014-.11.013-.137.027-.275.041-.398.014-.151.027-.302.055-.439 0-.042.014-.083.014-.11a21.29 21.29 0 013.698-9.265c.014-.028.041-.055.055-.083.083-.123.179-.233.275-.356.083-.11.151-.22.234-.33.027-.027.041-.055.069-.082a21.508 21.508 0 017.837-6.177c.027-.014.068-.027.096-.041v0z" stroke="#F2F2F2" stroke-width="1.765" stroke-miterlimit="10"/><path d="M623.951 209.014l-.083-.7c-.027-.137-.041-.274-.068-.412-.014-.123-.028-.26-.055-.398-.042-.233-.069-.466-.11-.686-.014-.041-.014-.082-.028-.124-.014-.068-.014-.123-.027-.192a37.282 37.282 0 00-.372-1.702 7.723 7.723 0 00-.151-.604l9.088-5.888-2.887-6.698-10.532 2.539a36.685 36.685 0 00-1.444-2.128c-.027-.027-.041-.054-.068-.096-.138-.178-.275-.37-.427-.549l-.247-.329c-.083-.11-.179-.22-.261-.316-.152-.192-.289-.37-.44-.549l-.083-.082a28.272 28.272 0 00-1.732-1.894l4.922-9.636-5.857-4.365-7.837 7.453a33.086 33.086 0 00-2.324-1.111c-.027-.014-.069-.028-.11-.042a8.945 8.945 0 00-.646-.274 4.25 4.25 0 00-.371-.151c-.138-.055-.262-.11-.385-.151-.22-.096-.44-.165-.66-.247-.042-.014-.069-.028-.11-.041a42.288 42.288 0 00-2.448-.783l-.564-10.788-7.259-.851-3.053 10.363c-.852.027-1.718.096-2.571.192-.041 0-.082 0-.11.014a6.883 6.883 0 00-.563.068c-.042 0-.097.014-.138.014-.137.014-.275.041-.412.055-.138.027-.262.041-.399.069-.234.027-.468.068-.688.109-.041 0-.068.014-.096.014-.014 0-.027 0-.027.014-.853.151-1.691.329-2.516.549l-5.885-9.073-6.724 2.883 2.558 10.5c-.179.123-.371.233-.536.343-.495.316-.977.645-1.444.988a.598.598 0 01-.151.11c0 .014-.014.014-.014.028a.28.28 0 00-.083.054c-.192.138-.371.275-.563.412a5.2 5.2 0 01-.317.261c-.11.082-.22.165-.33.261-.027.027-.068.055-.096.082-.151.11-.289.233-.44.357-.027.027-.055.055-.096.082a44.35 44.35 0 00-1.897 1.716l-9.639-4.9-4.372 5.847 7.466 7.824c-.399.755-.77 1.524-1.114 2.306-.014.041-.027.082-.055.123-.082.206-.179.426-.261.632-.055.137-.11.261-.165.384a4.24 4.24 0 01-.151.384c-.083.22-.165.44-.234.659a31.508 31.508 0 00-.825 2.553l-10.807.563-.866 7.247 10.394 3.048c.028.851.097 1.702.193 2.553 0 .041 0 .082.014.123.013.233.055.467.082.7.014.137.041.261.055.398.014.137.041.275.055.412.041.233.083.453.124.686 0 .041.014.083.014.124.165.837.343 1.674.55 2.498l-9.075 5.888 2.887 6.699 10.519-2.54c.453.728.935 1.428 1.443 2.114.028.041.055.069.083.11.137.178.275.37.412.549.083.11.179.219.261.329.083.11.165.206.248.316l.454.535c.027.041.055.069.068.096a38.544 38.544 0 001.733 1.895l-4.922 9.635 5.871 4.365 7.837-7.467c.756.398 1.526.782 2.31 1.126.041.013.068.027.11.041.22.096.426.192.646.274.124.055.261.11.385.151.124.055.247.11.385.151.206.083.426.165.646.247a4.5 4.5 0 00.124.041c.811.289 1.622.55 2.447.783l.55 10.788 7.273.851 3.053-10.363a31.866 31.866 0 002.557-.192c.041 0 .083-.014.124-.014.192-.013.371-.041.564-.068.041 0 .082-.014.123-.014.138-.014.275-.041.413-.055.137-.027.275-.041.412-.068.22-.028.454-.069.688-.11.027-.014.069-.014.096-.014.014-.014.014-.014.028-.014a31.177 31.177 0 002.502-.549l5.898 9.073 6.71-2.882-2.543-10.514a36.067 36.067 0 002.117-1.442c.014 0 .014 0 .027-.013a.242.242 0 00.069-.055c.193-.137.385-.275.564-.426.11-.082.22-.164.316-.247.11-.082.22-.164.33-.261.041-.027.069-.054.11-.082.138-.11.289-.233.426-.357.028-.027.069-.055.097-.082a28.292 28.292 0 001.897-1.73l9.652 4.914 4.359-5.847-7.466-7.824c.398-.755.77-1.523 1.127-2.306l.041-.123c.097-.206.193-.426.275-.645 0 0 .014-.014.014-.028.014-.014.014-.027.014-.041.041-.096.082-.206.124-.302.055-.123.096-.261.151-.384l.247-.659c.014-.041.028-.069.042-.11.288-.81.55-1.62.783-2.443l10.807-.563.853-7.247-10.381-3.047a39.848 39.848 0 00-.192-2.553c0-.042-.014-.083-.014-.124zm-23.292 30.362c-.192.096-.371.165-.563.247-.165.069-.344.151-.509.22-.041.013-.096.041-.138.054a29.088 29.088 0 01-13.46 1.949h-.151l-.605-.082c-.179-.014-.358-.041-.55-.055-.042-.013-.097-.013-.138-.027a29.201 29.201 0 01-12.649-5.024.806.806 0 00-.11-.082c-.165-.124-.33-.247-.495-.357-.138-.11-.289-.22-.44-.343-.042-.028-.069-.055-.11-.083a29.133 29.133 0 01-8.429-10.665c-.027-.041-.041-.082-.068-.123-.083-.192-.165-.385-.248-.563a20.5 20.5 0 00-.206-.508.402.402 0 01-.055-.137 29.168 29.168 0 01-1.966-13.451c0-.042.014-.083.014-.124.027-.206.041-.412.068-.618.028-.178.042-.37.069-.549 0-.041.014-.082.014-.123a29.169 29.169 0 015.046-12.642c.027-.041.055-.068.082-.11.097-.151.22-.302.33-.439.124-.165.234-.329.358-.494a.726.726 0 00.096-.11 29.054 29.054 0 0110.683-8.414c.041-.027.083-.041.124-.068.179-.069.344-.151.522-.22.179-.082.372-.165.55-.233.042-.028.083-.041.124-.055a29.343 29.343 0 0113.475-1.963.456.456 0 00.137.014c.193.027.385.041.578.068.192.028.384.042.591.069.041.014.082.014.137.027a29.218 29.218 0 0112.636 5.024l.124.082c.151.11.302.22.453.344.152.109.317.233.482.356.027.028.068.055.11.083A29.276 29.276 0 01615 200.916c.014.041.041.082.055.123.082.165.151.344.22.508.082.192.165.371.247.563.014.041.028.082.055.137a28.935 28.935 0 011.953 13.438c0 .041 0 .096-.014.151-.014.178-.041.357-.055.549l-.082.59c0 .055-.014.11-.014.151a29.221 29.221 0 01-5.032 12.614l-.083.124-.371.494c-.11.137-.22.288-.33.439-.028.028-.055.069-.083.11a29.314 29.314 0 01-10.683 8.414.501.501 0 01-.124.055z" fill="#F2F2F2"/><path d="M395.436 80.608c-.055-.247-.123-.494-.178-.74a18.78 18.78 0 01-.124-.44 4.744 4.744 0 00-.11-.425l-.206-.742a5.956 5.956 0 01-.041-.123c-.028-.069-.042-.138-.055-.192a42.95 42.95 0 00-.853-2.457m0 0l9.143-7.522-3.987-6.932-11.123 4.063m0 0a44.055 44.055 0 00-1.829-2.127c-.027-.028-.069-.055-.096-.096-.179-.179-.344-.371-.523-.55l-.316-.315-.316-.316c-.192-.192-.371-.357-.564-.535-.027-.028-.055-.069-.096-.096a34.121 34.121 0 00-2.117-1.84m0 0l4.152-11.076-6.916-4.022-7.59 9.073m0 0a51.323 51.323 0 00-1.554-.563 25.508 25.508 0 00-1.099-.357c-.042-.014-.097-.027-.138-.041a15.063 15.063 0 01-.729-.22c-.151-.04-.288-.068-.44-.11-.137-.04-.288-.082-.426-.123-.247-.055-.495-.124-.742-.178-.055-.014-.097-.028-.138-.028a37.454 37.454 0 00-2.75-.549m0 0l-1.966-11.667-8.002-.028-2.021 11.654m0 0c-.921.15-1.843.316-2.764.535-.041 0-.082.014-.124.028-.206.04-.412.096-.605.137l-.151.041c-.137.041-.289.069-.426.11-.151.041-.289.082-.44.123-.248.07-.495.138-.729.206-.041.014-.069.028-.11.028-.014 0-.014.014-.027.014-.894.274-1.788.576-2.654.905" stroke="#F2F2F2" stroke-width="3.49" stroke-miterlimit="10" stroke-linecap="round" stroke-linejoin="round"/><path d="M343.656 53.115l-7.534-9.127-6.944 3.967 4.07 11.117m0 0c-.729.577-1.43 1.18-2.117 1.826-.014 0-.014.014-.028.014l-.082.082c-.179.165-.372.343-.55.522l-.317.315c-.11.11-.219.206-.316.316-.041.041-.082.069-.11.11-.151.15-.288.288-.426.44a.317.317 0 01-.096.095c-.646.686-1.251 1.4-1.843 2.114" stroke="#F2F2F2" stroke-width="3.49" stroke-miterlimit="10" stroke-linecap="round" stroke-linejoin="round"/><path d="M327.363 64.906l-11.095-4.145-4.029 6.918 9.102 7.576m0 0a35.4 35.4 0 00-.935 2.65l-.041.123-.206.741c-.042.137-.083.288-.124.425-.028.124-.069.234-.096.357 0 .014 0 .028-.014.041 0 .014 0 .028-.014.042-.055.247-.124.494-.179.74-.013.042-.013.083-.027.124-.22.92-.399 1.84-.55 2.76m0-.001l-11.687 1.95-.014 7.988 11.673 2.031m0 .001c.138.92.317 1.839.523 2.758 0 .042.014.083.027.124.055.247.11.494.179.741.041.151.082.302.11.44.041.15.083.288.124.439l.206.727.041.124c.275.906.578 1.784.908 2.662m0 0l-9.143 7.522 3.987 6.932 11.123-4.077m0 0a37.943 37.943 0 001.829 2.128c.027.027.055.068.096.096.165.192.344.37.522.562.11.097.207.206.317.316.11.096.206.206.316.316.179.178.371.357.55.521a.683.683 0 00.11.097 39.121 39.121 0 002.103 1.853" stroke="#F2F2F2" stroke-width="3.49" stroke-miterlimit="10" stroke-linecap="round" stroke-linejoin="round"/><path d="M333.055 119.507l-4.138 11.077 6.916 4.022 7.589-9.087m0 .001c.867.343 1.76.645 2.654.933.041 0 .082.014.124.027.247.083.495.151.742.22.138.041.289.082.426.124.152.041.289.068.44.109.248.069.495.124.743.192.041 0 .082.014.137.028.908.22 1.829.398 2.75.535m.001 0l1.952 11.667 8.002.028 2.035-11.654" stroke="#F2F2F2" stroke-width="3.49" stroke-miterlimit="10" stroke-linecap="round" stroke-linejoin="round"/><path d="M363.428 127.729a38.877 38.877 0 002.763-.521c.042-.014.083-.028.124-.028.206-.055.399-.096.605-.151a.489.489 0 00.138-.027c.151-.041.302-.083.44-.124.151-.027.288-.068.44-.11.247-.068.481-.137.728-.219.042 0 .069-.014.11-.028h.028a42.236 42.236 0 002.653-.906" stroke="#F2F2F2" stroke-width="3.49" stroke-miterlimit="10" stroke-linecap="round" stroke-linejoin="round"/><path d="M371.457 125.615l7.535 9.128 6.944-3.98-4.084-11.105" stroke="#F2F2F2" stroke-width="3.49" stroke-miterlimit="10" stroke-linecap="round" stroke-linejoin="round"/><path d="M381.852 119.659a38.007 38.007 0 002.131-1.826l.028-.027.068-.069c.193-.178.372-.343.564-.535.11-.096.206-.206.316-.302.11-.11.207-.22.317-.33.041-.027.068-.068.11-.096.137-.151.275-.302.426-.439.027-.041.055-.069.096-.11a44.806 44.806 0 001.842-2.114m.001 0l11.095 4.146 4.029-6.905-9.102-7.576m0 0c.343-.879.646-1.757.935-2.65.013-.041.013-.082.027-.137.083-.233.151-.48.22-.727.041-.151.083-.288.124-.44.041-.137.082-.288.11-.425.069-.247.124-.494.192-.741a.48.48 0 01.028-.137c.014-.07.027-.138.055-.206a32.19 32.19 0 00.481-2.54m0 .001l11.687-1.963.028-7.989-11.674-2.017m.001-.001a38.653 38.653 0 00-.523-2.758c-.013-.042-.013-.083-.027-.138M356.87 57.686c.041 0 .096-.014.151-.014h.618c.22 0 .44 0 .66.014h.152a32.258 32.258 0 0113.392 3.377m0 0l-8.745 15.002m0 0a14.356 14.356 0 00-5.5-1.112 14.6 14.6 0 00-5.5 1.071m0 0L343.45 60.98m0 0a32.077 32.077 0 0113.419-3.294m.66 42.07c-5.747-.028-10.394-4.694-10.38-10.432.013-5.724 4.702-10.363 10.435-10.35 5.748.015 10.395 4.695 10.381 10.419-.027 5.724-4.702 10.377-10.436 10.363v0zm-7.122-22.909c-.014.014-.041.028-.055.042.014-.014.041-.028.055-.042zm-20.679-2.731c.028-.041.041-.082.069-.137.096-.165.206-.344.302-.522.124-.192.234-.384.344-.576l.083-.124a31.767 31.767 0 019.624-9.883m0 0l8.635 15.044m0 0c-2.943 2.265-5.005 5.641-5.528 9.498m.001 0l-17.38-.055m0 .001a31.806 31.806 0 013.85-13.246m13.433 14.18v-.001zm-3.176 27.451a31.927 31.927 0 01-9.569-9.938 1.177 1.177 0 00-.083-.137l-.33-.577c-.096-.178-.206-.357-.302-.535-.028-.041-.042-.082-.069-.137a31.809 31.809 0 01-3.767-13.26m0 .001l17.379.055m0-.001a14.392 14.392 0 005.472 9.526m0 0l-8.731 15.003m3.163-25.517c.013.042.013.083.013.11 0-.027 0-.068-.013-.11zm7.177 11.599a.104.104 0 000 0zm21.325 15.922a31.968 31.968 0 01-13.406 3.294h-1.581a32.065 32.065 0 01-13.392-3.39m0 0l8.745-14.989m0 0c1.691.7 3.547 1.098 5.5 1.098a14.123 14.123 0 005.499-1.071m0 0l8.635 15.057m-6.944-15.88a.1.1 0 000 0zm20.679 2.731a.624.624 0 00-.068.137c-.11.193-.234.385-.344.591-.096.164-.193.343-.303.508-.027.041-.055.096-.082.137a32.06 32.06 0 01-9.625 9.882m.001 0l-8.649-15.057m0 0a14.357 14.357 0 005.541-9.484m0-.001l17.379.055m0 .001a31.993 31.993 0 01-3.849 13.231m-20.61-27.711c.027.013.041.026.068.04-.027-.014-.041-.027-.068-.04zm7.176 13.437c0 .04 0 .068-.013.109.013-.04.013-.068.013-.11zm13.461-16.17c.028.055.041.096.069.138a31.877 31.877 0 013.767 13.259m0 0l-17.379-.055m0 0v.014a14.431 14.431 0 00-5.472-9.54m0 0l8.73-14.989m0 0a31.766 31.766 0 019.57 9.938c.027.041.055.096.082.137.097.165.193.343.303.522l.33.576m-13.461 14.33v-.11.11zM327.817-15.61L314.755-.69l8.47 10.377 17.269-9.76m0 0a68.468 68.468 0 003.616 3.02c.055.041.11.082.179.124.33.26.673.521 1.031.782.192.151.399.288.591.44.206.15.413.301.619.438.357.248.701.495 1.058.728.055.041.124.082.193.123a66.841 66.841 0 004.001 2.485m0 0l-3.836 19.436 12.526 4.749 10.078-17.061m0-.001c1.526.316 3.08.59 4.634.81.068 0 .151.014.22.028.426.055.852.11 1.278.151l.743.082c.247.028.509.055.756.069.426.041.853.069 1.265.11.082 0 .165.013.234.013 1.581.11 3.148.151 4.702.138m0-.001l6.421 18.75 13.227-2.127.179-19.807m-.001 0a77.968 77.968 0 004.428-1.62l.206-.082c.316-.137.632-.26.949-.398.068-.041.151-.068.22-.11.233-.096.467-.205.701-.302.22-.11.454-.206.687-.315.385-.179.77-.357 1.155-.55.055-.027.11-.04.165-.068.014-.014.028-.014.042-.027a59.942 59.942 0 004.138-2.224m0 0l14.946 13.04 10.394-8.455-9.776-17.24M362.19-.031a53.703 53.703 0 01-18.52-13.836 2.34 2.34 0 00-.165-.192c-.247-.288-.467-.577-.701-.865-.22-.26-.44-.521-.646-.796l-.165-.206a53.643 53.643 0 01-9.831-20.89m40.382 9.621L362.19-.03m52.894-5.3a53.58 53.58 0 01-21.256 9.087c-.083.014-.165.027-.262.041-.357.069-.728.124-1.099.192-.33.055-.674.11-1.004.151-.083.014-.165.028-.261.041a53.876 53.876 0 01-23.044-1.949m0 0l10.339-27.15" stroke="#F2F2F2" stroke-width="3.49" stroke-miterlimit="10" stroke-linecap="round" stroke-linejoin="round"/><path d="M643.31 140.014l-3.3 3.294m26.303-66.048l-54.118 54.024m-17.214-22.606l-37.811 37.746m109.143-108.97l-4.221 4.214 4.221-4.214zm-108.868 68.89l-14.45 14.426M666.313-2.337l-6.559 6.547 6.559-6.547zm-27.1 126.553l-19.016 18.969m46.116-46.037l-5.363 5.353 5.363-5.353zm-83.143 43.209l-16.142 16.128m99.285-99.128L647.586 76.05l18.727-18.694zM629.437 94.17l-33.012 32.955 33.012-32.956zm-55.273 15.386l-18.273 18.228M666.313 17.565l-3.355 3.35 3.355-3.35zM543.27 100.593l-34.621 34.576M666.313-22.24l-12.32 12.3 12.32-12.299zM531.088 92.852l-34.03 33.985M659.383-35.211l-13.158 13.136 13.158-13.136zM520.707 83.326L507.631 96.38M641.564-37.31l-4.867 4.845 4.867-4.845zM512.031 72.098l-13.309 13.287m6.476-26.368l-29.094 29.044M500.605 43.7l-37.522 37.47m36.01-55.863l-17.407 17.377M503.671.847L473.258 31.21m8.717-28.592l-24.337 24.28m64.334-64.209L484.532.051l37.44-37.362zm119.289 169.419l-17.063 17.034m-44.836 4.982l-3.287 3.281m90.238-90.097l-58.133 58.033 58.133-58.033zm-82.428 42.495l-27.347 27.301M666.313 27.517l-3.094 3.088 3.094-3.088zM550.089 103.75l-13.942 13.918M666.313-12.288l-9.157 9.141 9.157-9.141zM525.684 88.309l-19.249 19.216M651.518-37.311l-9.844 9.828 9.844-9.828zM508.36 65.798l-18.809 18.777m-18.479-21.33L459.99 74.308m39.392-39.324l-16.087 16.045 16.087-16.045zm137.782 81.325l-20.968 20.932m50.117-50.03l-12.045 12.023 12.045-12.023zm-57.885 17.994l-50.46 50.36m108.345-108.16l-7.728 7.728 7.728-7.728zm-100.893 60.93l-15.138 15.112M666.313 7.614l-4.579 4.57 4.579-4.57zM536.945 96.956l-34.099 34.04M663.659-29.528l-13.323 13.3 13.323-13.3zM516.156 77.932l-13.158 13.122M631.595-37.311l-.302.288.302-.288zM502.599 51.66l-36.422 36.374m34.029-73.777l-19.441 19.409m33.645-53.49l-48.962 48.878m5.83-25.722l-19.882 19.86m60.608-60.503l-21.229 21.193 21.229-21.193zM460.581 4.06l-8.057 8.056m49.511-49.427l-15.124 15.099 15.124-15.099z" stroke="#F2F2F2" stroke-width="2.607" stroke-miterlimit="10"/><path d="M481.438 40.858c.083.645.165 1.304.275 1.95.055.383.11.768.179 1.152.069.384.124.769.193 1.14.11.658.233 1.303.357 1.948.028.11.041.22.069.344.027.164.055.343.096.521.33 1.62.701 3.212 1.1 4.804.151.577.303 1.153.468 1.73m0 0l-25.437 17.061 8.484 18.846 29.671-7.673m0-.001a97.716 97.716 0 004.18 5.93c.068.097.137.193.22.289.398.521.797 1.043 1.21 1.55.247.303.481.605.728.907.248.302.495.604.743.892.426.508.852 1.016 1.292 1.51l.22.26a101.572 101.572 0 004.991 5.285" stroke="#F2F2F2" stroke-width="6.98" stroke-miterlimit="10"/><path d="M510.477 99.303l-13.502 27.479 16.802 12.079 21.848-21.453m0 0a96.66 96.66 0 006.6 3.047c.096.041.206.096.316.137.605.247 1.223.494 1.842.741l1.073.412c.371.137.728.274 1.1.412.618.233 1.237.439 1.856.659.11.041.22.082.33.109a98.48 98.48 0 006.971 2.1m0 0l2.076 30.527 20.596 2.086 8.168-29.497" stroke="#F2F2F2" stroke-width="6.98" stroke-miterlimit="10"/><path d="M586.552 128.141a98.971 98.971 0 007.246-.645c.11-.014.22-.027.344-.055.523-.069 1.045-.123 1.581-.206.124-.014.248-.041.385-.055.385-.068.77-.123 1.155-.192a38.86 38.86 0 001.141-.192c.647-.11 1.293-.233 1.939-.357.096-.014.193-.027.275-.041.028-.014.055-.014.069-.028a94.526 94.526 0 007.081-1.66m0 0l17.09 25.406 18.878-8.482-7.686-29.621m0 0a45.958 45.958 0 001.499-.988 101.155 101.155 0 004.015-2.855c.137-.11.289-.219.426-.329.014-.014.041-.028.055-.041.069-.055.151-.11.22-.165.523-.412 1.045-.81 1.568-1.222.302-.233.591-.48.893-.727l.908-.741c.096-.083.192-.165.302-.247.399-.344.798-.687 1.196-1.044.097-.068.179-.137.262-.219a101.326 101.326 0 005.307-4.969M491.49-17.573a101.913 101.913 0 00-3.053 6.589 2.16 2.16 0 01-.137.315c-.248.618-.495 1.222-.743 1.84-.014.04-.027.068-.041.11-.014.04-.028.068-.041.11l-.33.864c-.138.357-.275.727-.413 1.084-.22.618-.44 1.25-.66 1.867-.041.11-.082.22-.11.33a96.214 96.214 0 00-2.09 6.945m0-.001l-30.578 2.073-2.09 20.562 29.534 8.167m-.001 0a98.27 98.27 0 00.647 7.22c.013.123.041.233.055.356M630.908-37.31a82.637 82.637 0 0124.281 29.73c.055.123.11.233.165.356.248.536.482 1.057.715 1.593.22.466.44.947.647 1.413.041.124.096.247.151.371a82.398 82.398 0 016.16 37.98 3.3 3.3 0 01-.028.37c-.041.577-.11 1.167-.165 1.743l-.165 1.565c-.014.124-.027.247-.055.37a82.554 82.554 0 01-13.681 35.99c-.068.096-.137.206-.22.316a71.3 71.3 0 01-.921 1.276c-.33.467-.66.933-1.017 1.4-.069.11-.151.206-.234.316a82.534 82.534 0 01-29.864 24.308c-.11.069-.233.124-.343.179-.495.22-.99.439-1.471.659-.523.233-1.032.466-1.554.686-.124.055-.234.11-.358.151a82.968 82.968 0 01-38.044 6.163 3.558 3.558 0 00-.385-.027l-1.623-.165a60.908 60.908 0 01-1.663-.179c-.138-.013-.261-.027-.399-.041a82.93 82.93 0 01-36.023-13.657 4.593 4.593 0 00-.33-.22c-.44-.315-.866-.631-1.306-.947-.454-.33-.922-.645-1.375-.988a2.76 2.76 0 00-.317-.233 82.7 82.7 0 01-24.35-29.813c-.055-.124-.124-.233-.179-.357-.219-.467-.426-.947-.646-1.427-.233-.522-.481-1.057-.701-1.579a4.12 4.12 0 01-.151-.37 82.463 82.463 0 01-6.174-37.953l.042-.425c.041-.522.096-1.043.151-1.565.055-.563.11-1.125.179-1.688l.041-.412a82.737 82.737 0 0113.68-35.948c.069-.11.152-.22.22-.33.33-.48.688-.947 1.018-1.413.302-.426.605-.838.921-1.263.083-.096.151-.206.234-.316a82.332 82.332 0 0115.674-15.62" stroke="#F2F2F2" stroke-width="6.98" stroke-miterlimit="10"/><path d="M643.062.106c-8.565-19.01-24.845-32.16-43.489-37.417m-36.862 0a67.453 67.453 0 00-9.377 3.404c-34.195 15.346-49.443 55.453-34.071 89.576m90.773-60.161c8.937-4.008 19.442-.028 23.457 8.894 4.015 8.922.027 19.409-8.91 23.417-8.937 4.021-19.441.04-23.456-8.881-4.015-8.936-.028-19.408 8.909-23.43z" stroke="#F2F2F2" stroke-width="6.98" stroke-miterlimit="10"/><path d="M557.638-24.354c8.937-4.007 19.441-.027 23.456 8.895 4.015 8.922.028 19.408-8.909 23.416-8.937 4.022-19.442.028-23.457-8.894-4.015-8.922-.027-19.409 8.91-23.416zm27.801 50.32a4.68 4.68 0 01-2.351 6.204 4.705 4.705 0 01-6.215-2.361 4.682 4.682 0 012.365-6.19 4.68 4.68 0 016.201 2.347v0zm4.702 21.851c8.937-4.008 19.442-.027 23.457 8.895 4.014 8.921.027 19.408-8.91 23.416-8.937 4.022-19.442.041-23.456-8.88-4.015-8.923-.028-19.41 8.909-23.43v0zm-52.399-19.861c8.937-4.008 19.428-.028 23.457 8.894 4.015 8.922.027 19.409-8.91 23.417-8.937 4.021-19.441.04-23.456-8.881-4.029-8.936-.042-19.408 8.909-23.43z" stroke="#F2F2F2" stroke-width="6.98" stroke-miterlimit="10"/><path d="M248.854 139.671l-1.512 1.51m23.03-23.005l-7.315 7.302 7.315-7.302zm-8.634-9.608l-27.155 27.095m45.235-45.158l-9.033 9.031 9.033-9.031zM226.704 125.3l-17.324 17.308m57.005-56.907l-8.924 8.908 8.924-8.908zm-56.881 38.542l-6.628 6.616m70.205-70.085l-16.692 16.664 16.692-16.663zm-26.11 71.649l-8.718 8.703m27.595-27.548l-8.909 8.908 8.909-8.908zm-44.561 26.244l-7.397 7.398m59.548-59.447l-22.631 22.593 22.631-22.593zm-30.95 30.883l-15.124 15.099 15.124-15.099zm-25.326 7.055l-8.373 8.36m67.124-67.01l-4.922 4.914 4.922-4.914zm-10.697 10.678l-7.37 7.358 7.37-7.357zm-62.202 43.869l-15.867 15.839m75.278-75.149l-8.676 8.661 8.676-8.661zm-64.993 55.768l-15.592 15.565m74.37-74.257l-6.022 6.026 6.022-6.026zm-63.536 54.327l-5.994 5.971m67.88-67.765l-8.744 8.73 8.744-8.73zm-65.873 56.633l-6.091 6.095m73.683-73.571L240.66 56.67l15.619-15.606zm-70.713 61.492l-13.337 13.3m68.802-68.684l-6.38 6.383 6.38-6.383zm-57.569 48.356l-17.2 17.171m68.293-68.176l-6.93 6.918 6.93-6.918zm-51.78 42.591l-7.989 7.961m56.868-56.77l-12.471 12.45 12.471-12.45zM184.865 75.9l-13.942 13.918m60.126-60.023l-23.085 23.046 23.085-23.046zM174.924 76.71l-11.151 11.132m58.985-58.884l-1.581 1.578 1.581-1.578zm-14.753 14.714L176.093 75.53l31.912-31.858zm39.901 92.375l-7.81 7.81m28.021-27.973l-8.126 8.098 8.126-8.098zm-48.576 30.252l-1.499 1.496m58.971-58.87l-11.137 11.104 11.137-11.105zm-12.388 12.366l-31.871 31.817 31.871-31.817zm-43.008 24.693l-12.526 12.518m56.867-56.784l-7.988 7.975 7.988-7.975zm-59.823 41.494l-6.393 6.382m68.843-68.725l-13.392 13.369 13.392-13.37zm-73.628 55.274l-8.827 8.798m67.963-67.847l-5.995 5.984 5.995-5.984zm-67.083 48.727l-8.607 8.606m75.222-75.108l-15.853 15.84 15.853-15.84zm-83.692 65.335l-5.087 5.065m67.097-66.982l-8.319 8.304 8.319-8.304zm-49.044 48.96l-7.37 7.357 7.37-7.357zm63.137 37.28l-9.611 9.58m42.885-42.81l-3.63 3.623 3.63-3.624zm-15.73 15.702l-9.707 9.69 9.707-9.69zm-30.716 12.435l-23.113 23.073m60.112-60.01l-14.01 13.988 14.01-13.987zm-56.702 38.365l-6.943 6.931m68.279-68.163l-17.214 17.185 17.214-17.185zm-74.384 56.03l-15.62 15.592m73.683-73.557l-6.104 6.095 6.104-6.095zm-67.591 49.235l-6.036 6.026m74.384-74.257L243.341 58.55l15.592-15.565zM184.37 99.193l-16.692 16.65m70.218-70.098l-6.613 6.616 6.613-6.616zM183.27 82.05l-8.91 8.894m57.005-56.908L214.11 51.262l17.255-17.226zM189.787 66.43l-22.439 22.4m59.549-59.46l-7.466 7.466 7.466-7.466zm-13.461 13.437l-14.973 14.961 14.973-14.96zm-43.42 34.233l-9.103 9.1m45.263-45.186l-27.223 27.164 27.223-27.164zm-41.055 36.415l-3.699 3.692m42.912-42.838l-9.611 9.594 9.611-9.594zm-17.42 17.404l-9.735 9.704 9.735-9.704zm-3.066-1.51l-8.924 8.922m27.581-27.548l-8.717 8.716 8.717-8.716zm-21.724 17.13l-8.126 8.112m28.021-27.96l-7.837 7.81 7.837-7.81zm-22.961 18.352l-7.328 7.316M193.5 35.354l-1.595 1.606 1.595-1.606z" stroke="#F2F2F2" stroke-width="1.765" stroke-miterlimit="10"/><path d="M174.677 94.225l.123.905.083.522c.027.178.055.357.082.522.055.302.11.603.165.892l.042.165c.013.068.027.15.041.233.151.741.316 1.469.509 2.196.068.275.137.535.206.796m0 0l-11.659 7.824 3.891 8.633 13.598-3.514m0 0c.605.92 1.237 1.826 1.911 2.718a.741.741 0 01.096.124c.193.247.371.48.564.713l.33.412c.124.138.234.275.344.412.192.233.398.467.591.7.027.028.069.069.096.11a47.91 47.91 0 002.296 2.429m0 0l-6.187 12.587 7.7 5.531 10.009-9.827m0 0c.976.494 1.994.974 3.025 1.4.041.014.096.041.138.055.288.123.563.233.838.343.165.069.344.123.509.192.165.069.33.124.495.192.289.096.564.206.852.302.055.014.097.028.152.041 1.058.371 2.117.687 3.189.961m0 0l.949 13.987 9.446.961 3.74-13.507m0 0a52.052 52.052 0 003.313-.302c.055-.013.11-.013.165-.027.234-.028.482-.055.729-.096.055 0 .11-.014.165-.028l.536-.082c.165-.027.344-.055.523-.082l.893-.165c.042-.014.083-.014.124-.028h.028a50.35 50.35 0 003.244-.768m.001 0l7.823 11.639 8.662-3.884-3.534-13.575m0 0l.702-.453a55.392 55.392 0 001.828-1.304c.069-.055.138-.11.207-.151 0-.013.013-.013.013-.027.042-.014.069-.041.11-.069.234-.192.482-.37.715-.563l.413-.329c.137-.11.275-.233.412-.343.042-.041.097-.069.138-.11.179-.165.371-.316.55-.48.041-.028.082-.069.123-.096a48.21 48.21 0 002.42-2.279m.001 0l12.608 6.163 5.554-7.673-9.844-10.006m0 0c.495-.975.962-1.99 1.389-3.006.027-.055.041-.11.068-.151.11-.288.234-.563.344-.837.055-.165.124-.343.193-.508.055-.165.123-.33.178-.494.11-.288.207-.563.303-.851a.707.707 0 00.055-.151c.357-1.057.673-2.114.962-3.185m0 0l14.011-.947.948-9.43-13.529-3.733m0 0a38.484 38.484 0 00-.302-3.308c0-.055-.014-.11-.014-.164-.042-.302-.083-.59-.124-.893l-.082-.535c-.042-.165-.069-.343-.097-.522-.055-.288-.11-.59-.165-.892-.013-.04-.013-.096-.027-.15a42.917 42.917 0 00-.77-3.24m0 0l11.659-7.81-3.891-8.647-13.584 3.527m0 0a42.013 42.013 0 00-1.925-2.718.508.508 0 00-.096-.137c-.179-.233-.372-.467-.55-.714-.11-.137-.234-.274-.344-.411l-.33-.412a25.934 25.934 0 01-.591-.686c-.042-.042-.069-.083-.11-.124a42.268 42.268 0 00-2.283-2.416m0 0l6.188-12.586-7.7-5.546-10.01 9.842" stroke="#F2F2F2" stroke-width="3.49" stroke-miterlimit="10" stroke-linecap="round" stroke-linejoin="round"/><path d="M241.238 47.282a40.274 40.274 0 00-3.025-1.4c-.042-.028-.097-.041-.138-.069-.288-.11-.564-.22-.852-.343-.165-.055-.33-.123-.495-.178a7.216 7.216 0 00-.495-.193c-.289-.11-.578-.205-.853-.301-.055-.014-.11-.042-.165-.055a52.729 52.729 0 00-3.176-.961m0 0l-.962-13.987-9.432-.947-3.754 13.506m0 0c-1.1.055-2.2.165-3.313.302-.055 0-.097.014-.152.014-.247.041-.481.069-.728.096a.687.687 0 01-.179.027c-.179.028-.344.069-.523.096-.178.028-.357.055-.522.083l-.894.164c-.041 0-.082.014-.124.028h-.041a42.76 42.76 0 00-3.231.769m0 0l-7.837-11.64-8.648 3.885 3.52 13.56m-.001.001a51.687 51.687 0 00-2.722 1.921c-.014 0-.014.014-.027.014a.596.596 0 01-.097.083c-.233.178-.481.37-.715.562-.137.096-.275.22-.412.33a9.12 9.12 0 00-.413.343.532.532 0 00-.137.11c-.193.15-.371.315-.55.466-.041.041-.083.069-.124.11a47.328 47.328 0 00-2.433 2.279m0-.001l-12.609-6.176-5.541 7.686 9.845 9.993m0 0a55.01 55.01 0 00-1.403 3.02c-.013.055-.041.096-.055.15-.123.275-.233.55-.343.838-.014.014-.014.027-.028.055 0 .013 0 .027-.013.041-.055.137-.097.26-.152.398a7.18 7.18 0 01-.192.494c-.096.288-.193.577-.303.865a3.09 3.09 0 00-.041.15 36.973 36.973 0 00-.962 3.185m-.001 0l-14.01.947-.963 9.416 13.544 3.747m0 0c.055 1.099.151 2.197.288 3.308.014.055.014.11.028.151m29.575-39.874c.247-.109.481-.219.715-.315.22-.11.44-.206.66-.302.069-.027.124-.041.179-.069a38.04 38.04 0 0117.42-2.827c.069.014.124.014.193.014l.783.082c.234.028.481.041.715.069a.81.81 0 00.179.027 38.024 38.024 0 0116.513 6.26c.041.027.096.068.151.095.206.151.426.316.633.467.192.137.398.274.591.425.041.028.096.069.151.11a37.892 37.892 0 0111.151 13.657l.082.165c.11.234.22.48.33.728.097.205.193.425.289.645.028.055.041.11.069.165a37.922 37.922 0 012.832 17.404c-.014.055-.014.11-.014.178l-.082.783c-.028.247-.041.48-.069.727-.014.055-.014.11-.027.165a37.939 37.939 0 01-6.27 16.498c-.028.042-.069.097-.096.138-.138.206-.289.398-.427.59-.151.22-.302.425-.467.645a.943.943 0 01-.11.137 37.828 37.828 0 01-13.681 11.146c-.055.027-.11.055-.165.068-.22.11-.44.206-.673.316-.234.096-.468.206-.702.316-.055.013-.11.041-.165.068a38.083 38.083 0 01-17.434 2.814c-.055 0-.124 0-.179-.014-.247-.013-.494-.041-.742-.068l-.77-.083c-.055 0-.11-.013-.179-.027a37.884 37.884 0 01-16.499-6.245c-.055-.041-.11-.069-.151-.11-.206-.137-.399-.288-.605-.426l-.619-.453c-.055-.041-.096-.082-.151-.109a37.905 37.905 0 01-11.165-13.658c-.027-.055-.055-.109-.068-.164-.11-.22-.207-.44-.303-.659-.11-.234-.22-.481-.33-.728a.82.82 0 00-.069-.164 37.858 37.858 0 01-2.818-17.391c0-.069.014-.124.014-.192.013-.247.041-.48.068-.714l.083-.782c.014-.055.014-.124.027-.192a37.758 37.758 0 016.256-16.458c.042-.055.069-.11.11-.165.152-.206.303-.425.468-.645l.412-.576a.886.886 0 00.11-.137 37.944 37.944 0 0113.681-11.146l.165-.082v0z" stroke="#F2F2F2" stroke-width="3.49" stroke-miterlimit="10" stroke-linecap="round" stroke-linejoin="round"/><path d="M666.313 373.395l-18.425 18.379m18.425-38.281l-18.425 18.393m18.425-38.296l-18.425 18.393m18.425-38.281l-18.425 18.379m18.425-38.282l-18.425 18.393m18.425-38.296l-18.425 18.393m18.425-38.281l-18.425 18.379m18.425-38.282l-18.425 18.393m5.638-25.517l-5.637 5.614m18.424 110.947l-18.425 18.392m18.425-58.184l-18.425 18.393m18.425-58.198l-18.425 18.393m18.425 81.106l-18.425 18.393m18.425-58.198l-18.425 18.393m18.425-58.184l-18.425 18.392m18.425-58.184l-18.425 18.393m15.592-35.468l-15.592 15.566m18.425 221.536h-18.425V226.981h18.425" stroke="#F2F2F2" stroke-width="2.607" stroke-miterlimit="10"/><path d="M422.371 70.945c-.041.248-.068.48-.096.714-.014.11-.027.233-.041.357l-.041.7v.713c0 .893.096 1.771.275 2.65l-4.359 4.008 3.204 5.669 5.678-1.661.619.535c.192.151.385.288.564.44.096.068.192.137.302.205.193.137.385.261.591.385.014.013.042.027.055.04.014.014.028.014.042.028.082.041.165.096.233.137.083.042.152.097.234.138.014 0 .028.013.055.027.014.014.041.014.055.028.316.178.633.343.949.48.467.22.935.412 1.43.577l1.292 5.764 6.517.069 1.403-5.751c.481-.151.962-.33 1.43-.535.33-.138.646-.303.962-.467.028-.014.041-.028.069-.028.014-.013.027-.027.041-.027a2.03 2.03 0 00.234-.137c.014 0 .027-.014.041-.014.069-.041.124-.082.193-.124.013 0 .027-.013.041-.013.124-.083.247-.151.371-.234.096-.054.193-.123.303-.192a16.671 16.671 0 001.498-1.139l5.638 1.77 3.327-5.613-4.29-4.077c.083-.37.151-.755.206-1.125l.042-.398c.027-.22.055-.453.068-.687v-.027c0-.137.014-.275.014-.412v-.329a.815.815 0 000-.261v-.055c0-.879-.096-1.77-.275-2.65l4.359-3.993-3.204-5.683-5.678 1.66a14.939 14.939 0 00-1.472-1.166c-.206-.137-.398-.274-.605-.398-.013-.014-.041-.027-.055-.041-.013 0-.027-.014-.041-.027-.082-.042-.165-.083-.234-.138a2.05 2.05 0 01-.233-.137c-.014 0-.028-.014-.042-.014-.027-.014-.041-.027-.068-.04-.303-.166-.633-.33-.949-.481a12.92 12.92 0 00-1.43-.577l-1.279-5.765-6.531-.055-1.402 5.738c-.481.15-.962.33-1.43.535-.33.151-.646.302-.962.467-.014.014-.042.027-.069.041-.014 0-.028.014-.041.014-.069.055-.152.096-.234.137-.014.014-.028.014-.041.014a2.292 2.292 0 01-.193.123c-.014 0-.027.014-.041.028-.77.453-1.485.974-2.173 1.564l-5.637-1.77-3.327 5.6 4.29 4.09c-.055.261-.11.536-.152.796zm10.161-5.723c.014 0 .014-.014.028-.014a9.147 9.147 0 014.152-1.07h.454a9.266 9.266 0 014.138 1.152c.014 0 .028.014.042.014.055.041.11.069.165.096a.56.56 0 00.151.096l.027.028a9.113 9.113 0 013.011 3.047c0 .014.014.027.014.041.041.055.069.11.096.165.028.055.055.11.083.15.014.014.027.028.027.042a9.292 9.292 0 011.073 4.145v.412c0 .014 0 .027-.014.041a9.085 9.085 0 01-1.141 4.132c-.014 0-.014.013-.028.027-.027.055-.055.11-.096.165a1.35 1.35 0 01-.082.15c-.014.014-.014.028-.028.042a9.128 9.128 0 01-3.066 2.992l-.027.028c-.055.027-.11.054-.152.082a.751.751 0 01-.178.096l-.028.027a9.139 9.139 0 01-4.152 1.057h-.454a9.097 9.097 0 01-4.139-1.153c-.013 0-.027-.013-.041-.013-.041-.028-.096-.069-.151-.096a1.027 1.027 0 01-.165-.096c-.014 0-.014-.014-.028-.014a9.443 9.443 0 01-3.011-3.061c0-.014-.013-.028-.013-.041-.028-.041-.069-.096-.097-.151l-.082-.165c-.014-.014-.014-.028-.028-.041a9.245 9.245 0 01-1.072-4.145v-.22c0-.055 0-.123.014-.192v-.041a9.03 9.03 0 011.141-4.118c.014-.014.014-.028.027-.041.028-.055.055-.096.083-.151.041-.055.069-.11.096-.165.014-.014.028-.027.028-.041a9.128 9.128 0 013.066-2.992c0-.014.013-.014.027-.028.055-.027.124-.055.179-.096a1.47 1.47 0 01.151-.082zm174.301 258.65c-.028.234-.069.467-.096.7-.014.124-.014.234-.028.357a6.16 6.16 0 00-.041.714v.124c-.014.082-.014.178-.014.26v.33c.014.878.11 1.77.275 2.649L602.571 333l3.203 5.669 5.692-1.661c.193.192.399.371.619.535.179.151.371.302.564.44l.289.206c.192.137.398.26.591.398.027 0 .041.013.069.027.013.014.027.027.041.027.069.055.151.097.234.138.068.055.151.096.233.137.014.014.028.014.042.027.027.014.041.028.068.042.303.164.619.329.949.48.454.206.935.398 1.416.563l1.293 5.778 6.517.055 1.402-5.737a16.61 16.61 0 001.444-.549c.316-.137.646-.288.962-.467a.105.105 0 00.055-.027c.014-.014.028-.014.042-.028l.247-.123c0-.014.014-.014.028-.028.068-.027.137-.068.206-.11.014-.013.027-.013.041-.027.124-.069.248-.151.358-.22.11-.068.206-.137.302-.192a17.24 17.24 0 001.499-1.153l5.651 1.771 3.313-5.614-4.276-4.077c.083-.37.152-.741.193-1.111.027-.138.041-.275.055-.398.027-.234.041-.467.055-.687v-.041c.014-.137.014-.274.027-.412v-.645a14.359 14.359 0 00-.275-2.649l4.359-3.994-3.204-5.669-5.692 1.661a13.46 13.46 0 00-1.471-1.181 9.21 9.21 0 00-.591-.384.174.174 0 01-.055-.041c-.028-.014-.042-.027-.055-.027a1.321 1.321 0 00-.234-.138 1.283 1.283 0 00-.234-.137c-.014-.014-.027-.014-.041-.027-.014-.014-.041-.028-.055-.042-.316-.164-.633-.329-.963-.48a15.986 15.986 0 00-1.416-.563l-1.292-5.765-6.517-.068-1.403 5.737c-.495.165-.976.343-1.443.549a8.424 8.424 0 00-.949.467c-.028 0-.041.014-.069.027-.014.014-.027.014-.041.028l-.248.123c0 .014-.013.014-.027.028-.069.041-.138.068-.193.11-.027.013-.041.013-.055.027-.756.453-1.485.975-2.158 1.565l-5.651-1.771-3.314 5.614 4.276 4.077c-.055.274-.11.535-.151.809zm10.161-5.723c.013-.014.027-.014.041-.028a9.333 9.333 0 014.152-1.07h.413c.013.013.027.013.041.013a9.08 9.08 0 014.125 1.14c.014.013.027.013.041.027.055.028.11.055.165.096.055.028.11.055.151.083.014.013.028.013.042.027a9.14 9.14 0 012.997 3.061l.027.027c.028.055.055.11.097.165l.082.165c.014.013.014.027.028.027a9.278 9.278 0 011.058 4.145v.467a9.212 9.212 0 01-1.155 4.118c0 .014-.013.027-.013.041-.028.055-.069.11-.097.165-.027.041-.068.096-.096.151 0 .013-.014.013-.014.027a9.283 9.283 0 01-3.066 3.006c-.013 0-.027.014-.041.014-.041.027-.096.069-.151.096-.055.027-.11.055-.165.096-.014 0-.028 0-.041.014a9.333 9.333 0 01-4.153 1.07h-.412c-.014 0-.028-.013-.041-.013a9.08 9.08 0 01-4.125-1.14c-.014-.013-.028-.013-.042-.027a1.47 1.47 0 01-.151-.082.939.939 0 00-.165-.096c-.014-.014-.027-.014-.041-.028a9.12 9.12 0 01-2.997-3.061c-.014 0-.014-.014-.028-.027l-.082-.165c-.028-.055-.069-.11-.097-.165 0-.013-.013-.013-.013-.027a9.113 9.113 0 01-1.073-4.145v-.453a9.232 9.232 0 011.155-4.132c0-.014.014-.027.014-.041.027-.041.069-.096.096-.137a.764.764 0 01.096-.179c0-.013.014-.013.028-.027a9.26 9.26 0 013.052-3.006c.014 0 .028-.014.041-.014.055-.041.11-.068.165-.096.055-.027.097-.055.152-.082z" fill="#F2F2F2"/><path d="M489.661-37.31c-5.555 53.338-50.722 94.914-105.623 94.914S283.97 16.028 278.415-37.311" stroke="#F2F2F2" stroke-width="1.765" stroke-miterlimit="10"/><path d="M666.313 259.608c-15.468 26.793-44.452 44.815-77.657 44.815-49.484 0-89.591-40.039-89.591-89.438m0 0c0-49.4 40.107-89.438 89.591-89.438 33.205 0 62.189 18.036 77.657 44.829l-167.248 44.609zM590.416-37.31c-5.775 108.79-95.957 195.223-206.378 195.223-110.421 0-200.603-86.432-206.378-195.224" stroke="#F2F2F2" stroke-width=".882" stroke-miterlimit="10"/><path d="M666.313 206.832c-4.098-39.174-37.357-69.796-77.657-69.796-43.063 0-78.096 34.959-78.096 77.949 0 42.989 35.033 77.963 78.096 77.963 40.3 0 73.559-30.636 77.657-69.796" stroke="#F2F2F2" stroke-width="6.98" stroke-miterlimit="10"/><path d="M237.236-37.31V66.703H114.262V-37.31" stroke="#F2F2F2" stroke-width="2.607" stroke-miterlimit="10"/><path d="M666.313 178.872H408.581V-37.311" stroke="#F2F2F2" stroke-width="1.765" stroke-miterlimit="10"/><path d="M666.313 383.251H479.032V-37.311" stroke="#F2F2F2" stroke-width="1.765" stroke-miterlimit="10"/><path d="M239.904 46.733v-84.044h-2.668v84.044h2.668z" fill="#F2F2F2"/></g><defs><clipPath id="clip0"><path fill="#fff" d="M0 0h648v382H0z"/></clipPath></defs></svg>