<svg width="23" height="17" fill="none" xmlns="http://www.w3.org/2000/svg"><path d="M22.788 6.657c0-.479-.08-1.038-.08-1.677-.08-.638-.16-1.277-.24-1.836-.16-.64-.399-1.118-.878-1.518-.4-.399-.959-.638-1.517-.718-1.837-.24-4.552-.32-8.226-.32-3.673 0-6.468.08-8.225.32-.56.08-1.118.32-1.517.718-.4.4-.72.879-.879 1.518a6.402 6.402 0 00-.24 1.836c-.08.64-.08 1.198-.08 1.677v3.674c0 .479.08 1.038.08 1.677.08.639.16 1.278.24 1.837.16.638.4 1.118.879 1.517.399.4.958.639 1.517.719 1.837.24 4.552.319 8.225.319 3.674 0 6.469-.08 8.226-.32.558-.08 1.117-.319 1.517-.718.4-.4.719-.879.878-1.517.16-.56.24-1.118.24-1.837.08-.639.08-1.198.08-1.677V6.657zM16.08 9.133l-6.31 3.913a.61.61 0 01-.4.16c-.16 0-.239 0-.399-.08a.839.839 0 01-.399-.719V4.501c0-.32.16-.559.4-.718a.723.723 0 01.798 0l6.309 3.913c.24.16.399.399.399.638 0 .24-.16.64-.4.799z" fill="#fff"/></svg>