<svg width="20" height="19" fill="none" xmlns="http://www.w3.org/2000/svg"><path d="M16.657.353H3.401C1.905.353.765 1.493.765 2.99v13.255c0 1.497 1.14 2.637 2.636 2.637h13.256c1.497 0 2.637-1.14 2.637-2.637V2.99c0-1.497-1.14-2.637-2.637-2.637zM10.03 15.177c3.065 0 5.56-2.424 5.56-5.346 0-.498-.072-1.069-.215-1.496h1.568v7.554a.714.714 0 01-.712.713H3.83a.714.714 0 01-.714-.713V8.264h1.64a5.425 5.425 0 00-.214 1.496c-.072 2.993 2.423 5.417 5.487 5.417zm0-2.138c-1.995 0-3.563-1.568-3.563-3.493 0-1.924 1.568-3.492 3.563-3.492 1.996 0 3.564 1.568 3.564 3.492 0 1.996-1.568 3.493-3.564 3.493zm6.842-7.626a.79.79 0 01-.784.784h-1.995a.79.79 0 01-.784-.784V3.489a.79.79 0 01.784-.784h1.995a.79.79 0 01.784.784v1.924z" fill="#fff"/></svg>