<svg width="27" height="16" fill="none" xmlns="http://www.w3.org/2000/svg"><path d="M25.949 14.023c0-.102-.103-.102-.103-.205-.41-.82-1.333-1.846-2.564-2.974-.615-.513-.923-.923-1.128-1.128-.308-.41-.308-.718-.205-1.128.102-.308.513-.82 1.23-1.744.41-.513.616-.82.924-1.128 1.538-2.051 2.256-3.384 2.05-4l-.102-.102c-.102-.103-.205-.205-.41-.205-.205-.103-.513-.103-.82 0h-4.617l-.102.102C20 1.614 20 1.614 20 1.716c-.41 1.129-.923 2.052-1.436 3.077-.307.513-.615 1.026-.922 1.436-.308.41-.513.718-.718.923-.206.205-.41.308-.513.513-.103.102-.308.205-.308.102-.102 0-.205 0-.205-.102l-.308-.308c-.102-.103-.102-.308-.205-.513V1.716c0-.102-.102-.307-.102-.41a910.83 910.83 0 01-.308-.308c-.103-.102-.308-.102-.41-.205a9.197 9.197 0 00-1.846-.205c-1.641 0-2.77.103-3.18.308-.205.102-.41.205-.512.41-.205.205-.205.308-.103.308.513.102.923.307 1.128.615l.103.205c.102.103.102.308.205.616.102.307.102.615.102 1.025v1.641c0 .513-.102.82-.102 1.128 0 .308-.103.513-.205.616-.103.205-.103.307-.205.307 0 0 0 .103-.103.103-.102 0-.205.102-.41.102-.103 0-.308-.102-.41-.205a1.236 1.236 0 01-.513-.512c-.205-.206-.41-.513-.616-.924-.205-.41-.512-.82-.717-1.435l-.206-.41a14.505 14.505 0 01-.512-1.129c-.205-.512-.41-.923-.616-1.435a1.416 1.416 0 00-.307-.41h-.103s-.102-.103-.205-.103-.205-.103-.308-.103H1.232c-.41 0-.615.103-.718.205l-.102.103v.205c0 .103 0 .205.102.41.513 1.23 1.128 2.462 1.744 3.692.615 1.128 1.23 2.154 1.64 2.872.514.718.924 1.436 1.437 2.051.512.615.82 1.026.923 1.23l.41.41.307.309c.206.205.513.512.923.82.41.308.924.615 1.436.923.513.308 1.128.513 1.744.718.718.205 1.333.308 1.948.205h1.539c.307 0 .513-.102.718-.307l.102-.103c0-.103.103-.103.103-.205v-.41c0-.41 0-.718.102-1.026.103-.308.103-.513.205-.718.103-.205.206-.308.308-.41l.205-.205h.103c.205-.103.513 0 .718.205.307.205.615.513.82.82.205.308.513.616.923 1.026.41.41.718.718.923.82l.308.206c.205.102.41.205.718.307.307.103.512.103.718.103l3.487-.103c.307 0 .615-.102.82-.205.205-.102.308-.205.308-.41v-.41c-.205-.206-.205-.308-.205-.41z" fill="#fff"/></svg>